<svg width="65" height="80" viewBox="0 0 65 80" fill="none" xmlns="http://www.w3.org/2000/svg">
<g clip-path="url(#clip0_165_783)">
<path d="M18.7006 1.3756C17.4776 3.82146 -0.152921 51.9743 0.101856 52.2291C0.254722 52.382 1.73243 51.9234 3.363 51.261C7.54135 49.5285 13.8598 47.9998 18.242 47.5922L21.8598 47.2355L25.7324 35.21C30.3184 20.8915 30.4713 20.5348 31.3375 20.1782C32.8662 19.6176 33.8343 21.6559 37.8598 34.1399L42.0891 47.1336L45.9108 47.4903C51.2611 48.0508 56.2547 49.2227 60.3312 50.9552C62.2675 51.7705 63.949 52.382 64.0509 52.331C64.3566 51.9743 45.7069 1.78325 44.9426 0.866047C44.2292 0.101719 42.9554 -0.00019455 31.7961 -0.00019455H19.414L18.7006 1.3756Z" fill="#212B36"/>
<path d="M15.9491 51.2612C15.3885 52.7898 15.5414 59.1592 16.2038 61.4522C16.8663 63.6943 18.7516 66.8026 19.6178 67.1083C19.9236 67.2102 20.4331 66.5987 20.7389 65.7325C21.6561 63.2866 24.9682 62.4204 27.0064 64.1019C27.9745 64.8663 28.2293 65.7835 28.535 69.4522C28.9936 74.242 29.9618 76.3822 32.6624 78.7261C34.9554 80.6624 35.6688 80.4586 35.0064 78.0127C34.5987 76.535 34.6497 75.465 35.1083 73.9363C35.7198 71.8471 35.9236 71.5924 42.293 66.9045C44.637 65.121 45.9618 63.6943 46.9809 61.707C49.3758 57.172 48.7643 50.8026 46.1656 52.9427C44.7389 54.1147 39.3376 55.5924 35.414 55.8981C28.1784 56.4077 20.8917 54.6242 17.7325 51.6178C16.4077 50.344 16.3057 50.344 15.9491 51.2612Z" fill="#212B36"/>
</g>
<defs>
<clipPath id="clip0_165_783">
<rect width="64.2038" height="80" fill="white"/>
</clipPath>
</defs>
</svg>
