<svg width="24" height="24" viewBox="0 0 24 24" fill="none" xmlns="http://www.w3.org/2000/svg">
<g clip-path="url(#clip0_214_433)">
<path d="M13.1951 0.0326157C16.3404 0.370117 19.1904 1.8748 21.1967 4.26543C22.6076 5.94355 23.4842 7.84668 23.8732 10.0779C23.9623 10.5889 23.9717 10.8373 23.9717 11.9998C23.9717 13.1623 23.9623 13.4107 23.8732 13.9217C23.4326 16.4529 22.3732 18.5482 20.6248 20.3623C18.8295 22.2279 16.5654 23.4092 13.9217 23.8732C13.4107 23.9623 13.1623 23.9717 11.9998 23.9717C10.5326 23.9717 10.092 23.9248 8.93887 23.6295C4.80449 22.5607 1.43887 19.1951 0.370119 15.0607C0.0748062 13.9076 0.0279312 13.467 0.0279312 11.9998C0.0279312 10.5326 0.0748062 10.092 0.370119 8.93887C1.43887 4.80918 4.80449 1.43887 8.93887 0.370117C10.0029 0.0982418 10.5045 0.0373039 11.8123 0.023241C12.4686 0.0138664 13.092 0.0185547 13.1951 0.0326157ZM13.6029 6.11699C13.3826 6.21074 8.34824 11.2217 8.16543 11.5311C7.99199 11.8217 7.99199 12.1779 8.16543 12.4686C8.34824 12.7779 13.3826 17.7889 13.6029 17.8826C13.9451 18.0232 14.4045 17.9436 14.667 17.7045C14.9295 17.4607 15.0279 16.9592 14.8779 16.6029C14.8311 16.4857 14.1045 15.7264 12.5951 14.2123L10.3826 11.9998L12.5951 9.78262C14.1045 8.27324 14.8311 7.51387 14.8779 7.39668C15.0232 7.05449 14.9436 6.59512 14.7045 6.33262C14.4607 6.07012 13.9592 5.97168 13.6029 6.11699Z" fill="#02BDD5"/>
</g>
<defs>
<clipPath id="clip0_214_433">
<rect width="24" height="24" fill="white" transform="matrix(-1 0 0 1 24 0)"/>
</clipPath>
</defs>
</svg>
