<svg width="300" height="245" viewBox="0 0 300 245" fill="none" xmlns="http://www.w3.org/2000/svg">
<path d="M0 0H180C246.274 0 300 53.7258 300 120V125C300 191.274 246.274 245 180 245H0V0Z" fill="#FEAD56"/>
<g clip-path="url(#clip0_1031_641)">
<path d="M134.141 64.3477V75.6953H142.07H150L150.055 82.6406L150.137 89.5859L158.422 82.6406L166.707 75.6953H177.645H188.555V64.3477V53H161.348H134.141V64.3477ZM183.633 64.3477V71.0469H174.172H164.711L159.734 75.1758L154.785 79.332L154.703 75.1758L154.621 71.0469H146.719H138.789V64.3477V57.6484H161.211H183.633V64.3477Z" fill="white"/>
<path d="M143.164 64.3477V66.6719H145.488H147.812V64.3477V62.0234H145.488H143.164V64.3477Z" fill="white"/>
<path d="M152.188 64.3477V66.6719H161.348H170.508V64.3477V62.0234H161.348H152.188V64.3477Z" fill="white"/>
<path d="M174.609 64.3477V66.6719H177.07H179.531V64.3477V62.0234H177.07H174.609V64.3477Z" fill="white"/>
<path d="M127.715 86.9062C122.355 87.7539 118.09 91.5 116.531 96.7227C116.203 97.8438 116.094 99.3477 116.094 102.602C116.094 108.535 116.559 110.23 119.184 113.676C120.469 115.371 120.496 115.426 120.414 117.203L120.332 118.98L115.41 120.402C112.703 121.168 109.996 122.07 109.367 122.371C107.891 123.137 106.359 124.914 105.484 126.801C104.828 128.25 104.773 128.66 104.664 133.445L104.555 138.586H100.07H95.5859V145.559V152.531H97.9102H100.234V170.441V188.352H90.1172H80V190.676V193H150H220V190.676V188.352H207.586H195.172L195.008 187.312C194.926 186.766 194.543 183.156 194.16 179.328C193.805 175.5 193.422 171.918 193.34 171.371L193.203 170.387L194.926 169.922C200.012 168.5 204.195 164.398 205.945 159.094C206.41 157.727 206.465 156.141 206.547 141.375L206.629 125.188H202.145H197.66L197.523 122.508C197.359 119.309 196.648 117.668 194.68 115.945L193.422 114.824L194.434 113.648C195.719 112.117 196.922 109.602 197.277 107.578C197.441 106.676 197.578 104.406 197.578 102.52C197.578 97.0508 196.484 93.8242 193.668 90.9531C190.934 88.1914 187.707 86.8242 183.906 86.8242C177.809 86.8242 172.723 90.543 170.863 96.3945C170.316 98.1445 170.234 98.9648 170.234 102.52C170.234 107.168 170.59 109.055 171.93 111.598C172.941 113.484 175.621 116.082 177.562 117.039L178.93 117.723L172.996 123.656L167.09 129.562H160.883H154.648L154.512 128.797C153.965 126.281 152.543 124.121 150.547 122.754C149.809 122.262 147.977 121.551 145.898 120.949C144.012 120.402 141.66 119.719 140.648 119.418L138.789 118.871V117.094C138.789 115.371 138.844 115.234 139.883 114.031C141.469 112.227 142.836 109.301 143.191 106.867C143.656 103.887 143.355 98.1172 142.672 96.1484C141.113 91.8008 137.695 88.4922 133.566 87.3438C131.598 86.8242 129.383 86.6328 127.715 86.9062ZM133.348 92.4297C135.234 93.3047 136.766 94.8359 137.668 96.75C138.352 98.1719 138.379 98.4727 138.379 102.766C138.379 107.031 138.352 107.359 137.695 108.617C136.109 111.762 133.457 113.484 129.984 113.648C128.18 113.758 127.688 113.676 126.293 113.047C124.516 112.227 122.602 110.504 121.836 109.055C121.016 107.469 120.66 104.926 120.797 101.617C120.934 98.2266 121.508 96.4492 123.066 94.6172C125.527 91.7188 129.82 90.7891 133.348 92.4297ZM187.516 92.4297C189.32 93.2773 190.879 94.7812 191.836 96.6406C192.465 97.8711 192.52 98.3359 192.602 102.219C192.711 107.469 192.301 108.891 190.086 111.133C188.145 113.047 186.148 113.812 183.359 113.648C179.859 113.43 177.316 111.652 175.785 108.371C175.074 106.812 175.02 106.512 175.02 102.902C175.02 98.6094 175.266 97.4336 176.605 95.4648C177.59 94.043 179.859 92.3477 181.418 91.8828C183.086 91.3906 185.766 91.6367 187.516 92.4297ZM133.73 120.43C132.91 121.688 131.16 122.727 129.848 122.727C127.441 122.727 125.391 121.059 125.391 119.09C125.391 118.023 125.391 118.023 126.293 118.188C128.152 118.598 130.777 118.625 132.363 118.297L134.004 117.941L134.086 118.844C134.141 119.363 133.977 120.047 133.73 120.43ZM186.75 118.898C187.652 119.227 188.336 120.594 188.117 121.551C188.008 122.07 185.164 125.078 179.859 130.438L171.766 138.586H159.352H146.965L146.309 137.902C145.926 137.547 145.625 136.918 145.625 136.535C145.625 136.152 145.926 135.523 146.309 135.168L146.965 134.484H157.984H169.004L176.387 127.074C180.461 123 184.152 119.418 184.59 119.145C185.52 118.543 185.793 118.516 186.75 118.898ZM123.066 124.805C125.117 126.773 126.949 127.512 129.766 127.512C132.527 127.484 133.949 126.938 136.164 124.887L137.586 123.574L142.59 125.023C147.867 126.555 148.824 127.102 149.426 128.77C149.699 129.562 149.699 129.562 148.633 129.562C145.707 129.562 143.246 130.766 141.961 132.816C141.168 134.047 140.758 136.125 141.004 137.547L141.168 138.586H125.336H109.531V133.992C109.531 127.211 109.668 127.047 117.023 124.887C119.43 124.176 121.508 123.602 121.59 123.574C121.672 123.547 122.328 124.121 123.066 124.805ZM192.41 152.012C191.945 153.625 190.66 155.129 189.074 155.922L187.625 156.633H177.973H168.32V154.582V152.531H171.602H174.883V147.418V142.305L183.332 133.801C188.035 129.07 191.918 124.941 192.137 124.422C192.465 123.656 192.52 125.215 192.602 137.273C192.656 146.188 192.574 151.383 192.41 152.012ZM201.68 143.18C201.68 154.91 201.625 156.688 201.215 157.891C200.34 160.488 198.836 162.43 196.621 163.879C193.859 165.656 193.832 165.656 180.434 165.656H168.32V163.605V161.555H177.562C187.707 161.555 189.43 161.363 191.754 159.996C194.625 158.328 196.785 155.266 197.305 152.094C197.469 151.219 197.578 145.832 197.578 140.145V129.836H199.629H201.68V143.18ZM170.234 145.559V147.609H135.371H100.508V145.559V143.508H135.371H170.234V145.559ZM163.398 154.582V156.633H139.746H116.094V159.094V161.555H139.746H163.398V174.953V188.352H160.855H158.34L156.07 183.84L153.828 179.328H134.195H114.59L112.32 183.84L110.078 188.352H107.48H104.883V174.953V161.555H108.301H111.719V159.094V156.633H108.301H104.883V154.582V152.531H134.141H163.398V154.582ZM179.531 171.043C179.531 171.316 179.914 175.172 180.352 179.602C180.789 184.031 181.172 187.832 181.172 187.996C181.172 188.27 179.695 188.352 174.746 188.352H168.32V179.465V170.578H173.926C179.094 170.578 179.531 170.605 179.531 171.043ZM188.555 171.043C188.555 171.316 188.938 175.172 189.375 179.602C189.812 184.031 190.195 187.832 190.195 187.996C190.195 188.242 189.594 188.352 188.145 188.352H186.121L185.984 187.449C185.902 186.984 185.52 183.32 185.137 179.328C184.754 175.336 184.398 171.754 184.316 171.316L184.207 170.578H186.367C188.281 170.578 188.555 170.633 188.555 171.043ZM151.723 186.027C152.27 187.176 152.734 188.16 152.734 188.215C152.734 188.297 144.367 188.352 134.141 188.352H115.547L116.641 186.164L117.734 183.977H134.223H150.711L151.723 186.027Z" fill="white"/>
</g>
<defs>
<clipPath id="clip0_1031_641">
<rect width="140" height="140" fill="white" transform="translate(80 53)"/>
</clipPath>
</defs>
</svg>
