<svg width="92" height="92" viewBox="0 0 92 92" fill="none" xmlns="http://www.w3.org/2000/svg">
<g filter="url(#filter0_d_1_205)">
<rect x="11" y="7" width="70" height="70" rx="15" fill="#FEAD56"/>
</g>
<g clip-path="url(#clip0_1_205)">
<path d="M42.5352 27.8369V30.6738H44.5176H46.5L46.5137 32.4102L46.5342 34.1465L48.6055 32.4102L50.6768 30.6738H53.4111H56.1387V27.8369V25H49.3369H42.5352V27.8369ZM54.9082 27.8369V29.5117H52.543H50.1777L48.9336 30.5439L47.6963 31.583L47.6758 30.5439L47.6553 29.5117H45.6797H43.6973V27.8369V26.1621H49.3027H54.9082V27.8369Z" fill="white"/>
<path d="M44.791 27.8369V28.418H45.3721H45.9531V27.8369V27.2559H45.3721H44.791V27.8369Z" fill="white"/>
<path d="M47.0469 27.8369V28.418H49.3369H51.627V27.8369V27.2559H49.3369H47.0469V27.8369Z" fill="white"/>
<path d="M52.6523 27.8369V28.418H53.2676H53.8828V27.8369V27.2559H53.2676H52.6523V27.8369Z" fill="white"/>
<path d="M40.9287 33.4766C39.5889 33.6885 38.5225 34.625 38.1328 35.9307C38.0508 36.2109 38.0234 36.5869 38.0234 37.4004C38.0234 38.8838 38.1396 39.3076 38.7959 40.1689C39.1172 40.5928 39.124 40.6064 39.1035 41.0508L39.083 41.4951L37.8525 41.8506C37.1758 42.042 36.499 42.2676 36.3418 42.3428C35.9727 42.5342 35.5898 42.9785 35.3711 43.4502C35.207 43.8125 35.1934 43.915 35.166 45.1113L35.1387 46.3965H34.0176H32.8965V48.1396V49.8828H33.4775H34.0586V54.3604V58.8379H31.5293H29V59.4189V60H46.5H64V59.4189V58.8379H60.8965H57.793L57.752 58.5781C57.7314 58.4414 57.6357 57.5391 57.54 56.582C57.4512 55.625 57.3555 54.7295 57.335 54.5928L57.3008 54.3467L57.7314 54.2305C59.0029 53.875 60.0488 52.8496 60.4863 51.5234C60.6025 51.1816 60.6162 50.7852 60.6367 47.0938L60.6572 43.0469H59.5361H58.415L58.3809 42.377C58.3398 41.5771 58.1621 41.167 57.6699 40.7363L57.3555 40.4561L57.6084 40.1621C57.9297 39.7793 58.2305 39.1504 58.3193 38.6445C58.3604 38.4189 58.3945 37.8516 58.3945 37.3799C58.3945 36.0127 58.1211 35.2061 57.417 34.4883C56.7334 33.7979 55.9268 33.4561 54.9766 33.4561C53.4521 33.4561 52.1807 34.3857 51.7158 35.8486C51.5791 36.2861 51.5586 36.4912 51.5586 37.3799C51.5586 38.542 51.6475 39.0137 51.9824 39.6494C52.2354 40.1211 52.9053 40.7705 53.3906 41.0098L53.7324 41.1807L52.249 42.6641L50.7725 44.1406H49.2207H47.6621L47.6279 43.9492C47.4912 43.3203 47.1357 42.7803 46.6367 42.4385C46.4521 42.3154 45.9941 42.1377 45.4746 41.9873C45.0029 41.8506 44.415 41.6797 44.1621 41.6045L43.6973 41.4678V41.0234C43.6973 40.5928 43.7109 40.5586 43.9707 40.2578C44.3672 39.8066 44.709 39.0752 44.7979 38.4668C44.9141 37.7217 44.8389 36.2793 44.668 35.7871C44.2783 34.7002 43.4238 33.873 42.3916 33.5859C41.8994 33.4561 41.3457 33.4082 40.9287 33.4766ZM42.3369 34.8574C42.8086 35.0762 43.1914 35.459 43.417 35.9375C43.5879 36.293 43.5947 36.3682 43.5947 37.4414C43.5947 38.5078 43.5879 38.5898 43.4238 38.9043C43.0273 39.6904 42.3643 40.1211 41.4961 40.1621C41.0449 40.1895 40.9219 40.1689 40.5732 40.0117C40.1289 39.8066 39.6504 39.376 39.459 39.0137C39.2539 38.6172 39.165 37.9814 39.1992 37.1543C39.2334 36.3066 39.377 35.8623 39.7666 35.4043C40.3818 34.6797 41.4551 34.4473 42.3369 34.8574ZM55.8789 34.8574C56.3301 35.0693 56.7197 35.4453 56.959 35.9102C57.1162 36.2178 57.1299 36.334 57.1504 37.3047C57.1777 38.6172 57.0752 38.9727 56.5215 39.5332C56.0361 40.0117 55.5371 40.2031 54.8398 40.1621C53.9648 40.1074 53.3291 39.6631 52.9463 38.8428C52.7686 38.4531 52.7549 38.3779 52.7549 37.4756C52.7549 36.4023 52.8164 36.1084 53.1514 35.6162C53.3975 35.2607 53.9648 34.8369 54.3545 34.7207C54.7715 34.5977 55.4414 34.6592 55.8789 34.8574ZM42.4326 41.8574C42.2275 42.1719 41.79 42.4316 41.4619 42.4316C40.8604 42.4316 40.3477 42.0146 40.3477 41.5225C40.3477 41.2559 40.3477 41.2559 40.5732 41.2969C41.0381 41.3994 41.6943 41.4062 42.0908 41.3242L42.501 41.2354L42.5215 41.4609C42.5352 41.5908 42.4941 41.7617 42.4326 41.8574ZM55.6875 41.4746C55.9131 41.5566 56.084 41.8984 56.0293 42.1377C56.002 42.2676 55.291 43.0195 53.9648 44.3594L51.9414 46.3965H48.8379H45.7412L45.5771 46.2256C45.4814 46.1367 45.4062 45.9795 45.4062 45.8838C45.4062 45.7881 45.4814 45.6309 45.5771 45.542L45.7412 45.3711H48.4961H51.251L53.0967 43.5186C54.1152 42.5 55.0381 41.6045 55.1475 41.5361C55.3799 41.3857 55.4482 41.3789 55.6875 41.4746ZM39.7666 42.9512C40.2793 43.4434 40.7373 43.6279 41.4414 43.6279C42.1318 43.6211 42.4873 43.4844 43.041 42.9717L43.3965 42.6436L44.6475 43.0059C45.9668 43.3887 46.2061 43.5254 46.3564 43.9424C46.4248 44.1406 46.4248 44.1406 46.1582 44.1406C45.4268 44.1406 44.8115 44.4414 44.4902 44.9541C44.292 45.2617 44.1895 45.7812 44.251 46.1367L44.292 46.3965H40.334H36.3828V45.248C36.3828 43.5527 36.417 43.5117 38.2559 42.9717C38.8574 42.7939 39.377 42.6504 39.3975 42.6436C39.418 42.6367 39.582 42.7803 39.7666 42.9512ZM57.1025 49.7529C56.9863 50.1562 56.665 50.5322 56.2686 50.7305L55.9062 50.9082H53.4932H51.0801V50.3955V49.8828H51.9004H52.7207V48.6045V47.3262L54.833 45.2002C56.0088 44.0176 56.9795 42.9854 57.0342 42.8555C57.1162 42.6641 57.1299 43.0537 57.1504 46.0684C57.1641 48.2969 57.1436 49.5957 57.1025 49.7529ZM59.4199 47.5449C59.4199 50.4775 59.4062 50.9219 59.3037 51.2227C59.085 51.8721 58.709 52.3574 58.1553 52.7197C57.4648 53.1641 57.458 53.1641 54.1084 53.1641H51.0801V52.6514V52.1387H53.3906C55.9268 52.1387 56.3574 52.0908 56.9385 51.749C57.6562 51.332 58.1963 50.5664 58.3262 49.7734C58.3672 49.5547 58.3945 48.208 58.3945 46.7861V44.209H58.9072H59.4199V47.5449ZM51.5586 48.1396V48.6523H42.8428H34.127V48.1396V47.627H42.8428H51.5586V48.1396ZM49.8496 50.3955V50.9082H43.9365H38.0234V51.5234V52.1387H43.9365H49.8496V55.4883V58.8379H49.2139H48.585L48.0176 57.71L47.457 56.582H42.5488H37.6475L37.0801 57.71L36.5195 58.8379H35.8701H35.2207V55.4883V52.1387H36.0752H36.9297V51.5234V50.9082H36.0752H35.2207V50.3955V49.8828H42.5352H49.8496V50.3955ZM53.8828 54.5107C53.8828 54.5791 53.9785 55.543 54.0879 56.6504C54.1973 57.7578 54.293 58.708 54.293 58.749C54.293 58.8174 53.9238 58.8379 52.6865 58.8379H51.0801V56.6162V54.3945H52.4814C53.7734 54.3945 53.8828 54.4014 53.8828 54.5107ZM56.1387 54.5107C56.1387 54.5791 56.2344 55.543 56.3438 56.6504C56.4531 57.7578 56.5488 58.708 56.5488 58.749C56.5488 58.8105 56.3984 58.8379 56.0361 58.8379H55.5303L55.4961 58.6123C55.4756 58.4961 55.3799 57.5801 55.2842 56.582C55.1885 55.584 55.0996 54.6885 55.0791 54.5791L55.0518 54.3945H55.5918C56.0703 54.3945 56.1387 54.4082 56.1387 54.5107ZM46.9307 58.2568C47.0674 58.5439 47.1836 58.79 47.1836 58.8037C47.1836 58.8242 45.0918 58.8379 42.5352 58.8379H37.8867L38.1602 58.291L38.4336 57.7441H42.5557H46.6777L46.9307 58.2568Z" fill="white"/>
</g>
<defs>
<filter id="filter0_d_1_205" x="0" y="0" width="92" height="92" filterUnits="userSpaceOnUse" color-interpolation-filters="sRGB">
<feFlood flood-opacity="0" result="BackgroundImageFix"/>
<feColorMatrix in="SourceAlpha" type="matrix" values="0 0 0 0 0 0 0 0 0 0 0 0 0 0 0 0 0 0 127 0" result="hardAlpha"/>
<feOffset dy="4"/>
<feGaussianBlur stdDeviation="5.5"/>
<feColorMatrix type="matrix" values="0 0 0 0 0 0 0 0 0 0 0 0 0 0 0 0 0 0 0.06 0"/>
<feBlend mode="normal" in2="BackgroundImageFix" result="effect1_dropShadow_1_205"/>
<feBlend mode="normal" in="SourceGraphic" in2="effect1_dropShadow_1_205" result="shape"/>
</filter>
<clipPath id="clip0_1_205">
<rect width="35" height="35" fill="white" transform="translate(29 25)"/>
</clipPath>
</defs>
</svg>
