<svg width="28" height="28" viewBox="0 0 28 28" fill="none" xmlns="http://www.w3.org/2000/svg">
<g clip-path="url(#clip0_165_2569)">
<path d="M6.3 0.114744C6.16328 0.180368 5.99922 0.328026 5.91719 0.453806C5.78047 0.661619 5.76953 0.716307 5.75313 1.42724L5.73672 2.17646L4.60469 2.19834C3.56016 2.22021 3.43984 2.23662 3.03516 2.36787C2.31875 2.60849 1.8375 2.90928 1.27969 3.46709C0.727344 4.01943 0.426563 4.50068 0.175 5.22256L0.0273438 5.66006V15.0937V24.5272L0.175 24.9647C0.426563 25.6866 0.727344 26.1679 1.27969 26.7202C1.83203 27.2726 2.31328 27.5733 3.03516 27.8249L3.47266 27.9726L8.25234 27.989L13.0266 28.0054L13.2727 27.8851C13.4203 27.814 13.5734 27.6827 13.6609 27.546C13.7867 27.3546 13.8086 27.2671 13.8086 26.9062C13.8086 26.5452 13.7867 26.4577 13.6609 26.2663C13.5734 26.1351 13.4203 25.9983 13.2781 25.9272C13.0375 25.8124 13.0047 25.8124 8.77188 25.8124C6.22891 25.8124 4.35859 25.7905 4.12891 25.7577C3.13359 25.6155 2.38438 24.8663 2.24219 23.871C2.17109 23.3515 2.17109 6.83584 2.24219 6.31631C2.31328 5.81865 2.52109 5.39756 2.86563 5.05303C3.38516 4.53896 3.92109 4.38037 5.12969 4.3749H5.74219V5.06943C5.74219 5.88974 5.82969 6.14678 6.19609 6.3874C6.3875 6.51318 6.475 6.53506 6.83594 6.53506C7.19688 6.53506 7.28438 6.51318 7.47578 6.3874C7.84219 6.14678 7.92969 5.88974 7.92969 5.06943V4.3749H10.3906H12.8516V5.06943C12.8516 5.88974 12.9391 6.14678 13.3055 6.3874C13.4969 6.51318 13.5844 6.53506 13.9453 6.53506C14.3063 6.53506 14.3938 6.51318 14.5852 6.3874C14.9516 6.14678 15.0391 5.88974 15.0391 5.06943V4.3749H17.5273H20.0156V5.06943C20.0156 5.88974 20.1031 6.14678 20.4695 6.3874C20.6609 6.51318 20.7484 6.53506 21.1094 6.53506C21.4703 6.53506 21.5578 6.51318 21.7492 6.3874C22.1156 6.14678 22.2031 5.88974 22.2031 5.06943V4.3749H22.8484C24.0789 4.38037 24.6148 4.53896 25.1344 5.05303C25.4789 5.39756 25.6867 5.81865 25.7578 6.31631C25.7852 6.53506 25.8125 8.06084 25.8125 9.89287C25.8125 13.0374 25.8125 13.0921 25.9273 13.3327C25.9984 13.4749 26.1352 13.628 26.2664 13.7155C26.4578 13.8413 26.5453 13.8632 26.9063 13.8632C27.2672 13.8632 27.3547 13.8413 27.5461 13.7155C27.6828 13.628 27.8141 13.4749 27.8852 13.3272C28.0055 13.0812 28.0055 13.0757 27.9891 9.37334L27.9727 5.66006L27.825 5.22256C27.5734 4.50068 27.2727 4.01943 26.7203 3.46709C26.1625 2.90928 25.6813 2.60849 24.9648 2.36787C24.5602 2.23115 24.4453 2.22021 23.368 2.19834L22.2031 2.17646V1.4874C22.2031 0.672556 22.1156 0.415525 21.7492 0.1749C21.5578 0.0491199 21.4703 0.0272446 21.1094 0.0272446C20.7484 0.0272446 20.6609 0.0491199 20.4695 0.1749C20.1031 0.415525 20.0156 0.672556 20.0156 1.49287V2.1874H17.5273H15.0391V1.49287C15.0391 0.672556 14.9516 0.415525 14.5852 0.1749C14.3938 0.0491199 14.3063 0.0272446 13.9453 0.0272446C13.5844 0.0272446 13.4969 0.0491199 13.3055 0.1749C12.9391 0.415525 12.8516 0.672556 12.8516 1.49287V2.1874H10.3906H7.92969V1.49287C7.92969 0.672556 7.84219 0.415525 7.47578 0.1749C7.16953 -0.0274429 6.63359 -0.0547867 6.3 0.114744Z" fill="white"/>
<path d="M6.30006 10.5052C5.961 10.6747 5.78053 10.9755 5.75318 11.4075C5.70943 12.0856 6.08678 12.5231 6.75943 12.5669C7.43756 12.6106 7.87506 12.2333 7.91881 11.5606C7.94615 11.1177 7.7985 10.7786 7.47584 10.5653C7.16959 10.363 6.63365 10.3356 6.30006 10.5052Z" fill="white"/>
<path d="M11.0579 10.5052C10.7188 10.6747 10.5383 10.9755 10.511 11.4075C10.4672 12.0856 10.8446 12.5231 11.5172 12.5669C12.1954 12.6106 12.6329 12.2333 12.6766 11.5606C12.704 11.1177 12.5563 10.7786 12.2337 10.5653C11.9274 10.363 11.3915 10.3356 11.0579 10.5052Z" fill="white"/>
<path d="M15.8157 10.5052C15.4766 10.6747 15.2962 10.9755 15.2688 11.4075C15.2251 12.0856 15.6024 12.5231 16.2751 12.5669C16.9532 12.6106 17.3907 12.2333 17.4344 11.5606C17.4618 11.1177 17.3141 10.7786 16.9915 10.5653C16.6852 10.363 16.1493 10.3356 15.8157 10.5052Z" fill="white"/>
<path d="M20.5735 10.5052C20.2344 10.6747 20.054 10.9755 20.0266 11.4075C19.9829 12.0856 20.3602 12.5231 21.0329 12.5669C21.711 12.6106 22.1485 12.2333 22.1922 11.5606C22.2196 11.1177 22.0719 10.7786 21.7493 10.5653C21.443 10.363 20.9071 10.3356 20.5735 10.5052Z" fill="white"/>
<path d="M20.1632 14.8478C18.8233 15.0993 17.571 15.7829 16.614 16.7837C15.8046 17.6204 15.2522 18.5993 14.9405 19.7423C14.8093 20.2235 14.7983 20.3493 14.7983 21.3829C14.7983 22.4165 14.8093 22.5423 14.9405 23.0235C15.2687 24.2267 15.821 25.1837 16.7015 26.0642C17.5819 26.9446 18.539 27.497 19.7421 27.8251C20.2233 27.9563 20.3491 27.9673 21.3827 27.9673C22.4163 27.9673 22.5421 27.9563 23.0233 27.8251C24.2265 27.497 25.1835 26.9446 26.064 26.0642C26.9444 25.1837 27.4968 24.2267 27.8249 23.0235C27.9562 22.5423 27.9671 22.4165 27.9671 21.3829C27.9671 20.3493 27.9562 20.2235 27.8249 19.7423C27.4968 18.5392 26.9444 17.5821 26.064 16.7017C25.178 15.8212 24.2101 15.2579 23.0233 14.9462C22.5858 14.8313 22.3562 14.804 21.5468 14.7876C20.8632 14.7767 20.4694 14.7931 20.1632 14.8478ZM22.3233 17.0954C23.7015 17.4126 24.8718 18.3806 25.4187 19.6657C25.878 20.754 25.878 22.0118 25.4187 23.1001C24.8718 24.3853 23.7015 25.3532 22.3233 25.6704C21.8202 25.7853 20.9452 25.7853 20.4421 25.6704C18.7741 25.2931 17.4726 23.9915 17.0952 22.3235C16.9804 21.8204 16.9804 20.9454 17.0952 20.4423C17.4726 18.7962 18.7194 17.5274 20.371 17.1118C20.8741 16.986 21.8038 16.9806 22.3233 17.0954Z" fill="white"/>
<path d="M20.8469 18.1614C20.7102 18.2271 20.5461 18.3747 20.4641 18.5005L20.3165 18.7192L20.3 20.1958C20.2836 21.6067 20.2891 21.6724 20.404 21.913C20.475 22.0606 20.6063 22.2138 20.743 22.3013C20.9618 22.4489 20.9727 22.4489 22.1047 22.4653C23.1875 22.4817 23.2641 22.4763 23.4938 22.3614C23.6469 22.2903 23.8 22.1591 23.8875 22.0224C24.0133 21.831 24.0352 21.7435 24.0352 21.3825C24.0352 21.0216 24.0133 20.9341 23.8875 20.7427C23.6797 20.431 23.368 20.2888 22.8704 20.2888H22.4766V19.5669C22.4766 18.7138 22.3946 18.4677 22.0227 18.2216C21.7165 18.0192 21.1805 17.9919 20.8469 18.1614Z" fill="white"/>
<path d="M6.30006 15.263C5.961 15.4325 5.78053 15.7333 5.75318 16.1653C5.70943 16.8434 6.08678 17.2809 6.75943 17.3247C7.43756 17.3684 7.87506 16.9911 7.91881 16.3184C7.94615 15.8755 7.7985 15.5364 7.47584 15.3231C7.16959 15.1208 6.63365 15.0934 6.30006 15.263Z" fill="white"/>
<path d="M11.0579 15.263C10.7188 15.4325 10.5383 15.7333 10.511 16.1653C10.4672 16.8434 10.8446 17.2809 11.5172 17.3247C12.1954 17.3684 12.6329 16.9911 12.6766 16.3184C12.704 15.8755 12.5563 15.5364 12.2337 15.3231C11.9274 15.1208 11.3915 15.0934 11.0579 15.263Z" fill="white"/>
<path d="M6.30006 20.0208C5.961 20.1903 5.78053 20.4911 5.75318 20.9231C5.70943 21.6013 6.08678 22.0388 6.75943 22.0825C7.43756 22.1263 7.87506 21.7489 7.91881 21.0763C7.94615 20.6333 7.7985 20.2942 7.47584 20.0809C7.16959 19.8786 6.63365 19.8513 6.30006 20.0208Z" fill="white"/>
<path d="M11.0579 20.0208C10.7188 20.1903 10.5383 20.4911 10.511 20.9231C10.4672 21.6013 10.8446 22.0388 11.5172 22.0825C12.1954 22.1263 12.6329 21.7489 12.6766 21.0763C12.704 20.6333 12.5563 20.2942 12.2337 20.0809C11.9274 19.8786 11.3915 19.8513 11.0579 20.0208Z" fill="white"/>
</g>
<defs>
<clipPath id="clip0_165_2569">
<rect width="28" height="28" fill="white"/>
</clipPath>
</defs>
</svg>
