<svg width="300" height="245" viewBox="0 0 300 245" fill="none" xmlns="http://www.w3.org/2000/svg">
<path d="M0 120C0 53.7258 53.7258 0 120 0H300V245H120C53.7258 245 0 191.274 0 125V120Z" fill="#FEAD56"/>
<path d="M189.141 65.2266C187.219 65.7656 185.086 66.8438 183.563 68.0156C182.836 68.5781 177.328 73.9453 171.352 79.9453L160.5 90.8203L159.094 90.3984C158.32 90.1406 156.398 89.7656 154.805 89.5313L151.922 89.1328L150.82 87.6563C148.805 84.9844 145.57 82.8281 142.453 82.1016C140.836 81.7266 137.016 81.6563 135.633 81.9609L134.742 82.1719L133.898 80.8594C131.414 76.9688 127.289 74.0156 122.719 72.8438C120.188 72.2109 116.086 72.1875 113.531 72.8438C108.281 74.1563 103.734 77.7891 101.344 82.5703C99.7266 85.8281 99.3047 87.9375 99.4219 91.9688L99.5157 95.2969L98.1797 95.9063C95.5547 97.1016 93.1875 99.8203 92.3203 102.633C91.7578 104.414 91.7344 107.648 92.25 109.43C93.2578 112.898 96.1875 115.852 99.6328 116.93C100.898 117.328 101.859 117.375 108.727 117.375H116.414L116.297 121.641C116.18 126.375 116.508 129 117.492 131.695L118.055 133.195L109.758 141.539L101.461 149.859L96.6328 162.375C91.8516 174.844 91.8282 174.891 91.9219 176.484C91.9922 177.773 92.1328 178.242 92.6953 179.039C93.6563 180.398 95.086 181.125 96.8438 181.125C98.086 181.125 99.5625 180.609 110.578 176.391L122.93 171.68L128.977 165.68L135 159.68V160.875C135 161.648 135.188 162.422 135.563 163.148L136.102 164.25L135.563 165.352C134.859 166.734 134.789 169.078 135.445 170.461C135.984 171.609 137.18 172.781 138.305 173.25C138.938 173.508 139.266 173.859 139.523 174.492C140.273 176.414 142.664 178.969 144.586 179.953C147.703 181.523 152.297 181.523 155.414 179.953C157.336 178.969 159.727 176.414 160.477 174.492C160.734 173.859 161.063 173.508 161.695 173.25C163.477 172.5 164.977 170.438 165 168.703V167.906L166.125 169.008L167.25 170.109L168.398 168.914C170.297 166.969 171.258 166.359 172.43 166.359C175.078 166.359 176.227 168.047 176.25 171.914V173.625H181.875H187.5V171.914C187.523 168.047 188.672 166.359 191.32 166.359C192.492 166.359 193.453 166.969 195.352 168.914L196.523 170.109L200.555 166.078L204.609 162.023L203.109 160.5C201.141 158.484 200.859 158.016 200.859 156.797C200.859 154.172 202.57 153.023 206.438 153H208.125V147.398V141.82L205.805 141.703C203.18 141.586 202.266 141.188 201.398 139.875C200.742 138.938 200.672 137.203 201.234 136.359C201.445 136.031 202.289 135.094 203.109 134.25L204.609 132.727L200.555 128.672L196.523 124.641L195.352 125.836C193.453 127.781 192.492 128.391 191.32 128.391C188.672 128.391 187.523 126.703 187.5 122.813V121.125H185.672H183.82L183.539 118.828C183.398 117.563 183.023 115.641 182.719 114.563L182.18 112.57L193.688 100.969C205.711 88.8516 206.133 88.3594 207.375 85.0781C207.938 83.6484 207.984 83.1797 208.008 80.1094C208.008 77.1563 207.938 76.5 207.469 75.1641C205.969 70.7813 202.523 67.2891 198.094 65.625C196.781 65.1328 196.031 65.0156 193.477 64.9688C191.25 64.8984 190.078 64.9688 189.141 65.2266ZM197.766 69.9141C200.109 71.0156 201.984 72.9141 203.156 75.3516C203.93 77.0156 204.023 77.3906 204.094 79.5234C204.234 83.2969 203.25 85.5938 200.273 88.5469L198.75 90.0703L190.852 82.1484L182.93 74.25L184.336 72.8203C185.109 72.0469 186.188 71.0859 186.703 70.7109C189.867 68.5313 194.18 68.2031 197.766 69.9141ZM121.758 76.7578C124.852 77.5078 127.922 79.5469 129.914 82.1953L131.016 83.6484L129.609 84.7266C126.891 86.7656 124.617 90.3281 123.961 93.5625C123.703 94.9219 123.609 95.1094 123.023 95.2266C122.203 95.4141 120.492 96.6328 119.648 97.6406C118.852 98.5781 118.125 100.477 118.125 101.555V102.375H120.117C122.016 102.375 122.109 102.352 122.109 101.836C122.109 100.359 123.891 98.8594 125.625 98.8594C127.359 98.8594 129.141 100.359 129.141 101.836C129.141 102.352 129.211 102.375 131.156 102.375H133.195L133.078 101.227C132.844 98.9531 131.156 96.5859 128.953 95.5547C128.344 95.2734 127.828 95.0156 127.805 94.9922C127.641 94.875 128.555 92.2734 129.094 91.3594C131.133 87.8438 134.742 85.7344 138.727 85.7344C141.75 85.7344 144.094 86.6484 146.297 88.7344C148.594 90.8906 149.766 93.5859 149.766 96.7031C149.766 99.1641 149.672 99.3984 148.336 100.242C146.203 101.648 144.656 104.156 144.445 106.641L144.305 108H146.344C148.336 108 148.359 108 148.359 107.414C148.359 105.914 149.789 103.922 151.453 103.055C152.531 102.516 154.594 102.469 155.813 102.984C157.805 103.805 159.141 105.797 159.141 108C159.141 110.203 157.852 112.148 155.742 113.086C154.852 113.484 153.281 113.508 129.375 113.578C102.984 113.648 101.625 113.602 99.8203 112.664C98.625 112.055 97.1953 110.625 96.5157 109.359C96.0703 108.516 95.9766 108 95.9766 106.125C95.9766 104.273 96.0703 103.734 96.5157 102.914C97.2891 101.438 98.25 100.43 99.6563 99.6563C100.781 99.0469 101.109 98.9766 103.125 98.9766C105 98.9766 105.516 99.0703 106.359 99.5156C108.492 100.664 110.063 102.82 110.32 104.977L110.461 106.125H112.406H114.375V105.07C114.375 103.734 113.602 101.414 112.688 99.9844C111.094 97.4531 108.094 95.4844 105.188 95.0156C103.664 94.7813 103.641 94.7813 103.5 93.9375C103.242 92.3672 103.359 88.875 103.711 87.4922C105.773 79.5938 113.836 74.7891 121.758 76.7578ZM187.969 85.1484L195.82 93L194.461 94.3359L193.125 95.6953L185.227 87.7969L177.305 79.875L178.594 78.5859C179.297 77.8828 179.93 77.2969 180 77.2969C180.07 77.2969 183.656 80.8359 187.969 85.1484ZM177.656 86.0859L180.82 89.25L176.625 93.4453L172.453 97.6172L170.484 96.1406C169.383 95.3203 167.648 94.1484 166.617 93.5625L164.719 92.4609L169.477 87.7031C172.102 85.0781 174.305 82.9219 174.375 82.9219C174.445 82.9219 175.922 84.3516 177.656 86.0859ZM187.031 95.4609L190.195 98.625L185.367 103.453L180.539 108.281L179.32 106.172C178.641 105.023 177.469 103.313 176.719 102.352L175.359 100.617L179.484 96.4453C181.758 94.1719 183.68 92.2969 183.75 92.2969C183.82 92.2969 185.297 93.7266 187.031 95.4609ZM158.109 94.2891C167.438 96.9844 175.242 104.484 178.336 113.766C180.188 119.25 180.281 125.766 178.594 130.594C177.328 134.297 175.805 136.336 169.805 142.453C164.742 147.609 162.867 149.906 161.297 152.953L160.289 154.875H156.07H151.875V149.414C151.875 143.344 151.758 142.828 150.211 141.352C148.945 140.156 147.984 139.875 145.195 139.875C141.563 139.875 140.484 139.242 140.953 137.391C141.258 136.172 141.797 136.125 152.742 136.125C162.023 136.125 162.844 136.078 163.711 135.68C165.727 134.742 166.875 132.867 166.875 130.5C166.875 128.813 166.43 127.641 165.398 126.539C163.852 124.898 163.711 124.875 154.664 124.875C149.227 124.875 146.297 124.781 145.781 124.617C144.656 124.219 144.375 123.305 144.375 120.094V117.398L150.422 117.328L156.445 117.258L157.852 116.578C159.656 115.688 161.438 113.906 162.328 112.102C162.961 110.789 163.008 110.508 163.008 108C163.008 105.492 162.961 105.211 162.328 103.898C160.945 101.086 158.016 98.9531 155.18 98.6953L153.75 98.5547V96.5391C153.75 95.4375 153.68 94.2656 153.586 93.9609C153.445 93.3984 153.445 93.3984 154.734 93.5391C155.438 93.6328 156.961 93.9609 158.109 94.2891ZM140.625 120.938C140.625 124.969 140.859 125.789 142.289 127.148C143.836 128.602 144 128.625 152.93 128.625C159.445 128.625 161.18 128.695 161.836 128.953C162.703 129.328 163.055 130.078 162.797 131.109C162.492 132.328 161.953 132.375 151.055 132.375C140.063 132.375 140.109 132.375 138.539 133.852C137.391 134.953 136.875 136.195 136.875 138C136.875 139.805 137.391 141.047 138.539 142.148C139.805 143.344 140.766 143.625 143.508 143.625C144.844 143.625 146.297 143.742 146.719 143.883C147.961 144.328 148.125 145.078 148.125 150.305V154.875H143.93H139.711L138.703 152.953C137.133 149.906 135.305 147.656 129.984 142.242C123.914 136.031 122.531 134.086 121.031 129.563C120.422 127.688 120.375 127.336 120.375 123.352C120.352 121.031 120.445 118.734 120.539 118.242L120.727 117.375H130.664H140.625V120.938ZM184.43 128.273C185.766 130.945 188.133 132.375 191.32 132.375C193.055 132.375 194.977 131.719 196.008 130.781C196.406 130.43 196.5 130.477 197.625 131.625C198.773 132.75 198.82 132.844 198.469 133.242C198.258 133.477 197.813 134.25 197.484 134.953C196.313 137.461 196.805 140.977 198.633 143.109C199.688 144.328 201.984 145.5 203.367 145.5H204.375V147.375V149.25H203.367C201.938 149.25 199.688 150.422 198.609 151.711C196.781 153.961 196.313 157.289 197.484 159.797C197.813 160.5 198.258 161.273 198.469 161.508C198.82 161.906 198.773 162 197.625 163.125C196.5 164.273 196.406 164.32 196.008 163.969C195.773 163.758 195 163.313 194.297 162.984C191.789 161.813 188.273 162.305 186.141 164.133C184.922 165.188 183.75 167.484 183.75 168.867V169.875H181.875H180V168.867C180 167.438 178.828 165.188 177.539 164.109C175.289 162.281 171.961 161.813 169.453 162.984C168.75 163.313 167.977 163.758 167.742 163.969C167.367 164.32 167.25 164.25 166.172 163.195C165 162.047 165 162.047 165 160.5C165 159.422 164.859 158.672 164.531 158.039C164.273 157.523 164.063 156.984 164.063 156.82C164.063 155.789 168.258 149.297 168.727 149.602C168.844 149.648 168.984 150.117 169.078 150.609C169.313 152.133 170.953 155.109 172.313 156.492C175.031 159.234 178.008 160.5 181.805 160.5C185.578 160.5 188.672 159.258 191.203 156.703C193.734 154.172 195 151.078 195 147.375C195 144.797 194.625 143.297 193.43 141C191.461 137.25 186.797 134.25 182.859 134.25C181.734 134.25 181.617 134.203 181.758 133.828C182.484 132.023 183.305 129.188 183.422 128.086C183.516 127.359 183.609 126.75 183.633 126.75C183.656 126.75 184.031 127.43 184.43 128.273ZM124.055 142.055L125.93 144.117L119.227 150.844L112.5 157.57L109.289 154.336L106.055 151.125L113.063 144.117L120.07 137.109L121.125 138.539C121.711 139.336 123.023 140.93 124.055 142.055ZM185.695 139.008C187.43 139.805 189.445 141.797 190.266 143.555C190.828 144.773 190.898 145.195 190.898 147.375C190.898 149.555 190.828 149.977 190.266 151.195C189.445 152.93 187.43 154.945 185.695 155.766C184.477 156.328 184.055 156.398 181.875 156.398C179.695 156.398 179.273 156.328 178.055 155.766C176.297 154.945 174.305 152.93 173.508 151.195C173.016 150.117 172.852 149.367 172.781 147.703L172.688 145.57L175.195 142.852C176.578 141.352 177.938 139.828 178.219 139.43C178.875 138.469 179.695 138.234 182.227 138.305C183.938 138.352 184.594 138.492 185.695 139.008ZM130.852 148.992C131.813 150 133.102 151.57 133.688 152.438L134.766 154.055L128.32 160.5L121.875 166.945L118.664 163.711L115.43 160.5L122.109 153.82C125.789 150.141 128.859 147.141 128.93 147.141C129.023 147.141 129.867 147.984 130.852 148.992ZM117.938 169.195C117.703 169.383 106.57 173.625 106.289 173.625C105.984 173.625 99.375 167.016 99.375 166.711C99.375 166.57 100.313 164.039 101.438 161.086C102.586 158.109 103.594 155.484 103.688 155.25C103.828 154.852 104.977 155.906 110.977 161.906C114.914 165.844 118.031 169.102 117.938 169.195ZM159.961 158.953C161.391 159.563 161.391 161.438 159.961 162.047C158.766 162.539 141.234 162.539 140.039 162.047C138.633 161.461 138.609 159.563 139.992 158.977C141.117 158.484 158.789 158.484 159.961 158.953ZM159.961 166.453C161.391 167.063 161.391 168.938 159.961 169.547C158.766 170.039 141.234 170.039 140.039 169.547C138.633 168.961 138.609 167.063 139.992 166.477C141.117 165.984 158.789 165.984 159.961 166.453ZM99.6797 176.25C97.2657 177.188 96.586 177.305 96.1407 176.859C95.6953 176.414 95.7891 175.781 96.7266 173.344L97.6172 171.047L99.7735 173.203L101.953 175.383L99.6797 176.25ZM156.117 174.07C155.719 174.797 154.195 175.992 152.953 176.578C152.039 177 151.359 177.141 150 177.141C148.641 177.141 147.961 177 147.047 176.578C145.805 175.992 144.281 174.797 143.883 174.07C143.672 173.648 143.883 173.625 150 173.625C156.117 173.625 156.328 173.648 156.117 174.07Z" fill="white"/>
<path d="M179.414 142.195C177.375 143.133 176.25 145.008 176.25 147.422C176.273 150.75 178.523 153 181.875 153C185.25 153 187.5 150.75 187.5 147.375C187.5 144.938 186.258 142.992 184.172 142.125C182.953 141.609 180.586 141.656 179.414 142.195ZM183.047 146.203C183.305 146.461 183.516 146.977 183.516 147.375C183.516 147.773 183.305 148.289 183.047 148.547C182.789 148.805 182.273 149.016 181.875 149.016C181.477 149.016 180.961 148.805 180.703 148.547C180.445 148.289 180.234 147.773 180.234 147.375C180.234 146.977 180.445 146.461 180.703 146.203C180.961 145.945 181.477 145.734 181.875 145.734C182.273 145.734 182.789 145.945 183.047 146.203Z" fill="white"/>
</svg>
