<svg width="104" height="72" viewBox="0 0 104 72" fill="none" xmlns="http://www.w3.org/2000/svg">
<path d="M96.2251 7.81821C78.4398 5.6901 64.73 4.56187 38.5549 3.03382C21.9888 2.13297 6.7394 1.11543 4.60019 0.797377C2.46099 0.479322 0.475367 0.578038 0.20565 0.918293C-0.153531 1.29958 2.00063 6.48298 4.95335 12.3828C7.88338 18.3472 10.3487 23.7127 10.4342 24.3231C10.5864 24.957 9.64792 28.9063 8.48509 33.0667C5.74954 42.7666 3.24514 54.7966 3.61246 56.7394C4.0439 59.14 6.2111 58.5249 16.3926 53.0428C19.8831 51.2253 23.0811 49.8126 23.5485 49.9772C24.0158 50.1418 26.003 53.4529 27.8753 57.3039C34.2201 70.2013 34.992 71.6337 36.0403 71.6401C36.5757 71.6111 40.4093 68.3911 44.5365 64.5491C68.2026 42.2715 83.0707 29.0098 93.67 20.8458C98.1298 17.3386 102.368 13.6082 102.999 12.4524C103.947 10.61 103.927 10.2403 102.706 9.44733C101.928 8.88351 101.106 8.44877 100.905 8.37824C100.682 8.37225 98.5873 8.14225 96.2251 7.81821ZM90.4714 11.3776C86.1156 12.4552 75.5119 14.0165 52.5218 16.8743C38.728 18.5455 24.6204 20.4689 21.1593 21.1361C17.7209 21.7388 14.5736 22.1538 14.173 22.0127C12.3702 21.3779 3.84193 4.44744 5.07173 3.9375C6.32423 3.363 88.0944 9.8152 91.0776 10.7206C91.768 10.8912 91.5436 11.1023 90.4714 11.3776ZM89.1926 19.9221C87.3313 21.5878 80.2704 27.3708 73.6355 32.7961C57.6083 45.9398 49.1334 53.1834 42.0673 59.8351C38.904 62.8559 35.9678 65.2312 35.634 65.1137C35.2334 64.9726 33.0285 60.7869 30.5833 55.7911C28.2048 50.8189 25.2935 45.4414 24.1437 43.8034L21.9536 40.8561L26.0209 39.5318C28.2335 38.7877 40.0575 34.6094 52.3062 30.2905C71.8189 23.4518 91.8885 16.7367 92.4226 16.9248C92.5561 16.9718 91.098 18.3443 89.1926 19.9221ZM80.9414 16.0735C80.8961 16.2026 73.0952 18.9686 63.6413 22.168C46.0301 28.0804 39.6821 30.3425 24.883 35.9395C16.723 39.0867 16.4319 39.2744 13.5532 43.1933C9.25778 49.0071 8.63417 48.8601 10.8585 42.5346C11.9025 39.5654 13.5407 34.2667 14.5206 30.8397L16.2095 24.5433L45.2499 20.6969C61.2322 18.5633 75.7417 16.5638 77.5057 16.2419C80.9214 15.7038 81.0776 15.6863 80.9414 16.0735ZM20.7907 45.0165C21.6307 46.2553 21.4732 46.49 17.2216 48.7648C14.7821 50.1545 12.6122 51.2039 12.4787 51.1569C12.0781 51.0158 13.9688 48.1997 16.3722 45.4191C18.5286 42.9142 19.3098 42.8266 20.7907 45.0165Z" fill="#026E76"/>
</svg>
