<svg width="34" height="34" viewBox="0 0 34 34" fill="none" xmlns="http://www.w3.org/2000/svg">
<circle cx="17" cy="17" r="16.5" stroke="#02BDD5"/>
<g clip-path="url(#clip0_717_590)">
<path d="M16.2344 9.01882C16.1844 9.02507 16.0281 9.04694 15.8906 9.06569C15.4125 9.12819 14.6875 9.29694 14.6875 9.34382C14.6875 9.35632 14.8312 9.54069 15.0062 9.75319C16.1187 11.1094 17.3281 12.9594 18.05 14.4157C18.2281 14.7719 18.1562 14.7563 18.7656 14.5563C20.2531 14.0657 21.7 13.2594 23.025 12.1813L23.25 11.9938L23.1813 11.8969C23.0469 11.7094 22.4219 11.0844 22.1094 10.8282C20.975 9.89694 19.7562 9.34069 18.3 9.08757C17.9969 9.03757 17.7625 9.02194 17.125 9.01569C16.6875 9.00944 16.2875 9.01257 16.2344 9.01882Z" fill="#02BDD5"/>
<path d="M13.3719 9.85333C12.5969 10.2471 12.0032 10.6846 11.3407 11.344C10.8032 11.8783 10.475 12.2971 10.1063 12.919C9.90941 13.2471 9.62191 13.8283 9.52191 14.1033C9.49691 14.1721 9.57816 14.2096 10.2344 14.4346C11.3594 14.8252 12.5813 15.0721 13.8 15.1596C14.7532 15.2252 16.0157 15.169 16.9219 15.0127C17.3563 14.9408 17.3313 14.9752 17.1657 14.6471C16.6532 13.6252 15.8 12.2658 14.9938 11.194C14.4125 10.4221 13.8094 9.69083 13.7469 9.69083C13.7188 9.6877 13.55 9.7627 13.3719 9.85333Z" fill="#02BDD5"/>
<path d="M23.4844 12.9563C22.1532 14.0407 20.6094 14.9 19.0407 15.425L18.5969 15.575L18.6438 15.6844C18.7594 15.9563 19.0313 16.6657 19.125 16.9375L19.2282 17.2344H20.2313C21.0782 17.2375 21.3125 17.2469 21.7344 17.3063C22.6938 17.4344 23.6719 17.6438 24.5875 17.9188C24.9032 18.0125 24.9438 18.0188 24.9625 17.9719C24.975 17.9438 24.9844 17.5125 24.9844 17.0157C24.9844 16.2157 24.975 16.0625 24.9125 15.7032C24.7438 14.7375 24.4438 13.8813 23.9938 13.0844C23.8875 12.9 23.7875 12.75 23.7688 12.75C23.75 12.7532 23.6219 12.8438 23.4844 12.9563Z" fill="#02BDD5"/>
<path d="M9.19074 15.1781C9.00324 15.9844 8.94074 17.1656 9.04699 17.9906C9.26887 19.7313 10.022 21.3031 11.2314 22.5594C11.5314 22.8688 11.922 23.2188 11.9657 23.2188C11.9814 23.2188 12.0439 23.0687 12.1064 22.8875C12.8314 20.7938 14.2001 19.125 15.9689 18.1813C16.5595 17.8656 17.3376 17.5781 17.9876 17.4375C18.1564 17.4031 18.3001 17.3656 18.3064 17.3594C18.3282 17.3406 18.2251 17.0469 17.9751 16.4125C17.8095 15.9906 17.722 15.8125 17.6907 15.8125C17.6626 15.8125 17.4939 15.8406 17.3126 15.875C14.822 16.3562 12.022 16.0906 9.52199 15.1375C9.36887 15.0781 9.24074 15.0312 9.23449 15.0312C9.22824 15.0312 9.20949 15.0969 9.19074 15.1781Z" fill="#02BDD5"/>
<path d="M19.5126 18.1937C19.5783 18.4374 19.7626 19.3499 19.8126 19.6812C19.922 20.4218 19.9501 20.7968 19.9501 21.5624C19.9501 22.5718 19.872 23.2562 19.6533 24.1655C19.6001 24.3874 19.5626 24.5718 19.572 24.5812C19.5908 24.5999 20.0595 24.4218 20.4126 24.2562C22.0908 23.478 23.5501 21.9905 24.3189 20.2749C24.4595 19.9562 24.7189 19.2218 24.7626 19.0124L24.7845 18.9155L24.3845 18.7968C22.7908 18.328 21.5314 18.128 20.1595 18.1249H19.4939L19.5126 18.1937Z" fill="#02BDD5"/>
<path d="M18.172 18.3251C16.1189 18.8063 14.5907 19.9626 13.5532 21.8282C13.2126 22.4344 12.7032 23.7626 12.7876 23.8188C13.5345 24.3126 14.6532 24.7313 15.7032 24.9094C16.4064 25.0313 17.7251 25.0251 18.3564 24.8969L18.5407 24.8594L18.6626 24.4063C18.9626 23.2688 19.0439 22.6751 19.0439 21.5469C19.0407 20.4688 18.9532 19.7219 18.6939 18.6251C18.622 18.3219 18.597 18.2657 18.547 18.2594C18.5126 18.2563 18.3439 18.2876 18.172 18.3251Z" fill="#02BDD5"/>
</g>
<defs>
<clipPath id="clip0_717_590">
<rect width="16" height="16" fill="white" transform="translate(9 9)"/>
</clipPath>
</defs>
</svg>
