<svg width="34" height="34" viewBox="0 0 34 34" fill="none" xmlns="http://www.w3.org/2000/svg">
<g clip-path="url(#clip0_165_1853)">
<path d="M8.52344 9.55469C7.82422 9.75 7.23828 10.3398 7.05469 11.043C6.97656 11.332 6.97656 22.668 7.05469 22.957C7.24219 23.668 7.83203 24.2578 8.54297 24.4453C8.70312 24.4883 10.2227 24.5 17.0117 24.5H25.2852L25.582 24.4023C26.2617 24.1719 26.7656 23.6406 26.9453 22.957C27.0234 22.668 27.0234 11.332 26.9453 11.043C26.7578 10.332 26.168 9.74219 25.457 9.55469C25.1797 9.48047 8.79297 9.48047 8.52344 9.55469ZM25.3477 10.4453C25.6484 10.5586 25.9414 10.8516 26.0547 11.1523L26.1406 11.3789V17V22.6211L26.0547 22.8477C25.9414 23.1484 25.6484 23.4414 25.3477 23.5547L25.1211 23.6406H17H8.87891L8.65234 23.5547C8.35156 23.4414 8.05859 23.1484 7.94531 22.8477L7.85938 22.6211V17V11.3789L7.94531 11.1523C8.05469 10.8555 8.35156 10.5586 8.64062 10.4453L8.85547 10.3633H16.9883L25.1211 10.3594L25.3477 10.4453Z" fill="#FEAD56"/>
<path d="M12.7266 12.8828C12.3828 12.9648 12.0469 13.1602 11.7656 13.4453C11.4648 13.7461 11.3242 13.9922 11.2187 14.4062C11.0859 14.9258 11.1289 15.3398 11.375 15.8516C11.4922 16.0977 11.5859 16.2227 11.793 16.418C12.2461 16.8398 12.6406 17 13.25 17C13.875 17 14.2734 16.8359 14.7266 16.3906C15.3867 15.7344 15.5391 14.8086 15.1172 13.9531C14.9648 13.6367 14.5703 13.2344 14.2422 13.0625C13.7969 12.832 13.2227 12.7617 12.7266 12.8828ZM13.7383 13.793C14.1602 13.9805 14.4609 14.4375 14.4609 14.8906C14.4609 15.0312 14.4336 15.2305 14.3984 15.332C14.3164 15.5703 14.0352 15.8828 13.7812 16.0156C13.6094 16.1055 13.5352 16.1211 13.25 16.1211C12.9648 16.1211 12.8906 16.1055 12.7187 16.0156C12.4648 15.8828 12.1836 15.5703 12.1016 15.332C11.8672 14.6484 12.2734 13.8945 12.9648 13.7188C13.168 13.668 13.5352 13.7031 13.7383 13.793Z" fill="#FEAD56"/>
<path d="M18.8516 13.7148C18.6133 13.8594 18.582 14.1797 18.7852 14.3906L18.8906 14.5H21.582H24.2734L24.3867 14.3867C24.4805 14.2891 24.5 14.2383 24.5 14.082C24.5 13.918 24.4805 13.8711 24.3789 13.7734L24.2617 13.6602L21.6172 13.6484C19.082 13.6406 18.9688 13.6445 18.8516 13.7148Z" fill="#FEAD56"/>
<path d="M18.7812 17.1093C18.6484 17.2538 18.6133 17.4569 18.6953 17.6171C18.8281 17.871 18.7187 17.8632 21.625 17.8515L24.2617 17.8397L24.3789 17.7265C24.4805 17.6288 24.5 17.5819 24.5 17.4179C24.5 17.2616 24.4805 17.2108 24.3867 17.1132L24.2734 16.9999H21.582H18.8906L18.7812 17.1093Z" fill="#FEAD56"/>
<path d="M11.0703 17.875C10.3672 18.0469 9.77341 18.625 9.56247 19.3398C9.48825 19.5898 9.47263 20.8594 9.53903 20.9883C9.63278 21.1602 9.98435 21.2383 10.1562 21.1172C10.3281 21 10.3593 20.8672 10.3593 20.2891C10.3593 19.6562 10.4062 19.4531 10.625 19.168C10.7304 19.0273 10.8476 18.9336 11.039 18.8359L11.3086 18.6992H13.25H15.1914L15.4609 18.8359C15.6523 18.9336 15.7695 19.0273 15.875 19.168C16.0937 19.4531 16.1406 19.6562 16.1406 20.2891C16.1406 20.8672 16.1718 21 16.3437 21.1172C16.5156 21.2383 16.8672 21.1602 16.9609 20.9883C17.0273 20.8594 17.0117 19.5898 16.9375 19.3398C16.7226 18.6055 16.0898 18.0117 15.3672 17.8633C15.0586 17.8008 11.3437 17.8125 11.0703 17.875Z" fill="#FEAD56"/>
<path d="M18.7969 20.4336C18.7344 20.4961 18.6719 20.5898 18.6563 20.6484C18.6211 20.7969 18.668 20.9375 18.7969 21.0664L18.9063 21.1797H21.5508C23.8281 21.1797 24.207 21.1719 24.3047 21.1211C24.4492 21.0469 24.5 20.9531 24.5 20.75C24.5 20.5469 24.4492 20.4531 24.3047 20.3789C24.207 20.3281 23.8281 20.3203 21.5508 20.3203H18.9063L18.7969 20.4336Z" fill="#FEAD56"/>
</g>
<circle cx="17" cy="17" r="16.5" stroke="#FEAD56"/>
<defs>
<clipPath id="clip0_165_1853">
<rect width="20" height="20" fill="white" transform="translate(7 7)"/>
</clipPath>
</defs>
</svg>
