<svg width="100" height="100" viewBox="0 0 100 100" fill="none" xmlns="http://www.w3.org/2000/svg">
<g clip-path="url(#clip0_324_44)">
<path d="M7.61719 12.7734C4.12109 13.75 1.19141 16.6992 0.273438 20.2148C-0.117188 21.6602 -0.117188 78.3398 0.273438 79.7852C1.21094 83.3398 4.16016 86.2891 7.71484 87.2266C8.51562 87.4414 16.1133 87.5 50.0586 87.5H91.4258L92.9102 87.0117C96.3086 85.8594 98.8281 83.2031 99.7266 79.7852C100.117 78.3398 100.117 21.6602 99.7266 20.2148C98.7891 16.6602 95.8398 13.7109 92.2852 12.7734C90.8984 12.4023 8.96484 12.4023 7.61719 12.7734ZM91.7383 17.2266C93.2422 17.793 94.707 19.2578 95.2734 20.7617L95.7031 21.8945V50V78.1055L95.2734 79.2383C94.707 80.7422 93.2422 82.207 91.7383 82.7734L90.6055 83.2031H50H9.39453L8.26172 82.7734C6.75781 82.207 5.29297 80.7422 4.72656 79.2383L4.29688 78.1055V50V21.8945L4.72656 20.7617C5.27344 19.2773 6.75781 17.793 8.20312 17.2266L9.27734 16.8164H49.9414L90.6055 16.7969L91.7383 17.2266Z" fill="#FEAD56"/>
<path d="M28.6329 29.4141C26.9142 29.8242 25.2345 30.8008 23.8282 32.2266C22.3243 33.7305 21.6212 34.9609 21.0938 37.0312C20.4298 39.6289 20.6446 41.6992 21.8751 44.2578C22.461 45.4883 22.9298 46.1133 23.9649 47.0898C26.2306 49.1992 28.2032 50 31.2501 50C34.3751 50 36.3673 49.1797 38.6329 46.9531C41.9337 43.6719 42.6954 39.043 40.586 34.7656C39.8243 33.1836 37.8517 31.1719 36.211 30.3125C33.9845 29.1602 31.1134 28.8086 28.6329 29.4141ZM33.6915 33.9648C35.8009 34.9023 37.3048 37.1875 37.3048 39.4531C37.3048 40.1562 37.1681 41.1523 36.9923 41.6602C36.5821 42.8516 35.1759 44.4141 33.9063 45.0781C33.047 45.5273 32.6759 45.6055 31.2501 45.6055C29.8243 45.6055 29.4532 45.5273 28.5938 45.0781C27.3243 44.4141 25.9181 42.8516 25.5079 41.6602C24.336 38.2422 26.3673 34.4727 29.8243 33.5938C30.8399 33.3398 32.6759 33.5156 33.6915 33.9648Z" fill="#FEAD56"/>
<path d="M59.2579 33.5742C58.0665 34.2969 57.9103 35.8984 58.9259 36.9531L59.4532 37.5H72.9103H86.3673L86.9337 36.9336C87.4024 36.4453 87.5001 36.1914 87.5001 35.4102C87.5001 34.5898 87.4024 34.3555 86.8946 33.8672L86.3087 33.3008L73.086 33.2422C60.4103 33.2031 59.8438 33.2227 59.2579 33.5742Z" fill="#FEAD56"/>
<path d="M58.9062 50.5468C58.2422 51.2695 58.0664 52.2851 58.4765 53.0859C59.1406 54.3554 58.5937 54.3164 73.125 54.2578L86.3086 54.1992L86.8945 53.6328C87.4023 53.1445 87.5 52.9101 87.5 52.0898C87.5 51.3086 87.4023 51.0546 86.9336 50.5664L86.3672 50H72.9101H59.4531L58.9062 50.5468Z" fill="#FEAD56"/>
<path d="M20.3515 54.375C16.8359 55.2344 13.8671 58.125 12.8124 61.6992C12.4413 62.9492 12.3632 69.2969 12.6952 69.9414C13.164 70.8008 14.9218 71.1914 15.7812 70.5859C16.6405 70 16.7968 69.3359 16.7968 66.4453C16.7968 63.2812 17.0312 62.2656 18.1249 60.8398C18.6523 60.1367 19.2382 59.668 20.1952 59.1797L21.5429 58.4961H31.2499H40.957L42.3046 59.1797C43.2616 59.668 43.8476 60.1367 44.3749 60.8398C45.4687 62.2656 45.703 63.2812 45.703 66.4453C45.703 69.3359 45.8593 70 46.7187 70.5859C47.578 71.1914 49.3359 70.8008 49.8046 69.9414C50.1366 69.2969 50.0585 62.9492 49.6874 61.6992C48.6132 58.0273 45.4491 55.0586 41.8359 54.3164C40.2929 54.0039 21.7187 54.0625 20.3515 54.375Z" fill="#FEAD56"/>
<path d="M58.9845 67.168C58.672 67.4805 58.3595 67.9492 58.2814 68.2422C58.1056 68.9844 58.3399 69.6875 58.9845 70.332L59.5314 70.8984H72.754C84.1407 70.8984 86.0353 70.8594 86.5235 70.6055C87.2462 70.2344 87.5001 69.7656 87.5001 68.75C87.5001 67.7344 87.2462 67.2656 86.5235 66.8945C86.0353 66.6406 84.1407 66.6016 72.754 66.6016H59.5314L58.9845 67.168Z" fill="#FEAD56"/>
</g>
<defs>
<clipPath id="clip0_324_44">
<rect width="100" height="100" rx="12" fill="white"/>
</clipPath>
</defs>
</svg>
