<svg width="81" height="80" viewBox="0 0 81 80" fill="none" xmlns="http://www.w3.org/2000/svg">
<g clip-path="url(#clip0_165_808)">
<path d="M19.5543 20L0.619385 40L19.5543 60C29.9685 71 38.6312 80 38.8206 80C39.0573 80 39.1993 75.55 39.1993 70.15V60.25L29.6371 50.15L20.0277 40L29.6371 29.85L39.1993 19.75V9.85C39.1993 4.45 39.0573 0 38.8206 0C38.6312 0 29.9685 9 19.5543 20Z" fill="#212B36"/>
<path d="M31.6727 32.8L24.8088 40L31.7201 47.25C35.5544 51.25 38.7733 54.5 38.9153 54.5C39.0574 54.5 39.1994 47.95 39.1994 40C39.1994 32 39.0574 25.5 38.868 25.55C38.6313 25.55 35.4124 28.8 31.6727 32.8Z" fill="#212B36"/>
<path d="M41.0925 9.85V19.75L50.6547 29.85L60.2641 40L50.6547 50.15L41.0925 60.25V70.15C41.0925 75.55 41.2345 80 41.4712 80C41.8026 80 44.1221 77.65 62.3943 59.05C68.5008 52.8 75.2227 45.95 77.3055 43.85L81.0925 40L77.3055 36.15C75.2227 34.05 68.5008 27.2 62.3943 20.95C44.1221 2.35 41.8026 0 41.4712 0C41.2345 0 41.0925 4.45 41.0925 9.85Z" fill="#212B36"/>
</g>
<defs>
<clipPath id="clip0_165_808">
<rect width="80" height="80" fill="white" transform="translate(0.855957)"/>
</clipPath>
</defs>
</svg>
