<svg width="34" height="34" viewBox="0 0 34 34" fill="none" xmlns="http://www.w3.org/2000/svg">
<circle cx="17" cy="17" r="16.5" stroke="#02BDD5"/>
<g clip-path="url(#clip0_717_589)">
<path d="M12.3594 9.04395C11.5406 9.1877 10.7906 9.56895 10.2156 10.1283C9.64063 10.6939 9.2875 11.3096 9.09063 12.1002L9.01562 12.3908V16.9846C9.01562 21.3471 9.01875 21.5908 9.075 21.8283C9.45938 23.4846 10.7125 24.6752 12.375 24.9533C12.7688 25.0221 21.2313 25.0221 21.625 24.9533C22.4594 24.8127 23.2 24.4408 23.7844 23.8721C24.3563 23.3096 24.7 22.7096 24.9125 21.9064L24.9844 21.6408L24.9938 17.1721C25 13.9939 24.9938 12.6314 24.9688 12.4533C24.7625 10.9877 23.7031 9.70332 22.2969 9.21895C21.6813 9.00332 22.0563 9.01895 17.0781 9.0127C13.6594 9.00957 12.525 9.01582 12.3594 9.04395ZM15.7469 13.7908C16.3344 13.9689 16.725 14.3721 16.8594 14.9439C16.95 15.3346 16.9094 15.8158 16.7563 16.1096C16.6375 16.3408 16.3406 16.5689 16.1031 16.6127C15.9344 16.6439 15.9563 16.6783 16.1563 16.6971C16.75 16.7502 17.1219 17.3377 17.125 18.2252C17.125 19.2158 16.6469 19.8814 15.7031 20.1908C15.4875 20.2627 15.4594 20.2627 13.775 20.2721L12.0625 20.2846V17.0002V13.7158L13.8219 13.7283C15.3344 13.7377 15.6 13.7471 15.7469 13.7908ZM21.0313 14.3908V14.6877H19.7188H18.4063V14.3908V14.0939H19.7188H21.0313V14.3908ZM20.4031 15.4252C20.95 15.5627 21.4 15.9346 21.6375 16.4439C21.7125 16.6033 21.7969 16.8252 21.825 16.9377C21.8906 17.1939 21.9531 17.8658 21.925 18.0127L21.9031 18.1252H20.3063H18.7094L18.7281 18.3596C18.7594 18.7658 18.9438 19.0596 19.2688 19.2221C19.4063 19.2908 19.4594 19.2971 19.8281 19.2971C20.2094 19.2971 20.2438 19.2908 20.4125 19.2096C20.625 19.1064 20.7406 18.9783 20.7875 18.7939L20.825 18.6564H21.35C21.9469 18.6564 21.8969 18.6252 21.8406 18.9658C21.7156 19.7002 21.1281 20.1721 20.1875 20.3002C19.0531 20.4502 18.1156 20.0283 17.7063 19.1814C17.4063 18.5596 17.3438 17.9627 17.5031 17.2377C17.7125 16.2846 18.2969 15.6377 19.125 15.4314C19.4969 15.3408 20.0594 15.3377 20.4031 15.4252Z" fill="#02BDD5"/>
<path d="M13.4375 15.5281V16.25H14.3531C15.1812 16.25 15.2781 16.2438 15.375 16.1938C15.5469 16.1 15.6062 15.9438 15.6187 15.5625C15.6281 15.2688 15.6219 15.2188 15.5562 15.0969C15.4156 14.825 15.4344 14.8281 14.3719 14.8188L13.4375 14.8094V15.5281Z" fill="#02BDD5"/>
<path d="M13.4375 18.1406V19.0312H14.375C15.4281 19.0312 15.45 19.0281 15.65 18.8C15.7812 18.65 15.8281 18.4781 15.825 18.125C15.825 17.7 15.7062 17.45 15.4312 17.3094C15.325 17.2563 15.2375 17.25 14.375 17.25H13.4375V18.1406Z" fill="#02BDD5"/>
<path d="M19.4343 16.2938C19.0843 16.4188 18.7874 16.7781 18.703 17.1781L18.6812 17.2812H19.7218H20.7593L20.7374 17.1031C20.7093 16.8688 20.5593 16.5594 20.4155 16.4406C20.353 16.3875 20.2374 16.325 20.1593 16.2969C19.9905 16.2406 19.5905 16.2375 19.4343 16.2938Z" fill="#02BDD5"/>
</g>
<defs>
<clipPath id="clip0_717_589">
<rect width="16" height="16" fill="white" transform="translate(9 9)"/>
</clipPath>
</defs>
</svg>
