<svg width="34" height="34" viewBox="0 0 34 34" fill="none" xmlns="http://www.w3.org/2000/svg">
<g clip-path="url(#clip0_717_588)">
<path d="M12.4718 9.04981C10.7593 9.33731 9.32808 10.7811 9.04683 12.4998C8.97495 12.9467 8.97495 21.0529 9.04683 21.4998C9.32808 23.2342 10.7656 24.6717 12.5 24.9529C12.9468 25.0248 21.0531 25.0248 21.5 24.9529C23.2343 24.6717 24.6718 23.2342 24.9531 21.4998C25.025 21.0529 25.025 12.9467 24.9531 12.4998C24.6718 10.7654 23.2343 9.32793 21.5 9.04668C21.075 8.97793 12.8843 8.98106 12.4718 9.04981ZM19.6093 11.8436C20.8531 11.9623 21.8406 12.8436 22.1187 14.0873C22.1656 14.3061 22.1718 14.5842 22.1718 16.9998C22.1718 19.4092 22.1656 19.6967 22.1187 19.9123C21.8656 21.0404 21.0406 21.8654 19.9125 22.1186C19.6937 22.1654 19.4156 22.1717 17 22.1717C14.5906 22.1717 14.3031 22.1654 14.0875 22.1186C12.9593 21.8654 12.1343 21.0404 11.8812 19.9123C11.8343 19.6936 11.8281 19.4154 11.8281 16.9998C11.8281 14.0561 11.825 14.1342 12.0281 13.6092C12.2375 13.0686 12.6875 12.5342 13.1812 12.2373C13.5156 12.0373 13.975 11.8811 14.3312 11.8467C14.7406 11.8092 19.1968 11.8061 19.6093 11.8436Z" fill="#02BDD5"/>
<path d="M14.1093 12.8093C13.4686 12.9968 12.9624 13.5124 12.7968 14.1468C12.7249 14.4218 12.728 19.5749 12.7999 19.8531C12.9655 20.4968 13.503 21.0343 14.1436 21.1999C14.3124 21.2437 14.6718 21.2499 16.9999 21.2499C19.9561 21.2499 19.8311 21.2593 20.2624 21.0406C20.5624 20.8906 20.8905 20.5624 21.0405 20.2624C21.2593 19.8312 21.2499 19.9562 21.2499 16.9999C21.2499 14.0437 21.2593 14.1687 21.0405 13.7374C20.8905 13.4374 20.5624 13.1093 20.2624 12.9593C19.8311 12.7406 19.9593 12.7499 16.9811 12.7531C14.5218 12.7531 14.2811 12.7593 14.1093 12.8093ZM19.9186 13.9343C20.053 14.0249 20.1249 14.1531 20.1249 14.3124C20.1249 14.4718 20.053 14.5999 19.9186 14.6906C19.728 14.8156 19.4436 14.7468 19.3093 14.5437C19.2374 14.4343 19.2311 14.2187 19.2968 14.0968C19.3999 13.8937 19.7249 13.8093 19.9186 13.9343ZM17.5249 14.7374C17.8093 14.7968 18.2405 15.0124 18.4686 15.2062C19.028 15.6812 19.3124 16.2874 19.3124 16.9968C19.3124 17.3937 19.2561 17.6437 19.0968 17.9812C18.8718 18.4624 18.4936 18.8468 18.0155 19.0781C17.6624 19.2499 17.3843 19.3156 16.9999 19.3156C16.6155 19.3156 16.3374 19.2499 15.9843 19.0781C15.5061 18.8468 15.153 18.4906 14.9218 18.0156C14.7436 17.6531 14.6874 17.4093 14.6874 16.9999C14.6874 16.5906 14.7436 16.3437 14.9218 15.9843C15.1436 15.5312 15.4905 15.1718 15.9343 14.9406C16.4405 14.6781 16.9343 14.6156 17.5249 14.7374Z" fill="#02BDD5"/>
<path d="M16.5344 15.6531C16.1594 15.7938 15.8875 16.0406 15.7094 16.4031C15.6125 16.6031 15.6094 16.625 15.6094 17C15.6094 17.3813 15.6125 17.3969 15.7156 17.6094C15.8563 17.8969 16.1031 18.1437 16.3906 18.2844C16.6031 18.3875 16.6187 18.3906 17 18.3906C17.3813 18.3906 17.3969 18.3875 17.6094 18.2844C17.8969 18.1437 18.1437 17.8969 18.2844 17.6094C18.3875 17.3969 18.3906 17.3813 18.3906 17C18.3906 16.6187 18.3875 16.6031 18.2844 16.3906C18.1437 16.1031 17.8969 15.8563 17.6094 15.7188C17.4062 15.6187 17.3625 15.6094 17.0469 15.6031C16.7656 15.5938 16.6719 15.6031 16.5344 15.6531Z" fill="#02BDD5"/>
</g>
<circle cx="17" cy="17" r="16.5" stroke="#02BDD5"/>
<defs>
<clipPath id="clip0_717_588">
<rect width="16" height="16" fill="white" transform="translate(9 9)"/>
</clipPath>
</defs>
</svg>
