<svg width="20" height="20" viewBox="0 0 20 20" fill="none" xmlns="http://www.w3.org/2000/svg">
<path d="M3.35938 2.06617C3.01172 2.17946 2.80859 2.30055 2.55469 2.55446C2.17578 2.93336 1.99219 3.37477 1.99219 3.90602C1.99219 4.69117 2.41016 5.35914 3.11328 5.69117C3.39062 5.82399 3.45312 5.83961 3.81641 5.85133C4.30469 5.87086 4.63281 5.78492 4.99609 5.54274C5.30078 5.33961 5.48438 5.12477 5.64844 4.78492C5.93359 4.19508 5.92578 3.60133 5.63281 3.00758C5.50391 2.74586 5.12891 2.36305 4.85938 2.21852C4.4375 1.99196 3.79297 1.92555 3.35938 2.06617Z" fill="#02BDD5"/>
<path d="M13.6133 7.05469C12.3828 7.23047 11.5156 7.73047 10.9805 8.57812L10.8594 8.76562V8.03516V7.30469H9.25781H7.65625V12.6562V18.0078H9.33594H11.0117L11.0234 14.8516C11.0391 11.7617 11.0391 11.6914 11.1211 11.3984C11.3672 10.5312 11.8438 10.0938 12.6484 10.0078C13.6914 9.89062 14.3164 10.3203 14.5586 11.3164C14.6172 11.5508 14.625 11.9609 14.6367 14.793L14.6523 18.0078H16.332H18.0117L17.9961 14.3633C17.9805 11.207 17.9727 10.6719 17.9141 10.3555C17.7031 9.14062 17.3008 8.32031 16.6641 7.80469C16.2461 7.46875 15.7383 7.25 15.0898 7.13281C14.7656 7.07031 13.832 7.02344 13.6133 7.05469Z" fill="#02BDD5"/>
<path d="M2.22656 12.6562V18.0078H3.90625H5.58594V12.6562V7.30469H3.90625H2.22656V12.6562Z" fill="#02BDD5"/>
</svg>
