<svg width="34" height="34" viewBox="0 0 34 34" fill="none" xmlns="http://www.w3.org/2000/svg">
<circle cx="17" cy="17" r="16.5" stroke="#02BDD5"/>
<path d="M10.3594 9.06617C10.0117 9.17946 9.80859 9.30055 9.55469 9.55446C9.17578 9.93336 8.99219 10.3748 8.99219 10.906C8.99219 11.6912 9.41016 12.3591 10.1133 12.6912C10.3906 12.824 10.4531 12.8396 10.8164 12.8513C11.3047 12.8709 11.6328 12.7849 11.9961 12.5427C12.3008 12.3396 12.4844 12.1248 12.6484 11.7849C12.9336 11.1951 12.9258 10.6013 12.6328 10.0076C12.5039 9.74586 12.1289 9.36305 11.8594 9.21852C11.4375 8.99196 10.793 8.92555 10.3594 9.06617Z" fill="#02BDD5"/>
<path d="M20.6133 14.0547C19.3828 14.2305 18.5156 14.7305 17.9805 15.5781L17.8594 15.7656V15.0352V14.3047H16.2578H14.6562V19.6562V25.0078H16.3359H18.0117L18.0234 21.8516C18.0391 18.7617 18.0391 18.6914 18.1211 18.3984C18.3672 17.5312 18.8438 17.0938 19.6484 17.0078C20.6914 16.8906 21.3164 17.3203 21.5586 18.3164C21.6172 18.5508 21.625 18.9609 21.6367 21.793L21.6523 25.0078H23.332H25.0117L24.9961 21.3633C24.9805 18.207 24.9727 17.6719 24.9141 17.3555C24.7031 16.1406 24.3008 15.3203 23.6641 14.8047C23.2461 14.4688 22.7383 14.25 22.0898 14.1328C21.7656 14.0703 20.832 14.0234 20.6133 14.0547Z" fill="#02BDD5"/>
<path d="M9.22656 19.6562V25.0078H10.9062H12.5859V19.6562V14.3047H10.9062H9.22656V19.6562Z" fill="#02BDD5"/>
</svg>
