<svg width="448" height="96" viewBox="0 0 448 96" fill="none" xmlns="http://www.w3.org/2000/svg">
<path fill-rule="evenodd" clip-rule="evenodd" d="M40 88C62.0914 88 80 70.0914 80 48C80 25.9086 62.0914 8 40 8C17.9086 8 0 25.9086 0 48C0 70.0914 17.9086 88 40 88ZM23.527 21.3806C23.9065 20.5658 24.2971 20.1529 25.0672 19.7734L25.748 19.4275H39.989H54.2301L54.7882 19.6953C55.6029 20.0748 56.0158 20.4654 56.3953 21.2355L56.7413 21.9163V33.2333V44.5391H58.3707H60.0002L60.3127 44.8516C60.5359 45.0859 60.6475 45.3203 60.6922 45.7221C60.9823 47.9989 62.2323 49.2489 64.4645 49.5056C64.9444 49.5614 65.1676 49.6507 65.402 49.8739L65.7033 50.1752L65.6364 52.6306C65.5917 54.2824 65.5024 55.5882 65.3462 56.6261C64.4645 62.3292 61.9533 66.1016 57.6676 68.1105L56.7413 68.5458V71.3136V74.0815L56.3953 74.7623C56.0158 75.5324 55.6029 75.923 54.7882 76.3025L54.2301 76.5703H40.0002H25.7703L25.2123 76.3025C24.3975 75.923 23.9846 75.5324 23.6051 74.7623L23.2591 74.0815V62.9319V51.7935H19.5538H15.8596L15.3797 51.5145C15.0895 51.3471 14.777 51.0346 14.6096 50.7444L14.3306 50.2645V40.0748V29.885L14.6096 29.4051C14.777 29.115 15.0895 28.8025 15.3797 28.635L15.8596 28.356H19.5538H23.2591V25.1417C23.2591 22.0167 23.2703 21.9275 23.527 21.3806ZM34.219 25.8337C33.4712 25.4654 33.0582 24.9185 32.1319 23.0993L31.3953 21.6596L29.0292 21.6708C27.7234 21.6708 26.4957 21.7266 26.306 21.7824C25.5917 21.9944 25.5471 22.1507 25.5136 25.4208L25.4801 28.356H30.8596H36.239L36.719 28.635C37.0203 28.8136 37.3216 29.1261 37.5114 29.4498L37.8239 29.9743L37.8573 33.4342L37.902 36.894L38.7614 37.7868C39.8328 38.8806 40.0002 39.1931 40.0002 40.0748C40.0002 40.9565 39.8328 41.269 38.7614 42.3627L37.902 43.2556L37.8573 46.7154L37.8239 50.1752L37.5114 50.6998C37.3216 51.0234 37.0203 51.3359 36.719 51.5145L36.239 51.7935H30.8707H25.4913V60.8337V69.8739H30.5024H35.5024L35.8038 70.1641C36.2167 70.5882 36.2167 71.3917 35.8038 71.8158L35.5024 72.106H30.4801H25.4578L25.5136 72.8315C25.5917 73.7243 25.8038 74.0703 26.373 74.2266C26.6743 74.3047 31.0828 74.327 40.2457 74.3158L41.7357 74.3124H41.7361C53.1269 74.2865 53.9137 74.2847 54.1858 73.9096C54.2059 73.8818 54.2233 73.8519 54.2419 73.8198C54.2554 73.7966 54.2696 73.7722 54.2859 73.7467C54.364 73.6127 54.4533 73.1998 54.4868 72.8092L54.5426 72.106H49.5203H44.498L44.1966 71.8158C43.7837 71.3917 43.7837 70.5882 44.1966 70.1641L44.498 69.8739H49.498H54.5091V69.5614C54.5091 69.2712 54.4533 69.2377 53.3707 68.8917C49.6319 67.6752 47.0649 65.5882 45.4466 62.4408C44.0962 59.8292 43.4935 56.9498 43.3819 52.6864L43.3149 50.1752L43.6163 49.8739C43.8507 49.6507 44.0739 49.5614 44.5538 49.5056C46.7859 49.2489 48.0359 47.9989 48.3261 45.7221C48.3707 45.3203 48.4823 45.0859 48.7056 44.8516L49.0181 44.5391H51.7636H54.5091V33.7355C54.5091 26.5815 54.4645 22.798 54.3864 22.519C54.1855 21.76 54.0181 21.7154 51.1498 21.6819L48.6051 21.6484L47.8797 23.0882C46.9422 24.9185 46.5292 25.4654 45.7815 25.8337L45.2011 26.1239H40.0002H34.7993L34.219 25.8337ZM44.6207 23.769C44.8105 23.6797 45.0783 23.3002 45.4132 22.6529L45.9265 21.6596H40.0002H34.0739L34.5873 22.6529C34.9221 23.3002 35.1899 23.6797 35.3797 23.769C35.7703 23.9475 44.2301 23.9475 44.6207 23.769ZM35.5359 37.8984V34.2377V30.5882H26.0493H16.5627V40.0748V49.5614H26.0493H35.5359V45.9118V42.2511L36.6185 41.1685L37.7123 40.0748L36.6185 38.981L35.5359 37.8984ZM60.1899 50.019C59.4087 49.2377 58.7279 48.0658 58.5716 47.2511L58.5047 46.8828H54.5091H50.5136L50.4466 47.2511C50.2904 48.0658 49.6096 49.2377 48.8283 50.019C48.0471 50.8002 46.8752 51.481 46.0605 51.6373L45.6922 51.7042V52.6306C45.6922 53.8583 45.8707 55.5993 46.1386 57.0725C47.0538 61.9163 49.5203 64.9967 53.7167 66.5257C54.3529 66.76 54.4868 66.7712 54.9444 66.6484C55.8373 66.4141 57.8797 65.3426 58.7502 64.6395C60.9042 62.9208 62.3551 60.1752 62.9355 56.76C63.1698 55.3315 63.3261 53.7913 63.3261 52.6752V51.7042L62.9578 51.6373C62.1431 51.481 60.9712 50.8002 60.1899 50.019ZM42.5226 28.6459C42.2882 28.8803 42.2324 29.0477 42.2324 29.4718C42.2324 29.8959 42.2882 30.0633 42.5226 30.2977L42.8239 30.5879H47.2547H51.6855L51.9869 30.2977C52.2213 30.0633 52.2771 29.8959 52.2771 29.4718C52.2771 29.0477 52.2213 28.8803 51.9869 28.6459L51.6855 28.3557H47.2547H42.8239L42.5226 28.6459ZM42.2324 33.9367C42.2324 33.5126 42.2882 33.3451 42.5226 33.1108L42.8239 32.8206H47.2547H51.6855L51.9869 33.1108C52.2213 33.3451 52.2771 33.5126 52.2771 33.9367C52.2771 34.3608 52.2213 34.5282 51.9869 34.7626L51.6855 35.0527H47.2547H42.8239L42.5226 34.7626C42.2882 34.5282 42.2324 34.3608 42.2324 33.9367ZM28.0136 54.3158C27.7792 54.5502 27.7234 54.7176 27.7234 55.1417C27.7234 55.5658 27.7792 55.7333 28.0136 55.9676L28.3149 56.2578H32.7457H37.1765L37.4779 55.9676C37.7123 55.7333 37.7681 55.5658 37.7681 55.1417C37.7681 54.7176 37.7123 54.5502 37.4779 54.3158L37.1765 54.0257H32.7457H28.3149L28.0136 54.3158ZM27.7236 59.6066C27.7236 59.1825 27.7794 59.0151 28.0138 58.7807L28.3152 58.4905H32.746H37.1768L37.4781 58.7807C37.7125 59.0151 37.7683 59.1825 37.7683 59.6066C37.7683 60.0307 37.7125 60.1981 37.4781 60.4325L37.1768 60.7227H32.746H28.3152L28.0138 60.4325C27.7794 60.1981 27.7236 60.0307 27.7236 59.6066ZM28.0138 63.2436C27.7794 63.478 27.7236 63.6454 27.7236 64.0695C27.7236 64.4936 27.7794 64.661 28.0138 64.8954L28.3152 65.1855H32.746H37.1768L37.4781 64.8954C37.7125 64.661 37.7683 64.4936 37.7683 64.0695C37.7683 63.6454 37.7125 63.478 37.4781 63.2436L37.1768 62.9534H32.746H28.3152L28.0138 63.2436ZM38.8843 70.9894C38.8843 70.5653 38.9401 70.3979 39.1745 70.1635C39.4088 69.9291 39.5762 69.8733 40.0003 69.8733C40.737 69.8733 41.1164 70.2528 41.1164 70.9894C41.1164 71.726 40.737 72.1055 40.0003 72.1055C39.2637 72.1055 38.8843 71.726 38.8843 70.9894ZM24.9444 33.7801C23.594 34.6842 22.4444 36.3917 22.2882 37.7087C22.2324 38.1775 22.1877 38.2891 22.0426 38.2444C21.1498 37.9989 19.1185 38.1217 18.594 38.4676C18.2145 38.7243 17.9913 39.3382 17.9355 40.3538C17.7569 43.2444 19.7435 45.8337 22.7234 46.5926C23.6609 46.8382 28.4042 46.827 29.3975 46.5815C31.6632 46.0346 33.527 44.2042 34.0404 42.0167C34.3752 40.5993 34.1073 38.8694 33.5047 38.4676C32.9801 38.1217 30.9377 37.9989 30.0449 38.2444C29.8886 38.2891 29.844 38.2333 29.844 37.9877C29.844 37.1283 29.1074 35.6105 28.2926 34.7511C26.9199 33.3114 26.027 33.0547 24.9444 33.7801ZM26.6408 36.5033C27.21 37.1283 27.5337 37.9431 27.5449 38.7578C27.556 39.2042 27.5114 39.3047 27.2212 39.5279C27.0426 39.673 26.6966 39.9743 26.4734 40.2199L26.0605 40.6551L25.4355 40.0301C25.1007 39.6842 24.777 39.4051 24.7212 39.4051C24.4087 39.4051 24.5315 37.9654 24.8998 37.24C25.0783 36.8828 25.9154 35.9453 26.0493 35.9453C26.1051 35.9453 26.3618 36.202 26.6408 36.5033ZM21.4957 40.5324C23.3261 40.923 24.8216 42.4743 24.8216 43.9922C24.8216 44.4833 24.7212 44.5279 23.7837 44.4051C21.9645 44.1596 20.4466 42.7087 20.2792 41.0234L20.2123 40.4096H20.5582C20.748 40.4096 21.1721 40.4654 21.4957 40.5324ZM31.8194 41.0234C31.652 42.7087 30.1341 44.1596 28.3149 44.4051C27.3774 44.5279 27.277 44.4833 27.277 43.9922C27.277 42.5301 28.6832 41.0011 30.4578 40.5658C30.7703 40.4877 31.2167 40.4208 31.4511 40.4208L31.8864 40.4096L31.8194 41.0234ZM47.5002 54.0696C48.6944 52.7749 50.7591 51.7147 52.8015 51.3463C53.0917 51.2905 54.018 51.2682 54.8439 51.2905C56.0604 51.3129 56.5403 51.3798 57.3328 51.6142C58.9957 52.1053 60.547 53.0093 61.518 54.0696C62.0314 54.6276 62.1095 55.0182 61.8194 55.5874C61.6073 56.0004 61.3395 56.1455 60.7926 56.1455C60.4354 56.1455 60.2457 56.045 59.6988 55.5763C58.7725 54.795 57.9578 54.3151 56.9087 53.9468C56.1051 53.6678 55.8707 53.6343 54.5091 53.6343C53.1475 53.6343 52.9131 53.6678 52.1095 53.9468C51.1497 54.2928 49.8216 55.0517 49.3752 55.5316C48.6274 56.3352 47.6006 56.3687 47.1988 55.5874C46.9087 55.0182 46.9868 54.6276 47.5002 54.0696ZM53.0919 55.8563C51.853 56.1576 50.3798 57.1733 50.2124 57.8541C50.0227 58.613 50.5361 59.2715 51.3062 59.2715C51.6968 59.2715 51.9089 59.1934 52.2883 58.9032C53.2035 58.2001 53.4825 58.0996 54.5093 58.0996C55.5361 58.0996 55.8151 58.2001 56.7303 58.9032C57.1097 59.1934 57.3218 59.2715 57.7124 59.2715C58.4825 59.2715 58.9959 58.613 58.8062 57.8429C58.6388 57.1509 57.0428 56.0907 55.7593 55.8228C55.0004 55.6666 53.8285 55.6777 53.0919 55.8563ZM54.219 62.4632C53.3707 62.2511 53.0806 61.1239 53.7167 60.4877C53.9734 60.231 54.1408 60.1641 54.5091 60.1641C55.1899 60.1641 55.6252 60.6217 55.6252 61.3359C55.6252 61.7266 55.5582 61.9051 55.3574 62.1172C55.0337 62.4297 54.6207 62.5636 54.219 62.4632Z" fill="white"/>
<mask id="path-2-outside-1_4_6250" maskUnits="userSpaceOnUse" x="101" y="18" width="344" height="67" fill="black">
<rect fill="white" x="101" y="18" width="344" height="67"/>
<path d="M103.104 71L122.88 26.2H135.36L155.2 71H142.016L126.528 32.408H131.52L116.032 71H103.104ZM113.92 62.296L117.184 52.952H139.072L142.336 62.296H113.92ZM177.424 83.992C174.096 83.992 170.917 83.608 167.888 82.84C164.901 82.072 162.341 80.9413 160.208 79.448L164.624 70.936C166.075 72.088 167.867 72.984 170 73.624C172.176 74.3067 174.288 74.648 176.336 74.648C179.621 74.648 181.989 73.9227 183.44 72.472C184.891 71.064 185.616 68.9947 185.616 66.264V62.168L186.256 52.44L186.192 42.648V36.312H197.776V64.664C197.776 71.2347 196.005 76.0987 192.464 79.256C188.923 82.4133 183.909 83.992 177.424 83.992ZM175.312 69.208C172.24 69.208 169.403 68.5253 166.8 67.16C164.24 65.752 162.171 63.8107 160.592 61.336C159.056 58.8187 158.288 55.8533 158.288 52.44C158.288 49.0267 159.056 46.0827 160.592 43.608C162.171 41.0907 164.24 39.1493 166.8 37.784C169.403 36.4187 172.24 35.736 175.312 35.736C178.256 35.736 180.773 36.3333 182.864 37.528C184.955 38.68 186.533 40.4933 187.6 42.968C188.709 45.4427 189.264 48.6 189.264 52.44C189.264 56.28 188.709 59.4373 187.6 61.912C186.533 64.3867 184.955 66.2213 182.864 67.416C180.773 68.6107 178.256 69.208 175.312 69.208ZM178.192 59.544C179.643 59.544 180.923 59.2453 182.032 58.648C183.184 58.0507 184.08 57.2187 184.72 56.152C185.403 55.0853 185.744 53.848 185.744 52.44C185.744 51.032 185.403 49.7947 184.72 48.728C184.08 47.6613 183.184 46.8507 182.032 46.296C180.923 45.6987 179.643 45.4 178.192 45.4C176.741 45.4 175.44 45.6987 174.288 46.296C173.136 46.8507 172.219 47.6613 171.536 48.728C170.896 49.7947 170.576 51.032 170.576 52.44C170.576 53.848 170.896 55.0853 171.536 56.152C172.219 57.2187 173.136 58.0507 174.288 58.648C175.44 59.2453 176.741 59.544 178.192 59.544ZM208.149 71V36.312H219.733V46.424L218.005 43.544C219.029 40.9413 220.693 39 222.997 37.72C225.301 36.3973 228.096 35.736 231.381 35.736V46.68C230.826 46.5947 230.336 46.552 229.909 46.552C229.525 46.5093 229.098 46.488 228.629 46.488C226.154 46.488 224.149 47.1707 222.613 48.536C221.077 49.8587 220.309 52.0347 220.309 55.064V71H208.149ZM238.959 71V36.312H251.119V71H238.959ZM245.039 32.472C242.82 32.472 241.028 31.8533 239.663 30.616C238.298 29.3787 237.615 27.8427 237.615 26.008C237.615 24.1733 238.298 22.6373 239.663 21.4C241.028 20.1627 242.82 19.544 245.039 19.544C247.258 19.544 249.05 20.1413 250.415 21.336C251.78 22.488 252.463 23.9813 252.463 25.816C252.463 27.736 251.78 29.336 250.415 30.616C249.092 31.8533 247.3 32.472 245.039 32.472ZM292.879 71V36.248H279.119V26.2H319.247V36.248H305.551V71H292.879ZM340.628 71.576C336.532 71.576 332.948 70.808 329.876 69.272C326.846 67.6933 324.478 65.56 322.772 62.872C321.108 60.1413 320.276 57.048 320.276 53.592C320.276 50.136 321.086 47.064 322.708 44.376C324.372 41.6453 326.654 39.5333 329.556 38.04C332.457 36.504 335.721 35.736 339.348 35.736C342.761 35.736 345.876 36.44 348.692 37.848C351.508 39.2133 353.748 41.24 355.412 43.928C357.076 46.616 357.908 49.88 357.908 53.72C357.908 54.1467 357.886 54.6373 357.844 55.192C357.801 55.7467 357.758 56.2587 357.716 56.728H330.26V50.328H351.252L346.644 52.12C346.686 50.5413 346.388 49.176 345.748 48.024C345.15 46.872 344.297 45.976 343.188 45.336C342.121 44.696 340.862 44.376 339.412 44.376C337.961 44.376 336.681 44.696 335.572 45.336C334.505 45.976 333.673 46.8933 333.076 48.088C332.478 49.24 332.18 50.6053 332.18 52.184V54.04C332.18 55.7467 332.521 57.2187 333.204 58.456C333.929 59.6933 334.953 60.6533 336.276 61.336C337.598 61.976 339.177 62.296 341.012 62.296C342.718 62.296 344.169 62.0613 345.364 61.592C346.601 61.08 347.817 60.312 349.012 59.288L355.412 65.944C353.748 67.7787 351.7 69.1867 349.268 70.168C346.836 71.1067 343.956 71.576 340.628 71.576ZM383.802 71.576C379.962 71.576 376.527 70.808 373.498 69.272C370.511 67.736 368.165 65.624 366.458 62.936C364.751 60.2053 363.898 57.0907 363.898 53.592C363.898 50.0933 364.751 47 366.458 44.312C368.165 41.624 370.511 39.5333 373.498 38.04C376.527 36.504 379.962 35.736 383.802 35.736C387.727 35.736 391.119 36.568 393.978 38.232C396.837 39.896 398.863 42.2427 400.058 45.272L390.65 50.072C389.839 48.4507 388.837 47.2773 387.642 46.552C386.447 45.784 385.146 45.4 383.738 45.4C382.33 45.4 381.05 45.72 379.898 46.36C378.746 47 377.829 47.9387 377.146 49.176C376.506 50.3707 376.186 51.8427 376.186 53.592C376.186 55.384 376.506 56.8987 377.146 58.136C377.829 59.3733 378.746 60.312 379.898 60.952C381.05 61.592 382.33 61.912 383.738 61.912C385.146 61.912 386.447 61.5493 387.642 60.824C388.837 60.056 389.839 58.8613 390.65 57.24L400.058 62.04C398.863 65.0693 396.837 67.416 393.978 69.08C391.119 70.744 387.727 71.576 383.802 71.576ZM429.664 35.736C432.352 35.736 434.784 36.2907 436.96 37.4C439.136 38.4667 440.842 40.1307 442.08 42.392C443.36 44.6533 444 47.576 444 51.16V71H431.84V53.144C431.84 50.6693 431.328 48.8773 430.304 47.768C429.322 46.616 427.936 46.04 426.144 46.04C424.864 46.04 423.69 46.3387 422.624 46.936C421.557 47.4907 420.725 48.3653 420.128 49.56C419.53 50.7547 419.232 52.312 419.232 54.232V71H407.072V23.512H419.232V46.168L416.416 43.288C417.738 40.7707 419.552 38.8933 421.856 37.656C424.16 36.376 426.762 35.736 429.664 35.736Z"/>
</mask>
<path d="M103.104 71L122.88 26.2H135.36L155.2 71H142.016L126.528 32.408H131.52L116.032 71H103.104ZM113.92 62.296L117.184 52.952H139.072L142.336 62.296H113.92ZM177.424 83.992C174.096 83.992 170.917 83.608 167.888 82.84C164.901 82.072 162.341 80.9413 160.208 79.448L164.624 70.936C166.075 72.088 167.867 72.984 170 73.624C172.176 74.3067 174.288 74.648 176.336 74.648C179.621 74.648 181.989 73.9227 183.44 72.472C184.891 71.064 185.616 68.9947 185.616 66.264V62.168L186.256 52.44L186.192 42.648V36.312H197.776V64.664C197.776 71.2347 196.005 76.0987 192.464 79.256C188.923 82.4133 183.909 83.992 177.424 83.992ZM175.312 69.208C172.24 69.208 169.403 68.5253 166.8 67.16C164.24 65.752 162.171 63.8107 160.592 61.336C159.056 58.8187 158.288 55.8533 158.288 52.44C158.288 49.0267 159.056 46.0827 160.592 43.608C162.171 41.0907 164.24 39.1493 166.8 37.784C169.403 36.4187 172.24 35.736 175.312 35.736C178.256 35.736 180.773 36.3333 182.864 37.528C184.955 38.68 186.533 40.4933 187.6 42.968C188.709 45.4427 189.264 48.6 189.264 52.44C189.264 56.28 188.709 59.4373 187.6 61.912C186.533 64.3867 184.955 66.2213 182.864 67.416C180.773 68.6107 178.256 69.208 175.312 69.208ZM178.192 59.544C179.643 59.544 180.923 59.2453 182.032 58.648C183.184 58.0507 184.08 57.2187 184.72 56.152C185.403 55.0853 185.744 53.848 185.744 52.44C185.744 51.032 185.403 49.7947 184.72 48.728C184.08 47.6613 183.184 46.8507 182.032 46.296C180.923 45.6987 179.643 45.4 178.192 45.4C176.741 45.4 175.44 45.6987 174.288 46.296C173.136 46.8507 172.219 47.6613 171.536 48.728C170.896 49.7947 170.576 51.032 170.576 52.44C170.576 53.848 170.896 55.0853 171.536 56.152C172.219 57.2187 173.136 58.0507 174.288 58.648C175.44 59.2453 176.741 59.544 178.192 59.544ZM208.149 71V36.312H219.733V46.424L218.005 43.544C219.029 40.9413 220.693 39 222.997 37.72C225.301 36.3973 228.096 35.736 231.381 35.736V46.68C230.826 46.5947 230.336 46.552 229.909 46.552C229.525 46.5093 229.098 46.488 228.629 46.488C226.154 46.488 224.149 47.1707 222.613 48.536C221.077 49.8587 220.309 52.0347 220.309 55.064V71H208.149ZM238.959 71V36.312H251.119V71H238.959ZM245.039 32.472C242.82 32.472 241.028 31.8533 239.663 30.616C238.298 29.3787 237.615 27.8427 237.615 26.008C237.615 24.1733 238.298 22.6373 239.663 21.4C241.028 20.1627 242.82 19.544 245.039 19.544C247.258 19.544 249.05 20.1413 250.415 21.336C251.78 22.488 252.463 23.9813 252.463 25.816C252.463 27.736 251.78 29.336 250.415 30.616C249.092 31.8533 247.3 32.472 245.039 32.472ZM292.879 71V36.248H279.119V26.2H319.247V36.248H305.551V71H292.879ZM340.628 71.576C336.532 71.576 332.948 70.808 329.876 69.272C326.846 67.6933 324.478 65.56 322.772 62.872C321.108 60.1413 320.276 57.048 320.276 53.592C320.276 50.136 321.086 47.064 322.708 44.376C324.372 41.6453 326.654 39.5333 329.556 38.04C332.457 36.504 335.721 35.736 339.348 35.736C342.761 35.736 345.876 36.44 348.692 37.848C351.508 39.2133 353.748 41.24 355.412 43.928C357.076 46.616 357.908 49.88 357.908 53.72C357.908 54.1467 357.886 54.6373 357.844 55.192C357.801 55.7467 357.758 56.2587 357.716 56.728H330.26V50.328H351.252L346.644 52.12C346.686 50.5413 346.388 49.176 345.748 48.024C345.15 46.872 344.297 45.976 343.188 45.336C342.121 44.696 340.862 44.376 339.412 44.376C337.961 44.376 336.681 44.696 335.572 45.336C334.505 45.976 333.673 46.8933 333.076 48.088C332.478 49.24 332.18 50.6053 332.18 52.184V54.04C332.18 55.7467 332.521 57.2187 333.204 58.456C333.929 59.6933 334.953 60.6533 336.276 61.336C337.598 61.976 339.177 62.296 341.012 62.296C342.718 62.296 344.169 62.0613 345.364 61.592C346.601 61.08 347.817 60.312 349.012 59.288L355.412 65.944C353.748 67.7787 351.7 69.1867 349.268 70.168C346.836 71.1067 343.956 71.576 340.628 71.576ZM383.802 71.576C379.962 71.576 376.527 70.808 373.498 69.272C370.511 67.736 368.165 65.624 366.458 62.936C364.751 60.2053 363.898 57.0907 363.898 53.592C363.898 50.0933 364.751 47 366.458 44.312C368.165 41.624 370.511 39.5333 373.498 38.04C376.527 36.504 379.962 35.736 383.802 35.736C387.727 35.736 391.119 36.568 393.978 38.232C396.837 39.896 398.863 42.2427 400.058 45.272L390.65 50.072C389.839 48.4507 388.837 47.2773 387.642 46.552C386.447 45.784 385.146 45.4 383.738 45.4C382.33 45.4 381.05 45.72 379.898 46.36C378.746 47 377.829 47.9387 377.146 49.176C376.506 50.3707 376.186 51.8427 376.186 53.592C376.186 55.384 376.506 56.8987 377.146 58.136C377.829 59.3733 378.746 60.312 379.898 60.952C381.05 61.592 382.33 61.912 383.738 61.912C385.146 61.912 386.447 61.5493 387.642 60.824C388.837 60.056 389.839 58.8613 390.65 57.24L400.058 62.04C398.863 65.0693 396.837 67.416 393.978 69.08C391.119 70.744 387.727 71.576 383.802 71.576ZM429.664 35.736C432.352 35.736 434.784 36.2907 436.96 37.4C439.136 38.4667 440.842 40.1307 442.08 42.392C443.36 44.6533 444 47.576 444 51.16V71H431.84V53.144C431.84 50.6693 431.328 48.8773 430.304 47.768C429.322 46.616 427.936 46.04 426.144 46.04C424.864 46.04 423.69 46.3387 422.624 46.936C421.557 47.4907 420.725 48.3653 420.128 49.56C419.53 50.7547 419.232 52.312 419.232 54.232V71H407.072V23.512H419.232V46.168L416.416 43.288C417.738 40.7707 419.552 38.8933 421.856 37.656C424.16 36.376 426.762 35.736 429.664 35.736Z" fill="white"/>
<path d="M103.104 71L102.189 70.5962L101.569 72H103.104V71ZM122.88 26.2V25.2H122.228L121.965 25.7962L122.88 26.2ZM135.36 26.2L136.274 25.7951L136.011 25.2H135.36V26.2ZM155.2 71V72H156.737L156.114 70.5951L155.2 71ZM142.016 71L141.088 71.3725L141.34 72H142.016V71ZM126.528 32.408V31.408H125.049L125.6 32.7804L126.528 32.408ZM131.52 32.408L132.448 32.7804L132.999 31.408H131.52V32.408ZM116.032 71V72H116.708L116.96 71.3725L116.032 71ZM113.92 62.296L112.976 61.9662L112.511 63.296H113.92V62.296ZM117.184 52.952V51.952H116.474L116.24 52.6222L117.184 52.952ZM139.072 52.952L140.016 52.6222L139.782 51.952H139.072V52.952ZM142.336 62.296V63.296H143.745L143.28 61.9662L142.336 62.296ZM104.019 71.4038L123.795 26.6038L121.965 25.7962L102.189 70.5962L104.019 71.4038ZM122.88 27.2H135.36V25.2H122.88V27.2ZM134.446 26.6049L154.286 71.4049L156.114 70.5951L136.274 25.7951L134.446 26.6049ZM155.2 70H142.016V72H155.2V70ZM142.944 70.6275L127.456 32.0355L125.6 32.7804L141.088 71.3725L142.944 70.6275ZM126.528 33.408H131.52V31.408H126.528V33.408ZM130.592 32.0355L115.104 70.6275L116.96 71.3725L132.448 32.7804L130.592 32.0355ZM116.032 70H103.104V72H116.032V70ZM114.864 62.6258L118.128 53.2818L116.24 52.6222L112.976 61.9662L114.864 62.6258ZM117.184 53.952H139.072V51.952H117.184V53.952ZM138.128 53.2818L141.392 62.6258L143.28 61.9662L140.016 52.6222L138.128 53.2818ZM142.336 61.296H113.92V63.296H142.336V61.296ZM167.888 82.84L167.639 83.8085L167.642 83.8093L167.888 82.84ZM160.208 79.448L159.32 78.9875L158.917 79.765L159.635 80.2672L160.208 79.448ZM164.624 70.936L165.246 70.1529L164.295 69.398L163.736 70.4755L164.624 70.936ZM170 73.624L170.299 72.6698L170.287 72.6662L170 73.624ZM183.44 72.472L182.744 71.7544L182.738 71.7596L182.733 71.7649L183.44 72.472ZM185.616 62.168L184.618 62.1024L184.616 62.1351V62.168H185.616ZM186.256 52.44L187.254 52.5056L187.256 52.4696L187.256 52.4335L186.256 52.44ZM186.192 42.648H185.192L185.192 42.6545L186.192 42.648ZM186.192 36.312V35.312H185.192V36.312H186.192ZM197.776 36.312H198.776V35.312H197.776V36.312ZM192.464 79.256L193.129 80.0024L192.464 79.256ZM166.8 67.16L166.318 68.0362L166.327 68.041L166.335 68.0455L166.8 67.16ZM160.592 61.336L159.738 61.8569L159.744 61.8654L159.749 61.8738L160.592 61.336ZM160.592 43.608L159.745 43.0767L159.742 43.0806L160.592 43.608ZM166.8 37.784L166.335 36.8984L166.329 36.9016L166.8 37.784ZM182.864 37.528L182.368 38.3962L182.375 38.4001L182.381 38.4038L182.864 37.528ZM187.6 42.968L186.682 43.3638L186.685 43.3705L186.687 43.3771L187.6 42.968ZM187.6 61.912L186.687 61.5029L186.685 61.5095L186.682 61.5162L187.6 61.912ZM182.864 67.416L183.36 68.2842L182.864 67.416ZM182.032 58.648L181.572 57.7602L181.565 57.7638L181.558 57.7675L182.032 58.648ZM184.72 56.152L183.878 55.6129L183.87 55.6251L183.863 55.6375L184.72 56.152ZM184.72 48.728L183.863 49.2425L183.87 49.2549L183.878 49.2671L184.72 48.728ZM182.032 46.296L181.558 47.1765L181.578 47.1872L181.598 47.197L182.032 46.296ZM174.288 46.296L174.722 47.197L174.735 47.1906L174.748 47.1838L174.288 46.296ZM171.536 48.728L170.694 48.1889L170.686 48.2011L170.679 48.2135L171.536 48.728ZM171.536 56.152L170.679 56.6665L170.686 56.6789L170.694 56.6911L171.536 56.152ZM174.288 58.648L173.828 59.5358L174.288 58.648ZM177.424 82.992C174.174 82.992 171.078 82.617 168.134 81.8707L167.642 83.8093C170.757 84.599 174.018 84.992 177.424 84.992V82.992ZM168.137 81.8715C165.246 81.128 162.8 80.0419 160.781 78.6288L159.635 80.2672C161.882 81.8408 164.557 83.016 167.639 83.8085L168.137 81.8715ZM161.096 79.9085L165.512 71.3965L163.736 70.4755L159.32 78.9875L161.096 79.9085ZM164.002 71.7191C165.57 72.9643 167.482 73.9126 169.713 74.5818L170.287 72.6662C168.252 72.0555 166.579 71.2117 165.246 70.1529L164.002 71.7191ZM169.701 74.5781C171.963 75.2878 174.176 75.648 176.336 75.648V73.648C174.4 73.648 172.389 73.3255 170.299 72.6699L169.701 74.5781ZM176.336 75.648C179.733 75.648 182.423 74.9034 184.147 73.1791L182.733 71.7649C181.556 72.942 179.51 73.648 176.336 73.648V75.648ZM184.136 73.1896C185.842 71.5345 186.616 69.1671 186.616 66.264H184.616C184.616 68.8223 183.94 70.5935 182.744 71.7544L184.136 73.1896ZM186.616 66.264V62.168H184.616V66.264H186.616ZM186.614 62.2336L187.254 52.5056L185.258 52.3744L184.618 62.1024L186.614 62.2336ZM187.256 52.4335L187.192 42.6415L185.192 42.6545L185.256 52.4465L187.256 52.4335ZM187.192 42.648V36.312H185.192V42.648H187.192ZM186.192 37.312H197.776V35.312H186.192V37.312ZM196.776 36.312V64.664H198.776V36.312H196.776ZM196.776 64.664C196.776 71.0635 195.055 75.6065 191.799 78.5096L193.129 80.0024C196.956 76.5909 198.776 71.4059 198.776 64.664H196.776ZM191.799 78.5096C188.498 81.4519 183.755 82.992 177.424 82.992V84.992C184.064 84.992 189.347 83.3747 193.129 80.0024L191.799 78.5096ZM175.312 68.208C172.394 68.208 169.717 67.5612 167.265 66.2745L166.335 68.0455C169.088 69.4895 172.086 70.208 175.312 70.208V68.208ZM167.282 66.2838C164.869 64.9569 162.924 63.1323 161.435 60.7982L159.749 61.8738C161.417 64.4891 163.611 66.5471 166.318 68.0362L167.282 66.2838ZM161.446 60.8151C160.02 58.478 159.288 55.699 159.288 52.44H157.288C157.288 56.0077 158.092 59.1593 159.738 61.8569L161.446 60.8151ZM159.288 52.44C159.288 49.1805 160.02 46.4262 161.442 44.1354L159.742 43.0806C158.092 45.7392 157.288 48.8728 157.288 52.44H159.288ZM161.439 44.1393C162.927 41.7661 164.868 39.9475 167.271 38.6663L166.329 36.9016C163.612 38.3512 161.414 40.4152 159.745 43.0767L161.439 44.1393ZM167.265 38.6695C169.717 37.3828 172.394 36.736 175.312 36.736V34.736C172.086 34.736 169.088 35.4545 166.335 36.8984L167.265 38.6695ZM175.312 36.736C178.12 36.736 180.459 37.3052 182.368 38.3962L183.36 36.6598C181.088 35.3615 178.392 34.736 175.312 34.736V36.736ZM182.381 38.4038C184.253 39.435 185.691 41.0654 186.682 43.3638L188.518 42.5722C187.376 39.9212 185.657 37.925 183.347 36.6522L182.381 38.4038ZM186.687 43.3771C187.72 45.6812 188.264 48.6865 188.264 52.44H190.264C190.264 48.5135 189.698 45.2041 188.513 42.5589L186.687 43.3771ZM188.264 52.44C188.264 56.1935 187.72 59.1988 186.687 61.5029L188.513 62.3211C189.698 59.6759 190.264 56.3665 190.264 52.44H188.264ZM186.682 61.5162C185.69 63.8167 184.248 65.4734 182.368 66.5478L183.36 68.2842C185.661 66.9693 187.377 64.9566 188.518 62.3078L186.682 61.5162ZM182.368 66.5478C180.459 67.6388 178.12 68.208 175.312 68.208V70.208C178.392 70.208 181.088 69.5825 183.36 68.2842L182.368 66.5478ZM178.192 60.544C179.783 60.544 181.23 60.2154 182.506 59.5285L181.558 57.7675C180.615 58.2752 179.502 58.544 178.192 58.544V60.544ZM182.492 59.5358C183.801 58.857 184.838 57.899 185.577 56.6665L183.863 55.6375C183.322 56.5383 182.567 57.2443 181.572 57.7602L182.492 59.5358ZM185.562 56.6911C186.359 55.4458 186.744 54.017 186.744 52.44H184.744C184.744 53.679 184.446 54.7248 183.878 55.6129L185.562 56.6911ZM186.744 52.44C186.744 50.863 186.359 49.4342 185.562 48.1889L183.878 49.2671C184.446 50.1551 184.744 51.201 184.744 52.44H186.744ZM185.577 48.2135C184.834 46.9745 183.789 46.0319 182.466 45.395L181.598 47.197C182.579 47.6695 183.326 48.3481 183.863 49.2425L185.577 48.2135ZM182.506 45.4155C181.23 44.7286 179.783 44.4 178.192 44.4V46.4C179.502 46.4 180.615 46.6688 181.558 47.1765L182.506 45.4155ZM178.192 44.4C176.6 44.4 175.138 44.7288 173.828 45.4082L174.748 47.1838C175.742 46.6685 176.882 46.4 178.192 46.4V44.4ZM173.854 45.395C172.537 46.0293 171.477 46.9645 170.694 48.1889L172.378 49.2671C172.96 48.3582 173.735 47.672 174.722 47.197L173.854 45.395ZM170.679 48.2135C169.933 49.4553 169.576 50.8752 169.576 52.44H171.576C171.576 51.1888 171.859 50.134 172.393 49.2425L170.679 48.2135ZM169.576 52.44C169.576 54.0048 169.933 55.4247 170.679 56.6665L172.393 55.6375C171.859 54.7459 171.576 53.6912 171.576 52.44H169.576ZM170.694 56.6911C171.473 57.9092 172.524 58.8598 173.828 59.5358L174.748 57.7602C173.748 57.2416 172.964 56.5281 172.378 55.6129L170.694 56.6911ZM173.828 59.5358C175.138 60.2152 176.6 60.544 178.192 60.544V58.544C176.882 58.544 175.742 58.2755 174.748 57.7602L173.828 59.5358ZM208.149 71H207.149V72H208.149V71ZM208.149 36.312V35.312H207.149V36.312H208.149ZM219.733 36.312H220.733V35.312H219.733V36.312ZM219.733 46.424L218.876 46.9385L220.733 50.0343V46.424H219.733ZM218.005 43.544L217.074 43.1779L216.894 43.6362L217.148 44.0585L218.005 43.544ZM222.997 37.72L223.483 38.5942L223.495 38.5872L222.997 37.72ZM231.381 35.736H232.381V34.736H231.381V35.736ZM231.381 46.68L231.229 47.6684L232.381 47.8456V46.68H231.381ZM229.909 46.552L229.799 47.5459L229.854 47.552H229.909V46.552ZM222.613 48.536L223.266 49.2938L223.271 49.2886L223.277 49.2834L222.613 48.536ZM220.309 71V72H221.309V71H220.309ZM209.149 71V36.312H207.149V71H209.149ZM208.149 37.312H219.733V35.312H208.149V37.312ZM218.733 36.312V46.424H220.733V36.312H218.733ZM220.59 45.9095L218.862 43.0295L217.148 44.0585L218.876 46.9385L220.59 45.9095ZM218.936 43.9101C219.88 41.509 221.394 39.7543 223.483 38.5942L222.511 36.8458C219.992 38.2457 218.178 40.3736 217.074 43.1779L218.936 43.9101ZM223.495 38.5872C225.615 37.3699 228.229 36.736 231.381 36.736V34.736C227.962 34.736 224.987 35.4248 222.499 36.8527L223.495 38.5872ZM230.381 35.736V46.68H232.381V35.736H230.381ZM231.533 45.6916C230.943 45.6008 230.4 45.552 229.909 45.552V47.552C230.272 47.552 230.71 47.5885 231.229 47.6684L231.533 45.6916ZM230.019 45.5581C229.592 45.5106 229.128 45.488 228.629 45.488V47.488C229.069 47.488 229.458 47.508 229.799 47.5459L230.019 45.5581ZM228.629 45.488C225.962 45.488 223.703 46.2287 221.949 47.7886L223.277 49.2834C224.595 48.1126 226.347 47.488 228.629 47.488V45.488ZM221.96 47.7782C220.113 49.3689 219.309 51.8895 219.309 55.064H221.309C221.309 52.1799 222.041 50.3484 223.266 49.2938L221.96 47.7782ZM219.309 55.064V71H221.309V55.064H219.309ZM220.309 70H208.149V72H220.309V70ZM238.959 71H237.959V72H238.959V71ZM238.959 36.312V35.312H237.959V36.312H238.959ZM251.119 36.312H252.119V35.312H251.119V36.312ZM251.119 71V72H252.119V71H251.119ZM239.663 30.616L240.335 29.875L239.663 30.616ZM239.663 21.4L240.335 22.141L239.663 21.4ZM250.415 21.336L249.756 22.0886L249.763 22.0945L249.77 22.1003L250.415 21.336ZM250.415 30.616L251.098 31.3463L251.099 31.3455L250.415 30.616ZM239.959 71V36.312H237.959V71H239.959ZM238.959 37.312H251.119V35.312H238.959V37.312ZM250.119 36.312V71H252.119V36.312H250.119ZM251.119 70H238.959V72H251.119V70ZM245.039 31.472C243.015 31.472 241.48 30.913 240.335 29.875L238.991 31.357C240.577 32.7937 242.625 33.472 245.039 33.472V31.472ZM240.335 29.875C239.177 28.8263 238.615 27.559 238.615 26.008H236.615C236.615 28.1263 237.418 29.931 238.991 31.357L240.335 29.875ZM238.615 26.008C238.615 24.457 239.177 23.1897 240.335 22.141L238.991 20.659C237.418 22.085 236.615 23.8897 236.615 26.008H238.615ZM240.335 22.141C241.48 21.103 243.015 20.544 245.039 20.544V18.544C242.625 18.544 240.577 19.2223 238.991 20.659L240.335 22.141ZM245.039 20.544C247.072 20.544 248.612 21.087 249.756 22.0886L251.074 20.5834C249.488 19.1957 247.444 18.544 245.039 18.544V20.544ZM249.77 22.1003C250.903 23.0565 251.463 24.2668 251.463 25.816H253.463C253.463 23.6959 252.657 21.9195 251.06 20.5717L249.77 22.1003ZM251.463 25.816C251.463 27.4677 250.889 28.801 249.731 29.8865L251.099 31.3455C252.672 29.871 253.463 28.0043 253.463 25.816H251.463ZM249.732 29.8857C248.638 30.9094 247.113 31.472 245.039 31.472V33.472C247.488 33.472 249.547 32.7972 251.098 31.3463L249.732 29.8857ZM292.879 71H291.879V72H292.879V71ZM292.879 36.248H293.879V35.248H292.879V36.248ZM279.118 36.248H278.118V37.248H279.118V36.248ZM279.118 26.2V25.2H278.118V26.2H279.118ZM319.247 26.2H320.247V25.2H319.247V26.2ZM319.247 36.248V37.248H320.247V36.248H319.247ZM305.551 36.248V35.248H304.551V36.248H305.551ZM305.551 71V72H306.551V71H305.551ZM293.879 71V36.248H291.879V71H293.879ZM292.879 35.248H279.118V37.248H292.879V35.248ZM280.118 36.248V26.2H278.118V36.248H280.118ZM279.118 27.2H319.247V25.2H279.118V27.2ZM318.247 26.2V36.248H320.247V26.2H318.247ZM319.247 35.248H305.551V37.248H319.247V35.248ZM304.551 36.248V71H306.551V36.248H304.551ZM305.551 70H292.879V72H305.551V70ZM329.876 69.272L329.413 70.1588L329.421 70.1627L329.428 70.1664L329.876 69.272ZM322.771 62.872L321.918 63.3924L321.922 63.4002L321.927 63.408L322.771 62.872ZM322.708 44.376L321.854 43.8556L321.851 43.8595L322.708 44.376ZM329.555 38.04L330.013 38.9292L330.023 38.9238L329.555 38.04ZM348.691 37.848L348.244 38.7425L348.255 38.7478L348.691 37.848ZM355.411 43.928L356.262 43.4016L355.411 43.928ZM357.844 55.192L358.841 55.2687L357.844 55.192ZM357.715 56.728V57.728H358.629L358.711 56.8185L357.715 56.728ZM330.26 56.728H329.26V57.728H330.26V56.728ZM330.26 50.328V49.328H329.26V50.328H330.26ZM351.251 50.328L351.614 51.26L351.251 49.328V50.328ZM346.643 52.12L345.644 52.093L345.603 53.5975L347.006 53.052L346.643 52.12ZM345.747 48.024L344.86 48.4843L344.866 48.4971L344.873 48.5096L345.747 48.024ZM343.188 45.336L342.673 46.1935L342.68 46.1979L342.688 46.2022L343.188 45.336ZM335.572 45.336L335.072 44.4698L335.064 44.4741L335.057 44.4785L335.572 45.336ZM333.076 48.088L333.963 48.5483L333.967 48.5418L333.97 48.5352L333.076 48.088ZM333.204 58.456L332.328 58.9391L332.334 58.9505L332.341 58.9617L333.204 58.456ZM336.275 61.336L335.817 62.2246L335.828 62.2305L335.84 62.2362L336.275 61.336ZM345.363 61.592L345.729 62.5228L345.738 62.5195L345.746 62.516L345.363 61.592ZM349.012 59.288L349.732 58.5949L349.078 57.9141L348.361 58.5287L349.012 59.288ZM355.411 65.944L356.152 66.6158L356.78 65.9241L356.132 65.2509L355.411 65.944ZM349.268 70.168L349.628 71.1009L349.635 71.0982L349.642 71.0954L349.268 70.168ZM340.628 70.576C336.657 70.576 333.232 69.832 330.323 68.3776L329.428 70.1664C332.663 71.784 336.406 72.576 340.628 72.576V70.576ZM330.338 68.3852C327.453 66.8817 325.221 64.8647 323.616 62.336L321.927 63.408C323.735 66.2553 326.24 68.505 329.413 70.1588L330.338 68.3852ZM323.625 62.3516C322.065 59.7904 321.275 56.8798 321.275 53.592H319.275C319.275 57.2162 320.15 60.4923 321.918 63.3924L323.625 62.3516ZM321.275 53.592C321.275 50.2991 322.046 47.4092 323.564 44.8925L321.851 43.8595C320.127 46.7188 319.275 49.9729 319.275 53.592H321.275ZM323.561 44.8964C325.128 42.3261 327.272 40.3401 330.013 38.9291L329.098 37.1509C326.037 38.7265 323.615 40.9646 321.854 43.8556L323.561 44.8964ZM330.023 38.9238C332.766 37.4718 335.867 36.736 339.348 36.736V34.736C335.575 34.736 332.148 35.5361 329.088 37.1562L330.023 38.9238ZM339.348 36.736C342.619 36.736 345.579 37.4096 348.244 38.7424L349.139 36.9536C346.172 35.4704 342.903 34.736 339.348 34.736V36.736ZM348.255 38.7478C350.899 40.0295 352.996 41.9258 354.561 44.4544L356.262 43.4016C354.499 40.5542 352.116 38.3971 349.128 36.9482L348.255 38.7478ZM354.561 44.4544C356.108 46.9533 356.908 50.0259 356.908 53.72H358.908C358.908 49.7341 358.043 46.2787 356.262 43.4016L354.561 44.4544ZM356.908 53.72C356.908 54.1148 356.888 54.579 356.846 55.1153L358.841 55.2687C358.885 54.6957 358.908 54.1786 358.908 53.72H356.908ZM356.846 55.1153C356.804 55.6661 356.762 56.1735 356.72 56.6375L358.711 56.8185C358.755 56.3439 358.798 55.8272 358.841 55.2687L356.846 55.1153ZM357.715 55.728H330.26V57.728H357.715V55.728ZM331.26 56.728V50.328H329.26V56.728H331.26ZM330.26 51.328H351.251V49.328H330.26V51.328ZM350.889 49.396L346.281 51.188L347.006 53.052L351.614 51.26L350.889 49.396ZM347.643 52.147C347.69 50.4249 347.364 48.8754 346.622 47.5384L344.873 48.5096C345.411 49.4766 345.683 50.6577 345.644 52.093L347.643 52.147ZM346.635 47.5637C345.951 46.2445 344.964 45.2066 343.687 44.4698L342.688 46.2022C343.629 46.7454 344.349 47.4995 344.86 48.4843L346.635 47.5637ZM343.702 44.4785C342.456 43.7307 341.013 43.376 339.411 43.376V45.376C340.711 45.376 341.786 45.6613 342.673 46.1935L343.702 44.4785ZM339.411 43.376C337.809 43.376 336.352 43.731 335.072 44.4698L336.071 46.2022C337.009 45.661 338.113 45.376 339.411 45.376V43.376ZM335.057 44.4785C333.815 45.2236 332.857 46.2891 332.181 47.6408L333.97 48.5352C334.489 47.4976 335.195 46.7284 336.086 46.1935L335.057 44.4785ZM332.188 47.6277C331.502 48.9495 331.18 50.4794 331.18 52.184H333.18C333.18 50.7313 333.454 49.5305 333.963 48.5483L332.188 47.6277ZM331.18 52.184V54.04H333.18V52.184H331.18ZM331.18 54.04C331.18 55.8807 331.548 57.526 332.328 58.9391L334.079 57.9729C333.493 56.9113 333.18 55.6126 333.18 54.04H331.18ZM332.341 58.9617C333.166 60.3687 334.333 61.4586 335.817 62.2246L336.734 60.4474C335.573 59.8481 334.692 59.0179 334.066 57.9503L332.341 58.9617ZM335.84 62.2362C337.328 62.9561 339.063 63.296 341.012 63.296V61.296C339.291 61.296 337.868 60.9959 336.711 60.4358L335.84 62.2362ZM341.012 63.296C342.804 63.296 344.387 63.0502 345.729 62.5228L344.998 60.6612C343.951 61.0725 342.632 61.296 341.012 61.296V63.296ZM345.746 62.516C347.096 61.9573 348.401 61.1283 349.662 60.0473L348.361 58.5287C347.233 59.4957 346.105 60.2027 344.981 60.668L345.746 62.516ZM348.291 59.9811L354.691 66.6371L356.132 65.2509L349.732 58.5949L348.291 59.9811ZM354.671 65.2722C353.114 66.9886 351.194 68.3124 348.893 69.2406L349.642 71.0954C352.205 70.061 354.381 68.5687 356.152 66.6158L354.671 65.2722ZM348.907 69.2351C346.617 70.119 343.865 70.576 340.628 70.576V72.576C344.046 72.576 347.054 72.0943 349.628 71.1009L348.907 69.2351ZM373.498 69.272L373.041 70.1613L373.046 70.1639L373.498 69.272ZM366.458 62.936L365.61 63.466L365.614 63.472L366.458 62.936ZM366.458 44.312L365.614 43.776L366.458 44.312ZM373.498 38.04L373.945 38.9344L373.95 38.9319L373.498 38.04ZM393.978 38.232L394.481 37.3678L393.978 38.232ZM400.058 45.272L400.512 46.1628L401.321 45.75L400.988 44.9051L400.058 45.272ZM390.65 50.072L389.756 50.5192L390.206 51.4209L391.104 50.9628L390.65 50.072ZM387.642 46.552L387.101 47.3932L387.112 47.4001L387.123 47.4068L387.642 46.552ZM379.898 46.36L379.412 45.4858L379.898 46.36ZM377.146 49.176L376.27 48.6929L376.265 48.7038L377.146 49.176ZM377.146 58.136L376.258 58.5954L376.264 58.6073L376.27 58.6191L377.146 58.136ZM387.642 60.824L388.161 61.6788L388.172 61.6721L388.183 61.6652L387.642 60.824ZM390.65 57.24L391.104 56.3492L390.206 55.8911L389.756 56.7928L390.65 57.24ZM400.058 62.04L400.988 62.4069L401.321 61.562L400.512 61.1492L400.058 62.04ZM393.978 69.08L394.481 69.9442L393.978 69.08ZM383.802 70.576C380.098 70.576 376.822 69.8362 373.95 68.3801L373.046 70.1639C376.233 71.7798 379.826 72.576 383.802 72.576V70.576ZM373.955 68.3827C371.118 66.9234 368.908 64.9296 367.302 62.4L365.614 63.472C367.421 66.3184 369.905 68.5486 373.041 70.1613L373.955 68.3827ZM367.306 62.406C365.707 59.848 364.898 56.9201 364.898 53.592H362.898C362.898 57.2613 363.795 60.5627 365.61 63.466L367.306 62.406ZM364.898 53.592C364.898 50.2637 365.707 47.3601 367.302 44.848L365.614 43.776C363.795 46.6399 362.898 49.9229 362.898 53.592H364.898ZM367.302 44.848C368.907 42.3209 371.113 40.3507 373.945 38.9344L373.051 37.1456C369.91 38.716 367.423 40.9271 365.614 43.776L367.302 44.848ZM373.95 38.9319C376.822 37.4758 380.098 36.736 383.802 36.736V34.736C379.826 34.736 376.233 35.5322 373.046 37.1481L373.95 38.9319ZM383.802 36.736C387.584 36.736 390.795 37.5365 393.475 39.0962L394.481 37.3678C391.443 35.5995 387.871 34.736 383.802 34.736V36.736ZM393.475 39.0962C396.143 40.6491 398.017 42.8222 399.128 45.6389L400.988 44.9051C399.71 41.6632 397.531 39.1429 394.481 37.3678L393.475 39.0962ZM399.604 44.3812L390.196 49.1812L391.104 50.9628L400.512 46.1628L399.604 44.3812ZM391.544 49.6248C390.674 47.8842 389.558 46.5454 388.161 45.6972L387.123 47.4068C388.115 48.0092 389.005 49.0172 389.756 50.5192L391.544 49.6248ZM388.183 45.7108C386.828 44.8401 385.34 44.4 383.738 44.4V46.4C384.953 46.4 386.066 46.7279 387.101 47.3932L388.183 45.7108ZM383.738 44.4C382.172 44.4 380.723 44.7577 379.412 45.4858L380.384 47.2342C381.377 46.6823 382.488 46.4 383.738 46.4V44.4ZM379.412 45.4858C378.084 46.2237 377.037 47.3036 376.27 48.6929L378.022 49.6591C378.62 48.5737 379.408 47.7763 380.384 47.2342L379.412 45.4858ZM376.265 48.7038C375.527 50.0798 375.186 51.7244 375.186 53.592H377.186C377.186 51.9609 377.485 50.6615 378.027 49.6482L376.265 48.7038ZM375.186 53.592C375.186 55.4995 375.526 57.1813 376.258 58.5954L378.034 57.6766C377.486 56.6161 377.186 55.2685 377.186 53.592H375.186ZM376.27 58.6191C377.037 60.0084 378.084 61.0883 379.412 61.8262L380.384 60.0778C379.408 59.5357 378.62 58.7383 378.022 57.6529L376.27 58.6191ZM379.412 61.8262C380.723 62.5543 382.172 62.912 383.738 62.912V60.912C382.488 60.912 381.377 60.6297 380.384 60.0778L379.412 61.8262ZM383.738 62.912C385.328 62.912 386.809 62.4998 388.161 61.6788L387.123 59.9692C386.086 60.5988 384.964 60.912 383.738 60.912V62.912ZM388.183 61.6652C389.565 60.7766 390.675 59.4256 391.544 57.6872L389.756 56.7928C389.003 58.2971 388.108 59.3354 387.101 59.9828L388.183 61.6652ZM390.196 58.1308L399.604 62.9308L400.512 61.1492L391.104 56.3492L390.196 58.1308ZM399.128 61.6731C398.017 64.4898 396.143 66.6629 393.475 68.2158L394.481 69.9442C397.531 68.1691 399.71 65.6488 400.988 62.4069L399.128 61.6731ZM393.475 68.2158C390.795 69.7755 387.584 70.576 383.802 70.576V72.576C387.871 72.576 391.443 71.7125 394.481 69.9442L393.475 68.2158ZM436.96 37.4L436.505 38.2909L436.512 38.2945L436.519 38.2979L436.96 37.4ZM442.08 42.392L441.202 42.872L441.206 42.8783L441.209 42.8846L442.08 42.392ZM444 71V72H445V71H444ZM431.84 71H430.84V72H431.84V71ZM430.304 47.768L429.542 48.4165L429.555 48.4316L429.569 48.4463L430.304 47.768ZM422.624 46.936L423.085 47.8232L423.099 47.8161L423.112 47.8085L422.624 46.936ZM419.232 71V72H420.232V71H419.232ZM407.072 71H406.072V72H407.072V71ZM407.072 23.512V22.512H406.072V23.512H407.072ZM419.232 23.512H420.232V22.512H419.232V23.512ZM419.232 46.168L418.517 46.8671L420.232 48.6211V46.168H419.232ZM416.416 43.288L415.53 42.8229L415.192 43.4669L415.701 43.9871L416.416 43.288ZM421.855 37.656L422.329 38.537L422.335 38.5336L422.341 38.5302L421.855 37.656ZM429.664 36.736C432.21 36.736 434.484 37.2603 436.505 38.2909L437.414 36.5091C435.083 35.3211 432.493 34.736 429.664 34.736V36.736ZM436.519 38.2979C438.498 39.2678 440.057 40.7796 441.202 42.872L442.957 41.912C441.627 39.4818 439.773 37.6655 437.4 36.5021L436.519 38.2979ZM441.209 42.8846C442.378 44.9494 443 47.6862 443 51.16H445C445 47.4658 444.341 44.3573 442.95 41.8994L441.209 42.8846ZM443 51.16V71H445V51.16H443ZM444 70H431.84V72H444V70ZM432.84 71V53.144H430.84V71H432.84ZM432.84 53.144C432.84 50.5692 432.313 48.471 431.038 47.0897L429.569 48.4463C430.342 49.2837 430.84 50.7695 430.84 53.144H432.84ZM431.065 47.1195C429.858 45.7028 428.169 45.04 426.144 45.04V47.04C427.702 47.04 428.786 47.5292 429.542 48.4165L431.065 47.1195ZM426.144 45.04C424.701 45.04 423.358 45.3786 422.135 46.0635L423.112 47.8085C424.022 47.2988 425.026 47.04 426.144 47.04V45.04ZM422.162 46.0488C420.888 46.7115 419.914 47.7514 419.233 49.1128L421.022 50.0072C421.536 48.9793 422.226 48.2698 423.085 47.8232L422.162 46.0488ZM419.233 49.1128C418.543 50.4935 418.232 52.2199 418.232 54.232H420.232C420.232 52.404 420.518 51.0158 421.022 50.0072L419.233 49.1128ZM418.232 54.232V71H420.232V54.232H418.232ZM419.232 70H407.072V72H419.232V70ZM408.072 71V23.512H406.072V71H408.072ZM407.072 24.512H419.232V22.512H407.072V24.512ZM418.232 23.512V46.168H420.232V23.512H418.232ZM419.947 45.4689L417.131 42.5889L415.701 43.9871L418.517 46.8671L419.947 45.4689ZM417.301 43.7531C418.539 41.3963 420.216 39.6716 422.329 38.537L421.382 36.775C418.887 38.115 416.937 40.1451 415.53 42.8229L417.301 43.7531ZM422.341 38.5302C424.482 37.3408 426.915 36.736 429.664 36.736V34.736C426.61 34.736 423.837 35.4112 421.37 36.7818L422.341 38.5302Z" fill="white" mask="url(#path-2-outside-1_4_6250)"/>
</svg>
