<svg width="16" height="16" viewBox="0 0 16 16" fill="none" xmlns="http://www.w3.org/2000/svg">
<path d="M1.09365 2.39385C1.06865 2.40322 0.984277 2.43135 0.909277 2.45947L0.774902 2.50947L1.9249 3.6626C4.67178 6.41572 7.17803 8.86885 7.3124 8.9376C7.74678 9.15947 8.25303 9.15947 8.6874 8.9376C8.82178 8.86885 11.328 6.41572 14.0718 3.6626L15.2249 2.50947L15.0874 2.4501C14.9562 2.39385 14.753 2.39072 8.04678 2.38447C4.2499 2.38135 1.11865 2.3876 1.09365 2.39385Z" fill="white"/>
<path d="M0.071875 3.30293C0.01875 3.44668 0.015625 3.65605 0.015625 8.01543C0.015625 12.5123 0.015625 12.5811 0.078125 12.7123L0.140625 12.8467L2.57812 10.4248L5.01562 8.00605L4.09375 7.07793C3.5875 6.56855 2.4875 5.47793 1.65 4.65293L0.13125 3.15293L0.071875 3.30293Z" fill="white"/>
<path d="M13.4219 5.57793L10.9844 7.9998L13.4219 10.4217L15.8594 12.8467L15.9219 12.7123C15.9844 12.5811 15.9844 12.5123 15.9844 7.9998C15.9844 3.4873 15.9844 3.41855 15.9219 3.2873L15.8594 3.15293L13.4219 5.57793Z" fill="white"/>
<path d="M3.20635 11.0687L0.771973 13.4844L0.909473 13.5469C1.04697 13.6094 1.09072 13.6094 7.98447 13.6094C14.697 13.6094 14.9282 13.6062 15.0751 13.55L15.2251 13.4906L14.2782 12.5406C13.7563 12.0187 12.6563 10.9281 11.8345 10.1187L10.3407 8.64687L9.92822 9.05C9.44072 9.53125 9.33447 9.61562 9.0376 9.76562C8.23135 10.1688 7.25322 10.0656 6.5501 9.5C6.44385 9.41563 6.20635 9.19375 6.01572 9.00312C5.82822 8.8125 5.66572 8.65625 5.65635 8.65625C5.64697 8.65625 4.54385 9.74375 3.20635 11.0687Z" fill="white"/>
</svg>
