<svg width="148" height="148" viewBox="0 0 148 148" fill="none" xmlns="http://www.w3.org/2000/svg">
<g filter="url(#filter0_bd_4_6090)">
<rect x="20" y="19" width="108" height="108" rx="18" fill="url(#paint0_linear_4_6090)" shape-rendering="crispEdges"/>
<rect x="21" y="20" width="106" height="106" rx="17" stroke="white" stroke-opacity="0.8" stroke-width="2" shape-rendering="crispEdges"/>
</g>
<path d="M89.8752 42.2621C87.8377 42.4996 85.2752 43.4871 83.4627 44.7371C82.4377 45.4496 80.8877 46.9621 80.0752 48.0371C78.9002 49.6121 77.9127 51.9496 77.5627 53.9746C77.3627 55.0871 77.3252 57.6621 77.4877 58.6371L77.5752 59.2121L76.7002 58.9246C74.9752 58.3871 74.3627 58.3621 63.8127 58.3996C53.9002 58.4496 53.8002 58.4496 52.7502 58.7246C51.6002 59.0371 49.8752 59.7371 49.0377 60.2371C48.3752 60.6371 48.1627 61.0996 48.3752 61.6246C48.7127 62.4246 49.1377 62.4371 50.7877 61.6246C51.4877 61.2871 52.5127 60.8871 53.0627 60.7246L54.0627 60.4371H64.4377H74.8127L75.9127 60.7871C80.8252 62.3246 84.1627 66.3121 84.7502 71.3371C84.8877 72.4996 84.7877 74.3746 84.5502 75.1371C84.5002 75.3246 84.1877 75.3496 82.2127 75.4121C80.4252 75.4496 79.7252 75.5246 78.9627 75.7246C74.7752 76.8621 71.5252 79.4871 69.6377 83.2621C69.2877 83.9496 69.0002 84.5996 69.0002 84.7121C69.0002 84.8621 68.0752 84.8871 61.7252 84.8371C54.7877 84.7996 54.3877 84.7871 53.4377 84.5246C48.9627 83.3496 45.7627 80.2871 44.4127 75.9121C44.1002 74.8996 44.0752 74.6371 44.0752 72.6246C44.0627 70.6996 44.1002 70.3121 44.3502 69.4371C44.7377 68.0996 45.5752 66.3746 46.3627 65.3121C46.8002 64.7121 47.0002 64.3246 47.0002 64.0496C47.0002 63.5246 46.5502 63.1246 45.9752 63.1246C45.5877 63.1246 45.4377 63.2121 45.0252 63.7121C43.9502 64.9621 42.9127 67.0371 42.3377 69.0996C42.1127 69.9371 42.0752 70.3871 42.0752 72.5621C42.0752 74.7496 42.1127 75.1871 42.3502 76.0371C43.0877 78.6871 44.1877 80.6496 46.0002 82.4996C47.6877 84.2246 49.4627 85.3621 51.5752 86.0746C53.6752 86.7746 53.7752 86.7871 61.3502 86.8371L68.3752 86.8871L68.2877 87.5996C68.1377 88.6996 68.1877 91.2121 68.3752 92.1871C68.9002 94.9996 70.1377 97.3496 72.1627 99.4621C74.5002 101.887 77.5127 103.375 80.7877 103.737C82.4252 103.925 83.2002 103.912 83.6127 103.687C84.1877 103.4 84.3002 102.762 83.8752 102.225C83.6502 101.937 83.5377 101.912 82.2252 101.837C81.4502 101.8 80.4127 101.675 79.9252 101.575C74.8752 100.487 70.9752 96.2996 70.2627 91.1996C69.9877 89.2496 70.2127 87.2496 70.9252 85.3621C72.2877 81.7121 75.2127 78.9996 79.0752 77.7871L80.1877 77.4371H87.0627C93.8502 77.4371 93.9502 77.4371 94.9377 77.7246C98.3252 78.6871 101.213 81.0746 102.75 84.1871C103.763 86.2371 103.938 87.0496 103.925 89.6246C103.925 91.6496 103.9 91.8996 103.575 92.9371C102.288 97.1496 98.9752 100.35 94.7877 101.462C93.6752 101.75 93.2752 101.787 90.4627 101.837C86.9502 101.912 86.8627 101.937 86.8377 102.8C86.8252 103.187 86.9002 103.35 87.1877 103.6L87.5502 103.912L90.6877 103.837C94.0252 103.762 95.0127 103.625 96.7502 102.962C100.425 101.575 103.55 98.5621 104.963 95.0621C105.688 93.2496 105.9 92.2371 105.963 90.2246C106.075 87.2371 105.688 85.4371 104.425 82.9996C102.613 79.4996 99.2627 76.8121 95.4377 75.7871C94.2377 75.4621 94.0377 75.4496 90.3877 75.3996L86.6002 75.3496L86.6627 74.7746C86.8502 73.2746 86.8877 72.2246 86.7627 71.1996C86.6877 70.5746 86.6502 70.0621 86.6752 70.0371C86.7002 70.0121 86.8752 70.0496 87.0752 70.1371C87.8502 70.4246 89.6252 70.7496 90.8752 70.8246C92.3502 70.9121 93.9627 70.7496 95.4127 70.3746C96.7002 70.0371 98.6002 69.2121 98.9877 68.8246C99.6252 68.1746 99.2502 67.1246 98.3752 67.1246C98.1877 67.1246 97.5002 67.3746 96.8627 67.6746C95.0377 68.5246 93.7877 68.7996 91.6877 68.7996C89.6627 68.7996 88.3502 68.5371 86.8127 67.8246C85.9002 67.3996 85.8877 67.3871 85.5002 66.5496C84.5877 64.5246 82.5502 62.0996 80.7377 60.8746L79.9002 60.3121L79.6752 59.3746C79.3127 57.9246 79.3377 54.7746 79.7252 53.4496C80.4127 51.0871 81.4752 49.2746 83.1502 47.6871C84.8627 46.0371 86.5127 45.1121 88.6752 44.5621C92.9127 43.4871 97.1002 44.6371 100.288 47.7371C101.913 49.3121 102.988 51.1246 103.65 53.4496C104.038 54.7871 104.063 58.0996 103.713 59.3746C103.275 60.9121 102.725 62.1246 101.963 63.2746C101.538 63.8996 101.088 64.5621 100.975 64.7371C100.663 65.1871 100.7 65.5871 101.063 65.9371C101.538 66.4246 102.113 66.3621 102.65 65.7746C104.163 64.1121 105.388 61.4746 105.813 59.0246C106.05 57.6621 106.05 55.3246 105.813 53.9746C105.45 51.9121 104.5 49.6871 103.25 47.9996C102.475 46.9496 100.775 45.3121 99.7752 44.6371C96.8877 42.6996 93.4127 41.8621 89.8752 42.2621Z" fill="white"/>
<path d="M87.4128 51.3005L87.0628 51.6005L87.0003 55.513L86.9378 59.4255L86.6003 59.613C86.3003 59.788 86.2378 59.7755 85.7878 59.463C85.2003 59.063 84.7753 59.038 84.3253 59.388C83.6753 59.9005 84.0003 60.863 85.0128 61.3755C86.4628 62.113 88.1378 61.588 88.7628 60.188C88.9753 59.738 89.0003 59.288 89.0003 55.6005V51.513L88.6753 51.263C88.2378 50.913 87.8378 50.938 87.4128 51.3005Z" fill="white"/>
<path d="M93.5626 51.3862C93.1251 51.5487 92.4126 52.0612 92.1001 52.4362C91.8376 52.7487 91.5001 53.6862 91.5001 54.1112C91.5001 55.0612 92.1251 56.0487 92.9876 56.4862C93.2376 56.6112 93.9751 56.9237 94.6251 57.1862C96.4626 57.8987 96.8251 58.2612 96.4501 58.9737C96.1001 59.6487 95.0626 59.9237 94.1126 59.6112C93.8751 59.5237 93.4001 59.2487 93.0501 58.9862C92.1751 58.3112 91.5376 58.3362 91.1751 59.0237C90.8876 59.5737 91.1126 60.0987 91.8751 60.6737C93.5376 61.9362 95.8626 62.0862 97.3376 61.0112C98.5626 60.1237 98.9501 58.4612 98.2126 57.2112C97.7376 56.3987 97.1376 55.9987 95.3501 55.2862C93.7001 54.6362 93.3876 54.3737 93.6376 53.8362C93.8126 53.4362 94.2376 53.2487 94.9501 53.2487C95.4626 53.2487 95.7126 53.3362 96.8376 53.9237C97.5501 54.2987 98.3001 53.8612 98.3001 53.0612C98.3001 52.5112 98.0126 52.2112 97.0251 51.7237C96.3251 51.3737 96.0626 51.3112 95.0751 51.2862C94.4501 51.2737 93.7751 51.3112 93.5626 51.3862Z" fill="white"/>
<path d="M52.2627 67.6995C52.0127 68.0245 52.0002 68.162 52.0002 72.612C52.0127 77.5245 52.0002 77.487 52.6627 77.737C53.0627 77.8995 53.7002 77.6995 53.8752 77.3745C53.9502 77.2495 54.0002 76.462 54.0002 75.637V74.1245H54.9127C56.1377 74.1245 56.9627 73.862 57.6502 73.2495C58.4002 72.5995 58.7627 71.737 58.7627 70.6745C58.7627 69.3245 58.0752 68.262 56.8127 67.6745C56.2502 67.3995 56.0127 67.3745 54.3502 67.3745C52.5252 67.3745 52.5127 67.3745 52.2627 67.6995ZM56.3252 69.7995C56.6627 70.137 56.7502 70.3245 56.7502 70.712C56.7502 71.6495 56.1127 72.1245 54.8127 72.1245H54.0002V70.7495V69.3745H54.9502C55.8627 69.3745 55.9127 69.387 56.3252 69.7995Z" fill="white"/>
<path d="M60.6252 67.6246C60.3877 67.8621 60.3752 68.0371 60.3752 72.5496C60.3752 76.9246 60.3877 77.2371 60.6127 77.5121C60.9502 77.9371 61.6877 77.9121 62.0752 77.4496C62.3627 77.1246 62.3752 77.0246 62.3752 75.2371V73.3746H64.3127H66.2502V75.2996C66.2502 76.9871 66.2752 77.2621 66.4877 77.5121C66.8252 77.9371 67.5627 77.9121 67.9502 77.4496L68.2502 77.1121V72.5746C68.2502 68.1746 68.2377 68.0246 67.9877 67.6996C67.6627 67.2871 66.8877 67.2371 66.5002 67.6246C66.2752 67.8496 66.2502 68.0371 66.2502 69.6871V71.4996H64.3127H62.3752V69.7621C62.3752 68.1996 62.3502 67.9996 62.1127 67.6996C61.7877 67.2871 61.0127 67.2371 60.6252 67.6246Z" fill="white"/>
<path d="M70.8752 67.6246C70.6377 67.8621 70.6252 68.0371 70.6252 72.5496C70.6252 76.9246 70.6377 77.2371 70.8627 77.5121C71.2002 77.9371 71.9377 77.9121 72.3252 77.4496C72.6002 77.1371 72.6252 77.0121 72.6252 75.6371V74.1496L73.7877 74.0996C74.7627 74.0621 75.0377 73.9996 75.6002 73.6871C76.8377 73.0121 77.4627 71.8496 77.3502 70.4496C77.2752 69.5246 76.9252 68.8121 76.3002 68.2496C75.4252 67.4871 75.0252 67.3746 72.9752 67.3746C71.2877 67.3746 71.1002 67.3996 70.8752 67.6246ZM74.7252 69.5746C75.0502 69.7996 75.3752 70.3871 75.3752 70.7496C75.3752 71.5871 74.6002 72.1246 73.3877 72.1246H72.6252V70.7496V69.3746H73.5377C74.1627 69.3746 74.5377 69.4371 74.7252 69.5746Z" fill="white"/>
<path d="M92.1627 81.2747C91.9627 81.4872 91.7752 82.1497 91.4252 83.8372L90.9502 86.1247H89.8002C88.7752 86.1247 88.6002 86.1622 88.3252 86.3997C87.8752 86.8122 87.8377 87.4622 88.2502 87.8747C88.4627 88.0872 88.6627 88.1247 89.5127 88.1247C90.5002 88.1247 90.5252 88.1372 90.4752 88.3997C90.4377 88.5622 90.2752 89.3497 90.1127 90.1497L89.8252 91.6247H88.7252C87.4752 91.6247 87.0627 91.7622 86.8877 92.2622C86.7377 92.6997 86.9252 93.3247 87.2502 93.4997C87.3752 93.5747 87.9127 93.6247 88.4252 93.6247C88.9502 93.6247 89.3752 93.6497 89.3752 93.6747C89.3752 93.6997 89.1752 94.6622 88.9377 95.8122C88.6877 96.9747 88.5377 98.0247 88.5752 98.1997C88.7502 98.8747 89.7377 99.1122 90.2252 98.5872C90.4127 98.3872 90.6002 97.7247 90.9627 95.9747L91.4377 93.6247H92.3002C92.9252 93.6247 93.1377 93.6622 93.1002 93.7747C93.0627 93.8622 92.8502 94.8747 92.6127 96.0247L92.1877 98.1122L92.4502 98.4622C92.6502 98.7247 92.8377 98.8247 93.2002 98.8497C94.0127 98.9122 94.1502 98.6622 94.7002 95.9622L95.1752 93.6247H96.3502C96.9877 93.6247 97.6252 93.5747 97.7502 93.4997C98.0627 93.3372 98.2627 92.6872 98.1252 92.3247C97.9252 91.7997 97.5252 91.6247 96.5252 91.6247C95.6252 91.6247 95.6002 91.6122 95.6502 91.3372C95.6877 91.1872 95.8502 90.3997 96.0127 89.5872L96.3002 88.1247H97.5127C98.5127 88.1247 98.7752 88.0872 99.0127 87.8872C99.4377 87.5497 99.4127 86.8122 98.9502 86.4247C98.6627 86.1622 98.4752 86.1247 97.6752 86.1247C97.1627 86.1247 96.7502 86.1122 96.7502 86.0872C96.7502 86.0747 96.9377 85.1372 97.1752 84.0122C97.5127 82.3997 97.5752 81.8997 97.4752 81.6122C97.1877 80.7747 95.9377 80.7622 95.6627 81.5872C95.5877 81.7872 95.3502 82.8747 95.1127 84.0247L94.6877 86.1247H93.8377C93.0252 86.1247 93.0002 86.1122 93.0627 85.8372C93.5127 83.8622 93.8627 81.9247 93.8002 81.6747C93.6252 80.9997 92.6377 80.7622 92.1627 81.2747ZM94.2502 88.2122C94.2377 88.2747 94.0877 89.0372 93.9002 89.9372L93.5502 91.5622L92.7002 91.5997C91.8627 91.6372 91.8502 91.6247 91.9127 91.3497C91.9502 91.1872 92.1002 90.4747 92.2502 89.7497C92.4002 89.0247 92.5377 88.3622 92.5627 88.2747C92.6252 88.1122 94.2502 88.0497 94.2502 88.2122Z" fill="white"/>
<path d="M79.7752 84.9865C78.8627 85.324 78.3752 85.649 77.7002 86.374C75.7377 88.4615 75.8502 91.7615 77.9377 93.7365C79.0877 94.8365 80.6752 95.3365 82.2502 95.124C83.9502 94.8865 85.4002 93.7115 85.1877 92.7365C85.0127 91.9615 84.1502 91.774 83.4752 92.3615C82.4877 93.224 81.2877 93.4115 80.1877 92.874C79.1627 92.374 78.2502 90.999 78.2502 89.9365C78.2502 89.199 78.6627 88.324 79.2877 87.699C80.3127 86.6865 81.6752 86.449 82.9752 87.0615C83.7877 87.4365 84.2877 87.4615 84.6252 87.124C84.9252 86.824 84.9502 86.174 84.7002 85.799C84.6002 85.6615 84.1627 85.374 83.7252 85.174C82.6752 84.699 80.8127 84.6115 79.7752 84.9865Z" fill="white"/>
<defs>
<filter id="filter0_bd_4_6090" x="0" y="-1" width="148" height="149" filterUnits="userSpaceOnUse" color-interpolation-filters="sRGB">
<feFlood flood-opacity="0" result="BackgroundImageFix"/>
<feGaussianBlur in="BackgroundImageFix" stdDeviation="10"/>
<feComposite in2="SourceAlpha" operator="in" result="effect1_backgroundBlur_4_6090"/>
<feColorMatrix in="SourceAlpha" type="matrix" values="0 0 0 0 0 0 0 0 0 0 0 0 0 0 0 0 0 0 127 0" result="hardAlpha"/>
<feMorphology radius="4" operator="dilate" in="SourceAlpha" result="effect2_dropShadow_4_6090"/>
<feOffset dy="1"/>
<feGaussianBlur stdDeviation="8"/>
<feComposite in2="hardAlpha" operator="out"/>
<feColorMatrix type="matrix" values="0 0 0 0 0 0 0 0 0 0 0 0 0 0 0 0 0 0 0.15 0"/>
<feBlend mode="normal" in2="effect1_backgroundBlur_4_6090" result="effect2_dropShadow_4_6090"/>
<feBlend mode="normal" in="SourceGraphic" in2="effect2_dropShadow_4_6090" result="shape"/>
</filter>
<linearGradient id="paint0_linear_4_6090" x1="23.2016" y1="26.4483" x2="138.431" y2="49.2344" gradientUnits="userSpaceOnUse">
<stop offset="0.206" stop-color="#C59402"/>
<stop offset="1" stop-color="#C59402" stop-opacity="0.4"/>
</linearGradient>
</defs>
</svg>
