<svg width="197" height="318" viewBox="0 0 197 318" fill="none" xmlns="http://www.w3.org/2000/svg">
<line x1="21" y1="0.5" x2="196" y2="0.5" stroke="white"/>
<line x1="21" y1="317.5" x2="196" y2="317.5" stroke="white"/>
<line x1="21.5" y1="296" x2="21.5" y2="318" stroke="white"/>
<line x1="196.5" y1="2.18557e-08" x2="196.5" y2="20" stroke="white"/>
<line x1="196.5" y1="244" x2="196.5" y2="318" stroke="white"/>
<mask id="path-6-outside-1_686_1001" maskUnits="userSpaceOnUse" x="6" y="32" width="29" height="253" fill="black">
<rect fill="white" x="6" y="32" width="29" height="253"/>
<path d="M33 275.857V281.43L28.8867 281.395V275.857C28.8867 274.475 28.5762 273.309 27.9551 272.359C27.3223 271.41 26.4023 270.695 25.1953 270.215C23.9883 269.723 22.5293 269.477 20.8184 269.477H19.5703C18.2578 269.477 17.1035 269.617 16.1074 269.898C15.1113 270.168 14.2734 270.572 13.5938 271.111C12.9141 271.65 12.4043 272.312 12.0645 273.098C11.7129 273.883 11.5371 274.785 11.5371 275.805V281.535H7.40625L7.40625 275.805C7.40625 274.094 7.69922 272.529 8.28516 271.111C8.85938 269.682 9.68555 268.445 10.7637 267.402C11.8418 266.359 13.1309 265.557 14.6309 264.994C16.1191 264.42 17.7773 264.133 19.6055 264.133H20.8184C22.6348 264.133 24.293 264.42 25.793 264.994C27.293 265.557 28.582 266.359 29.6602 267.402C30.7266 268.434 31.5527 269.67 32.1387 271.111C32.7129 272.541 33 274.123 33 275.857ZM7.40625 278.441H33V283.715H7.40625L7.40625 278.441ZM28.8867 243.127H33V256.75H28.8867V243.127ZM7.40625 255.027H33V260.301H7.40625V255.027ZM17.8301 244.902H21.8379V256.75H17.8301V244.902ZM7.40625 243.145H11.5371V256.75H7.40625L7.40625 243.145ZM27.6563 230.822L7.40625 224.793L7.40625 218.922L33 227.834L33 231.701L27.6563 230.822ZM7.40625 236.377L27.6563 230.365L33 229.451V233.354L7.40625 242.213V236.377ZM28.8867 199.357H33V212.98H28.8867V199.357ZM7.40625 211.258H33V216.531H7.40625V211.258ZM17.8301 201.133H21.8379V212.98H17.8301V201.133ZM7.40625 199.375H11.5371V212.98H7.40625L7.40625 199.375ZM28.8867 179.828H33V192.713H28.8867V179.828ZM7.40625 191.008H33V196.281H7.40625L7.40625 191.008ZM19.6055 156.941H20.8184C22.7637 156.941 24.5098 157.205 26.0566 157.732C27.6035 158.26 28.9219 159.004 30.0117 159.965C31.0898 160.926 31.916 162.074 32.4902 163.41C33.0645 164.734 33.3516 166.205 33.3516 167.822C33.3516 169.428 33.0645 170.898 32.4902 172.234C31.916 173.559 31.0898 174.707 30.0117 175.68C28.9219 176.652 27.6035 177.408 26.0566 177.947C24.5098 178.475 22.7637 178.738 20.8184 178.738H19.6055C17.6484 178.738 15.9023 178.475 14.3672 177.947C12.8203 177.42 11.502 176.676 10.4121 175.715C9.32227 174.742 8.49023 173.594 7.91602 172.27C7.3418 170.934 7.05469 169.463 7.05469 167.857C7.05469 166.24 7.3418 164.77 7.91602 163.445C8.49023 162.109 9.32227 160.961 10.4121 160C11.502 159.027 12.8203 158.277 14.3672 157.75C15.9023 157.211 17.6484 156.941 19.6055 156.941ZM20.8184 162.268H19.5703C18.2109 162.268 17.0156 162.391 15.9844 162.637C14.9531 162.883 14.0859 163.246 13.3828 163.727C12.6797 164.207 12.1523 164.793 11.8008 165.484C11.4375 166.176 11.2559 166.967 11.2559 167.857C11.2559 168.748 11.4375 169.539 11.8008 170.23C12.1523 170.91 12.6797 171.49 13.3828 171.971C14.0859 172.439 14.9531 172.797 15.9844 173.043C17.0156 173.289 18.2109 173.412 19.5703 173.412H20.8184C22.166 173.412 23.3613 173.289 24.4043 173.043C25.4355 172.797 26.3086 172.434 27.0234 171.953C27.7266 171.473 28.2598 170.887 28.623 170.195C28.9863 169.504 29.168 168.713 29.168 167.822C29.168 166.932 28.9863 166.141 28.623 165.449C28.2598 164.758 27.7266 164.178 27.0234 163.709C26.3086 163.24 25.4355 162.883 24.4043 162.637C23.3613 162.391 22.166 162.268 20.8184 162.268ZM23.877 143.178V149.699H19.7637V143.178C19.7637 142.17 19.5996 141.35 19.2715 140.717C18.9316 140.084 18.4629 139.621 17.8652 139.328C17.2676 139.035 16.5938 138.889 15.8438 138.889C15.082 138.889 14.373 139.035 13.7168 139.328C13.0605 139.621 12.5332 140.084 12.1348 140.717C11.7363 141.35 11.5371 142.17 11.5371 143.178V147.871H33V153.145H7.40625L7.40625 143.178C7.40625 141.174 7.76953 139.457 8.49609 138.027C9.21094 136.586 10.2012 135.484 11.4668 134.723C12.7324 133.961 14.1797 133.58 15.8086 133.58C17.4609 133.58 18.8906 133.961 20.0977 134.723C21.3047 135.484 22.2363 136.586 22.8926 138.027C23.5488 139.457 23.877 141.174 23.877 143.178ZM7.40625 127.533V123.068L26.1973 116.494L7.40625 109.92V105.455L33 114.701V118.287L7.40625 127.533ZM7.40625 129.941V125.494L25.7227 124.686H33V129.941H7.40625ZM7.40625 107.494L7.40625 103.029H33V108.303H25.7227L7.40625 107.494ZM28.8867 81.2324H33V94.8555H28.8867L28.8867 81.2324ZM7.40625 93.1328H33V98.4062H7.40625V93.1328ZM17.8301 83.0078H21.8379V94.8555H17.8301V83.0078ZM7.40625 81.25H11.5371V94.8555H7.40625L7.40625 81.25ZM7.40625 57.3262H33V62.5996L15.8438 72.8828H33V78.1562H7.40625L7.40625 72.8828L24.5801 62.582H7.40625L7.40625 57.3262ZM7.40625 41.8223H33V47.0781H7.40625L7.40625 41.8223ZM7.40625 33.9473H11.5371L11.5371 54.8301H7.40625L7.40625 33.9473Z"/>
</mask>
<path d="M33 281.43L32.9915 282.43L34 282.438V281.43H33ZM28.8867 281.395H27.8867V282.386L28.8782 282.394L28.8867 281.395ZM27.9551 272.359L28.7919 271.812L28.7871 271.805L27.9551 272.359ZM25.1953 270.215L24.8177 271.141L24.8255 271.144L25.1953 270.215ZM16.1074 269.898L16.3686 270.864L16.3792 270.861L16.1074 269.898ZM12.0645 273.098L12.9772 273.506L12.9822 273.495L12.0645 273.098ZM11.5371 281.535V282.535H12.5371V281.535H11.5371ZM7.40625 281.535H6.40625V282.535H7.40625V281.535ZM8.28516 271.111L9.2094 271.493L9.21311 271.484L8.28516 271.111ZM14.6309 264.994L14.982 265.931L14.9908 265.927L14.6309 264.994ZM25.793 264.994L25.4354 265.928L25.4418 265.93L25.793 264.994ZM29.6602 267.402L28.9649 268.121L28.965 268.121L29.6602 267.402ZM32.1387 271.111L33.0666 270.739L33.0651 270.735L32.1387 271.111ZM7.40625 278.441V277.441H6.40625V278.441H7.40625ZM33 278.441H34V277.441H33V278.441ZM33 283.715V284.715H34V283.715H33ZM7.40625 283.715H6.40625V284.715H7.40625V283.715ZM32 275.857V281.43H34V275.857H32ZM33.0085 280.43L28.8953 280.395L28.8782 282.394L32.9915 282.43L33.0085 280.43ZM29.8867 281.395V275.857H27.8867V281.395H29.8867ZM29.8867 275.857C29.8867 274.323 29.5408 272.956 28.7919 271.812L27.1183 272.907C27.6116 273.661 27.8867 274.626 27.8867 275.857H29.8867ZM28.7871 271.805C28.0266 270.664 26.9336 269.83 25.5651 269.286L24.8255 271.144C25.8711 271.56 26.6179 272.156 27.123 272.914L28.7871 271.805ZM25.5729 269.289C24.2149 268.735 22.6203 268.477 20.8184 268.477V270.477C22.4383 270.477 23.7617 270.71 24.8177 271.141L25.5729 269.289ZM20.8184 268.477H19.5703V270.477H20.8184V268.477ZM19.5703 268.477C18.1893 268.477 16.9401 268.624 15.8357 268.936L16.3792 270.861C17.2669 270.61 18.3264 270.477 19.5703 270.477V268.477ZM15.8462 268.933C14.7434 269.232 13.7767 269.69 12.9724 270.328L14.2151 271.895C14.7702 271.455 15.4793 271.104 16.3686 270.864L15.8462 268.933ZM12.9724 270.328C12.1655 270.968 11.553 271.762 11.1467 272.7L12.9822 273.495C13.2556 272.863 13.6627 272.333 14.2151 271.895L12.9724 270.328ZM11.1518 272.689C10.733 273.624 10.5371 274.67 10.5371 275.805H12.5371C12.5371 274.9 12.6928 274.141 12.9771 273.506L11.1518 272.689ZM10.5371 275.805V281.535H12.5371V275.805H10.5371ZM11.5371 280.535H7.40625V282.535H11.5371V280.535ZM8.40625 281.535V275.805H6.40625L6.40625 281.535H8.40625ZM8.40625 275.805C8.40625 274.21 8.67892 272.777 9.20936 271.493L7.36095 270.729C6.71952 272.282 6.40625 273.978 6.40625 275.805H8.40625ZM9.21311 271.484C9.73641 270.181 10.4846 269.064 11.459 268.121L10.0684 266.684C8.88648 267.827 7.98234 269.182 7.35721 270.739L9.21311 271.484ZM11.459 268.121C12.4319 267.18 13.6016 266.448 14.982 265.93L14.2797 264.058C12.6602 264.665 11.2517 265.539 10.0684 266.684L11.459 268.121ZM14.9908 265.927C16.3488 265.403 17.8827 265.133 19.6055 265.133V263.133C17.672 263.133 15.8895 263.437 14.2709 264.061L14.9908 265.927ZM19.6055 265.133H20.8184V263.133H19.6055V265.133ZM20.8184 265.133C22.5284 265.133 24.0635 265.403 25.4355 265.928L26.1505 264.06C24.5224 263.437 22.7411 263.133 20.8184 263.133V265.133ZM25.4418 265.93C26.8223 266.448 27.9919 267.18 28.9649 268.121L30.3554 266.684C29.1722 265.539 27.7637 264.665 26.1441 264.058L25.4418 265.93ZM28.965 268.121C29.9265 269.051 30.6762 270.169 31.2123 271.488L33.0651 270.735C32.4293 269.171 31.5266 267.816 30.3553 266.683L28.965 268.121ZM31.2107 271.484C31.7317 272.781 32 274.235 32 275.857H34C34 274.011 33.694 272.301 33.0666 270.739L31.2107 271.484ZM7.40625 279.441H33V277.441H7.40625L7.40625 279.441ZM32 278.441V283.715H34V278.441H32ZM33 282.715H7.40625V284.715H33V282.715ZM8.40625 283.715V278.441H6.40625L6.40625 283.715H8.40625ZM28.8867 243.127V242.127H27.8867V243.127H28.8867ZM33 243.127H34V242.127H33V243.127ZM33 256.75V257.75H34V256.75H33ZM28.8867 256.75H27.8867L27.8867 257.75H28.8867L28.8867 256.75ZM7.40625 255.027V254.027H6.40625V255.027H7.40625ZM33 255.027H34V254.027H33V255.027ZM33 260.301V261.301H34V260.301H33ZM7.40625 260.301H6.40625V261.301H7.40625V260.301ZM17.8301 244.902V243.902H16.8301V244.902H17.8301ZM21.8379 244.902H22.8379V243.902H21.8379V244.902ZM21.8379 256.75L21.8379 257.75H22.8379L22.8379 256.75H21.8379ZM17.8301 256.75H16.8301L16.8301 257.75H17.8301L17.8301 256.75ZM7.40625 243.145V242.145H6.40625V243.145H7.40625ZM11.5371 243.145H12.5371L12.5371 242.145H11.5371L11.5371 243.145ZM11.5371 256.75V257.75H12.5371V256.75H11.5371ZM7.40625 256.75H6.40625V257.75H7.40625V256.75ZM28.8867 244.127H33V242.127H28.8867V244.127ZM32 243.127V256.75H34V243.127H32ZM33 255.75H28.8867L28.8867 257.75H33V255.75ZM29.8867 256.75V243.127H27.8867V256.75H29.8867ZM7.40625 256.027H33V254.027H7.40625V256.027ZM32 255.027V260.301H34V255.027H32ZM33 259.301H7.40625V261.301H33V259.301ZM8.40625 260.301V255.027H6.40625V260.301H8.40625ZM17.8301 245.902H21.8379V243.902H17.8301V245.902ZM20.8379 244.902V256.75H22.8379V244.902H20.8379ZM21.8379 255.75H17.8301L17.8301 257.75H21.8379L21.8379 255.75ZM18.8301 256.75V244.902H16.8301V256.75H18.8301ZM7.40625 244.145H11.5371L11.5371 242.145H7.40625V244.145ZM10.5371 243.145V256.75H12.5371V243.145H10.5371ZM11.5371 255.75H7.40625V257.75H11.5371V255.75ZM8.40625 256.75V243.145H6.40625L6.40625 256.75H8.40625ZM27.6563 230.822L27.3709 231.781L27.4315 231.799L27.494 231.809L27.6563 230.822ZM7.40625 224.793H6.40625V225.539L7.12089 225.751L7.40625 224.793ZM7.40625 218.922L7.7351 217.977L6.40625 217.515V218.922H7.40625ZM33 227.834H34V227.123L33.3288 226.89L33 227.834ZM33 231.701L32.8377 232.688L34 232.879V231.701H33ZM7.40625 236.377L7.12165 235.418L6.40625 235.631V236.377H7.40625ZM27.6563 230.365L27.4876 229.38L27.4288 229.39L27.3717 229.407L27.6563 230.365ZM33 229.451H34V228.266L32.8314 228.465L33 229.451ZM33 233.354L33.3271 234.299L34 234.066V233.354H33ZM7.40625 242.213H6.40625V243.617L7.73336 243.158L7.40625 242.213ZM27.9416 229.864L7.69161 223.835L7.12089 225.751L27.3709 231.781L27.9416 229.864ZM8.40625 224.793V218.922H6.40625L6.40625 224.793H8.40625ZM7.0774 219.866L32.6712 228.778L33.3288 226.89L7.7351 217.977L7.0774 219.866ZM32 227.834L32 231.701H34L34 227.834H32ZM33.1623 230.714L27.8185 229.836L27.494 231.809L32.8377 232.688L33.1623 230.714ZM7.69085 237.336L27.9408 231.324L27.3717 229.407L7.12165 235.418L7.69085 237.336ZM27.8249 231.351L33.1686 230.437L32.8314 228.465L27.4876 229.38L27.8249 231.351ZM32 229.451V233.354H34V229.451H32ZM32.6729 232.409L7.07914 241.268L7.73336 243.158L33.3271 234.299L32.6729 232.409ZM8.40625 242.213V236.377H6.40625V242.213H8.40625ZM28.8867 199.357L28.8867 198.357H27.8867L27.8867 199.357H28.8867ZM33 199.357H34V198.357H33V199.357ZM33 212.98V213.98H34V212.98H33ZM28.8867 212.98H27.8867V213.98H28.8867V212.98ZM7.40625 211.258V210.258H6.40625V211.258H7.40625ZM33 211.258H34V210.258H33V211.258ZM33 216.531V217.531H34V216.531H33ZM7.40625 216.531H6.40625V217.531H7.40625V216.531ZM17.8301 201.133V200.133H16.8301V201.133H17.8301ZM21.8379 201.133H22.8379V200.133H21.8379V201.133ZM21.8379 212.98V213.98H22.8379V212.98H21.8379ZM17.8301 212.98H16.8301V213.98H17.8301V212.98ZM7.40625 199.375V198.375H6.40625V199.375H7.40625ZM11.5371 199.375H12.5371V198.375H11.5371V199.375ZM11.5371 212.98L11.5371 213.98H12.5371L12.5371 212.98H11.5371ZM7.40625 212.98H6.40625V213.98H7.40625V212.98ZM28.8867 200.357H33V198.357H28.8867L28.8867 200.357ZM32 199.357V212.98H34V199.357H32ZM33 211.98H28.8867V213.98H33V211.98ZM29.8867 212.98V199.357H27.8867V212.98H29.8867ZM7.40625 212.258H33V210.258H7.40625V212.258ZM32 211.258V216.531H34V211.258H32ZM33 215.531H7.40625V217.531H33V215.531ZM8.40625 216.531L8.40625 211.258H6.40625V216.531H8.40625ZM17.8301 202.133H21.8379V200.133H17.8301V202.133ZM20.8379 201.133V212.98H22.8379V201.133H20.8379ZM21.8379 211.98H17.8301V213.98H21.8379V211.98ZM18.8301 212.98V201.133H16.8301V212.98H18.8301ZM7.40625 200.375H11.5371V198.375H7.40625V200.375ZM10.5371 199.375V212.98H12.5371V199.375H10.5371ZM11.5371 211.98H7.40625V213.98H11.5371L11.5371 211.98ZM8.40625 212.98V199.375H6.40625L6.40625 212.98H8.40625ZM28.8867 179.828V178.828H27.8867V179.828H28.8867ZM33 179.828H34V178.828H33V179.828ZM33 192.713V193.713H34V192.713H33ZM28.8867 192.713H27.8867V193.713H28.8867V192.713ZM7.40625 191.008V190.008H6.40625V191.008H7.40625ZM33 191.008H34V190.008H33V191.008ZM33 196.281V197.281H34V196.281H33ZM7.40625 196.281H6.40625V197.281H7.40625V196.281ZM28.8867 180.828H33V178.828H28.8867V180.828ZM32 179.828V192.713H34V179.828H32ZM33 191.713H28.8867V193.713H33V191.713ZM29.8867 192.713V179.828H27.8867V192.713H29.8867ZM7.40625 192.008H33V190.008H7.40625L7.40625 192.008ZM32 191.008V196.281H34V191.008H32ZM33 195.281H7.40625V197.281H33V195.281ZM8.40625 196.281V191.008H6.40625L6.40625 196.281H8.40625ZM30.0117 159.965L30.6771 159.218L30.6731 159.215L30.0117 159.965ZM32.4902 163.41L31.5715 163.805L31.5728 163.808L32.4902 163.41ZM32.4902 172.234L33.4077 172.632L33.409 172.629L32.4902 172.234ZM30.0117 175.68L30.6776 176.426L30.6816 176.422L30.0117 175.68ZM26.0566 177.947L26.3793 178.894L26.3857 178.892L26.0566 177.947ZM14.3672 177.947L14.6921 177.002L14.6899 177.001L14.3672 177.947ZM10.4121 175.715L9.74624 176.461L9.75075 176.465L10.4121 175.715ZM7.91602 172.27L6.99728 172.664L6.99856 172.667L7.91602 172.27ZM7.91602 163.445L8.83348 163.843L8.83474 163.84L7.91602 163.445ZM10.4121 160L11.0735 160.75L11.078 160.746L10.4121 160ZM14.3672 157.75L14.6899 158.697L14.6985 158.694L14.3672 157.75ZM11.8008 165.484L12.6861 165.95L12.6922 165.938L11.8008 165.484ZM11.8008 170.23L12.689 169.771L12.686 169.765L11.8008 170.23ZM13.3828 171.971L12.8186 172.796L12.8281 172.803L13.3828 171.971ZM24.4043 173.043L24.6339 174.016L24.6364 174.016L24.4043 173.043ZM27.0234 171.953L27.5813 172.783L27.5876 172.779L27.0234 171.953ZM27.0234 163.709L27.5782 162.877L27.5718 162.873L27.0234 163.709ZM24.4043 162.637L24.6364 161.664L24.6339 161.663L24.4043 162.637ZM19.6055 157.941H20.8184V155.941H19.6055V157.941ZM20.8184 157.941C22.6742 157.941 24.3086 158.193 25.734 158.679L26.3793 156.786C24.7109 156.217 22.8531 155.941 20.8184 155.941V157.941ZM25.734 158.679C27.1716 159.169 28.371 159.851 29.3504 160.715L30.6731 159.215C29.4728 158.156 28.0354 157.35 26.3793 156.786L25.734 158.679ZM29.3463 160.711C30.3146 161.574 31.0546 162.602 31.5715 163.805L33.409 163.015C32.7774 161.546 31.8651 160.277 30.6771 159.218L29.3463 160.711ZM31.5728 163.808C32.0863 164.992 32.3516 166.325 32.3516 167.822H34.3516C34.3516 166.085 34.0426 164.476 33.4077 163.012L31.5728 163.808ZM32.3516 167.822C32.3516 169.306 32.0868 170.641 31.5715 171.839L33.409 172.629C34.0421 171.156 34.3516 169.549 34.3516 167.822H32.3516ZM31.5728 171.837C31.0558 173.029 30.3144 174.06 29.3419 174.937L30.6816 176.422C31.8653 175.354 32.7762 174.089 33.4077 172.632L31.5728 171.837ZM29.3459 174.934C28.3654 175.809 27.1653 176.502 25.7276 177.003L26.3857 178.892C28.0417 178.314 29.4784 177.496 30.6776 176.426L29.3459 174.934ZM25.734 177.001C24.3086 177.487 22.6742 177.738 20.8184 177.738V179.738C22.8531 179.738 24.7109 179.463 26.3793 178.894L25.734 177.001ZM20.8184 177.738H19.6055V179.738H20.8184V177.738ZM19.6055 177.738C17.737 177.738 16.1037 177.486 14.6921 177.002L14.0423 178.893C15.701 179.463 17.5599 179.738 19.6055 179.738V177.738ZM14.6899 177.001C13.2522 176.511 12.0529 175.828 11.0735 174.965L9.75075 176.465C10.951 177.523 12.3884 178.329 14.0445 178.894L14.6899 177.001ZM11.078 174.969C10.0949 174.091 9.34933 173.061 8.83347 171.872L6.99856 172.667C7.63114 174.126 8.54965 175.393 9.74625 176.461L11.078 174.969ZM8.83474 171.875C8.31948 170.676 8.05469 169.341 8.05469 167.857H6.05469C6.05469 169.584 6.36411 171.191 6.99729 172.664L8.83474 171.875ZM8.05469 167.857C8.05469 166.361 8.31991 165.027 8.83347 163.843L6.99856 163.047C6.36369 164.512 6.05469 166.12 6.05469 167.857H8.05469ZM8.83474 163.84C9.35056 162.64 10.0947 161.613 11.0735 160.75L9.75075 159.25C8.5498 160.309 7.62991 161.579 6.99729 163.05L8.83474 163.84ZM11.078 160.746C12.0568 159.873 13.2546 159.186 14.6899 158.697L14.0445 156.803C12.386 157.369 10.9471 158.182 9.74625 159.254L11.078 160.746ZM14.6985 158.694C16.1081 158.199 17.7391 157.941 19.6055 157.941V155.941C17.5578 155.941 15.6966 156.223 14.0359 156.806L14.6985 158.694ZM20.8184 161.268H19.5703V163.268H20.8184V161.268ZM19.5703 161.268C18.1535 161.268 16.8774 161.396 15.7523 161.664L16.2165 163.609C17.1539 163.386 18.2684 163.268 19.5703 163.268V161.268ZM15.7523 161.664C14.6303 161.932 13.6439 162.337 12.8186 162.901L13.947 164.552C14.528 164.155 15.276 163.834 16.2165 163.609L15.7523 161.664ZM12.8186 162.901C11.9908 163.467 11.3443 164.176 10.9094 165.031L12.6922 165.938C12.9604 165.41 13.3686 164.947 13.947 164.552L12.8186 162.901ZM10.9155 165.019C10.4669 165.873 10.2559 166.828 10.2559 167.857H12.2559C12.2559 167.106 12.4081 166.478 12.686 165.95L10.9155 165.019ZM10.2559 167.857C10.2559 168.887 10.4669 169.842 10.9155 170.696L12.686 169.765C12.4081 169.236 12.2559 168.609 12.2559 167.857H10.2559ZM10.9126 170.69C11.3484 171.533 11.9945 172.233 12.8186 172.796L13.947 171.145C13.3648 170.747 12.9562 170.288 12.689 169.771L10.9126 170.69ZM12.8281 172.803C13.6511 173.351 14.6341 173.749 15.7523 174.016L16.2165 172.07C15.2722 171.845 14.5208 171.528 13.9375 171.139L12.8281 172.803ZM15.7523 174.016C16.8774 174.284 18.1535 174.412 19.5703 174.412V172.412C18.2684 172.412 17.1539 172.294 16.2165 172.07L15.7523 174.016ZM19.5703 174.412H20.8184V172.412H19.5703V174.412ZM20.8184 174.412C22.2245 174.412 23.4994 174.284 24.6339 174.016L24.1746 172.07C23.2233 172.294 22.1075 172.412 20.8184 172.412V174.412ZM24.6364 174.016C25.758 173.748 26.7473 173.344 27.5813 172.783L26.4656 171.123C25.8699 171.524 25.1131 171.846 24.1722 172.07L24.6364 174.016ZM27.5876 172.779C28.4131 172.215 29.0623 171.509 29.5083 170.66L27.7378 169.73C27.4572 170.264 27.04 170.731 26.4592 171.127L27.5876 172.779ZM29.5083 170.66C29.9569 169.807 30.168 168.852 30.168 167.822H28.168C28.168 168.574 28.0157 169.201 27.7378 169.73L29.5083 170.66ZM30.168 167.822C30.168 166.793 29.9569 165.838 29.5083 164.984L27.7378 165.914C28.0157 166.443 28.168 167.071 28.168 167.822H30.168ZM29.5083 164.984C29.0609 164.133 28.4087 163.431 27.5781 162.877L26.4687 164.541C27.0444 164.925 27.4586 165.383 27.7378 165.914L29.5083 164.984ZM27.5718 162.873C26.7401 162.327 25.7542 161.931 24.6364 161.664L24.1722 163.609C25.1169 163.835 25.877 164.153 26.4751 164.545L27.5718 162.873ZM24.6339 161.663C23.4994 161.396 22.2245 161.268 20.8184 161.268V163.268C22.1075 163.268 23.2233 163.386 24.1746 163.61L24.6339 161.663ZM23.877 149.699V150.699H24.877V149.699H23.877ZM19.7637 149.699H18.7637V150.699H19.7637V149.699ZM19.2715 140.717L20.1592 140.256L20.1559 140.25L20.1525 140.244L19.2715 140.717ZM11.5371 147.871H10.5371V148.871H11.5371V147.871ZM33 147.871H34V146.871H33V147.871ZM33 153.145V154.145H34V153.145H33ZM7.40625 153.145H6.40625V154.145H7.40625V153.145ZM8.49609 138.027L9.38762 138.48L9.39197 138.472L8.49609 138.027ZM22.8926 138.027L21.9825 138.442L21.9837 138.445L22.8926 138.027ZM22.877 143.178V149.699H24.877V143.178H22.877ZM23.877 148.699H19.7637V150.699H23.877V148.699ZM20.7637 149.699V143.178H18.7637V149.699H20.7637ZM20.7637 143.178C20.7637 142.072 20.5852 141.078 20.1592 140.256L18.3837 141.177C18.614 141.621 18.7637 142.268 18.7637 143.178H20.7637ZM20.1525 140.244C19.722 139.442 19.1059 138.823 18.3054 138.43L17.4251 140.226C17.8199 140.42 18.1413 140.726 18.3905 141.19L20.1525 140.244ZM18.3054 138.43C17.5542 138.062 16.7268 137.889 15.8438 137.889V139.889C16.4607 139.889 16.9809 140.008 17.4251 140.226L18.3054 138.43ZM15.8438 137.889C14.9501 137.889 14.1013 138.061 13.3091 138.415L14.1244 140.241C14.6448 140.009 15.2139 139.889 15.8438 139.889V137.889ZM13.3091 138.415C12.4647 138.792 11.7878 139.391 11.2885 140.184L12.981 141.25C13.2786 140.777 13.6564 140.45 14.1244 140.241L13.3091 138.415ZM11.2885 140.184C10.7604 141.023 10.5371 142.045 10.5371 143.178H12.5371C12.5371 142.295 12.7123 141.676 12.981 141.25L11.2885 140.184ZM10.5371 143.178V147.871H12.5371V143.178H10.5371ZM11.5371 148.871H33V146.871H11.5371V148.871ZM32 147.871V153.145H34V147.871H32ZM33 152.145H7.40625V154.145H33V152.145ZM8.40625 153.145V143.178H6.40625L6.40625 153.145H8.40625ZM8.40625 143.178C8.40625 141.293 8.74793 139.739 9.38758 138.48L7.60461 137.574C6.79113 139.175 6.40625 141.055 6.40625 143.178H8.40625ZM9.39197 138.472C10.0299 137.185 10.8949 136.234 11.9825 135.579L10.9511 133.866C9.50748 134.735 8.39198 135.987 7.60021 137.583L9.39197 138.472ZM11.9825 135.579C13.0767 134.921 14.3422 134.58 15.8086 134.58V132.58C14.0172 132.58 12.3881 133.001 10.9511 133.866L11.9825 135.579ZM15.8086 134.58C17.3024 134.58 18.5406 134.923 19.564 135.568L20.6313 133.877C19.2407 132.999 17.6194 132.58 15.8086 132.58V134.58ZM19.564 135.568C20.5884 136.215 21.3978 137.158 21.9825 138.442L23.8027 137.613C23.0749 136.014 22.021 134.754 20.6313 133.877L19.564 135.568ZM21.9837 138.445C22.5658 139.713 22.877 141.28 22.877 143.178H24.877C24.877 141.068 24.5318 139.201 23.8014 137.61L21.9837 138.445ZM7.40625 127.533H6.40625V128.958L7.74602 128.474L7.40625 127.533ZM7.40625 123.068L7.07602 122.124L6.40625 122.359V123.068H7.40625ZM26.1973 116.494L26.5275 117.438L29.2254 116.494L26.5275 115.55L26.1973 116.494ZM7.40625 109.92H6.40625V110.629L7.07602 110.864L7.40625 109.92ZM7.40625 105.455L7.74602 104.515L6.40625 104.031L6.40625 105.455H7.40625ZM33 114.701H34V113.999L33.3398 113.761L33 114.701ZM33 118.287L33.3398 119.228L34 118.989V118.287H33ZM7.40625 129.941H6.40625V130.941H7.40625V129.941ZM7.40625 125.494L7.36215 124.495L6.40625 124.537V125.494H7.40625ZM25.7227 124.686V123.686H25.7006L25.6786 123.687L25.7227 124.686ZM33 124.686H34V123.686H33V124.686ZM33 129.941V130.941H34V129.941H33ZM7.40625 107.494H6.40625V108.451L7.36215 108.493L7.40625 107.494ZM7.40625 103.029V102.029H6.40625V103.029H7.40625ZM33 103.029H34V102.029H33V103.029ZM33 108.303V109.303H34V108.303H33ZM25.7227 108.303L25.6786 109.302L25.7006 109.303H25.7227V108.303ZM8.40625 127.533L8.40625 123.068H6.40625V127.533H8.40625ZM7.73648 124.012L26.5275 117.438L25.867 115.55L7.07602 122.124L7.73648 124.012ZM26.5275 115.55L7.73648 108.976L7.07602 110.864L25.867 117.438L26.5275 115.55ZM8.40625 109.92V105.455H6.40625V109.92H8.40625ZM7.06648 106.396L32.6602 115.642L33.3398 113.761L7.74602 104.515L7.06648 106.396ZM32 114.701V118.287H34V114.701H32ZM32.6602 117.347L7.06648 126.593L7.74602 128.474L33.3398 119.228L32.6602 117.347ZM8.40625 129.941L8.40625 125.494H6.40625V129.941H8.40625ZM7.45035 126.493L25.7668 125.685L25.6786 123.687L7.36215 124.495L7.45035 126.493ZM25.7227 125.686H33V123.686H25.7227V125.686ZM32 124.686V129.941H34V124.686H32ZM33 128.941H7.40625V130.941H33V128.941ZM8.40625 107.494V103.029H6.40625L6.40625 107.494H8.40625ZM7.40625 104.029H33V102.029H7.40625V104.029ZM32 103.029V108.303H34V103.029H32ZM33 107.303H25.7227V109.303H33V107.303ZM25.7668 107.304L7.45035 106.495L7.36215 108.493L25.6786 109.302L25.7668 107.304ZM28.8867 81.2324V80.2324H27.8867V81.2324H28.8867ZM33 81.2324H34V80.2324H33V81.2324ZM33 94.8555V95.8555H34V94.8555H33ZM28.8867 94.8555H27.8867V95.8555H28.8867V94.8555ZM7.40625 93.1328V92.1328H6.40625V93.1328H7.40625ZM33 93.1328H34V92.1328H33V93.1328ZM33 98.4062V99.4062H34V98.4062H33ZM7.40625 98.4062H6.40625V99.4062H7.40625V98.4062ZM17.8301 83.0078L17.8301 82.0078H16.8301L16.8301 83.0078H17.8301ZM21.8379 83.0078H22.8379L22.8379 82.0078H21.8379L21.8379 83.0078ZM21.8379 94.8555V95.8555H22.8379V94.8555H21.8379ZM17.8301 94.8555H16.8301V95.8555H17.8301V94.8555ZM7.40625 81.25V80.25H6.40625V81.25H7.40625ZM11.5371 81.25H12.5371V80.25H11.5371V81.25ZM11.5371 94.8555V95.8555H12.5371V94.8555H11.5371ZM7.40625 94.8555H6.40625V95.8555H7.40625V94.8555ZM28.8867 82.2324H33V80.2324H28.8867V82.2324ZM32 81.2324V94.8555H34V81.2324H32ZM33 93.8555H28.8867V95.8555H33V93.8555ZM29.8867 94.8555L29.8867 81.2324H27.8867L27.8867 94.8555H29.8867ZM7.40625 94.1328H33V92.1328H7.40625V94.1328ZM32 93.1328V98.4062H34V93.1328H32ZM33 97.4062H7.40625V99.4062H33V97.4062ZM8.40625 98.4062L8.40625 93.1328H6.40625V98.4062H8.40625ZM17.8301 84.0078H21.8379L21.8379 82.0078H17.8301L17.8301 84.0078ZM20.8379 83.0078V94.8555H22.8379V83.0078H20.8379ZM21.8379 93.8555H17.8301V95.8555H21.8379V93.8555ZM18.8301 94.8555V83.0078H16.8301V94.8555H18.8301ZM7.40625 82.25H11.5371V80.25H7.40625V82.25ZM10.5371 81.25V94.8555H12.5371V81.25H10.5371ZM11.5371 93.8555H7.40625V95.8555H11.5371V93.8555ZM8.40625 94.8555V81.25H6.40625L6.40625 94.8555H8.40625ZM7.40625 57.3262V56.3262H6.40625V57.3262H7.40625ZM33 57.3262H34V56.3262H33V57.3262ZM33 62.5996L33.5141 63.4573L34 63.1661V62.5996H33ZM15.8438 72.8828L15.3296 72.0251L12.2303 73.8828H15.8438V72.8828ZM33 72.8828H34V71.8828H33V72.8828ZM33 78.1562V79.1562H34V78.1562H33ZM7.40625 78.1562H6.40625V79.1562H7.40625V78.1562ZM7.40625 72.8828L6.89188 72.0252L6.40625 72.3165V72.8828H7.40625ZM24.5801 62.582L25.0944 63.4396L28.1915 61.582H24.5801V62.582ZM7.40625 62.582H6.40625V63.582H7.40625V62.582ZM7.40625 58.3262H33V56.3262H7.40625V58.3262ZM32 57.3262V62.5996H34V57.3262H32ZM32.4859 61.7419L15.3296 72.0251L16.3579 73.7405L33.5141 63.4573L32.4859 61.7419ZM15.8438 73.8828H33V71.8828H15.8438V73.8828ZM32 72.8828V78.1562H34V72.8828H32ZM33 77.1562H7.40625V79.1562H33V77.1562ZM8.40625 78.1562V72.8828H6.40625L6.40625 78.1562H8.40625ZM7.92062 73.7404L25.0944 63.4396L24.0657 61.7245L6.89188 72.0252L7.92062 73.7404ZM24.5801 61.582H7.40625V63.582H24.5801V61.582ZM8.40625 62.582V57.3262H6.40625L6.40625 62.582H8.40625ZM7.40625 41.8223V40.8223H6.40625V41.8223H7.40625ZM33 41.8223H34V40.8223H33V41.8223ZM33 47.0781V48.0781H34V47.0781H33ZM7.40625 47.0781H6.40625V48.0781H7.40625V47.0781ZM7.40625 33.9473V32.9473H6.40625V33.9473H7.40625ZM11.5371 33.9473H12.5371V32.9473H11.5371V33.9473ZM11.5371 54.8301V55.8301H12.5371V54.8301H11.5371ZM7.40625 54.8301H6.40625V55.8301H7.40625V54.8301ZM7.40625 42.8223H33V40.8223H7.40625V42.8223ZM32 41.8223V47.0781H34V41.8223H32ZM33 46.0781H7.40625L7.40625 48.0781H33V46.0781ZM8.40625 47.0781V41.8223H6.40625L6.40625 47.0781H8.40625ZM7.40625 34.9473H11.5371V32.9473H7.40625V34.9473ZM10.5371 33.9473L10.5371 54.8301H12.5371L12.5371 33.9473H10.5371ZM11.5371 53.8301H7.40625V55.8301H11.5371V53.8301ZM8.40625 54.8301L8.40625 33.9473H6.40625L6.40625 54.8301H8.40625Z" fill="#02BDD5" mask="url(#path-6-outside-1_686_1001)"/>
<line x1="21.5" y1="2.18557e-08" x2="21.5" y2="23" stroke="white"/>
</svg>
