<svg width="197" height="318" viewBox="0 0 197 318" fill="none" xmlns="http://www.w3.org/2000/svg">
<line x1="21" y1="0.5" x2="196" y2="0.5" stroke="white"/>
<line x1="21" y1="317.5" x2="196" y2="317.5" stroke="white"/>
<line x1="21.5" y1="279" x2="21.5" y2="318" stroke="white"/>
<line x1="196.5" y1="2.18557e-08" x2="196.5" y2="20" stroke="white"/>
<line x1="196.5" y1="244" x2="196.5" y2="318" stroke="white"/>
<mask id="path-6-outside-1_686_998" maskUnits="userSpaceOnUse" x="6" y="51" width="29" height="218" fill="black">
<rect fill="white" x="6" y="51" width="29" height="218"/>
<path d="M24.5098 251.879V246.623C26.2324 246.729 27.7617 247.203 29.0977 248.047C30.4336 248.879 31.4766 250.045 32.2266 251.545C32.9766 253.033 33.3516 254.826 33.3516 256.924C33.3516 258.564 33.0703 260.035 32.5078 261.336C31.9336 262.637 31.1133 263.75 30.0469 264.676C28.9805 265.59 27.6914 266.287 26.1797 266.768C24.668 267.248 22.9746 267.488 21.0996 267.488H19.3242C17.4492 267.488 15.7559 267.242 14.2441 266.75C12.7207 266.246 11.4258 265.531 10.3594 264.605C9.29297 263.668 8.47266 262.549 7.89844 261.248C7.32422 259.947 7.03711 258.494 7.03711 256.889C7.03711 254.756 7.42383 252.957 8.19727 251.492C8.9707 250.016 10.0371 248.873 11.3965 248.064C12.7559 247.244 14.3027 246.752 16.0371 246.588V251.861C15.0059 251.92 14.1328 252.125 13.418 252.477C12.6914 252.828 12.1465 253.361 11.7832 254.076C11.4082 254.779 11.2207 255.717 11.2207 256.889C11.2207 257.768 11.3848 258.535 11.7129 259.191C12.041 259.848 12.5391 260.398 13.207 260.844C13.875 261.289 14.7188 261.623 15.7383 261.846C16.7461 262.057 17.9297 262.162 19.2891 262.162H21.0996C22.4238 262.162 23.5898 262.062 24.5977 261.863C25.5938 261.664 26.4375 261.359 27.1289 260.949C27.8086 260.527 28.3242 259.988 28.6758 259.332C29.0156 258.664 29.1855 257.861 29.1855 256.924C29.1855 255.822 29.0098 254.914 28.6582 254.199C28.3066 253.484 27.7852 252.939 27.0938 252.564C26.4023 252.178 25.541 251.949 24.5098 251.879ZM19.6055 222.137H20.8184C22.7637 222.137 24.5098 222.4 26.0566 222.928C27.6035 223.455 28.9219 224.199 30.0117 225.16C31.0898 226.121 31.916 227.27 32.4902 228.605C33.0645 229.93 33.3516 231.4 33.3516 233.018C33.3516 234.623 33.0645 236.094 32.4902 237.43C31.916 238.754 31.0898 239.902 30.0117 240.875C28.9219 241.848 27.6035 242.604 26.0566 243.143C24.5098 243.67 22.7637 243.934 20.8184 243.934H19.6055C17.6484 243.934 15.9023 243.67 14.3672 243.143C12.8203 242.615 11.502 241.871 10.4121 240.91C9.32227 239.938 8.49023 238.789 7.91602 237.465C7.3418 236.129 7.05469 234.658 7.05469 233.053C7.05469 231.436 7.3418 229.965 7.91602 228.641C8.49023 227.305 9.32227 226.156 10.4121 225.195C11.502 224.223 12.8203 223.473 14.3672 222.945C15.9023 222.406 17.6484 222.137 19.6055 222.137ZM20.8184 227.463H19.5703C18.2109 227.463 17.0156 227.586 15.9844 227.832C14.9531 228.078 14.0859 228.441 13.3828 228.922C12.6797 229.402 12.1523 229.988 11.8008 230.68C11.4375 231.371 11.2559 232.162 11.2559 233.053C11.2559 233.943 11.4375 234.734 11.8008 235.426C12.1523 236.105 12.6797 236.686 13.3828 237.166C14.0859 237.635 14.9531 237.992 15.9844 238.238C17.0156 238.484 18.2109 238.607 19.5703 238.607H20.8184C22.166 238.607 23.3613 238.484 24.4043 238.238C25.4355 237.992 26.3086 237.629 27.0234 237.148C27.7266 236.668 28.2598 236.082 28.623 235.391C28.9863 234.699 29.168 233.908 29.168 233.018C29.168 232.127 28.9863 231.336 28.623 230.645C28.2598 229.953 27.7266 229.373 27.0234 228.904C26.3086 228.436 25.4355 228.078 24.4043 227.832C23.3613 227.586 22.166 227.463 20.8184 227.463ZM7.40625 197.51H33V202.783L15.8438 213.066H33V218.34H7.40625L7.40625 213.066L24.5801 202.766H7.40625V197.51ZM26.3027 179.598C25.8457 179.598 25.4355 179.668 25.0723 179.809C24.6973 179.938 24.3574 180.184 24.0527 180.547C23.7363 180.91 23.4258 181.42 23.1211 182.076C22.8164 182.732 22.5 183.582 22.1719 184.625C21.7969 185.785 21.375 186.887 20.9063 187.93C20.4375 188.961 19.8926 189.875 19.2715 190.672C18.6387 191.457 17.9063 192.078 17.0742 192.535C16.2422 192.98 15.2754 193.203 14.1738 193.203C13.1074 193.203 12.1406 192.969 11.2734 192.5C10.3945 192.031 9.64453 191.375 9.02344 190.531C8.39063 189.688 7.9043 188.691 7.56445 187.543C7.22461 186.383 7.05469 185.111 7.05469 183.729C7.05469 181.842 7.39453 180.195 8.07422 178.789C8.75391 177.383 9.68555 176.293 10.8691 175.52C12.0527 174.734 13.4063 174.342 14.9297 174.342V179.58C14.1797 179.58 13.5234 179.738 12.9609 180.055C12.3867 180.359 11.9355 180.828 11.6074 181.461C11.2793 182.082 11.1152 182.867 11.1152 183.816C11.1152 184.73 11.2559 185.492 11.5371 186.102C11.8066 186.711 12.1758 187.168 12.6445 187.473C13.1016 187.777 13.6172 187.93 14.1914 187.93C14.625 187.93 15.0176 187.824 15.3691 187.613C15.7207 187.391 16.0488 187.062 16.3535 186.629C16.6582 186.195 16.9453 185.662 17.2148 185.029C17.4844 184.396 17.748 183.664 18.0059 182.832C18.4277 181.438 18.9023 180.213 19.4297 179.158C19.957 178.092 20.5488 177.201 21.2051 176.486C21.8613 175.771 22.6055 175.232 23.4375 174.869C24.2695 174.506 25.2129 174.324 26.2676 174.324C27.3809 174.324 28.377 174.541 29.2559 174.975C30.1348 175.408 30.8789 176.035 31.4883 176.855C32.0977 177.676 32.5605 178.654 32.877 179.791C33.1934 180.928 33.3516 182.199 33.3516 183.605C33.3516 184.871 33.1875 186.119 32.8594 187.35C32.5195 188.58 32.0098 189.699 31.3301 190.707C30.6504 191.703 29.7832 192.5 28.7285 193.098C27.6738 193.695 26.4258 193.994 24.9844 193.994V188.703C25.7813 188.703 26.4551 188.58 27.0059 188.334C27.5566 188.088 28.002 187.742 28.3418 187.297C28.6816 186.84 28.9277 186.301 29.0801 185.68C29.2324 185.047 29.3086 184.355 29.3086 183.605C29.3086 182.691 29.1797 181.941 28.9219 181.355C28.6641 180.758 28.3066 180.318 27.8496 180.037C27.3926 179.744 26.877 179.598 26.3027 179.598ZM7.40625 156.605V151.35H24.3164C26.2852 151.35 27.9434 151.771 29.291 152.615C30.6387 153.447 31.6523 154.602 32.332 156.078C33.0117 157.543 33.3516 159.23 33.3516 161.141C33.3516 163.051 33.0117 164.75 32.332 166.238C31.6523 167.715 30.6387 168.875 29.291 169.719C27.9434 170.551 26.2852 170.967 24.3164 170.967H7.40625V165.693H24.3164C25.4648 165.693 26.4023 165.512 27.1289 165.148C27.8555 164.785 28.3887 164.264 28.7285 163.584C29.0684 162.893 29.2383 162.078 29.2383 161.141C29.2383 160.18 29.0684 159.365 28.7285 158.697C28.3887 158.018 27.8555 157.502 27.1289 157.15C26.4023 156.787 25.4648 156.605 24.3164 156.605H7.40625ZM28.8867 130.555H33V143.439H28.8867V130.555ZM7.40625 141.734H33V147.008H7.40625L7.40625 141.734ZM7.40625 120.096H33V125.352H7.40625V120.096ZM7.40625 112.221H11.5371V133.104H7.40625L7.40625 112.221ZM7.40625 103.607H33V108.863H7.40625V103.607ZM7.40625 77.8379H33V83.1113L15.8438 93.3945H33L33 98.668H7.40625V93.3945L24.5801 83.0938H7.40625V77.8379ZM19.623 52.9648H29.7656C30.2461 53.3633 30.7676 53.9785 31.3301 54.8105C31.8809 55.6426 32.3555 56.7148 32.7539 58.0273C33.1523 59.3398 33.3516 60.9277 33.3516 62.791C33.3516 64.4434 33.082 65.9492 32.543 67.3086C31.9922 68.668 31.1895 69.8398 30.1348 70.8242C29.0801 71.7969 27.791 72.5469 26.2676 73.0742C24.7324 73.6016 22.9805 73.8652 21.0117 73.8652H19.4121C17.4434 73.8652 15.6914 73.6133 14.1563 73.1094C12.6211 72.5938 11.3262 71.8613 10.2715 70.9121C9.2168 69.9629 8.41406 68.832 7.86328 67.5195C7.3125 66.207 7.03711 64.748 7.03711 63.1426C7.03711 60.916 7.40039 59.0879 8.12695 57.6582C8.8418 56.2285 9.83789 55.1387 11.1152 54.3887C12.3809 53.627 13.834 53.1582 15.4746 52.9824V58.0977C14.6074 58.2266 13.8516 58.4727 13.207 58.8359C12.5625 59.1992 12.0586 59.7207 11.6953 60.4004C11.332 61.0684 11.1504 61.9355 11.1504 63.002C11.1504 63.8809 11.332 64.666 11.6953 65.3574C12.0469 66.0371 12.5684 66.6113 13.2598 67.0801C13.9512 67.5488 14.8066 67.9062 15.8262 68.1523C16.8457 68.3984 18.0293 68.5215 19.377 68.5215H21.0117C22.3477 68.5215 23.5313 68.3926 24.5625 68.1348C25.582 67.877 26.4434 67.4961 27.1465 66.9922C27.8379 66.4766 28.3594 65.8438 28.7109 65.0938C29.0625 64.3438 29.2383 63.4707 29.2383 62.4746C29.2383 61.6426 29.168 60.9512 29.0273 60.4004C28.8867 59.8379 28.7168 59.3867 28.5176 59.0469C28.3066 58.6953 28.1074 58.4258 27.9199 58.2383H23.3848V63.0547H19.623V52.9648Z"/>
</mask>
<path d="M24.5098 251.879H23.5098V252.813L24.4417 252.877L24.5098 251.879ZM24.5098 246.623L24.5709 245.625L23.5098 245.56V246.623H24.5098ZM29.0977 248.047L28.5637 248.892L28.569 248.896L29.0977 248.047ZM32.2266 251.545L31.3321 251.992L31.3335 251.995L32.2266 251.545ZM32.5078 261.336L33.4227 261.74L33.4257 261.733L32.5078 261.336ZM30.0469 264.676L30.6977 265.435L30.7024 265.431L30.0469 264.676ZM14.2441 266.75L13.9301 267.699L13.9346 267.701L14.2441 266.75ZM10.3594 264.605L9.69911 265.357L9.70381 265.361L10.3594 264.605ZM8.19727 251.492L9.08157 251.959L9.0831 251.956L8.19727 251.492ZM11.3965 248.064L11.9077 248.924L11.9131 248.921L11.3965 248.064ZM16.0371 246.588H17.0371V245.489L15.9429 245.592L16.0371 246.588ZM16.0371 251.861L16.0938 252.86L17.0371 252.806V251.861H16.0371ZM13.418 252.477L13.8535 253.377L13.8593 253.374L13.418 252.477ZM11.7832 254.076L12.6656 254.547L12.6702 254.538L12.6747 254.529L11.7832 254.076ZM15.7383 261.846L15.5249 262.823L15.5334 262.824L15.7383 261.846ZM24.5977 261.863L24.7916 262.844L24.7938 262.844L24.5977 261.863ZM27.1289 260.949L27.6391 261.809L27.6477 261.804L27.6563 261.799L27.1289 260.949ZM28.6758 259.332L29.5573 259.804L29.5623 259.795L29.5671 259.785L28.6758 259.332ZM27.0938 252.564L26.6056 253.437L26.617 253.443L27.0938 252.564ZM25.5098 251.879V246.623H23.5098V251.879H25.5098ZM24.4487 247.621C26.0192 247.717 27.3829 248.147 28.5637 248.892L29.6316 247.201C28.1406 246.26 26.4456 245.74 24.5709 245.625L24.4487 247.621ZM28.569 248.896C29.7379 249.624 30.659 250.646 31.3321 251.992L33.121 251.098C32.2941 249.444 31.1293 248.134 29.6263 247.198L28.569 248.896ZM31.3335 251.995C31.9974 253.312 32.3516 254.943 32.3516 256.924H34.3516C34.3516 254.709 33.9557 252.754 33.1196 251.095L31.3335 251.995ZM32.3516 256.924C32.3516 258.449 32.0904 259.782 31.59 260.939L33.4257 261.733C34.0502 260.289 34.3516 258.68 34.3516 256.924H32.3516ZM31.593 260.932C31.0778 262.099 30.3457 263.092 29.3913 263.921L30.7024 265.431C31.8809 264.408 32.7894 263.174 33.4226 261.74L31.593 260.932ZM29.3961 263.917C28.4438 264.733 27.2772 265.369 25.8768 265.815L26.4826 267.721C28.1056 267.205 29.5171 266.447 30.6977 265.435L29.3961 263.917ZM25.8768 265.815C24.479 266.259 22.89 266.488 21.0996 266.488V268.488C23.0592 268.488 24.857 268.237 26.4826 267.721L25.8768 265.815ZM21.0996 266.488H19.3242V268.488H21.0996V266.488ZM19.3242 266.488C17.536 266.488 15.9494 266.254 14.5537 265.799L13.9346 267.701C15.5623 268.231 17.3624 268.488 19.3242 268.488V266.488ZM14.5582 265.801C13.1433 265.333 11.9688 264.678 11.0149 263.85L9.70381 265.361C10.8828 266.384 12.2981 267.16 13.9301 267.699L14.5582 265.801ZM11.0196 263.854C10.0624 263.013 9.32893 262.012 8.81327 260.844L6.98361 261.652C7.61639 263.085 8.5235 264.323 9.69912 265.357L11.0196 263.854ZM8.81327 260.844C8.30203 259.686 8.03711 258.373 8.03711 256.889H6.03711C6.03711 258.615 6.3464 260.208 6.98361 261.652L8.81327 260.844ZM8.03711 256.889C8.03711 254.873 8.40283 253.245 9.08157 251.959L7.31296 251.025C6.44483 252.669 6.03711 254.639 6.03711 256.889H8.03711ZM9.0831 251.956C9.7755 250.634 10.7161 249.633 11.9077 248.924L10.8853 247.205C9.35811 248.113 8.16591 249.397 7.31143 251.028L9.0831 251.956ZM11.9131 248.921C13.1318 248.185 14.5317 247.735 16.1313 247.583L15.9429 245.592C14.0738 245.769 12.3799 246.303 10.8798 247.208L11.9131 248.921ZM15.0371 246.588V251.861H17.0371V246.588H15.0371ZM15.9804 250.863C14.8533 250.927 13.8415 251.154 12.9766 251.579L13.8593 253.374C14.4241 253.096 15.1584 252.913 16.0938 252.86L15.9804 250.863ZM12.9824 251.576C12.0605 252.022 11.3547 252.712 10.8917 253.623L12.6747 254.529C12.9382 254.011 13.3223 253.634 13.8535 253.377L12.9824 251.576ZM10.9009 253.606C10.4208 254.506 10.2207 255.624 10.2207 256.889H12.2207C12.2207 255.809 12.3956 255.053 12.6656 254.547L10.9009 253.606ZM10.2207 256.889C10.2207 257.892 10.4085 258.819 10.8185 259.639L12.6073 258.744C12.3611 258.252 12.2207 257.643 12.2207 256.889H10.2207ZM10.8185 259.639C11.2316 260.465 11.8536 261.143 12.6523 261.676L13.7617 260.012C13.2245 259.654 12.8504 259.23 12.6073 258.744L10.8185 259.639ZM12.6523 261.676C13.45 262.208 14.4183 262.581 15.5249 262.823L15.9516 260.869C15.0192 260.665 14.3 260.371 13.7617 260.012L12.6523 261.676ZM15.5334 262.824C16.6261 263.053 17.8813 263.162 19.2891 263.162V261.162C17.9781 261.162 16.8661 261.06 15.9431 260.867L15.5334 262.824ZM19.2891 263.162H21.0996V261.162H19.2891V263.162ZM21.0996 263.162C22.4713 263.162 23.7047 263.059 24.7916 262.844L24.4037 260.882C23.475 261.066 22.3763 261.162 21.0996 261.162V263.162ZM24.7938 262.844C25.8727 262.628 26.8288 262.29 27.6391 261.809L26.6187 260.089C26.0462 260.429 25.3148 260.7 24.4015 260.883L24.7938 262.844ZM27.6563 261.799C28.4736 261.292 29.1167 260.627 29.5573 259.804L27.7943 258.86C27.5318 259.35 27.1436 259.763 26.6015 260.1L27.6563 261.799ZM29.5671 259.785C29.9941 258.946 30.1855 257.98 30.1855 256.924H28.1855C28.1855 257.742 28.0372 258.382 27.7845 258.879L29.5671 259.785ZM30.1855 256.924C30.1855 255.724 29.9954 254.652 29.5556 253.758L27.7609 254.641C28.0241 255.176 28.1855 255.92 28.1855 256.924H30.1855ZM29.5556 253.758C29.1138 252.86 28.4466 252.161 27.5705 251.685L26.617 253.443C27.1237 253.718 27.4995 254.109 27.7609 254.641L29.5556 253.758ZM27.5819 251.692C26.7283 251.214 25.7134 250.959 24.5778 250.881L24.4417 252.877C25.3686 252.94 26.0763 253.141 26.6056 253.437L27.5819 251.692ZM30.0117 225.16L30.6771 224.414L30.6731 224.41L30.0117 225.16ZM32.4902 228.605L31.5715 229L31.5728 229.003L32.4902 228.605ZM32.4902 237.43L33.4077 237.828L33.409 237.825L32.4902 237.43ZM30.0117 240.875L30.6776 241.621L30.6816 241.617L30.0117 240.875ZM26.0566 243.143L26.3793 244.089L26.3857 244.087L26.0566 243.143ZM14.3672 243.143L14.6921 242.197L14.6899 242.196L14.3672 243.143ZM10.4121 240.91L9.74624 241.656L9.75075 241.66L10.4121 240.91ZM7.91602 237.465L6.99728 237.86L6.99856 237.863L7.91602 237.465ZM7.91602 228.641L8.83348 229.038L8.83474 229.036L7.91602 228.641ZM10.4121 225.195L11.0735 225.945L11.078 225.941L10.4121 225.195ZM14.3672 222.945L14.6899 223.892L14.6985 223.889L14.3672 222.945ZM11.8008 230.68L12.6861 231.145L12.6922 231.133L11.8008 230.68ZM11.8008 235.426L12.689 234.966L12.686 234.961L11.8008 235.426ZM13.3828 237.166L12.8186 237.992L12.8281 237.998L13.3828 237.166ZM24.4043 238.238L24.6339 239.212L24.6364 239.211L24.4043 238.238ZM27.0234 237.148L27.5813 237.978L27.5876 237.974L27.0234 237.148ZM27.0234 228.904L27.5782 228.072L27.5718 228.068L27.0234 228.904ZM24.4043 227.832L24.6364 226.859L24.6339 226.859L24.4043 227.832ZM19.6055 223.137H20.8184V221.137H19.6055V223.137ZM20.8184 223.137C22.6742 223.137 24.3086 223.388 25.734 223.874L26.3793 221.981C24.7109 221.412 22.8531 221.137 20.8184 221.137V223.137ZM25.734 223.874C27.1716 224.364 28.371 225.047 29.3504 225.91L30.6731 224.41C29.4728 223.352 28.0354 222.546 26.3793 221.981L25.734 223.874ZM29.3463 225.907C30.3146 226.77 31.0546 227.798 31.5715 229L33.409 228.211C32.7774 226.741 31.8651 225.473 30.6771 224.414L29.3463 225.907ZM31.5728 229.003C32.0863 230.188 32.3516 231.521 32.3516 233.018H34.3516C34.3516 231.28 34.0426 229.672 33.4077 228.208L31.5728 229.003ZM32.3516 233.018C32.3516 234.501 32.0868 235.836 31.5715 237.035L33.409 237.825C34.0421 236.351 34.3516 234.745 34.3516 233.018H32.3516ZM31.5728 237.032C31.0558 238.224 30.3144 239.255 29.3419 240.133L30.6816 241.617C31.8653 240.55 32.7762 239.284 33.4077 237.828L31.5728 237.032ZM29.3459 240.129C28.3654 241.004 27.1653 241.697 25.7276 242.198L26.3857 244.087C28.0417 243.51 29.4784 242.691 30.6776 241.621L29.3459 240.129ZM25.734 242.196C24.3086 242.682 22.6742 242.934 20.8184 242.934V244.934C22.8531 244.934 24.7109 244.658 26.3793 244.089L25.734 242.196ZM20.8184 242.934H19.6055V244.934H20.8184V242.934ZM19.6055 242.934C17.737 242.934 16.1037 242.682 14.6921 242.197L14.0423 244.088C15.701 244.658 17.5599 244.934 19.6055 244.934V242.934ZM14.6899 242.196C13.2522 241.706 12.0529 241.024 11.0735 240.16L9.75075 241.66C10.951 242.719 12.3884 243.525 14.0445 244.089L14.6899 242.196ZM11.078 240.164C10.0949 239.287 9.34933 238.257 8.83347 237.067L6.99856 237.863C7.63114 239.321 8.54965 240.588 9.74625 241.656L11.078 240.164ZM8.83474 237.07C8.31948 235.871 8.05469 234.537 8.05469 233.053H6.05469C6.05469 234.78 6.36411 236.387 6.99729 237.86L8.83474 237.07ZM8.05469 233.053C8.05469 231.556 8.31991 230.223 8.83347 229.038L6.99856 228.243C6.36369 229.707 6.05469 231.315 6.05469 233.053H8.05469ZM8.83474 229.036C9.35056 227.835 10.0947 226.808 11.0735 225.945L9.75075 224.445C8.5498 225.504 7.62991 226.774 6.99729 228.246L8.83474 229.036ZM11.078 225.941C12.0568 225.068 13.2546 224.381 14.6899 223.892L14.0445 221.999C12.386 222.564 10.9471 223.377 9.74625 224.449L11.078 225.941ZM14.6985 223.889C16.1081 223.394 17.7391 223.137 19.6055 223.137V221.137C17.5578 221.137 15.6966 221.419 14.0359 222.002L14.6985 223.889ZM20.8184 226.463H19.5703V228.463H20.8184V226.463ZM19.5703 226.463C18.1535 226.463 16.8774 226.591 15.7523 226.859L16.2165 228.805C17.1539 228.581 18.2684 228.463 19.5703 228.463V226.463ZM15.7523 226.859C14.6303 227.127 13.6439 227.532 12.8186 228.096L13.947 229.748C14.528 229.35 15.276 229.029 16.2165 228.805L15.7523 226.859ZM12.8186 228.096C11.9908 228.662 11.3443 229.371 10.9094 230.226L12.6922 231.133C12.9604 230.605 13.3686 230.143 13.947 229.748L12.8186 228.096ZM10.9155 230.215C10.4669 231.068 10.2559 232.023 10.2559 233.053H12.2559C12.2559 232.301 12.4081 231.674 12.686 231.145L10.9155 230.215ZM10.2559 233.053C10.2559 234.082 10.4669 235.037 10.9155 235.891L12.686 234.961C12.4081 234.432 12.2559 233.804 12.2559 233.053H10.2559ZM10.9126 235.885C11.3484 236.728 11.9945 237.429 12.8186 237.992L13.947 236.34C13.3648 235.943 12.9562 235.483 12.689 234.966L10.9126 235.885ZM12.8281 237.998C13.6511 238.547 14.6341 238.944 15.7523 239.211L16.2165 237.266C15.2722 237.04 14.5208 236.723 13.9375 236.334L12.8281 237.998ZM15.7523 239.211C16.8774 239.479 18.1535 239.607 19.5703 239.607V237.607C18.2684 237.607 17.1539 237.489 16.2165 237.266L15.7523 239.211ZM19.5703 239.607H20.8184V237.607H19.5703V239.607ZM20.8184 239.607C22.2245 239.607 23.4994 239.479 24.6339 239.212L24.1746 237.265C23.2233 237.489 22.1075 237.607 20.8184 237.607V239.607ZM24.6364 239.211C25.758 238.943 26.7473 238.539 27.5813 237.978L26.4656 236.318C25.8699 236.719 25.1131 237.041 24.1722 237.266L24.6364 239.211ZM27.5876 237.974C28.4131 237.41 29.0623 236.705 29.5083 235.856L27.7378 234.925C27.4572 235.46 27.04 235.926 26.4592 236.323L27.5876 237.974ZM29.5083 235.856C29.9569 235.002 30.168 234.047 30.168 233.018H28.168C28.168 233.769 28.0157 234.397 27.7378 234.925L29.5083 235.856ZM30.168 233.018C30.168 231.988 29.9569 231.033 29.5083 230.179L27.7378 231.11C28.0157 231.639 28.168 232.266 28.168 233.018H30.168ZM29.5083 230.179C29.0609 229.328 28.4087 228.626 27.5781 228.072L26.4687 229.736C27.0444 230.12 27.4586 230.578 27.7378 231.11L29.5083 230.179ZM27.5718 228.068C26.7401 227.523 25.7542 227.126 24.6364 226.859L24.1722 228.805C25.1169 229.03 25.877 229.348 26.4751 229.741L27.5718 228.068ZM24.6339 226.859C23.4994 226.591 22.2245 226.463 20.8184 226.463V228.463C22.1075 228.463 23.2233 228.581 24.1746 228.805L24.6339 226.859ZM7.40625 197.51V196.51H6.40625V197.51H7.40625ZM33 197.51H34V196.51H33V197.51ZM33 202.783L33.5141 203.641L34 203.35V202.783H33ZM15.8438 213.066L15.3296 212.209L12.2303 214.066H15.8438V213.066ZM33 213.066H34V212.066H33V213.066ZM33 218.34V219.34H34V218.34H33ZM7.40625 218.34H6.40625V219.34H7.40625V218.34ZM7.40625 213.066L6.89188 212.209L6.40625 212.5V213.066H7.40625ZM24.5801 202.766L25.0944 203.623L28.1915 201.766H24.5801V202.766ZM7.40625 202.766H6.40625L6.40625 203.766H7.40625L7.40625 202.766ZM7.40625 198.51H33V196.51H7.40625V198.51ZM32 197.51V202.783H34V197.51H32ZM32.4859 201.925L15.3296 212.209L16.3579 213.924L33.5141 203.641L32.4859 201.925ZM15.8438 214.066H33V212.066H15.8438V214.066ZM32 213.066V218.34H34V213.066H32ZM33 217.34H7.40625L7.40625 219.34H33V217.34ZM8.40625 218.34V213.066H6.40625L6.40625 218.34H8.40625ZM7.92062 213.924L25.0944 203.623L24.0657 201.908L6.89188 212.209L7.92062 213.924ZM24.5801 201.766H7.40625L7.40625 203.766H24.5801V201.766ZM8.40625 202.766V197.51H6.40625V202.766H8.40625ZM25.0723 179.809L25.3973 180.754L25.4154 180.748L25.4333 180.741L25.0723 179.809ZM24.0527 180.547L24.8068 181.204L24.8129 181.197L24.8189 181.189L24.0527 180.547ZM22.1719 184.625L23.1234 184.933L23.1258 184.925L22.1719 184.625ZM20.9063 187.93L21.8166 188.343L21.8184 188.34L20.9063 187.93ZM19.2715 190.672L20.0501 191.299L20.0552 191.293L20.0602 191.287L19.2715 190.672ZM17.0742 192.535L17.5461 193.417L17.5557 193.412L17.0742 192.535ZM11.2734 192.5L11.749 191.62L11.744 191.618L11.2734 192.5ZM9.02344 190.531L9.82881 189.938L9.82344 189.931L9.02344 190.531ZM7.56445 187.543L6.60478 187.824L6.60556 187.827L7.56445 187.543ZM10.8691 175.52L11.4162 176.357L11.4219 176.353L10.8691 175.52ZM14.9297 174.342H15.9297V173.342H14.9297V174.342ZM14.9297 179.58V180.58H15.9297V179.58H14.9297ZM12.9609 180.055L13.4297 180.938L13.4405 180.932L13.4512 180.926L12.9609 180.055ZM11.6074 181.461L12.4916 181.928L12.4952 181.921L11.6074 181.461ZM11.5371 186.102L12.4516 185.697L12.4484 185.69L12.4451 185.683L11.5371 186.102ZM12.6445 187.473L13.1993 186.641L13.1895 186.634L12.6445 187.473ZM15.3691 187.613L15.8836 188.471L15.894 188.465L15.9042 188.458L15.3691 187.613ZM18.0059 182.832L18.9611 183.128L18.963 183.122L18.0059 182.832ZM19.4297 179.158L20.3241 179.605L20.3261 179.601L19.4297 179.158ZM32.8594 187.35L33.8233 187.616L33.8256 187.607L32.8594 187.35ZM31.3301 190.707L32.1561 191.271L32.1592 191.266L31.3301 190.707ZM24.9844 193.994H23.9844V194.994H24.9844V193.994ZM24.9844 188.703V187.703H23.9844V188.703H24.9844ZM28.3418 187.297L29.1368 187.904L29.1443 187.894L28.3418 187.297ZM29.0801 185.68L30.0513 185.918L30.0523 185.914L29.0801 185.68ZM28.9219 181.355L28.0036 181.752L28.0066 181.758L28.9219 181.355ZM27.8496 180.037L27.3099 180.879L27.3177 180.884L27.3255 180.889L27.8496 180.037ZM26.3027 178.598C25.7432 178.598 25.2078 178.684 24.7113 178.876L25.4333 180.741C25.6633 180.652 25.9482 180.598 26.3027 180.598V178.598ZM24.7472 178.863C24.1694 179.062 23.685 179.429 23.2865 179.904L24.8189 181.189C25.0298 180.938 25.2251 180.813 25.3973 180.754L24.7472 178.863ZM23.2987 179.89C22.8978 180.35 22.5407 180.952 22.2141 181.655L24.0281 182.497C24.3109 181.888 24.5749 181.47 24.8068 181.204L23.2987 179.89ZM22.2141 181.655C21.8845 182.365 21.5532 183.259 21.218 184.325L23.1258 184.925C23.4468 183.905 23.7483 183.1 24.0281 182.497L22.2141 181.655ZM21.2203 184.317C20.8559 185.445 20.4469 186.512 19.9941 187.52L21.8184 188.34C22.3031 187.261 22.7379 186.125 23.1234 184.933L21.2203 184.317ZM19.9959 187.516C19.5558 188.484 19.0501 189.329 18.4828 190.057L20.0602 191.287C20.735 190.421 21.3192 189.438 21.8166 188.343L19.9959 187.516ZM18.4929 190.044C17.9368 190.734 17.3035 191.268 16.5928 191.659L17.5557 193.412C18.509 192.888 19.3406 192.18 20.0501 191.299L18.4929 190.044ZM16.6023 191.653C15.938 192.009 15.1384 192.203 14.1738 192.203V194.203C15.4124 194.203 16.5464 193.952 17.5461 193.417L16.6023 191.653ZM14.1738 192.203C13.2595 192.203 12.4583 192.004 11.749 191.62L10.7979 193.38C11.823 193.934 12.9553 194.203 14.1738 194.203V192.203ZM11.744 191.618C11.0038 191.223 10.366 190.668 9.82877 189.938L8.2181 191.124C8.92305 192.082 9.78531 192.84 10.8028 193.382L11.744 191.618ZM9.82344 189.931C9.27095 189.195 8.83398 188.309 8.52335 187.259L6.60556 187.827C6.97462 189.074 7.5103 190.18 8.22344 191.131L9.82344 189.931ZM8.52413 187.262C8.21455 186.205 8.05469 185.03 8.05469 183.729H6.05469C6.05469 185.193 6.23467 186.561 6.60478 187.824L8.52413 187.262ZM8.05469 183.729C8.05469 181.962 8.3727 180.469 8.97457 179.224L7.17387 178.354C6.41637 179.921 6.05469 181.722 6.05469 183.729H8.05469ZM8.97457 179.224C9.58371 177.964 10.4003 177.02 11.4162 176.357L10.3221 174.682C8.97082 175.565 7.9241 176.802 7.17387 178.354L8.97457 179.224ZM11.4219 176.353C12.4296 175.684 13.5879 175.342 14.9297 175.342V173.342C13.2246 173.342 11.6758 173.784 10.3163 174.686L11.4219 176.353ZM13.9297 174.342V179.58H15.9297V174.342H13.9297ZM14.9297 178.58C14.036 178.58 13.2056 178.77 12.4707 179.183L13.4512 180.926C13.8413 180.707 14.3233 180.58 14.9297 180.58V178.58ZM12.4922 179.171C11.7213 179.58 11.1318 180.206 10.7197 181.001L12.4952 181.921C12.7393 181.451 13.0521 181.138 13.4297 180.938L12.4922 179.171ZM10.7232 180.994C10.2971 181.8 10.1152 182.759 10.1152 183.816H12.1152C12.1152 182.975 12.2615 182.364 12.4916 181.928L10.7232 180.994ZM10.1152 183.816C10.1152 184.826 10.2695 185.741 10.6291 186.521L12.4451 185.683C12.2422 185.243 12.1152 184.635 12.1152 183.816H10.1152ZM10.6226 186.506C10.9553 187.258 11.4391 187.882 12.0995 188.311L13.1895 186.634C12.9124 186.454 12.658 186.164 12.4516 185.697L10.6226 186.506ZM12.0898 188.305C12.7188 188.724 13.4292 188.93 14.1914 188.93V186.93C13.8051 186.93 13.4843 186.831 13.1992 186.641L12.0898 188.305ZM14.1914 188.93C14.7954 188.93 15.3676 188.78 15.8836 188.471L14.8546 186.756C14.6676 186.868 14.4546 186.93 14.1914 186.93V188.93ZM15.9042 188.458C16.3929 188.149 16.8112 187.717 17.1717 187.204L15.5353 186.054C15.2865 186.408 15.0485 186.633 14.8341 186.768L15.9042 188.458ZM17.1717 187.204C17.5265 186.699 17.8455 186.1 18.1349 185.421L16.2948 184.637C16.0451 185.224 15.7899 185.692 15.5353 186.054L17.1717 187.204ZM18.1349 185.421C18.4207 184.75 18.6957 183.984 18.9611 183.128L17.0507 182.536C16.8004 183.344 16.548 184.043 16.2948 184.637L18.1349 185.421ZM18.963 183.122C19.3721 181.769 19.8272 180.599 20.3241 179.605L18.5353 178.711C17.9775 179.827 17.4833 181.106 17.0487 182.542L18.963 183.122ZM20.3261 179.601C20.8206 178.602 21.362 177.794 21.9417 177.163L20.4684 175.81C19.7357 176.608 19.0935 177.582 18.5333 178.715L20.3261 179.601ZM21.9417 177.163C22.5104 176.543 23.1419 176.089 23.8376 175.786L23.0374 173.953C22.069 174.375 21.2123 175 20.4684 175.81L21.9417 177.163ZM23.8376 175.786C24.5247 175.486 25.3285 175.324 26.2676 175.324V173.324C25.0972 173.324 24.0144 173.526 23.0374 173.953L23.8376 175.786ZM26.2676 175.324C27.2484 175.324 28.0898 175.514 28.8134 175.871L29.6983 174.078C28.6641 173.568 27.5133 173.324 26.2676 173.324V175.324ZM28.8134 175.871C29.544 176.232 30.1666 176.753 30.6855 177.452L32.291 176.259C31.5912 175.317 30.7256 174.585 29.6983 174.078L28.8134 175.871ZM30.6855 177.452C31.2113 178.16 31.6251 179.023 31.9136 180.059L33.8403 179.523C33.496 178.286 32.984 177.192 32.291 176.259L30.6855 177.452ZM31.9136 180.059C32.2016 181.094 32.3516 182.273 32.3516 183.605H34.3516C34.3516 182.125 34.1852 180.762 33.8403 179.523L31.9136 180.059ZM32.3516 183.605C32.3516 184.784 32.199 185.945 31.8931 187.092L33.8256 187.607C34.176 186.293 34.3516 184.959 34.3516 183.605H32.3516ZM31.8955 187.083C31.583 188.215 31.1172 189.234 30.501 190.148L32.1592 191.266C32.9023 190.164 33.4561 188.945 33.8233 187.616L31.8955 187.083ZM30.5041 190.143C29.911 191.013 29.158 191.705 28.2355 192.228L29.2215 193.968C30.4084 193.295 31.3898 192.394 32.1561 191.271L30.5041 190.143ZM28.2355 192.228C27.3573 192.725 26.2857 192.994 24.9844 192.994V194.994C26.5658 194.994 27.9904 194.665 29.2215 193.968L28.2355 192.228ZM25.9844 193.994V188.703H23.9844V193.994H25.9844ZM24.9844 189.703C25.8789 189.703 26.7005 189.566 27.4138 189.247L26.5979 187.421C26.2096 187.594 25.6836 187.703 24.9844 187.703V189.703ZM27.4138 189.247C28.1051 188.938 28.6878 188.492 29.1367 187.904L27.5468 186.69C27.3161 186.993 27.0082 187.238 26.5979 187.421L27.4138 189.247ZM29.1443 187.894C29.5729 187.317 29.8711 186.653 30.0513 185.918L28.1089 185.441C27.9844 185.949 27.7904 186.363 27.5393 186.7L29.1443 187.894ZM30.0523 185.914C30.2256 185.194 30.3086 184.423 30.3086 183.605H28.3086C28.3086 184.288 28.2392 184.9 28.1079 185.446L30.0523 185.914ZM30.3086 183.605C30.3086 182.608 30.1694 181.708 29.8372 180.953L28.0066 181.758C28.19 182.175 28.3086 182.775 28.3086 183.605H30.3086ZM29.8401 180.959C29.5185 180.214 29.0402 179.596 28.3737 179.185L27.3255 180.889C27.573 181.041 27.8096 181.302 28.0037 181.752L29.8401 180.959ZM28.3893 179.195C27.7617 178.793 27.0567 178.598 26.3027 178.598V180.598C26.6972 180.598 27.0235 180.695 27.3099 180.879L28.3893 179.195ZM7.40625 156.605H6.40625V157.605H7.40625V156.605ZM7.40625 151.35V150.35H6.40625V151.35H7.40625ZM29.291 152.615L28.7603 153.463L28.7657 153.466L29.291 152.615ZM32.332 156.078L31.4236 156.496L31.4249 156.499L32.332 156.078ZM32.332 166.238L33.2404 166.656L33.2417 166.654L32.332 166.238ZM29.291 169.719L29.8164 170.57L29.8217 170.566L29.291 169.719ZM7.40625 170.967H6.40625V171.967H7.40625V170.967ZM7.40625 165.693V164.693H6.40625V165.693H7.40625ZM28.7285 163.584L29.623 164.031L29.626 164.025L28.7285 163.584ZM28.7285 158.697L27.8341 159.144L27.8372 159.151L28.7285 158.697ZM27.1289 157.15L26.6817 158.045L26.6933 158.051L27.1289 157.15ZM8.40625 156.605V151.35H6.40625V156.605H8.40625ZM7.40625 152.35H24.3164V150.35H7.40625V152.35ZM24.3164 152.35C26.1421 152.35 27.6058 152.74 28.7604 153.463L29.8217 151.768C28.2809 150.803 26.4282 150.35 24.3164 150.35V152.35ZM28.7657 153.466C29.9412 154.192 30.824 155.194 31.4237 156.496L33.2404 155.66C32.4807 154.01 31.3361 152.703 29.8164 151.764L28.7657 153.466ZM31.4249 156.499C32.0332 157.81 32.3516 159.35 32.3516 161.141H34.3516C34.3516 159.111 33.9902 157.276 33.2391 155.657L31.4249 156.499ZM32.3516 161.141C32.3516 162.931 32.0334 164.485 31.4224 165.823L33.2417 166.654C33.9901 165.015 34.3516 163.17 34.3516 161.141H32.3516ZM31.4237 165.82C30.8235 167.124 29.9391 168.133 28.7604 168.871L29.8217 170.566C31.3382 169.617 32.4812 168.306 33.2404 166.656L31.4237 165.82ZM28.7657 168.868C27.6102 169.581 26.1445 169.967 24.3164 169.967V171.967C26.4258 171.967 28.2765 171.52 29.8164 170.57L28.7657 168.868ZM24.3164 169.967H7.40625V171.967H24.3164V169.967ZM8.40625 170.967L8.40625 165.693H6.40625V170.967H8.40625ZM7.40625 166.693H24.3164V164.693H7.40625V166.693ZM24.3164 166.693C25.5599 166.693 26.6654 166.498 27.5761 166.043L26.6817 164.254C26.1393 164.525 25.3697 164.693 24.3164 164.693V166.693ZM27.5761 166.043C28.482 165.59 29.1795 164.918 29.6229 164.031L27.8341 163.137C27.5979 163.609 27.2289 163.98 26.6817 164.254L27.5761 166.043ZM29.626 164.025C30.0463 163.17 30.2383 162.198 30.2383 161.141H28.2383C28.2383 161.958 28.0904 162.615 27.8311 163.143L29.626 164.025ZM30.2383 161.141C30.2383 160.065 30.0484 159.086 29.6198 158.244L27.8372 159.151C28.0883 159.644 28.2383 160.294 28.2383 161.141H30.2383ZM29.6229 158.25C29.178 157.36 28.4766 156.692 27.5645 156.25L26.6933 158.051C27.2343 158.312 27.5994 158.675 27.8341 159.144L29.6229 158.25ZM27.5761 156.256C26.6654 155.801 25.5599 155.605 24.3164 155.605V157.605C25.3697 157.605 26.1393 157.774 26.6817 158.045L27.5761 156.256ZM24.3164 155.605H7.40625V157.605H24.3164V155.605ZM28.8867 130.555V129.555H27.8867V130.555H28.8867ZM33 130.555H34V129.555H33V130.555ZM33 143.439V144.439H34V143.439H33ZM28.8867 143.439H27.8867V144.439H28.8867V143.439ZM7.40625 141.734V140.734H6.40625V141.734H7.40625ZM33 141.734H34V140.734H33V141.734ZM33 147.008V148.008H34V147.008H33ZM7.40625 147.008H6.40625V148.008H7.40625V147.008ZM28.8867 131.555H33V129.555H28.8867V131.555ZM32 130.555V143.439H34V130.555H32ZM33 142.439H28.8867V144.439H33V142.439ZM29.8867 143.439V130.555H27.8867V143.439H29.8867ZM7.40625 142.734H33V140.734H7.40625V142.734ZM32 141.734V147.008H34V141.734H32ZM33 146.008H7.40625V148.008H33V146.008ZM8.40625 147.008V141.734H6.40625L6.40625 147.008H8.40625ZM7.40625 120.096V119.096H6.40625V120.096H7.40625ZM33 120.096H34V119.096H33V120.096ZM33 125.352V126.352H34V125.352H33ZM7.40625 125.352H6.40625V126.352H7.40625V125.352ZM7.40625 112.221V111.221H6.40625V112.221H7.40625ZM11.5371 112.221H12.5371V111.221H11.5371V112.221ZM11.5371 133.104V134.104H12.5371V133.104H11.5371ZM7.40625 133.104H6.40625V134.104H7.40625V133.104ZM7.40625 121.096H33V119.096H7.40625V121.096ZM32 120.096V125.352H34V120.096H32ZM33 124.352H7.40625V126.352H33V124.352ZM8.40625 125.352V120.096H6.40625V125.352H8.40625ZM7.40625 113.221H11.5371V111.221H7.40625V113.221ZM10.5371 112.221V133.104H12.5371V112.221H10.5371ZM11.5371 132.104H7.40625V134.104H11.5371V132.104ZM8.40625 133.104V112.221H6.40625L6.40625 133.104H8.40625ZM7.40625 103.607V102.607H6.40625V103.607H7.40625ZM33 103.607H34V102.607H33V103.607ZM33 108.863V109.863H34V108.863H33ZM7.40625 108.863H6.40625V109.863H7.40625V108.863ZM7.40625 104.607H33V102.607H7.40625V104.607ZM32 103.607V108.863H34V103.607H32ZM33 107.863H7.40625V109.863H33V107.863ZM8.40625 108.863V103.607H6.40625V108.863H8.40625ZM7.40625 77.8379V76.8379H6.40625V77.8379H7.40625ZM33 77.8379H34V76.8379H33V77.8379ZM33 83.1113L33.5141 83.9691L34 83.6778V83.1113H33ZM15.8438 93.3945L15.3296 92.5368L12.2303 94.3945H15.8438V93.3945ZM33 93.3945H34V92.3945H33V93.3945ZM33 98.668V99.668H34V98.668H33ZM7.40625 98.668H6.40625V99.668H7.40625V98.668ZM7.40625 93.3945L6.89188 92.537L6.40625 92.8282V93.3945H7.40625ZM24.5801 83.0938L25.0944 83.9513L28.1915 82.0938H24.5801V83.0938ZM7.40625 83.0938H6.40625V84.0938H7.40625V83.0938ZM7.40625 78.8379H33V76.8379H7.40625V78.8379ZM32 77.8379V83.1113H34V77.8379H32ZM32.4859 82.2536L15.3296 92.5368L16.3579 94.2523L33.5141 83.9691L32.4859 82.2536ZM15.8438 94.3945H33V92.3945H15.8438V94.3945ZM32 93.3945L32 98.668H34L34 93.3945H32ZM33 97.668H7.40625V99.668H33V97.668ZM8.40625 98.668V93.3945H6.40625V98.668H8.40625ZM7.92062 94.2521L25.0944 83.9513L24.0657 82.2362L6.89188 92.537L7.92062 94.2521ZM24.5801 82.0938H7.40625V84.0938H24.5801V82.0938ZM8.40625 83.0938L8.40625 77.8379H6.40625V83.0938H8.40625ZM19.623 52.9648V51.9648H18.623V52.9648H19.623ZM29.7656 52.9648L30.404 52.1951L30.1263 51.9648H29.7656V52.9648ZM31.3301 54.8105L32.164 54.2585L32.1585 54.2505L31.3301 54.8105ZM32.543 67.3086L33.4698 67.6841L33.4725 67.6772L32.543 67.3086ZM30.1348 70.8242L30.8127 71.5593L30.8171 71.5553L30.1348 70.8242ZM26.2676 73.0742L26.5925 74.02L26.5947 74.0192L26.2676 73.0742ZM14.1563 73.1094L13.8378 74.0574L13.8444 74.0595L14.1563 73.1094ZM8.12695 57.6582L9.01846 58.1113L9.02138 58.1054L8.12695 57.6582ZM11.1152 54.3887L11.6216 55.2511L11.6309 55.2455L11.1152 54.3887ZM15.4746 52.9824H16.4746V51.8696L15.3681 51.9881L15.4746 52.9824ZM15.4746 58.0977L15.6216 59.0868L16.4746 58.96V58.0977H15.4746ZM11.6953 60.4004L12.5738 60.8782L12.5772 60.8718L11.6953 60.4004ZM11.6953 65.3574L12.5835 64.898L12.5806 64.8923L11.6953 65.3574ZM24.5625 68.1348L24.805 69.1049L24.8077 69.1042L24.5625 68.1348ZM27.1465 66.9922L27.729 67.805L27.7367 67.7995L27.7443 67.7938L27.1465 66.9922ZM29.0273 60.4004L28.0572 60.6429L28.0584 60.6478L29.0273 60.4004ZM28.5176 59.0469L29.3803 58.5411L29.3751 58.5324L28.5176 59.0469ZM27.9199 58.2383L28.627 57.5312L28.3341 57.2383H27.9199V58.2383ZM23.3848 58.2383V57.2383H22.3848V58.2383H23.3848ZM23.3848 63.0547V64.0547H24.3848V63.0547H23.3848ZM19.623 63.0547H18.623V64.0547H19.623V63.0547ZM19.623 53.9648H29.7656V51.9648H19.623V53.9648ZM29.1273 53.7346C29.5042 54.0472 29.9641 54.5756 30.5016 55.3706L32.1585 54.2505C31.571 53.3814 30.988 52.6794 30.404 52.1951L29.1273 53.7346ZM30.4962 55.3625C30.9778 56.09 31.417 57.0659 31.797 58.3178L33.7108 57.7369C33.2939 56.3637 32.7839 55.1952 32.1639 54.2586L30.4962 55.3625ZM31.797 58.3178C32.1587 59.5093 32.3516 60.9934 32.3516 62.791H34.3516C34.3516 60.862 34.146 59.1704 33.7108 57.7369L31.797 58.3178ZM32.3516 62.791C32.3516 64.3334 32.1003 65.7122 31.6134 66.94L33.4725 67.6772C34.0638 66.1863 34.3516 64.5533 34.3516 62.791H32.3516ZM31.6162 66.9331C31.1191 68.1599 30.3989 69.2098 29.4524 70.0932L30.8171 71.5553C31.98 70.4699 32.8653 69.1761 33.4698 67.6841L31.6162 66.9331ZM29.4568 70.0891C28.5152 70.9575 27.3499 71.6414 25.9405 72.1292L26.5947 74.0192C28.2322 73.4524 29.645 72.6363 30.8127 71.5593L29.4568 70.0891ZM25.9427 72.1285C24.5316 72.6132 22.8927 72.8652 21.0117 72.8652V74.8652C23.0683 74.8652 24.9332 74.5899 26.5925 74.02L25.9427 72.1285ZM21.0117 72.8652H19.4121V74.8652H21.0117V72.8652ZM19.4121 72.8652C17.527 72.8652 15.8834 72.6238 14.4681 72.1593L13.8444 74.0595C15.4994 74.6028 17.3597 74.8652 19.4121 74.8652V72.8652ZM14.4746 72.1614C13.0509 71.6832 11.8801 71.0145 10.9404 70.1688L9.60252 71.6554C10.7722 72.7081 12.1913 73.5043 13.8379 74.0573L14.4746 72.1614ZM10.9404 70.1688C9.99574 69.3186 9.27928 68.3095 8.78538 67.1326L6.94118 67.9065C7.54885 69.3545 8.43785 70.6072 9.60252 71.6554L10.9404 70.1688ZM8.78538 67.1326C8.2922 65.9573 8.03711 64.6321 8.03711 63.1426H6.03711C6.03711 64.864 6.3328 66.4567 6.94118 67.9065L8.78538 67.1326ZM8.03711 63.1426C8.03711 61.0158 8.38542 59.3569 9.01844 58.1113L7.23547 57.2052C6.41536 58.8189 6.03711 60.8163 6.03711 63.1426H8.03711ZM9.02138 58.1054C9.65687 56.8344 10.5243 55.8953 11.6216 55.251L10.6089 53.5263C9.15151 54.3821 8.02672 55.6226 7.23253 57.211L9.02138 58.1054ZM11.6309 55.2455C12.7579 54.5672 14.0682 54.1388 15.5811 53.9767L15.3681 51.9881C13.5997 52.1776 12.0038 52.6867 10.5996 53.5319L11.6309 55.2455ZM14.4746 52.9824V58.0977H16.4746V52.9824H14.4746ZM15.3276 57.1085C14.3614 57.2522 13.4847 57.5315 12.716 57.9648L13.698 59.7071C14.2184 59.4138 14.8535 59.201 15.6216 59.0868L15.3276 57.1085ZM12.716 57.9648C11.8987 58.4255 11.2624 59.089 10.8134 59.929L12.5772 60.8718C12.8548 60.3524 13.2263 59.973 13.698 59.7071L12.716 57.9648ZM10.8168 59.9226C10.3482 60.7844 10.1504 61.8321 10.1504 63.002H12.1504C12.1504 62.039 12.3159 61.3524 12.5738 60.8782L10.8168 59.9226ZM10.1504 63.002C10.1504 64.0223 10.3624 64.9705 10.8101 65.8225L12.5806 64.8923C12.3017 64.3615 12.1504 63.7394 12.1504 63.002H10.1504ZM10.8071 65.8168C11.2421 66.6579 11.8821 67.3542 12.6986 67.9078L13.8209 66.2524C13.2546 65.8684 12.8516 65.4163 12.5835 64.898L10.8071 65.8168ZM12.6986 67.9078C13.5111 68.4586 14.484 68.8571 15.5915 69.1244L16.0608 67.1803C15.1293 66.9554 14.3913 66.6391 13.8209 66.2524L12.6986 67.9078ZM15.5915 69.1244C16.7061 69.3934 17.9714 69.5215 19.377 69.5215V67.5215C18.0872 67.5215 16.9854 67.4034 16.0608 67.1803L15.5915 69.1244ZM19.377 69.5215H21.0117V67.5215H19.377V69.5215ZM21.0117 69.5215C22.4095 69.5215 23.6773 69.3869 24.805 69.1049L24.32 67.1646C23.3852 67.3983 22.2858 67.5215 21.0117 67.5215V69.5215ZM24.8077 69.1042C25.923 68.8222 26.9049 68.3956 27.729 67.805L26.564 66.1794C25.9818 66.5966 25.241 66.9317 24.3173 67.1653L24.8077 69.1042ZM27.7443 67.7938C28.5621 67.1839 29.192 66.4236 29.6164 65.5182L27.8055 64.6693C27.5268 65.2639 27.1137 65.7692 26.5487 66.1906L27.7443 67.7938ZM29.6164 65.5182C30.0416 64.6112 30.2383 63.5881 30.2383 62.4746H28.2383C28.2383 63.3533 28.0834 64.0763 27.8055 64.6693L29.6164 65.5182ZM30.2383 62.4746C30.2383 61.5939 30.1646 60.8125 29.9963 60.153L28.0584 60.6478C28.1713 61.0898 28.2383 61.6913 28.2383 62.4746H30.2383ZM29.9975 60.1579C29.8436 59.5422 29.6445 58.992 29.3803 58.5412L27.6549 59.5526C27.789 59.7815 27.9299 60.1336 28.0572 60.6429L29.9975 60.1579ZM29.3751 58.5324C29.1423 58.1444 28.8947 57.7989 28.627 57.5312L27.2128 58.9454C27.3201 59.0527 27.471 59.2462 27.6601 59.5614L29.3751 58.5324ZM27.9199 57.2383H23.3848V59.2383H27.9199V57.2383ZM22.3848 58.2383V63.0547H24.3848V58.2383H22.3848ZM23.3848 62.0547H19.623V64.0547H23.3848V62.0547ZM20.623 63.0547V52.9648H18.623V63.0547H20.623Z" fill="#02BDD5" mask="url(#path-6-outside-1_686_998)"/>
<line x1="21.5" y1="2.18557e-08" x2="21.5" y2="40" stroke="white"/>
</svg>
