<svg width="81" height="80" viewBox="0 0 81 80" fill="none" xmlns="http://www.w3.org/2000/svg">
<g clip-path="url(#clip0_165_796)">
<path d="M21.9817 4.73331C20.6262 5.11108 19.5595 5.79997 18.4706 6.97775C16.1817 9.46664 15.2262 13.6444 15.7373 18.9333C15.9817 21.2889 16.6262 25.0666 17.004 26.2666C17.0928 26.5555 16.5817 26.8 14.3373 27.5555C9.51506 29.1555 6.0484 31.0444 3.60395 33.4C1.82617 35.0889 0.981731 36.4222 0.515064 38.2C-0.884936 43.7555 4.22617 49.0444 14.3151 52.4222C15.9151 52.9777 16.9817 53.4444 16.9595 53.6C16.9373 53.7555 16.7151 54.8889 16.4706 56.1111C15.1373 62.5111 15.404 68 17.2484 71.3777C18.0706 72.8889 19.9151 74.5333 21.3595 75.0444C23.1817 75.6666 25.8706 75.5777 28.1151 74.8222C31.204 73.7777 35.2484 71.2 38.5151 68.1777L40.204 66.6444L41.9151 68.2C45.3595 71.3333 49.2706 73.8222 52.5373 74.9111C54.5373 75.5777 57.3373 75.6222 59.0484 75.0444C60.4928 74.5333 62.3373 72.8889 63.1595 71.3777C64.9817 68 65.2706 62.7111 63.9595 56.2222C63.6928 54.9333 63.4706 53.7555 63.4484 53.6C63.4262 53.4444 64.4928 52.9777 66.0928 52.4222C76.1817 49.0444 81.2928 43.7555 79.8928 38.2C79.4262 36.4222 78.5817 35.0889 76.804 33.4C74.3817 31.0666 70.5595 29 65.804 27.4222C63.8262 26.7777 63.3373 26.5333 63.4262 26.2444C63.7817 25.1111 64.4484 21.2222 64.6706 19.0666C65.0484 15.2 64.5373 11.2666 63.3151 8.86664C62.604 7.48886 60.9817 5.86664 59.6706 5.22219C55.3595 3.13331 48.4706 5.71108 41.7373 11.9555L40.204 13.3778L38.5151 11.8222C35.2262 8.77775 31.2706 6.26664 28.1817 5.24442C26.0484 4.5333 23.4262 4.31108 21.9817 4.73331ZM27.7817 8.39997C30.1817 9.35553 33.1595 11.3555 36.4706 14.2666L37.9595 15.5777L35.9373 17.9555C34.804 19.2666 33.2484 21.2 32.4928 22.2444L31.0706 24.1555L28.6928 24.4444C27.3817 24.5777 24.9817 24.9555 23.3373 25.2444C21.0262 25.6666 20.3151 25.7333 20.1817 25.5111C20.0928 25.3777 19.7817 24.0889 19.4928 22.6889C18.7817 19.0222 18.7595 13.4 19.4706 11.4666C20.0928 9.84441 20.8928 8.79997 21.9373 8.22219C23.0706 7.62219 26.004 7.71108 27.7817 8.39997ZM58.4262 8.22219C59.5151 8.77775 60.3151 9.79997 60.9373 11.4666C61.3595 12.6222 61.4262 13.2222 61.4262 16.4444C61.4262 19.4222 61.3373 20.6 60.8928 22.6889C60.6262 24.1111 60.3151 25.3777 60.2262 25.5333C60.0928 25.7333 59.3151 25.6666 57.0706 25.2444C55.4262 24.9555 53.0262 24.5777 51.7151 24.4444L49.3373 24.1555L47.8262 22.1333C47.004 21.0222 45.4484 19.0889 44.3817 17.8444L42.4484 15.5777L43.9373 14.2666C47.2706 11.3111 50.4706 9.22219 53.0262 8.31108C54.9817 7.62219 57.1817 7.57775 58.4262 8.22219ZM41.0706 18.9333C42.3373 20.3333 45.1373 23.7777 45.004 23.7777C43.0484 23.8666 35.5373 23.7555 35.5151 23.6666C35.4928 23.5777 36.3817 22.4666 37.4706 21.1777C38.5373 19.8889 39.5817 18.6444 39.7595 18.4222C39.9373 18.2 40.1151 18.0222 40.1373 18C40.1817 18 40.5817 18.4222 41.0706 18.9333ZM47.004 27.2444C47.4706 27.3333 47.8706 27.7111 48.404 28.5111C49.6706 30.4 52.2484 34.8222 53.6484 37.4444L54.9595 39.9111L53.2928 43.1111C52.3817 44.8889 50.7373 47.7555 49.6706 49.4666L47.6928 52.6222L46.6928 52.7555C45.404 52.9333 35.004 52.9333 33.7151 52.7555L32.7151 52.6222L30.7817 49.5333C29.7151 47.8222 28.0928 44.9777 27.1595 43.1777L25.4484 39.9111L26.7595 37.4666C29.6262 32.0444 32.5595 27.4 33.204 27.2666C33.9151 27.1111 46.2928 27.0889 47.004 27.2444ZM27.1595 30.1555C26.3817 31.4889 25.3151 33.3333 24.804 34.2666C24.2928 35.2222 23.8262 36 23.7373 36C23.6484 36 21.604 30.7111 21.2262 29.4222C21.0928 28.9555 21.2262 28.9111 23.804 28.4444C25.3151 28.2 26.6928 27.9333 26.8706 27.9111C27.0484 27.8666 27.5151 27.8222 27.8928 27.8L28.604 27.7777L27.1595 30.1555ZM56.8262 28.4666C59.1817 28.9111 59.3151 28.9777 59.1817 29.4222C58.804 30.7111 56.7595 36 56.6706 36C56.5817 36 56.1151 35.2222 55.604 34.2666C55.0928 33.3333 54.0262 31.4666 53.2262 30.1333L51.7817 27.7111L53.0484 27.8666C53.7373 27.9555 55.4484 28.2222 56.8262 28.4666ZM18.7595 32.1555C19.2262 33.4889 20.1151 35.8 20.7817 37.3111L21.9595 40.0666L21.4928 40.9555C21.004 41.9555 18.9151 47.2666 18.3373 49.0444C18.1151 49.6889 17.9151 50.2222 17.8706 50.2222C17.8484 50.2222 16.6262 49.8222 15.204 49.3333C5.71506 46.0444 1.71506 41.6666 4.33729 37.4C5.82618 35.0222 9.95951 32.4222 15.1151 30.6666C16.5151 30.1777 17.7151 29.8 17.7817 29.7777C17.8706 29.7777 18.2928 30.8444 18.7595 32.1555ZM65.004 30.5555C75.4706 34.0666 79.3817 39.1333 75.204 43.7555C74.1817 44.8889 71.604 46.6222 69.4484 47.6444C68.1817 48.2444 62.8706 50.2222 62.5373 50.2222C62.4928 50.2222 62.2484 49.5555 61.9595 48.7111C61.3595 46.8444 59.4262 42 58.8706 40.8889L58.4484 40.0666L59.6262 37.3111C60.2928 35.8 61.1817 33.4889 61.6484 32.1555C62.1151 30.8444 62.5151 29.7777 62.5595 29.7777C62.604 29.7777 63.6928 30.1333 65.004 30.5555ZM24.7373 45.6222C25.2262 46.4889 26.2928 48.3555 27.1373 49.7555L28.6706 52.2889L27.4928 52.1333C26.2262 51.9777 21.2484 51.0889 21.1373 51C21.1151 50.9777 21.4706 49.8666 21.9595 48.5333C23.204 45.0666 23.6262 44 23.7595 44C23.8262 44 24.2706 44.7333 24.7373 45.6222ZM57.1817 45.0444C58.004 47.2 59.3151 50.9555 59.2706 51C59.1595 51.0889 54.1817 51.9777 52.9151 52.1333L51.7373 52.2889L53.2706 49.7555C54.1151 48.3555 55.1817 46.4889 55.6706 45.6222C56.1373 44.7333 56.5817 44 56.6484 44C56.7151 44 56.9595 44.4666 57.1817 45.0444ZM23.604 54.7555C25.2262 55.0444 27.5595 55.4 28.804 55.5555L31.0706 55.8222L32.9373 58.3111C33.9817 59.6666 35.5373 61.5777 36.404 62.5555L37.9817 64.3333L36.804 65.4C34.8928 67.1555 31.5373 69.6222 29.8262 70.5111C27.4484 71.7555 25.9151 72.2222 24.2262 72.2222C21.7151 72.2222 20.2706 70.9777 19.3817 68.1111C18.8262 66.2666 18.8262 60.4889 19.404 57.7777C19.9817 54.9333 20.204 54.2222 20.4484 54.2222C20.5595 54.2222 21.9817 54.4666 23.604 54.7555ZM60.404 55.0444C61.1817 58.1111 61.404 59.8444 61.404 63.2222C61.4262 66.0666 61.3373 67.0444 61.0262 68.1111C60.4928 69.8444 59.6262 71.0889 58.5373 71.7333C57.7595 72.1777 57.4262 72.2222 55.7595 72.1555C54.2706 72.0889 53.5373 71.9333 52.2484 71.4C50.1817 70.5111 46.8484 68.2889 44.3817 66.1111L42.4262 64.4L44.004 62.6C44.8706 61.6 46.4262 59.6666 47.4706 58.3111L49.3373 55.8222L51.604 55.5555C52.8484 55.4 55.0706 55.0666 56.5373 54.7777C60.2706 54.0889 60.1373 54.0666 60.404 55.0444ZM45.0928 56.1555C45.0928 56.2666 41.804 60.2444 41.0484 61.0222L40.1595 61.9555L39.3373 61.0222C38.3373 59.9333 35.3151 56.2666 35.3151 56.1777C35.3151 56.1333 37.5151 56.1111 40.204 56.1111C42.8928 56.1111 45.0928 56.1333 45.0928 56.1555Z" fill="#212B36"/>
<path d="M38.3152 33.1778C36.9152 33.6444 36.1596 34.1111 35.1596 35.1556C32.4707 37.9111 32.5152 42.2667 35.2263 44.9778C36.6041 46.3333 38.2041 47 40.2041 47C41.5374 47 42.1152 46.8889 43.0929 46.4222C47.5818 44.2889 48.6485 38.5333 45.2041 35.0222C43.5152 33.3111 40.4041 32.4889 38.3152 33.1778Z" fill="#212B36"/>
</g>
<defs>
<clipPath id="clip0_165_796">
<rect width="80" height="80" fill="white" transform="translate(0.203857)"/>
</clipPath>
</defs>
</svg>
