<svg width="28" height="28" viewBox="0 0 28 28" fill="none" xmlns="http://www.w3.org/2000/svg">
<path d="M3.99229 1.5095C3.79541 1.54778 3.43994 1.67903 3.19385 1.79935C2.43916 2.17669 1.90322 2.79466 1.60244 3.64778L1.44932 4.07435L1.43291 6.78138L1.4165 9.48841L1.54229 9.72903C1.71729 10.0681 1.90322 10.1884 2.28057 10.2158C2.54307 10.2322 2.63057 10.2158 2.78369 10.1064C2.8876 10.0408 3.02432 9.9095 3.08447 9.82747C3.19385 9.67435 3.19932 9.60325 3.22666 6.98372C3.254 4.33685 3.254 4.28763 3.37432 4.06888C3.52744 3.77903 3.779 3.52747 4.06885 3.37435C4.29307 3.25403 4.29854 3.25403 8.15947 3.22669C11.9493 3.19935 12.0259 3.19935 12.179 3.0845C12.3704 2.94778 12.5782 2.54857 12.5782 2.31888C12.5782 2.03997 12.3595 1.68997 12.086 1.54778L11.8509 1.422L8.09932 1.42747C5.10791 1.42747 4.27666 1.44388 3.99229 1.5095Z" fill="white"/>
<path d="M19.2228 1.47656C17.6424 1.70625 16.3517 2.83281 15.8596 4.40234C15.6955 4.92188 15.6517 5.84609 15.7666 6.38203C15.9197 7.09844 16.2588 7.7875 16.7127 8.30156L16.9369 8.55859L16.5486 8.76641C16.3353 8.88125 15.9853 9.11094 15.7666 9.275C15.2853 9.64688 14.4924 10.4727 14.3666 10.7352C14.1806 11.1289 14.301 11.6375 14.64 11.8891C14.8205 12.0203 15.3072 12.0695 15.526 11.9766C15.6135 11.9437 15.876 11.7031 16.1111 11.4461C17.101 10.3578 18.2002 9.81641 19.5619 9.75078C20.2564 9.71797 20.8088 9.78359 21.3721 9.975C23.2752 10.6258 24.5713 12.2883 24.7463 14.3117L24.7846 14.7492L24.5931 14.968C24.1392 15.4711 23.0619 15.8539 21.5744 16.0508C21.1314 16.1109 20.508 16.1383 19.6549 16.1383C18.4299 16.1328 18.3861 16.1383 18.2056 16.2586C17.8885 16.4719 17.7627 16.7125 17.7846 17.068C17.8119 17.4125 17.9596 17.6695 18.2275 17.8172C18.3806 17.8992 18.583 17.9102 19.8791 17.9102C21.4377 17.9102 21.8478 17.8719 22.9635 17.6258C25.0963 17.1609 26.2994 16.2859 26.5291 15.0227C26.6549 14.35 26.4689 13.1414 26.0916 12.168C25.7306 11.2273 24.9978 10.1883 24.2541 9.56484C23.8877 9.25313 22.9689 8.62969 22.7885 8.56953C22.7502 8.55859 22.8431 8.41641 23.0072 8.23047C24.0244 7.09297 24.2486 5.21719 23.5486 3.74609C22.7939 2.16016 21.0002 1.21406 19.2228 1.47656ZM20.3603 3.30859C20.7978 3.42344 21.0767 3.57656 21.3994 3.87187C21.908 4.35313 22.1486 4.88906 22.1486 5.56172C22.1486 6.67188 21.3939 7.60703 20.3002 7.85313C19.8025 7.9625 19.3596 7.90781 18.851 7.66719C17.4892 7.02188 17.0791 5.29375 18.0142 4.13984C18.5939 3.41797 19.5236 3.08984 20.3603 3.30859Z" fill="white"/>
<path d="M7.76568 11.457C4.64849 12.0476 2.29146 14.3281 1.61334 17.407C1.56412 17.6312 1.50943 18.1945 1.49302 18.7031C1.44927 20.1359 1.65162 21.0984 2.26959 22.3398C2.69068 23.1875 3.15552 23.8218 3.82271 24.4617C4.91099 25.4953 6.26724 26.1843 7.73287 26.4523C8.4274 26.5781 9.76177 26.5726 10.4454 26.4468C12.4852 26.0531 14.2626 24.8828 15.4001 23.182C15.9633 22.3398 16.3188 21.4812 16.5485 20.3984C16.6852 19.7585 16.6907 18.2218 16.554 17.5382C15.9579 14.5687 13.8032 12.2992 10.861 11.5554C10.3852 11.4406 10.161 11.4187 9.24224 11.3968C8.47115 11.3859 8.06099 11.4023 7.76568 11.457ZM9.48834 13.464C9.84927 13.8687 10.3032 14.864 10.4727 15.6242L10.511 15.8046H9.08365C7.85865 15.8046 7.6563 15.7937 7.6563 15.7226C7.6563 15.6789 7.73287 15.4 7.82584 15.1101C8.1649 14.0492 8.72818 13.1796 9.08365 13.1796C9.19302 13.1796 9.29693 13.2562 9.48834 13.464ZM6.17974 14.3281C6.09224 14.5851 5.96646 15.0226 5.90084 15.2961L5.78599 15.8046H4.99302H4.20552L4.38599 15.5476C4.68677 15.1156 5.37584 14.4593 5.85709 14.1476C6.10865 13.9781 6.32193 13.8523 6.3274 13.8578C6.33287 13.8632 6.26724 14.0765 6.17974 14.3281ZM12.2282 14.0984C12.8188 14.4812 13.579 15.2304 13.8579 15.7007L13.9508 15.8593H13.1633H12.3704L12.2774 15.4437C12.1954 15.0718 11.9438 14.2242 11.8399 13.9836C11.7797 13.8414 11.8727 13.8687 12.2282 14.0984ZM5.50162 18.9492L5.49615 20.289H4.45162H3.40162L3.34146 19.8789C3.23756 19.1898 3.27584 18.096 3.41802 17.675C3.43443 17.6257 3.69693 17.6093 4.47349 17.6093H5.50162V18.9492ZM10.8008 17.7296C10.8172 17.8007 10.8227 18.3968 10.8172 19.0585L10.8008 20.2617L9.07271 20.2781L7.34459 20.289L7.3063 19.6273C7.28443 19.2609 7.28443 18.6593 7.3063 18.2875L7.34459 17.6093H9.0563H10.7735L10.8008 17.7296ZM14.7329 17.7023C14.9133 18.2984 14.9133 19.6 14.7329 20.1906C14.7055 20.2781 14.6071 20.289 13.6719 20.289H12.6383L12.6219 18.9492L12.6055 17.6093H13.6555C14.6071 17.6093 14.7055 17.6203 14.7329 17.7023ZM5.90084 22.6242C5.97193 22.9195 6.09771 23.357 6.18521 23.5976C6.26724 23.8382 6.3274 24.0406 6.32193 24.046C6.27818 24.0898 5.44693 23.4937 5.1188 23.182C4.80162 22.8867 4.38599 22.4 4.24381 22.1593C4.21099 22.1101 4.37506 22.0937 4.98756 22.0937H5.77505L5.90084 22.6242ZM10.5001 22.1429C10.5001 22.296 10.1883 23.2257 10.0079 23.6085C9.74537 24.1664 9.4938 24.5273 9.25865 24.6695C9.09459 24.7734 9.07271 24.7734 8.91959 24.6914C8.50396 24.4781 7.84771 23.2148 7.68365 22.296L7.64537 22.0937H9.07271C9.86568 22.0937 10.5001 22.1156 10.5001 22.1429ZM13.7704 22.3507C13.4805 22.7664 12.7477 23.4664 12.2829 23.7781C12.0477 23.9367 11.8454 24.057 11.8344 24.046C11.8235 24.0351 11.8727 23.8437 11.9493 23.6195C12.0696 23.2695 12.2063 22.7718 12.3266 22.2414L12.3594 22.0937H13.1579H13.9508L13.7704 22.3507Z" fill="white"/>
<path d="M25.2165 19.6438C25.1126 19.7094 24.9759 19.8406 24.9157 19.9227C24.8063 20.0703 24.8009 20.1578 24.7735 21.8914C24.7462 23.6305 24.7407 23.718 24.6259 23.9313C24.4727 24.2211 24.2212 24.4727 23.9313 24.6258C23.7126 24.7461 23.6524 24.7461 21.3009 24.7735C19.0751 24.8008 18.8837 24.8063 18.7469 24.9047C18.2274 25.2547 18.2438 26.0422 18.7743 26.436C18.9274 26.5453 18.993 26.5508 21.2462 26.5672C23.8821 26.5836 24.0626 26.5672 24.8118 26.1953C25.4243 25.8945 25.8946 25.4242 26.1954 24.8117C26.5399 24.1117 26.5782 23.8438 26.5782 21.9297C26.5782 20.3 26.5727 20.2508 26.4579 20.0156C26.2829 19.682 26.0969 19.5617 25.7196 19.5344C25.4571 19.518 25.3696 19.5344 25.2165 19.6438Z" fill="white"/>
</svg>
