<svg width="540" height="108" viewBox="0 0 540 108" fill="none" xmlns="http://www.w3.org/2000/svg">
<path d="M126.32 79.504C122.816 79.504 119.648 78.904 116.816 77.704C114.032 76.504 111.824 74.776 110.192 72.52C108.56 70.264 107.72 67.6 107.672 64.528H118.472C118.616 66.592 119.336 68.224 120.632 69.424C121.976 70.624 123.8 71.224 126.104 71.224C128.456 71.224 130.304 70.672 131.648 69.568C132.992 68.416 133.664 66.928 133.664 65.104C133.664 63.616 133.208 62.392 132.296 61.432C131.384 60.472 130.232 59.728 128.84 59.2C127.496 58.624 125.624 58 123.224 57.328C119.96 56.368 117.296 55.432 115.232 54.52C113.216 53.56 111.464 52.144 109.976 50.272C108.536 48.352 107.816 45.808 107.816 42.64C107.816 39.664 108.56 37.072 110.048 34.864C111.536 32.656 113.624 30.976 116.312 29.824C119 28.624 122.072 28.024 125.528 28.024C130.712 28.024 134.912 29.296 138.128 31.84C141.392 34.336 143.192 37.84 143.528 42.352H132.44C132.344 40.624 131.6 39.208 130.208 38.104C128.864 36.952 127.064 36.376 124.808 36.376C122.84 36.376 121.256 36.88 120.056 37.888C118.904 38.896 118.328 40.36 118.328 42.28C118.328 43.624 118.76 44.752 119.624 45.664C120.536 46.528 121.64 47.248 122.936 47.824C124.28 48.352 126.152 48.976 128.552 49.696C131.816 50.656 134.48 51.616 136.544 52.576C138.608 53.536 140.384 54.976 141.872 56.896C143.36 58.816 144.104 61.336 144.104 64.456C144.104 67.144 143.408 69.64 142.016 71.944C140.624 74.248 138.584 76.096 135.896 77.488C133.208 78.832 130.016 79.504 126.32 79.504ZM174.155 79.648C170.315 79.648 166.859 78.808 163.787 77.128C160.715 75.4 158.291 72.976 156.515 69.856C154.787 66.736 153.923 63.136 153.923 59.056C153.923 54.976 154.811 51.376 156.587 48.256C158.411 45.136 160.883 42.736 164.003 41.056C167.123 39.328 170.603 38.464 174.443 38.464C178.283 38.464 181.763 39.328 184.883 41.056C188.003 42.736 190.451 45.136 192.227 48.256C194.051 51.376 194.963 54.976 194.963 59.056C194.963 63.136 194.027 66.736 192.155 69.856C190.331 72.976 187.835 75.4 184.667 77.128C181.547 78.808 178.043 79.648 174.155 79.648ZM174.155 70.864C175.979 70.864 177.683 70.432 179.267 69.568C180.899 68.656 182.195 67.312 183.155 65.536C184.115 63.76 184.595 61.6 184.595 59.056C184.595 55.264 183.587 52.36 181.571 50.344C179.603 48.28 177.179 47.248 174.299 47.248C171.419 47.248 168.995 48.28 167.027 50.344C165.107 52.36 164.147 55.264 164.147 59.056C164.147 62.848 165.083 65.776 166.955 67.84C168.875 69.856 171.275 70.864 174.155 70.864ZM203.365 59.056C203.365 54.928 204.205 51.328 205.885 48.256C207.565 45.136 209.893 42.736 212.869 41.056C215.845 39.328 219.253 38.464 223.093 38.464C228.037 38.464 232.117 39.712 235.333 42.208C238.597 44.656 240.781 48.112 241.885 52.576H231.013C230.437 50.848 229.453 49.504 228.061 48.544C226.717 47.536 225.037 47.032 223.021 47.032C220.141 47.032 217.861 48.088 216.181 50.2C214.501 52.264 213.661 55.216 213.661 59.056C213.661 62.848 214.501 65.8 216.181 67.912C217.861 69.976 220.141 71.008 223.021 71.008C227.101 71.008 229.765 69.184 231.013 65.536H241.885C240.781 69.856 238.597 73.288 235.333 75.832C232.069 78.376 227.989 79.648 223.093 79.648C219.253 79.648 215.845 78.808 212.869 77.128C209.893 75.4 207.565 73 205.885 69.928C204.205 66.808 203.365 63.184 203.365 59.056ZM257.982 34.36C256.206 34.36 254.718 33.808 253.518 32.704C252.366 31.552 251.79 30.136 251.79 28.456C251.79 26.776 252.366 25.384 253.518 24.28C254.718 23.128 256.206 22.552 257.982 22.552C259.758 22.552 261.222 23.128 262.374 24.28C263.574 25.384 264.174 26.776 264.174 28.456C264.174 30.136 263.574 31.552 262.374 32.704C261.222 33.808 259.758 34.36 257.982 34.36ZM262.95 39.112V79H252.87V39.112H262.95ZM313.589 58.192C313.589 59.632 313.493 60.928 313.301 62.08H284.141C284.381 64.96 285.389 67.216 287.165 68.848C288.941 70.48 291.125 71.296 293.717 71.296C297.461 71.296 300.125 69.688 301.709 66.472H312.581C311.429 70.312 309.221 73.48 305.957 75.976C302.693 78.424 298.685 79.648 293.933 79.648C290.093 79.648 286.637 78.808 283.565 77.128C280.541 75.4 278.165 72.976 276.437 69.856C274.757 66.736 273.917 63.136 273.917 59.056C273.917 54.928 274.757 51.304 276.437 48.184C278.117 45.064 280.469 42.664 283.493 40.984C286.517 39.304 289.997 38.464 293.933 38.464C297.725 38.464 301.109 39.28 304.085 40.912C307.109 42.544 309.437 44.872 311.069 47.896C312.749 50.872 313.589 54.304 313.589 58.192ZM303.149 55.312C303.101 52.72 302.165 50.656 300.341 49.12C298.517 47.536 296.285 46.744 293.645 46.744C291.149 46.744 289.037 47.512 287.309 49.048C285.629 50.536 284.597 52.624 284.213 55.312H303.149ZM336.282 47.392V66.688C336.282 68.032 336.594 69.016 337.218 69.64C337.89 70.216 338.994 70.504 340.53 70.504H345.21V79H338.874C330.378 79 326.13 74.872 326.13 66.616V47.392H321.378V39.112H326.13V29.248H336.282V39.112H345.21V47.392H336.282ZM394.22 39.112L369.524 97.864H358.796L367.436 77.992L351.452 39.112H362.756L373.052 66.976L383.492 39.112H394.22ZM413.55 70.504H436.158V79H401.886V71.224L424.35 37.24H401.886V28.744H436.158V36.52L413.55 70.504ZM485.418 58.192C485.418 59.632 485.322 60.928 485.13 62.08H455.97C456.21 64.96 457.218 67.216 458.994 68.848C460.77 70.48 462.954 71.296 465.546 71.296C469.29 71.296 471.954 69.688 473.538 66.472H484.41C483.258 70.312 481.05 73.48 477.786 75.976C474.522 78.424 470.514 79.648 465.762 79.648C461.922 79.648 458.466 78.808 455.394 77.128C452.37 75.4 449.994 72.976 448.266 69.856C446.586 66.736 445.746 63.136 445.746 59.056C445.746 54.928 446.586 51.304 448.266 48.184C449.946 45.064 452.298 42.664 455.322 40.984C458.346 39.304 461.826 38.464 465.762 38.464C469.554 38.464 472.938 39.28 475.914 40.912C478.938 42.544 481.266 44.872 482.898 47.896C484.578 50.872 485.418 54.304 485.418 58.192ZM474.978 55.312C474.93 52.72 473.994 50.656 472.17 49.12C470.346 47.536 468.114 46.744 465.474 46.744C462.978 46.744 460.866 47.512 459.138 49.048C457.458 50.536 456.426 52.624 456.042 55.312H474.978ZM518.48 38.536C523.232 38.536 527.072 40.048 530 43.072C532.928 46.048 534.392 50.224 534.392 55.6V79H524.312V56.968C524.312 53.8 523.52 51.376 521.936 49.696C520.352 47.968 518.192 47.104 515.456 47.104C512.672 47.104 510.464 47.968 508.832 49.696C507.248 51.376 506.456 53.8 506.456 56.968V79H496.376V39.112H506.456V44.08C507.8 42.352 509.504 41.008 511.568 40.048C513.68 39.04 515.984 38.536 518.48 38.536Z" fill="white"/>
<g clip-path="url(#clip0_89_119)">
<path d="M20.9846 14.3125C19.9377 14.9531 20.0002 13.875 20.0315 31.4375L20.0783 47.3125L28.1096 49.8594C32.5158 51.25 36.3596 52.5156 36.6408 52.6406C36.9221 52.7812 37.3596 53.1562 37.6096 53.4688L38.0471 54.0469L38.094 59.7969L38.1408 65.5469L45.2971 65.5938L52.4533 65.6406L53.0315 66.0938C53.3596 66.3438 53.7658 66.8281 53.9221 67.1875C54.2033 67.7969 54.219 68.4688 54.219 80.9062V94H57.1096H60.0002V54.7344C60.0002 16.0781 60.0002 15.4844 59.6877 14.9844C59.0471 13.9375 60.3752 14 39.969 14C21.9065 14 21.469 14.0156 20.9846 14.3125ZM35.3908 20.0781C36.5002 20.5938 37.0315 21.4219 37.0315 22.6406C37.0315 23.5156 36.594 24.2812 35.7971 24.8594L35.1252 25.3281H31.5158H27.8908L27.1565 24.9062C25.9533 24.1875 25.4846 22.8125 26.0158 21.5469C26.344 20.7656 26.6721 20.4219 27.4221 20.0781C27.969 19.8281 28.4846 19.7812 31.4065 19.7812C34.344 19.7812 34.844 19.8281 35.3908 20.0781ZM52.5783 20.0781C54.6252 21.0156 54.7658 23.7656 52.844 24.9062L52.1096 25.3281H48.594C45.2033 25.3281 45.0471 25.3125 44.4533 24.9688C42.3596 23.7656 42.5783 20.8594 44.844 19.9531C45.0627 19.875 46.7502 19.7969 48.594 19.7969C51.5315 19.7812 52.0315 19.8281 52.5783 20.0781ZM35.7502 31.7031C37.4377 32.8125 37.4377 35.1875 35.7502 36.2969C35.1096 36.7344 35.1096 36.7344 31.8127 36.7812C28.1252 36.8438 27.5002 36.7344 26.7033 35.9688C25.4846 34.7812 25.4846 33.1875 26.7033 32.0469C27.5315 31.25 27.8908 31.2031 31.6565 31.2344L35.1096 31.2656L35.7502 31.7031ZM52.3127 31.3906C53.3596 31.7812 54.219 32.9531 54.219 34C54.219 35.125 53.2658 36.3281 52.1252 36.6562C51.6877 36.7812 50.3908 36.8125 48.1877 36.7812C44.8908 36.7344 44.8908 36.7344 44.2502 36.2969C42.2815 35 42.7033 32.0156 44.969 31.3438C45.6408 31.1406 51.719 31.1875 52.3127 31.3906ZM35.7971 43.1406C36.594 43.7188 37.0315 44.4844 37.0315 45.3594C37.0315 46.5781 36.5002 47.4062 35.3908 47.9219C34.844 48.1719 34.344 48.2188 31.4377 48.2188C27.3127 48.2188 26.7502 48.0469 26.0783 46.5781C25.344 44.9844 26.1565 43.2969 27.9377 42.75C28.1721 42.6719 29.8908 42.625 31.7502 42.6406L35.1252 42.6719L35.7971 43.1406ZM52.844 43.0938C54.9065 44.3125 54.5158 47.3906 52.2033 48.0781C51.8596 48.1719 50.3596 48.2188 48.2658 48.1875L44.8908 48.1406L44.2346 47.7031C42.594 46.6094 42.6096 44.1094 44.2658 43.1406C45.0783 42.6562 45.5158 42.6094 48.8283 42.6406C52.094 42.6719 52.1096 42.6719 52.844 43.0938ZM52.594 54.3438C53.2971 54.7344 54.0315 55.625 54.1565 56.2656C54.3908 57.5 53.7971 58.7031 52.6565 59.2656C52.0002 59.6094 51.7815 59.625 48.594 59.625C45.4065 59.625 45.1877 59.6094 44.5315 59.2656C42.9221 58.4688 42.4846 56.4531 43.6252 55.1562C44.5627 54.0938 44.9221 54.0156 48.9065 54.0469C51.5783 54.0781 52.1877 54.125 52.594 54.3438Z" fill="white"/>
<path d="M66.7031 37.1719C66.4062 37.3594 66.0469 37.7656 65.9062 38.0625C65.6406 38.5781 65.625 40.25 65.625 66.2969V94H72.8125H80V66.1406C80 39.1719 79.9844 38.2812 79.7031 37.8125C79.1094 36.8438 78.9062 36.8125 72.7656 36.8125C67.2812 36.8125 67.2344 36.8125 66.7031 37.1719ZM75.6875 45.9375C76.5156 46.4219 77.0312 47.3281 77.0312 48.2812C77.0312 49.1719 76.7656 49.7344 76.0312 50.375C75.3281 50.9844 74.875 51.0625 72.4688 51C70.7031 50.9531 70.4688 50.9219 69.9531 50.5625C68.3125 49.4375 68.3594 46.9688 70.0312 45.9688C70.6719 45.5938 70.8281 45.5625 72.875 45.5625C74.8906 45.5625 75.0938 45.5938 75.6875 45.9375ZM75.2656 57.1406C75.7969 57.3438 76.5156 58 76.8125 58.5625C77.3906 59.6875 76.8594 61.375 75.6875 62.0625C75.0938 62.4062 74.8906 62.4375 72.8906 62.4375C70.8594 62.4375 70.6875 62.4062 70.0469 62.0469C68.8125 61.3125 68.3594 59.5781 69.0781 58.375C69.7969 57.2031 70.375 56.9844 72.8438 56.9688C73.9375 56.9688 75.0156 57.0469 75.2656 57.1406ZM75.3594 68.5938C77.4531 69.4844 77.6094 72.4219 75.625 73.5312C74.9688 73.8906 74.7656 73.9219 72.8906 73.9219C70.5781 73.9219 69.9844 73.7344 69.2656 72.7969C68.8438 72.2344 68.625 71.0781 68.8125 70.3438C68.9531 69.7969 69.8125 68.8438 70.3906 68.5938C71.0469 68.2969 74.6875 68.2969 75.3594 68.5938ZM75.3906 80.0781C76.5 80.5938 77.0312 81.4219 77.0312 82.6406C77.0312 83.5156 76.5938 84.2812 75.7969 84.8594C75.125 85.3281 75.125 85.3281 72.9219 85.3281C70.4219 85.3281 70.0312 85.2031 69.2812 84.2344C68.8438 83.6562 68.625 82.5 68.8125 81.75C68.9531 81.1719 69.6875 80.3906 70.3906 80.0781C71.2969 79.6562 74.5 79.6562 75.3906 80.0781Z" fill="white"/>
<path d="M8.04697 54.5152L0.0782166 57.0465L0.0313416 68.5309C-0.0155334 81.1246 -0.0155334 81.0465 0.937592 83.484C2.23447 86.859 5.37509 89.9059 9.57822 91.8902C11.2813 92.6871 13.9376 93.5934 15.3438 93.859C16.5313 94.0777 17.8126 93.8434 20.3751 92.9527C23.5626 91.8434 26.1563 90.3121 28.2188 88.3434C30.3126 86.3434 31.5938 84.1402 32.297 81.3902C32.547 80.4215 32.5782 79.2809 32.5782 68.7027V57.0777L24.5313 54.5309C20.1095 53.1246 16.3751 51.984 16.2501 51.984C16.1251 51.984 12.4376 53.1246 8.04697 54.5152ZM27.5157 63.4684C28.5782 63.9996 29.2032 65.3902 28.9063 66.5309C28.7501 67.1246 27.9845 67.9527 22.6876 73.2809C19.2813 76.6871 16.422 79.4371 16.1407 79.5621C15.4376 79.859 14.6251 79.8277 13.9376 79.484C13.6251 79.3121 11.8751 77.6871 10.047 75.8434C7.35947 73.1246 6.71884 72.3902 6.56259 71.859C6.18759 70.609 6.76572 69.3277 7.96884 68.7184C9.51572 67.9371 10.2501 68.2652 13.0001 70.9996L15.1563 73.1246L19.9688 68.3277C25.0626 63.234 25.3907 62.9684 26.5626 63.1715C26.8595 63.2184 27.297 63.359 27.5157 63.4684Z" fill="white"/>
<path d="M38.125 75.625C38.125 80.6875 37.9844 81.9375 37.1875 84.3438C36.2656 87.1094 34.7969 89.5 32.7031 91.6719C31.6406 92.7812 31.4062 93.1094 31.4062 93.5156V94H40H48.5938V82.5156V71.0312H43.3594H38.125V75.625Z" fill="white"/>
</g>
<defs>
<clipPath id="clip0_89_119">
<rect width="80" height="80" fill="white" transform="translate(0 14)"/>
</clipPath>
</defs>
</svg>
