<svg width="242" height="120" viewBox="0 0 242 120" fill="none" xmlns="http://www.w3.org/2000/svg">
<path d="M12.4 104.28C10.4533 104.28 8.69333 103.947 7.12 103.28C5.57333 102.613 4.34667 101.653 3.44 100.4C2.53333 99.1467 2.06667 97.6667 2.04 95.96H8.04C8.12 97.1067 8.52 98.0133 9.24 98.68C9.98667 99.3467 11 99.68 12.28 99.68C13.5867 99.68 14.6133 99.3733 15.36 98.76C16.1067 98.12 16.48 97.2933 16.48 96.28C16.48 95.4533 16.2267 94.7733 15.72 94.24C15.2133 93.7067 14.5733 93.2933 13.8 93C13.0533 92.68 12.0133 92.3333 10.68 91.96C8.86667 91.4267 7.38667 90.9067 6.24 90.4C5.12 89.8667 4.14667 89.08 3.32 88.04C2.52 86.9733 2.12 85.56 2.12 83.8C2.12 82.1467 2.53333 80.7067 3.36 79.48C4.18667 78.2533 5.34667 77.32 6.84 76.68C8.33333 76.0133 10.04 75.68 11.96 75.68C14.84 75.68 17.1733 76.3867 18.96 77.8C20.7733 79.1867 21.7733 81.1333 21.96 83.64H15.8C15.7467 82.68 15.3333 81.8933 14.56 81.28C13.8133 80.64 12.8133 80.32 11.56 80.32C10.4667 80.32 9.58667 80.6 8.92 81.16C8.28 81.72 7.96 82.5333 7.96 83.6C7.96 84.3467 8.2 84.9733 8.68 85.48C9.18667 85.96 9.8 86.36 10.52 86.68C11.2667 86.9733 12.3067 87.32 13.64 87.72C15.4533 88.2533 16.9333 88.7867 18.08 89.32C19.2267 89.8533 20.2133 90.6533 21.04 91.72C21.8667 92.7867 22.28 94.1867 22.28 95.92C22.28 97.4133 21.8933 98.8 21.12 100.08C20.3467 101.36 19.2133 102.387 17.72 103.16C16.2267 103.907 14.4533 104.28 12.4 104.28ZM38.975 104.36C36.8417 104.36 34.9217 103.893 33.215 102.96C31.5083 102 30.1617 100.653 29.175 98.92C28.215 97.1867 27.735 95.1867 27.735 92.92C27.735 90.6533 28.2283 88.6533 29.215 86.92C30.2283 85.1867 31.6017 83.8533 33.335 82.92C35.0683 81.96 37.0017 81.48 39.135 81.48C41.2683 81.48 43.2017 81.96 44.935 82.92C46.6683 83.8533 48.0283 85.1867 49.015 86.92C50.0283 88.6533 50.535 90.6533 50.535 92.92C50.535 95.1867 50.015 97.1867 48.975 98.92C47.9617 100.653 46.575 102 44.815 102.96C43.0817 103.893 41.135 104.36 38.975 104.36ZM38.975 99.48C39.9883 99.48 40.935 99.24 41.815 98.76C42.7217 98.2533 43.4417 97.5067 43.975 96.52C44.5083 95.5333 44.775 94.3333 44.775 92.92C44.775 90.8133 44.215 89.2 43.095 88.08C42.0017 86.9333 40.655 86.36 39.055 86.36C37.455 86.36 36.1083 86.9333 35.015 88.08C33.9483 89.2 33.415 90.8133 33.415 92.92C33.415 95.0267 33.935 96.6533 34.975 97.8C36.0417 98.92 37.375 99.48 38.975 99.48ZM55.2028 92.92C55.2028 90.6267 55.6695 88.6267 56.6028 86.92C57.5361 85.1867 58.8295 83.8533 60.4828 82.92C62.1361 81.96 64.0295 81.48 66.1628 81.48C68.9095 81.48 71.1761 82.1733 72.9628 83.56C74.7761 84.92 75.9895 86.84 76.6028 89.32H70.5628C70.2428 88.36 69.6961 87.6133 68.9228 87.08C68.1761 86.52 67.2428 86.24 66.1228 86.24C64.5228 86.24 63.2561 86.8267 62.3228 88C61.3895 89.1467 60.9228 90.7867 60.9228 92.92C60.9228 95.0267 61.3895 96.6667 62.3228 97.84C63.2561 98.9867 64.5228 99.56 66.1228 99.56C68.3895 99.56 69.8695 98.5467 70.5628 96.52H76.6028C75.9895 98.92 74.7761 100.827 72.9628 102.24C71.1495 103.653 68.8828 104.36 66.1628 104.36C64.0295 104.36 62.1361 103.893 60.4828 102.96C58.8295 102 57.5361 100.667 56.6028 98.96C55.6695 97.2267 55.2028 95.2133 55.2028 92.92ZM85.5453 79.2C84.5586 79.2 83.732 78.8933 83.0653 78.28C82.4253 77.64 82.1053 76.8533 82.1053 75.92C82.1053 74.9867 82.4253 74.2133 83.0653 73.6C83.732 72.96 84.5586 72.64 85.5453 72.64C86.532 72.64 87.3453 72.96 87.9853 73.6C88.652 74.2133 88.9853 74.9867 88.9853 75.92C88.9853 76.8533 88.652 77.64 87.9853 78.28C87.3453 78.8933 86.532 79.2 85.5453 79.2ZM88.3053 81.84V104H82.7053V81.84H88.3053ZM116.438 92.44C116.438 93.24 116.385 93.96 116.278 94.6H100.078C100.211 96.2 100.771 97.4533 101.758 98.36C102.745 99.2667 103.958 99.72 105.398 99.72C107.478 99.72 108.958 98.8267 109.838 97.04H115.878C115.238 99.1733 114.011 100.933 112.198 102.32C110.385 103.68 108.158 104.36 105.518 104.36C103.385 104.36 101.465 103.893 99.7581 102.96C98.0781 102 96.7581 100.653 95.7981 98.92C94.8648 97.1867 94.3981 95.1867 94.3981 92.92C94.3981 90.6267 94.8648 88.6133 95.7981 86.88C96.7315 85.1467 98.0381 83.8133 99.7181 82.88C101.398 81.9467 103.331 81.48 105.518 81.48C107.625 81.48 109.505 81.9333 111.158 82.84C112.838 83.7467 114.131 85.04 115.038 86.72C115.971 88.3733 116.438 90.28 116.438 92.44ZM110.638 90.84C110.611 89.4 110.091 88.2533 109.078 87.4C108.065 86.52 106.825 86.08 105.358 86.08C103.971 86.08 102.798 86.5067 101.838 87.36C100.905 88.1867 100.331 89.3467 100.118 90.84H110.638ZM129.046 86.44V97.16C129.046 97.9067 129.219 98.4533 129.566 98.8C129.939 99.12 130.552 99.28 131.406 99.28H134.006V104H130.486C125.766 104 123.406 101.707 123.406 97.12V86.44H120.766V81.84H123.406V76.36H129.046V81.84H134.006V86.44H129.046ZM161.233 81.84L147.513 114.48H141.553L146.353 103.44L137.473 81.84H143.753L149.473 97.32L155.273 81.84H161.233ZM171.972 99.28H184.532V104H165.492V99.68L177.972 80.8H165.492V76.08H184.532V80.4L171.972 99.28ZM211.899 92.44C211.899 93.24 211.846 93.96 211.739 94.6H195.539C195.672 96.2 196.232 97.4533 197.219 98.36C198.206 99.2667 199.419 99.72 200.859 99.72C202.939 99.72 204.419 98.8267 205.299 97.04H211.339C210.699 99.1733 209.472 100.933 207.659 102.32C205.846 103.68 203.619 104.36 200.979 104.36C198.846 104.36 196.926 103.893 195.219 102.96C193.539 102 192.219 100.653 191.259 98.92C190.326 97.1867 189.859 95.1867 189.859 92.92C189.859 90.6267 190.326 88.6133 191.259 86.88C192.192 85.1467 193.499 83.8133 195.179 82.88C196.859 81.9467 198.792 81.48 200.979 81.48C203.086 81.48 204.966 81.9333 206.619 82.84C208.299 83.7467 209.592 85.04 210.499 86.72C211.432 88.3733 211.899 90.28 211.899 92.44ZM206.099 90.84C206.072 89.4 205.552 88.2533 204.539 87.4C203.526 86.52 202.286 86.08 200.819 86.08C199.432 86.08 198.259 86.5067 197.299 87.36C196.366 88.1867 195.792 89.3467 195.579 90.84H206.099ZM230.267 81.52C232.907 81.52 235.04 82.36 236.667 84.04C238.293 85.6933 239.107 88.0133 239.107 91V104H233.507V91.76C233.507 90 233.067 88.6533 232.187 87.72C231.307 86.76 230.107 86.28 228.587 86.28C227.04 86.28 225.813 86.76 224.907 87.72C224.027 88.6533 223.587 90 223.587 91.76V104H217.987V81.84H223.587V84.6C224.333 83.64 225.28 82.8933 226.427 82.36C227.6 81.8 228.88 81.52 230.267 81.52Z" fill="#026E76"/>
<g clip-path="url(#clip0_1_85)">
<path d="M106.738 0.234375C105.953 0.714844 106 -0.09375 106.023 13.0781L106.058 24.9844L112.082 26.8945C115.387 27.9375 118.269 28.8867 118.48 28.9805C118.691 29.0859 119.019 29.3672 119.207 29.6016L119.535 30.0352L119.57 34.3477L119.605 38.6602L124.972 38.6953L130.34 38.7305L130.773 39.0703C131.019 39.2578 131.324 39.6211 131.441 39.8906C131.652 40.3477 131.664 40.8516 131.664 50.1797V60H133.832H136V30.5508C136 1.55859 136 1.11328 135.765 0.738281C135.285 -0.046875 136.281 0 120.976 0C107.429 0 107.101 0.0117188 106.738 0.234375ZM117.543 4.55859C118.375 4.94531 118.773 5.56641 118.773 6.48047C118.773 7.13672 118.445 7.71094 117.847 8.14453L117.344 8.49609H114.637H111.918L111.367 8.17969C110.465 7.64062 110.113 6.60938 110.512 5.66016C110.758 5.07422 111.004 4.81641 111.566 4.55859C111.976 4.37109 112.363 4.33594 114.554 4.33594C116.758 4.33594 117.133 4.37109 117.543 4.55859ZM130.433 4.55859C131.969 5.26172 132.074 7.32422 130.633 8.17969L130.082 8.49609H127.445C124.902 8.49609 124.785 8.48438 124.34 8.22656C122.769 7.32422 122.933 5.14453 124.633 4.46484C124.797 4.40625 126.062 4.34766 127.445 4.34766C129.648 4.33594 130.023 4.37109 130.433 4.55859ZM117.812 13.2773C119.078 14.1094 119.078 15.8906 117.812 16.7227C117.332 17.0508 117.332 17.0508 114.859 17.0859C112.094 17.1328 111.625 17.0508 111.027 16.4766C110.113 15.5859 110.113 14.3906 111.027 13.5352C111.648 12.9375 111.918 12.9023 114.742 12.9258L117.332 12.9492L117.812 13.2773ZM130.234 13.043C131.019 13.3359 131.664 14.2148 131.664 15C131.664 15.8438 130.949 16.7461 130.094 16.9922C129.765 17.0859 128.793 17.1094 127.14 17.0859C124.668 17.0508 124.668 17.0508 124.187 16.7227C122.711 15.75 123.027 13.5117 124.726 13.0078C125.23 12.8555 129.789 12.8906 130.234 13.043ZM117.847 21.8555C118.445 22.2891 118.773 22.8633 118.773 23.5195C118.773 24.4336 118.375 25.0547 117.543 25.4414C117.133 25.6289 116.758 25.6641 114.578 25.6641C111.484 25.6641 111.062 25.5352 110.558 24.4336C110.008 23.2383 110.617 21.9727 111.953 21.5625C112.129 21.5039 113.418 21.4688 114.812 21.4805L117.344 21.5039L117.847 21.8555ZM130.633 21.8203C132.179 22.7344 131.887 25.043 130.152 25.5586C129.894 25.6289 128.769 25.6641 127.199 25.6406L124.668 25.6055L124.176 25.2773C122.945 24.457 122.957 22.582 124.199 21.8555C124.808 21.4922 125.137 21.457 127.621 21.4805C130.07 21.5039 130.082 21.5039 130.633 21.8203ZM130.445 30.2578C130.972 30.5508 131.523 31.2188 131.617 31.6992C131.793 32.625 131.347 33.5273 130.492 33.9492C130 34.207 129.836 34.2188 127.445 34.2188C125.054 34.2188 124.89 34.207 124.398 33.9492C123.191 33.3516 122.863 31.8398 123.719 30.8672C124.422 30.0703 124.691 30.0117 127.679 30.0352C129.683 30.0586 130.14 30.0938 130.445 30.2578Z" fill="#026E76"/>
<path d="M141.027 17.3789C140.805 17.5195 140.535 17.8242 140.43 18.0469C140.23 18.4336 140.219 19.6875 140.219 39.2227V60H145.609H151V39.1055C151 18.8789 150.988 18.2109 150.777 17.8594C150.332 17.1328 150.18 17.1094 145.574 17.1094C141.461 17.1094 141.426 17.1094 141.027 17.3789ZM147.766 23.9531C148.387 24.3164 148.773 24.9961 148.773 25.7109C148.773 26.3789 148.574 26.8008 148.023 27.2812C147.496 27.7383 147.156 27.7969 145.352 27.75C144.027 27.7148 143.852 27.6914 143.465 27.4219C142.234 26.5781 142.27 24.7266 143.523 23.9766C144.004 23.6953 144.121 23.6719 145.656 23.6719C147.168 23.6719 147.32 23.6953 147.766 23.9531ZM147.449 32.3555C147.848 32.5078 148.387 33 148.609 33.4219C149.043 34.2656 148.645 35.5312 147.766 36.0469C147.32 36.3047 147.168 36.3281 145.668 36.3281C144.145 36.3281 144.016 36.3047 143.535 36.0352C142.609 35.4844 142.27 34.1836 142.809 33.2812C143.348 32.4023 143.781 32.2383 145.633 32.2266C146.453 32.2266 147.262 32.2852 147.449 32.3555ZM147.52 40.9453C149.09 41.6133 149.207 43.8164 147.719 44.6484C147.227 44.918 147.074 44.9414 145.668 44.9414C143.934 44.9414 143.488 44.8008 142.949 44.0977C142.633 43.6758 142.469 42.8086 142.609 42.2578C142.715 41.8477 143.359 41.1328 143.793 40.9453C144.285 40.7227 147.016 40.7227 147.52 40.9453ZM147.543 49.5586C148.375 49.9453 148.773 50.5664 148.773 51.4805C148.773 52.1367 148.445 52.7109 147.848 53.1445C147.344 53.4961 147.344 53.4961 145.691 53.4961C143.816 53.4961 143.523 53.4023 142.961 52.6758C142.633 52.2422 142.469 51.375 142.609 50.8125C142.715 50.3789 143.266 49.793 143.793 49.5586C144.473 49.2422 146.875 49.2422 147.543 49.5586Z" fill="#026E76"/>
<path d="M97.035 30.3864L91.0585 32.2849L91.0233 40.8981C90.9882 50.3435 90.9882 50.2849 91.703 52.113C92.6757 54.6442 95.0311 56.9294 98.1835 58.4177C99.4608 59.0153 101.453 59.695 102.508 59.8942C103.398 60.0583 104.359 59.8825 106.281 59.2146C108.672 58.3825 110.617 57.2341 112.164 55.7575C113.734 54.2575 114.695 52.6052 115.223 50.5427C115.41 49.8161 115.433 48.9606 115.433 41.0271V32.3083L109.398 30.3981C106.082 29.3435 103.281 28.488 103.187 28.488C103.094 28.488 100.328 29.3435 97.035 30.3864ZM111.637 37.1013C112.433 37.4997 112.902 38.5427 112.68 39.3981C112.562 39.8435 111.988 40.4646 108.016 44.4606C105.461 47.0153 103.316 49.0778 103.105 49.1716C102.578 49.3942 101.969 49.3708 101.453 49.113C101.219 48.9841 99.9061 47.7653 98.535 46.3825C96.5194 44.3435 96.0389 43.7927 95.9218 43.3942C95.6405 42.4567 96.0741 41.4958 96.9764 41.0388C98.1366 40.4528 98.6874 40.6989 100.75 42.7497L102.367 44.3435L105.976 40.7458C109.797 36.9255 110.043 36.7263 110.922 36.8786C111.144 36.9138 111.473 37.0192 111.637 37.1013Z" fill="#026E76"/>
<path d="M119.594 46.2188C119.594 50.0156 119.488 50.9531 118.891 52.7578C118.199 54.832 117.098 56.625 115.527 58.2539C114.73 59.0859 114.555 59.332 114.555 59.6367V60H121H127.445V51.3867V42.7734H123.52H119.594V46.2188Z" fill="#026E76"/>
</g>
<defs>
<clipPath id="clip0_1_85">
<rect width="60" height="60" fill="white" transform="translate(91)"/>
</clipPath>
</defs>
</svg>
