<svg width="123" height="71" viewBox="0 0 123 71" fill="none" xmlns="http://www.w3.org/2000/svg">
<path d="M56.8155 0.193836C52.7414 0.676853 49.5208 1.56857 46.1839 3.16623C39.704 6.21294 35.4746 10.9316 32.3705 18.5484C31.7497 20.146 31.2452 21.5208 31.3228 21.5951C31.4004 21.6322 32.6809 20.6291 34.1554 19.3286C35.785 17.8796 37.9967 16.3934 39.7428 15.576C42.3037 14.3499 43.0022 14.1641 46.3779 14.0155C53.2458 13.7182 55.9231 14.9815 63.761 22.2267C71.2886 29.1747 74.3927 31.2925 79.8637 33.2617C86.6928 35.714 97.4797 35.7883 104.774 33.4475C109.896 31.8127 114.863 28.0972 118.006 23.5643C119.791 20.9635 122.158 16.1333 122.623 14.1269L122.856 13.0123L121.382 14.5356C115.639 20.4804 108.344 22.7097 101.437 20.6291C97.7901 19.5516 95.85 18.214 89.5254 12.3435C81.4158 4.83821 76.9536 2.20021 69.6589 0.751163C66.1668 0.0452194 60.1137 -0.214867 56.8155 0.193836Z" fill="#212B36"/>
<path d="M23.2132 36.2712C13.862 37.7574 6.21812 43.5536 2.26035 52.1735C1.2515 54.3656 0.203857 57.0408 0.203857 57.5238C0.203857 57.7096 1.32911 56.7436 2.72597 55.4431C8.1582 50.2786 15.1037 48.4209 21.5836 50.3529C25.2309 51.4304 27.2098 52.8051 33.3017 58.4527C40.9456 65.5493 43.6617 67.3327 49.676 69.2648C54.5262 70.7881 60.23 71.3455 65.6235 70.7881C77.7684 69.562 85.6451 63.9888 90.1849 53.5111C90.767 52.062 91.3878 50.3901 91.543 49.7956L91.8146 48.6809L90.8058 49.8699C89.2537 51.6905 85.1019 54.7372 82.5798 55.8147C79.5533 57.1151 74.0046 57.4495 70.5901 56.4835C67.1755 55.5546 64.9639 54.0313 59.1824 48.6809C53.5562 43.4421 50.1416 40.8412 46.7659 39.2064C43.9721 37.8688 40.2084 36.717 37.0654 36.234C34.0777 35.7882 26.0846 35.8253 23.2132 36.2712Z" fill="#212B36"/>
</svg>
