<svg width="28" height="28" viewBox="0 0 28 28" fill="none" xmlns="http://www.w3.org/2000/svg">
<path d="M13.4039 1.84297C13.3219 2.54297 13.2672 2.61953 12.7094 2.77266C12.4742 2.83828 12.0312 3.01328 11.7305 3.16641C11.4297 3.31953 11.1344 3.44531 11.0742 3.44531C11.0195 3.44531 10.7844 3.30313 10.5547 3.12813C10.3305 2.95312 10.1117 2.78906 10.068 2.76719C10.0187 2.73438 9.8875 2.82734 9.64688 3.06797C9.45547 3.25938 9.29688 3.42891 9.29688 3.45078C9.29688 3.46719 9.45547 3.69141 9.65234 3.94297C9.84922 4.19453 10.0078 4.45156 10.0078 4.51172C10.0078 4.57188 9.88203 4.86719 9.72891 5.16797C9.57578 5.46875 9.40078 5.91172 9.33516 6.14687C9.18203 6.70469 9.10547 6.75938 8.41094 6.84141L7.875 6.90703V7.4375V7.96797L8.41094 8.03359C9.10547 8.11562 9.18203 8.17031 9.33516 8.72813C9.40078 8.96328 9.57578 9.40625 9.72891 9.70703C9.88203 10.0078 10.0078 10.3031 10.0078 10.3633C10.0078 10.418 9.86563 10.6531 9.69062 10.8828C9.51562 11.107 9.35156 11.3258 9.32969 11.3695C9.29688 11.4188 9.38984 11.55 9.63047 11.7906C9.82187 11.982 9.99141 12.1406 10.0133 12.1406C10.0297 12.1406 10.2539 11.982 10.5055 11.7852C10.757 11.5883 11.0141 11.4297 11.0742 11.4297C11.1344 11.4297 11.4297 11.5555 11.7305 11.7086C12.0312 11.8617 12.4742 12.0367 12.7094 12.1023C13.2672 12.2555 13.3219 12.332 13.4039 13.0266L13.4695 13.5625H14H14.5305L14.5961 13.0266C14.6781 12.332 14.7328 12.2555 15.2906 12.1023C15.5258 12.0367 15.9688 11.8617 16.2695 11.7086C16.5703 11.5555 16.8656 11.4297 16.9258 11.4297C16.9859 11.4297 17.243 11.5883 17.4945 11.7852C17.7461 11.982 17.9703 12.1406 17.9867 12.1406C18.0086 12.1406 18.1781 11.982 18.3695 11.7906C18.6102 11.55 18.7031 11.4188 18.6703 11.3695C18.6484 11.3258 18.4844 11.107 18.3094 10.8828C18.1344 10.6531 17.9922 10.418 17.9922 10.3633C17.9922 10.3031 18.118 10.0078 18.2711 9.70703C18.4242 9.40625 18.5992 8.96328 18.6648 8.72813C18.818 8.17031 18.8945 8.11562 19.5945 8.03359L20.125 7.96797V7.4375V6.90703L19.5945 6.84141C18.8945 6.75938 18.818 6.70469 18.6648 6.14687C18.5992 5.91172 18.4242 5.46875 18.2711 5.16797C18.118 4.86719 17.9922 4.57188 17.9922 4.51172C17.9922 4.45703 18.1344 4.22188 18.3094 3.99219C18.4844 3.76797 18.6484 3.54922 18.6703 3.50547C18.7031 3.45625 18.6102 3.325 18.3695 3.08438C18.1781 2.89297 18.0086 2.73438 17.9867 2.73438C17.9703 2.73438 17.7461 2.89297 17.4945 3.08984C17.243 3.28672 16.9859 3.44531 16.9258 3.44531C16.8656 3.44531 16.5703 3.31953 16.2695 3.16641C15.9688 3.01328 15.5258 2.83828 15.2906 2.77266C14.7328 2.61953 14.6781 2.54297 14.5961 1.84297L14.5305 1.3125H14H13.4695L13.4039 1.84297ZM14.5578 3.58203C14.7328 3.59844 15.0719 3.68047 15.3125 3.76797C16.4172 4.17266 17.3031 5.075 17.7023 6.20703C17.8445 6.61172 17.8555 6.70469 17.8555 7.4375C17.8555 8.18672 17.8445 8.25781 17.6859 8.70078C17.4781 9.29141 17.1117 9.84375 16.6523 10.2703C14.5687 12.2227 11.2602 11.375 10.2922 8.64609C10.1555 8.26875 10.1445 8.15938 10.1445 7.4375C10.1445 6.70469 10.1555 6.61172 10.2977 6.20703C10.7023 5.06953 11.5828 4.17266 12.6984 3.76797C13.1195 3.60938 13.8031 3.5 14.1094 3.53281C14.1859 3.54375 14.3883 3.56563 14.5578 3.58203Z" fill="white"/>
<path d="M12.9828 4.52817C12.0586 4.85083 11.4133 5.49614 11.0906 6.42036C10.9594 6.7977 10.9375 6.95083 10.9375 7.43755C10.9375 8.36176 11.2164 9.02895 11.8727 9.6688C12.1844 9.97505 12.7148 10.2758 13.1742 10.4125C13.6555 10.5547 14.4648 10.5329 14.968 10.3633C15.9086 10.0461 16.5812 9.38442 16.9094 8.45473C17.0406 8.07739 17.0625 7.92426 17.0625 7.43755C17.0625 6.95083 17.0406 6.7977 16.9094 6.42036C16.5867 5.50161 15.9359 4.85083 15.0172 4.52817C14.6398 4.39692 14.4867 4.37504 14 4.37504C13.5133 4.37504 13.3602 4.39692 12.9828 4.52817Z" fill="white"/>
<path d="M13.4257 15.4164C13.1577 15.5422 12.8843 15.8211 12.7749 16.0891C12.6382 16.4062 12.6546 17.7789 12.7913 18.0742C13.01 18.5445 13.4475 18.8125 13.9999 18.8125C14.5522 18.8125 14.9897 18.5445 15.2085 18.0742C15.3561 17.7516 15.3561 16.3734 15.2085 16.0508C15.0827 15.7828 14.8038 15.5094 14.5358 15.4C14.2514 15.2797 13.6991 15.2906 13.4257 15.4164Z" fill="white"/>
<path d="M3.17188 16.2969C3.07344 16.3953 3.0625 16.4773 3.0625 17.1719V17.9375H3.5H3.9375V17.5V17.0625H6.125H8.3125V17.5V17.9375H8.75H9.1875V17.5V17.0625H10.2812H11.375V16.625V16.1875H7.32812C3.35234 16.1875 3.28125 16.1875 3.17188 16.2969Z" fill="white"/>
<path d="M16.625 16.625V17.0625H17.7188H18.8125V17.5V17.9375H19.25H19.6875V17.5V17.0625H21.875H24.0625V17.5V17.9375H24.5H24.9375V17.1719C24.9375 16.4773 24.9266 16.3953 24.8281 16.2969C24.7188 16.1875 24.6477 16.1875 20.6719 16.1875H16.625V16.625Z" fill="white"/>
<path d="M2.92566 19.3539C2.65769 19.4797 2.38425 19.7586 2.27488 20.0266C2.13816 20.3438 2.15457 21.7164 2.29129 22.0117C2.51004 22.482 2.94754 22.75 3.49988 22.75C4.05222 22.75 4.48972 22.482 4.70847 22.0117C4.85613 21.6891 4.85613 20.3109 4.70847 19.9883C4.58269 19.7203 4.30379 19.4469 4.03582 19.3375C3.75144 19.2172 3.1991 19.2281 2.92566 19.3539Z" fill="white"/>
<path d="M8.17566 19.3539C7.90769 19.4797 7.63425 19.7586 7.52488 20.0266C7.38816 20.3438 7.40457 21.7164 7.54129 22.0117C7.76004 22.482 8.19754 22.75 8.74988 22.75C9.30222 22.75 9.73972 22.482 9.95847 22.0117C10.1061 21.6891 10.1061 20.3109 9.95847 19.9883C9.83269 19.7203 9.55379 19.4469 9.28582 19.3375C9.00144 19.2172 8.4491 19.2281 8.17566 19.3539Z" fill="white"/>
<path d="M18.6757 19.3539C18.4077 19.4797 18.1343 19.7586 18.0249 20.0266C17.8882 20.3438 17.9046 21.7164 18.0413 22.0117C18.26 22.482 18.6975 22.75 19.2499 22.75C19.8022 22.75 20.2397 22.482 20.4585 22.0117C20.6061 21.6891 20.6061 20.3109 20.4585 19.9883C20.3327 19.7203 20.0538 19.4469 19.7858 19.3375C19.5014 19.2172 18.9491 19.2281 18.6757 19.3539Z" fill="white"/>
<path d="M23.9257 19.3539C23.6577 19.4797 23.3843 19.7586 23.2749 20.0266C23.1382 20.3438 23.1546 21.7164 23.2913 22.0117C23.51 22.482 23.9475 22.75 24.4999 22.75C25.0522 22.75 25.4897 22.482 25.7085 22.0117C25.8561 21.6891 25.8561 20.3109 25.7085 19.9883C25.5827 19.7203 25.3038 19.4469 25.0358 19.3375C24.7514 19.2172 24.1991 19.2281 23.9257 19.3539Z" fill="white"/>
<path d="M11.7687 19.7969C11.6703 19.857 11.5445 19.9828 11.4844 20.0812C11.3805 20.2508 11.375 20.3602 11.375 21.7219V23.1875H11.8125H12.25V22.0938V21H12.6875H13.125V22.0938V23.1875H14H14.875V22.0938V21H15.3125H15.75V22.0938V23.1875H16.1875H16.625V21.7219C16.625 20.3602 16.6195 20.2508 16.5156 20.0812C16.4555 19.9828 16.3297 19.857 16.2312 19.7969C16.0617 19.693 15.9523 19.6875 14 19.6875C12.0477 19.6875 11.9383 19.693 11.7687 19.7969Z" fill="white"/>
<path d="M1.26875 23.7344C1.17031 23.7945 1.04453 23.9203 0.984375 24.0187C0.880469 24.1883 0.875 24.2977 0.875 25.6594V27.125H1.3125H1.75V26.0312V24.9375H2.1875H2.625V26.0312V27.125H3.5H4.375V26.0312V24.9375H4.8125H5.25V26.0312V27.125H6.125H7V26.0312V24.9375H7.4375H7.875V26.0312V27.125H8.75H9.625V26.0312V24.9375H10.0625H10.5V26.0312V27.125H10.9375H11.375V25.6594C11.375 24.2977 11.3695 24.1883 11.2656 24.0187C11.2055 23.9203 11.0797 23.7945 10.9812 23.7344C10.8117 23.6305 10.7023 23.625 8.75 23.625C6.79219 23.625 6.69375 23.6305 6.51875 23.7344C6.42031 23.7945 6.29453 23.9203 6.24531 24.0078C6.19609 24.0953 6.14141 24.1719 6.125 24.1719C6.10859 24.1719 6.05391 24.0953 6.00469 24.0078C5.95547 23.9203 5.82969 23.7945 5.73125 23.7344C5.55625 23.6305 5.45781 23.625 3.5 23.625C1.54766 23.625 1.43828 23.6305 1.26875 23.7344Z" fill="white"/>
<path d="M17.0187 23.7344C16.9203 23.7945 16.7945 23.9203 16.7344 24.0187C16.6305 24.1883 16.625 24.2977 16.625 25.6594V27.125H17.0625H17.5V26.0312V24.9375H17.9375H18.375V26.0312V27.125H19.25H20.125V26.0312V24.9375H20.5625H21V26.0312V27.125H21.875H22.75V26.0312V24.9375H23.1875H23.625V26.0312V27.125H24.5H25.375V26.0312V24.9375H25.8125H26.25V26.0312V27.125H26.6875H27.125V25.6594C27.125 24.2977 27.1195 24.1883 27.0156 24.0187C26.9555 23.9203 26.8297 23.7945 26.7312 23.7344C26.5617 23.6305 26.4523 23.625 24.5 23.625C22.5422 23.625 22.4437 23.6305 22.2687 23.7344C22.1703 23.7945 22.0445 23.9203 21.9953 24.0078C21.9461 24.0953 21.8914 24.1719 21.875 24.1719C21.8586 24.1719 21.8039 24.0953 21.7547 24.0078C21.7055 23.9203 21.5797 23.7945 21.4812 23.7344C21.3063 23.6305 21.2078 23.625 19.25 23.625C17.2977 23.625 17.1883 23.6305 17.0187 23.7344Z" fill="white"/>
</svg>
