<svg width="14" height="14" viewBox="0 0 14 14" fill="none" xmlns="http://www.w3.org/2000/svg">
<path d="M0.153123 0.0328131C0.164061 0.0492191 1.36445 1.79922 2.82187 3.91836C4.27656 6.0375 5.46875 7.77656 5.46875 7.78203C5.46875 7.7875 0.549608 13.516 0.169529 13.9508C0.131248 13.9973 0.161326 14 0.754686 14H1.38359L3.70781 11.2957L6.03476 8.59414L7.89141 11.2957L9.74805 14H11.807C13.4477 14 13.8633 13.9918 13.8441 13.9645C13.8332 13.948 12.5973 12.1434 11.0961 9.95859C9.59219 7.77383 8.35898 5.97188 8.35078 5.95273C8.33984 5.91992 9.0043 5.14062 12.5152 1.0582L13.4285 0H12.7996H12.1707L9.975 2.55391C8.76641 3.95664 7.77109 5.10234 7.76289 5.09688C7.75469 5.09414 6.96172 3.94297 5.99922 2.5457L4.25195 0H2.19297C0.604295 0 0.139451 0.00820351 0.153123 0.0328131ZM7.80664 6.88242C10.0926 10.1555 12.0094 12.898 12.0668 12.9801L12.1707 13.125H11.2602L10.3496 13.1223L6.19336 7.175C3.90742 3.90195 1.99062 1.15938 1.9332 1.07734L1.82656 0.929688H2.73984L3.65039 0.932422L7.80664 6.88242Z" fill="#02BDD5"/>
</svg>
