<svg width="216" height="120" viewBox="0 0 216 120" fill="none" xmlns="http://www.w3.org/2000/svg">
<path fill-rule="evenodd" clip-rule="evenodd" d="M107 60C123.569 60 137 46.5685 137 30C137 13.4315 123.569 0 107 0C90.4315 0 77 13.4315 77 30C77 46.5685 90.4315 60 107 60ZM94.645 10.0369C94.9296 9.42586 95.2226 9.11615 95.8001 8.83155L96.3107 8.57206H106.992H117.672L118.091 8.77295C118.702 9.05755 119.012 9.35052 119.296 9.92809L119.556 10.4387V18.9264V27.4058H120.778H122L122.234 27.6401C122.402 27.8159 122.485 27.9917 122.519 28.293C122.737 30.0006 123.674 30.9381 125.348 31.1307C125.708 31.1725 125.875 31.2395 126.051 31.4069L126.277 31.6329L126.227 33.4744C126.194 34.7132 126.127 35.6926 126.009 36.4711C125.348 40.7484 123.465 43.5776 120.25 45.0843L119.556 45.4108V47.4867V49.5626L119.296 50.0732C119.012 50.6507 118.702 50.9437 118.091 51.2283L117.672 51.4292H107H96.3275L95.909 51.2283C95.2979 50.9437 94.9882 50.6507 94.7036 50.0732L94.4441 49.5626V41.2004V32.8466H91.6651H88.8944L88.5345 32.6374C88.3169 32.5118 88.0825 32.2774 87.9569 32.0598L87.7477 31.6999V24.0576V16.4153L87.9569 16.0553C88.0825 15.8377 88.3169 15.6033 88.5345 15.4778L88.8944 15.2685H91.6651H94.4441V12.8578C94.4441 10.514 94.4525 10.4471 94.645 10.0369ZM102.664 13.3767C102.103 13.1005 101.793 12.6904 101.099 11.326L100.546 10.2462L98.7717 10.2545C97.7923 10.2545 96.8716 10.2964 96.7293 10.3382C96.1936 10.4973 96.1601 10.6145 96.135 13.067L96.1098 15.2685H100.144H104.179L104.539 15.4778C104.765 15.6117 104.991 15.8461 105.133 16.0888L105.368 16.4822L105.393 19.0771L105.426 21.6719L106.071 22.3416C106.874 23.1619 107 23.3963 107 24.0576C107 24.7188 106.874 24.9532 106.071 25.7735L105.426 26.4432L105.393 29.038L105.368 31.6329L105.133 32.0263C104.991 32.269 104.765 32.5034 104.539 32.6374L104.179 32.8466H100.153H96.1182V39.6267V46.4069H99.8766H103.627L103.853 46.6245C104.162 46.9426 104.162 47.5453 103.853 47.8634L103.627 48.081H99.8598H96.0931L96.135 48.6251C96.1936 49.2947 96.3526 49.5542 96.7795 49.6714C97.0055 49.73 100.312 49.7467 107.184 49.7384L108.302 49.7358H108.302C116.845 49.7164 117.435 49.715 117.639 49.4337C117.654 49.4128 117.667 49.3904 117.681 49.3664L117.681 49.3663L117.681 49.3662C117.691 49.3489 117.702 49.3306 117.714 49.3115C117.773 49.211 117.84 48.9013 117.865 48.6083L117.907 48.081H114.14H110.373L110.147 47.8634C109.838 47.5453 109.838 46.9426 110.147 46.6245L110.373 46.4069H114.123H117.882V46.1725C117.882 45.9549 117.84 45.9298 117.028 45.6703C114.224 44.7579 112.298 43.1926 111.085 40.8321C110.072 38.8734 109.62 36.7138 109.536 33.5163L109.486 31.6329L109.712 31.4069C109.888 31.2395 110.055 31.1725 110.415 31.1307C112.089 30.9381 113.027 30.0006 113.244 28.293C113.278 27.9917 113.362 27.8159 113.529 27.6401L113.763 27.4058H115.822H117.882V19.3031C117.882 13.9376 117.848 11.1 117.79 10.8907C117.639 10.3215 117.513 10.288 115.362 10.2629L113.454 10.2378L112.91 11.3176C112.206 12.6904 111.897 13.1005 111.336 13.3767L110.901 13.5944H107H103.099L102.664 13.3767ZM110.465 11.8282C110.608 11.7612 110.809 11.4766 111.06 10.9911L111.445 10.2462H107H102.555L102.94 10.9911C103.191 11.4766 103.392 11.7612 103.535 11.8282C103.827 11.9621 110.172 11.9621 110.465 11.8282ZM103.652 22.4253V19.6798V16.9426H96.5367H89.4218V24.0576V31.1725H96.5367H103.652V28.4353V25.6898L104.464 24.8779L105.284 24.0576L104.464 23.2372L103.652 22.4253ZM122.142 31.5157C121.556 30.9298 121.046 30.0509 120.928 29.4398L120.878 29.1636H117.882H114.885L114.835 29.4398C114.718 30.0509 114.207 30.9298 113.621 31.5157C113.035 32.1016 112.156 32.6122 111.545 32.7294L111.269 32.7797V33.4744C111.269 34.3952 111.403 35.701 111.604 36.8059C112.29 40.4387 114.14 42.749 117.287 43.8957C117.764 44.0715 117.865 44.0799 118.208 43.9878C118.878 43.812 120.41 43.0084 121.062 42.4811C122.678 41.192 123.766 39.1329 124.201 36.5715C124.377 35.5001 124.494 34.3449 124.494 33.5079V32.7797L124.218 32.7294C123.607 32.6122 122.728 32.1016 122.142 31.5157ZM108.892 15.4859C108.716 15.6617 108.674 15.7872 108.674 16.1053C108.674 16.4234 108.716 16.549 108.892 16.7247L109.118 16.9424H112.441H115.764L115.99 16.7247C116.166 16.549 116.208 16.4234 116.208 16.1053C116.208 15.7872 116.166 15.6617 115.99 15.4859L115.764 15.2683H112.441H109.118L108.892 15.4859ZM108.674 19.454C108.674 19.1359 108.716 19.0103 108.892 18.8345L109.118 18.6169H112.441H115.764L115.99 18.8345C116.166 19.0103 116.208 19.1359 116.208 19.454C116.208 19.772 116.166 19.8976 115.99 20.0734L115.764 20.291H112.441H109.118L108.892 20.0734C108.716 19.8976 108.674 19.772 108.674 19.454ZM98.01 34.7384C97.8342 34.9141 97.7923 35.0397 97.7923 35.3578C97.7923 35.6759 97.8342 35.8014 98.01 35.9772L98.236 36.1948H101.559H104.882L105.108 35.9772C105.284 35.8014 105.326 35.6759 105.326 35.3578C105.326 35.0397 105.284 34.9141 105.108 34.7384L104.882 34.5207H101.559H98.236L98.01 34.7384ZM97.7925 38.7064C97.7925 38.3883 97.8343 38.2628 98.0101 38.087L98.2361 37.8694H101.559H104.882L105.108 38.087C105.284 38.2628 105.326 38.3883 105.326 38.7064C105.326 39.0245 105.284 39.15 105.108 39.3258L104.882 39.5435H101.559H98.2361L98.0101 39.3258C97.8343 39.15 97.7925 39.0245 97.7925 38.7064ZM98.0101 41.4342C97.8343 41.6099 97.7925 41.7355 97.7925 42.0536C97.7925 42.3717 97.8343 42.4972 98.0101 42.673L98.2361 42.8906H101.559H104.882L105.108 42.673C105.284 42.4972 105.326 42.3717 105.326 42.0536C105.326 41.7355 105.284 41.6099 105.108 41.4342L104.882 41.2165H101.559H98.2361L98.0101 41.4342ZM106.163 47.2435C106.163 46.9254 106.205 46.7999 106.381 46.6241C106.556 46.4483 106.682 46.4065 107 46.4065C107.552 46.4065 107.837 46.6911 107.837 47.2435C107.837 47.796 107.552 48.0806 107 48.0806C106.448 48.0806 106.163 47.796 106.163 47.2435ZM95.7081 19.3366C94.6952 20.0146 93.8331 21.2953 93.7159 22.283C93.674 22.6346 93.6405 22.7183 93.5317 22.6848C92.8621 22.5006 91.3386 22.5927 90.9452 22.8522C90.6606 23.0447 90.4932 23.5051 90.4514 24.2668C90.3174 26.4348 91.8074 28.3767 94.0423 28.9459C94.7454 29.1301 98.3029 29.1217 99.0479 28.9376C100.747 28.5274 102.145 27.1546 102.53 25.514C102.781 24.451 102.58 23.1535 102.128 22.8522C101.735 22.5927 100.203 22.5006 99.5334 22.6848C99.4162 22.7183 99.3827 22.6764 99.3827 22.4923C99.3827 21.8477 98.8303 20.7093 98.2192 20.0648C97.1896 18.985 96.52 18.7925 95.7081 19.3366ZM96.9804 21.379C97.4073 21.8477 97.65 22.4588 97.6584 23.0698C97.6668 23.4046 97.6333 23.48 97.4156 23.6474C97.2817 23.7562 97.0222 23.9822 96.8548 24.1664L96.5451 24.4928L96.0764 24.0241C95.8252 23.7646 95.5825 23.5553 95.5406 23.5553C95.3063 23.5553 95.3983 22.4755 95.6746 21.9314C95.8085 21.6636 96.4363 20.9605 96.5367 20.9605C96.5786 20.9605 96.7711 21.153 96.9804 21.379ZM93.1216 24.4007C94.4943 24.6937 95.616 25.8572 95.616 26.9956C95.616 27.3639 95.5406 27.3974 94.8375 27.3053C93.4731 27.1212 92.3347 26.033 92.2092 24.769L92.159 24.3087H92.4184C92.5607 24.3087 92.8788 24.3505 93.1216 24.4007ZM100.864 24.769C100.739 26.033 99.6004 27.1212 98.236 27.3053C97.5328 27.3974 97.4575 27.3639 97.4575 26.9956C97.4575 25.8991 98.5122 24.7523 99.8431 24.4259C100.077 24.3673 100.412 24.317 100.588 24.317L100.915 24.3087L100.864 24.769ZM112.625 34.5536C113.521 33.5827 115.069 32.7875 116.601 32.5112C116.819 32.4694 117.513 32.4526 118.133 32.4694C119.045 32.4861 119.405 32.5363 119.999 32.7121C121.247 33.0804 122.41 33.7584 123.138 34.5536C123.523 34.9722 123.582 35.2651 123.364 35.692C123.205 36.0017 123.004 36.1106 122.594 36.1106C122.326 36.1106 122.184 36.0352 121.774 35.6837C121.079 35.0977 120.468 34.7378 119.681 34.4616C119.079 34.2523 118.903 34.2272 117.882 34.2272C116.86 34.2272 116.685 34.2523 116.082 34.4616C115.362 34.721 114.366 35.2902 114.031 35.6502C113.47 36.2529 112.7 36.278 112.399 35.692C112.181 35.2651 112.24 34.9722 112.625 34.5536ZM116.819 35.8937C115.89 36.1197 114.785 36.8814 114.659 37.392C114.517 37.9612 114.902 38.4551 115.479 38.4551C115.772 38.4551 115.931 38.3965 116.216 38.1789C116.902 37.6515 117.112 37.5762 117.882 37.5762C118.652 37.5762 118.861 37.6515 119.547 38.1789C119.832 38.3965 119.991 38.4551 120.284 38.4551C120.862 38.4551 121.247 37.9612 121.104 37.3837C120.979 36.8647 119.782 36.0695 118.819 35.8686C118.25 35.7514 117.371 35.7598 116.819 35.8937ZM117.664 40.8488C117.028 40.6898 116.81 39.8444 117.287 39.3673C117.48 39.1747 117.605 39.1245 117.882 39.1245C118.392 39.1245 118.719 39.4677 118.719 40.0034C118.719 40.2964 118.668 40.4303 118.518 40.5894C118.275 40.8237 117.965 40.9242 117.664 40.8488Z" fill="#C59402"/>
<mask id="path-2-outside-1_1_118" maskUnits="userSpaceOnUse" x="-2" y="70" width="217" height="44" fill="black">
<rect fill="white" x="-2" y="70" width="217" height="44"/>
<path d="M0.44 104L12.8 76H20.6L33 104H24.76L15.08 79.88H18.2L8.52 104H0.44ZM7.2 98.56L9.24 92.72H22.92L24.96 98.56H7.2ZM46.89 112.12C44.81 112.12 42.8233 111.88 40.93 111.4C39.0633 110.92 37.4633 110.213 36.13 109.28L38.89 103.96C39.7967 104.68 40.9167 105.24 42.25 105.64C43.61 106.067 44.93 106.28 46.21 106.28C48.2633 106.28 49.7433 105.827 50.65 104.92C51.5567 104.04 52.01 102.747 52.01 101.04V98.48L52.41 92.4L52.37 86.28V82.32H59.61V100.04C59.61 104.147 58.5033 107.187 56.29 109.16C54.0767 111.133 50.9433 112.12 46.89 112.12ZM45.57 102.88C43.65 102.88 41.8767 102.453 40.25 101.6C38.65 100.72 37.3567 99.5067 36.37 97.96C35.41 96.3867 34.93 94.5333 34.93 92.4C34.93 90.2667 35.41 88.4267 36.37 86.88C37.3567 85.3067 38.65 84.0933 40.25 83.24C41.8767 82.3867 43.65 81.96 45.57 81.96C47.41 81.96 48.9833 82.3333 50.29 83.08C51.5967 83.8 52.5833 84.9333 53.25 86.48C53.9433 88.0267 54.29 90 54.29 92.4C54.29 94.8 53.9433 96.7733 53.25 98.32C52.5833 99.8667 51.5967 101.013 50.29 101.76C48.9833 102.507 47.41 102.88 45.57 102.88ZM47.37 96.84C48.2767 96.84 49.0767 96.6533 49.77 96.28C50.49 95.9067 51.05 95.3867 51.45 94.72C51.8767 94.0533 52.09 93.28 52.09 92.4C52.09 91.52 51.8767 90.7467 51.45 90.08C51.05 89.4133 50.49 88.9067 49.77 88.56C49.0767 88.1867 48.2767 88 47.37 88C46.4633 88 45.65 88.1867 44.93 88.56C44.21 88.9067 43.6367 89.4133 43.21 90.08C42.81 90.7467 42.61 91.52 42.61 92.4C42.61 93.28 42.81 94.0533 43.21 94.72C43.6367 95.3867 44.21 95.9067 44.93 96.28C45.65 96.6533 46.4633 96.84 47.37 96.84ZM66.0931 104V82.32H73.3331V88.64L72.2531 86.84C72.8931 85.2133 73.9331 84 75.3731 83.2C76.8131 82.3733 78.5598 81.96 80.6131 81.96V88.8C80.2665 88.7467 79.9598 88.72 79.6931 88.72C79.4531 88.6933 79.1865 88.68 78.8931 88.68C77.3465 88.68 76.0931 89.1067 75.1331 89.96C74.1731 90.7867 73.6931 92.1467 73.6931 94.04V104H66.0931ZM85.3494 104V82.32H92.9494V104H85.3494ZM89.1494 79.92C87.7627 79.92 86.6427 79.5333 85.7894 78.76C84.936 77.9867 84.5094 77.0267 84.5094 75.88C84.5094 74.7333 84.936 73.7733 85.7894 73C86.6427 72.2267 87.7627 71.84 89.1494 71.84C90.536 71.84 91.656 72.2133 92.5094 72.96C93.3627 73.68 93.7894 74.6133 93.7894 75.76C93.7894 76.96 93.3627 77.96 92.5094 78.76C91.6827 79.5333 90.5627 79.92 89.1494 79.92ZM119.049 104V82.28H110.449V76H135.529V82.28H126.969V104H119.049ZM148.892 104.36C146.332 104.36 144.092 103.88 142.172 102.92C140.279 101.933 138.799 100.6 137.732 98.92C136.692 97.2133 136.172 95.28 136.172 93.12C136.172 90.96 136.679 89.04 137.692 87.36C138.732 85.6533 140.159 84.3333 141.972 83.4C143.786 82.44 145.826 81.96 148.092 81.96C150.226 81.96 152.172 82.4 153.932 83.28C155.692 84.1333 157.092 85.4 158.132 87.08C159.172 88.76 159.692 90.8 159.692 93.2C159.692 93.4667 159.679 93.7733 159.652 94.12C159.626 94.4667 159.599 94.7867 159.572 95.08H142.412V91.08H155.532L152.652 92.2C152.679 91.2133 152.492 90.36 152.092 89.64C151.719 88.92 151.186 88.36 150.492 87.96C149.826 87.56 149.039 87.36 148.132 87.36C147.226 87.36 146.426 87.56 145.732 87.96C145.066 88.36 144.546 88.9333 144.172 89.68C143.799 90.4 143.612 91.2533 143.612 92.24V93.4C143.612 94.4667 143.826 95.3867 144.252 96.16C144.706 96.9333 145.346 97.5333 146.172 97.96C146.999 98.36 147.986 98.56 149.132 98.56C150.199 98.56 151.106 98.4133 151.852 98.12C152.626 97.8 153.386 97.32 154.132 96.68L158.132 100.84C157.092 101.987 155.812 102.867 154.292 103.48C152.772 104.067 150.972 104.36 148.892 104.36ZM175.876 104.36C173.476 104.36 171.33 103.88 169.436 102.92C167.57 101.96 166.103 100.64 165.036 98.96C163.97 97.2533 163.436 95.3067 163.436 93.12C163.436 90.9333 163.97 89 165.036 87.32C166.103 85.64 167.57 84.3333 169.436 83.4C171.33 82.44 173.476 81.96 175.876 81.96C178.33 81.96 180.45 82.48 182.236 83.52C184.023 84.56 185.29 86.0267 186.036 87.92L180.156 90.92C179.65 89.9067 179.023 89.1733 178.276 88.72C177.53 88.24 176.716 88 175.836 88C174.956 88 174.156 88.2 173.436 88.6C172.716 89 172.143 89.5867 171.716 90.36C171.316 91.1067 171.116 92.0267 171.116 93.12C171.116 94.24 171.316 95.1867 171.716 95.96C172.143 96.7333 172.716 97.32 173.436 97.72C174.156 98.12 174.956 98.32 175.836 98.32C176.716 98.32 177.53 98.0933 178.276 97.64C179.023 97.16 179.65 96.4133 180.156 95.4L186.036 98.4C185.29 100.293 184.023 101.76 182.236 102.8C180.45 103.84 178.33 104.36 175.876 104.36ZM204.54 81.96C206.22 81.96 207.74 82.3067 209.1 83C210.46 83.6667 211.526 84.7067 212.3 86.12C213.1 87.5333 213.5 89.36 213.5 91.6V104H205.9V92.84C205.9 91.2933 205.58 90.1733 204.94 89.48C204.326 88.76 203.46 88.4 202.34 88.4C201.54 88.4 200.806 88.5867 200.14 88.96C199.473 89.3067 198.953 89.8533 198.58 90.6C198.206 91.3467 198.02 92.32 198.02 93.52V104H190.42V74.32H198.02V88.48L196.26 86.68C197.086 85.1067 198.22 83.9333 199.66 83.16C201.1 82.36 202.726 81.96 204.54 81.96Z"/>
</mask>
<path d="M0.44 104L12.8 76H20.6L33 104H24.76L15.08 79.88H18.2L8.52 104H0.44ZM7.2 98.56L9.24 92.72H22.92L24.96 98.56H7.2ZM46.89 112.12C44.81 112.12 42.8233 111.88 40.93 111.4C39.0633 110.92 37.4633 110.213 36.13 109.28L38.89 103.96C39.7967 104.68 40.9167 105.24 42.25 105.64C43.61 106.067 44.93 106.28 46.21 106.28C48.2633 106.28 49.7433 105.827 50.65 104.92C51.5567 104.04 52.01 102.747 52.01 101.04V98.48L52.41 92.4L52.37 86.28V82.32H59.61V100.04C59.61 104.147 58.5033 107.187 56.29 109.16C54.0767 111.133 50.9433 112.12 46.89 112.12ZM45.57 102.88C43.65 102.88 41.8767 102.453 40.25 101.6C38.65 100.72 37.3567 99.5067 36.37 97.96C35.41 96.3867 34.93 94.5333 34.93 92.4C34.93 90.2667 35.41 88.4267 36.37 86.88C37.3567 85.3067 38.65 84.0933 40.25 83.24C41.8767 82.3867 43.65 81.96 45.57 81.96C47.41 81.96 48.9833 82.3333 50.29 83.08C51.5967 83.8 52.5833 84.9333 53.25 86.48C53.9433 88.0267 54.29 90 54.29 92.4C54.29 94.8 53.9433 96.7733 53.25 98.32C52.5833 99.8667 51.5967 101.013 50.29 101.76C48.9833 102.507 47.41 102.88 45.57 102.88ZM47.37 96.84C48.2767 96.84 49.0767 96.6533 49.77 96.28C50.49 95.9067 51.05 95.3867 51.45 94.72C51.8767 94.0533 52.09 93.28 52.09 92.4C52.09 91.52 51.8767 90.7467 51.45 90.08C51.05 89.4133 50.49 88.9067 49.77 88.56C49.0767 88.1867 48.2767 88 47.37 88C46.4633 88 45.65 88.1867 44.93 88.56C44.21 88.9067 43.6367 89.4133 43.21 90.08C42.81 90.7467 42.61 91.52 42.61 92.4C42.61 93.28 42.81 94.0533 43.21 94.72C43.6367 95.3867 44.21 95.9067 44.93 96.28C45.65 96.6533 46.4633 96.84 47.37 96.84ZM66.0931 104V82.32H73.3331V88.64L72.2531 86.84C72.8931 85.2133 73.9331 84 75.3731 83.2C76.8131 82.3733 78.5598 81.96 80.6131 81.96V88.8C80.2665 88.7467 79.9598 88.72 79.6931 88.72C79.4531 88.6933 79.1865 88.68 78.8931 88.68C77.3465 88.68 76.0931 89.1067 75.1331 89.96C74.1731 90.7867 73.6931 92.1467 73.6931 94.04V104H66.0931ZM85.3494 104V82.32H92.9494V104H85.3494ZM89.1494 79.92C87.7627 79.92 86.6427 79.5333 85.7894 78.76C84.936 77.9867 84.5094 77.0267 84.5094 75.88C84.5094 74.7333 84.936 73.7733 85.7894 73C86.6427 72.2267 87.7627 71.84 89.1494 71.84C90.536 71.84 91.656 72.2133 92.5094 72.96C93.3627 73.68 93.7894 74.6133 93.7894 75.76C93.7894 76.96 93.3627 77.96 92.5094 78.76C91.6827 79.5333 90.5627 79.92 89.1494 79.92ZM119.049 104V82.28H110.449V76H135.529V82.28H126.969V104H119.049ZM148.892 104.36C146.332 104.36 144.092 103.88 142.172 102.92C140.279 101.933 138.799 100.6 137.732 98.92C136.692 97.2133 136.172 95.28 136.172 93.12C136.172 90.96 136.679 89.04 137.692 87.36C138.732 85.6533 140.159 84.3333 141.972 83.4C143.786 82.44 145.826 81.96 148.092 81.96C150.226 81.96 152.172 82.4 153.932 83.28C155.692 84.1333 157.092 85.4 158.132 87.08C159.172 88.76 159.692 90.8 159.692 93.2C159.692 93.4667 159.679 93.7733 159.652 94.12C159.626 94.4667 159.599 94.7867 159.572 95.08H142.412V91.08H155.532L152.652 92.2C152.679 91.2133 152.492 90.36 152.092 89.64C151.719 88.92 151.186 88.36 150.492 87.96C149.826 87.56 149.039 87.36 148.132 87.36C147.226 87.36 146.426 87.56 145.732 87.96C145.066 88.36 144.546 88.9333 144.172 89.68C143.799 90.4 143.612 91.2533 143.612 92.24V93.4C143.612 94.4667 143.826 95.3867 144.252 96.16C144.706 96.9333 145.346 97.5333 146.172 97.96C146.999 98.36 147.986 98.56 149.132 98.56C150.199 98.56 151.106 98.4133 151.852 98.12C152.626 97.8 153.386 97.32 154.132 96.68L158.132 100.84C157.092 101.987 155.812 102.867 154.292 103.48C152.772 104.067 150.972 104.36 148.892 104.36ZM175.876 104.36C173.476 104.36 171.33 103.88 169.436 102.92C167.57 101.96 166.103 100.64 165.036 98.96C163.97 97.2533 163.436 95.3067 163.436 93.12C163.436 90.9333 163.97 89 165.036 87.32C166.103 85.64 167.57 84.3333 169.436 83.4C171.33 82.44 173.476 81.96 175.876 81.96C178.33 81.96 180.45 82.48 182.236 83.52C184.023 84.56 185.29 86.0267 186.036 87.92L180.156 90.92C179.65 89.9067 179.023 89.1733 178.276 88.72C177.53 88.24 176.716 88 175.836 88C174.956 88 174.156 88.2 173.436 88.6C172.716 89 172.143 89.5867 171.716 90.36C171.316 91.1067 171.116 92.0267 171.116 93.12C171.116 94.24 171.316 95.1867 171.716 95.96C172.143 96.7333 172.716 97.32 173.436 97.72C174.156 98.12 174.956 98.32 175.836 98.32C176.716 98.32 177.53 98.0933 178.276 97.64C179.023 97.16 179.65 96.4133 180.156 95.4L186.036 98.4C185.29 100.293 184.023 101.76 182.236 102.8C180.45 103.84 178.33 104.36 175.876 104.36ZM204.54 81.96C206.22 81.96 207.74 82.3067 209.1 83C210.46 83.6667 211.526 84.7067 212.3 86.12C213.1 87.5333 213.5 89.36 213.5 91.6V104H205.9V92.84C205.9 91.2933 205.58 90.1733 204.94 89.48C204.326 88.76 203.46 88.4 202.34 88.4C201.54 88.4 200.806 88.5867 200.14 88.96C199.473 89.3067 198.953 89.8533 198.58 90.6C198.206 91.3467 198.02 92.32 198.02 93.52V104H190.42V74.32H198.02V88.48L196.26 86.68C197.086 85.1067 198.22 83.9333 199.66 83.16C201.1 82.36 202.726 81.96 204.54 81.96Z" fill="#C59402"/>
<path d="M0.44 104L-0.474833 103.596L-1.09452 105H0.44V104ZM12.8 76V75H12.1483L11.8852 75.5962L12.8 76ZM20.6 76L21.5143 75.5951L21.2508 75H20.6V76ZM33 104V105H34.5365L33.9143 103.595L33 104ZM24.76 104L23.8319 104.372L24.0838 105H24.76V104ZM15.08 79.88V78.88H13.6011L14.1519 80.2525L15.08 79.88ZM18.2 79.88L19.1281 80.2525L19.6789 78.88H18.2V79.88ZM8.52 104V105H9.1962L9.44805 104.372L8.52 104ZM7.2 98.56L6.25594 98.2302L5.79143 99.56H7.2V98.56ZM9.24 92.72V91.72H8.53006L8.29594 92.3902L9.24 92.72ZM22.92 92.72L23.8641 92.3902L23.6299 91.72H22.92V92.72ZM24.96 98.56V99.56H26.3686L25.9041 98.2302L24.96 98.56ZM1.35483 104.404L13.7148 76.4038L11.8852 75.5962L-0.474833 103.596L1.35483 104.404ZM12.8 77H20.6V75H12.8V77ZM19.6857 76.4049L32.0857 104.405L33.9143 103.595L21.5143 75.5951L19.6857 76.4049ZM33 103H24.76V105H33V103ZM25.6881 103.628L16.0081 79.5075L14.1519 80.2525L23.8319 104.372L25.6881 103.628ZM15.08 80.88H18.2V78.88H15.08V80.88ZM17.2719 79.5075L7.59195 103.628L9.44805 104.372L19.1281 80.2525L17.2719 79.5075ZM8.52 103H0.44V105H8.52V103ZM8.14406 98.8898L10.1841 93.0498L8.29594 92.3902L6.25594 98.2302L8.14406 98.8898ZM9.24 93.72H22.92V91.72H9.24V93.72ZM21.9759 93.0498L24.0159 98.8898L25.9041 98.2302L23.8641 92.3902L21.9759 93.0498ZM24.96 97.56H7.2V99.56H24.96V97.56ZM40.93 111.4L40.681 112.368L40.6843 112.369L40.93 111.4ZM36.13 109.28L35.2423 108.819L34.839 109.597L35.5565 110.099L36.13 109.28ZM38.89 103.96L39.5119 103.177L38.5613 102.422L38.0023 103.499L38.89 103.96ZM42.25 105.64L42.5494 104.686L42.5373 104.682L42.25 105.64ZM50.65 104.92L49.9535 104.202L49.9482 104.208L49.9429 104.213L50.65 104.92ZM52.01 98.48L51.0122 98.4144L51.01 98.4471V98.48H52.01ZM52.41 92.4L53.4078 92.4656L53.4102 92.4296L53.41 92.3935L52.41 92.4ZM52.37 86.28H51.37L51.37 86.2865L52.37 86.28ZM52.37 82.32V81.32H51.37V82.32H52.37ZM59.61 82.32H60.61V81.32H59.61V82.32ZM56.29 109.16L56.9555 109.906L56.29 109.16ZM40.25 101.6L39.7681 102.476L39.7767 102.481L39.7854 102.486L40.25 101.6ZM36.37 97.96L35.5164 98.4809L35.5216 98.4894L35.5269 98.4978L36.37 97.96ZM36.37 86.88L35.5228 86.3487L35.5204 86.3526L36.37 86.88ZM40.25 83.24L39.7854 82.3544L39.7794 82.3576L40.25 83.24ZM50.29 83.08L49.7939 83.9482L49.8006 83.9521L49.8074 83.9558L50.29 83.08ZM53.25 86.48L52.3317 86.8758L52.3345 86.8825L52.3375 86.8891L53.25 86.48ZM53.25 98.32L52.3375 97.9109L52.3345 97.9175L52.3317 97.9242L53.25 98.32ZM50.29 101.76L50.7861 102.628L50.29 101.76ZM49.77 96.28L49.3097 95.3922L49.3028 95.3958L49.2959 95.3995L49.77 96.28ZM51.45 94.72L50.6077 94.1809L50.5999 94.1931L50.5925 94.2055L51.45 94.72ZM51.45 90.08L50.5925 90.5945L50.5999 90.6069L50.6077 90.6191L51.45 90.08ZM49.77 88.56L49.2959 89.4405L49.3158 89.4512L49.3362 89.461L49.77 88.56ZM44.93 88.56L45.3638 89.461L45.3772 89.4546L45.3903 89.4478L44.93 88.56ZM43.21 90.08L42.3677 89.5409L42.3599 89.5531L42.3525 89.5655L43.21 90.08ZM43.21 94.72L42.3525 95.2345L42.3599 95.2469L42.3677 95.2591L43.21 94.72ZM44.93 96.28L44.4697 97.1678L44.93 96.28ZM46.89 111.12C44.8875 111.12 42.9837 110.889 41.1757 110.431L40.6843 112.369C42.6629 112.871 44.7325 113.12 46.89 113.12V111.12ZM41.179 110.432C39.4077 109.976 37.9222 109.314 36.7035 108.461L35.5565 110.099C37.0045 111.113 38.719 111.864 40.681 112.368L41.179 110.432ZM37.0177 109.741L39.7777 104.421L38.0023 103.499L35.2423 108.819L37.0177 109.741ZM38.2681 104.743C39.2921 105.556 40.5317 106.169 41.9627 106.598L42.5373 104.682C41.3016 104.311 40.3012 103.804 39.5119 103.177L38.2681 104.743ZM41.9507 106.594C43.3967 107.048 44.8177 107.28 46.21 107.28V105.28C45.0423 105.28 43.8233 105.086 42.5493 104.686L41.9507 106.594ZM46.21 107.28C48.3751 107.28 50.1768 106.807 51.3571 105.627L49.9429 104.213C49.3098 104.846 48.1515 105.28 46.21 105.28V107.28ZM51.3465 105.638C52.5077 104.51 53.01 102.919 53.01 101.04H51.01C51.01 102.574 50.6056 103.57 49.9535 104.202L51.3465 105.638ZM53.01 101.04V98.48H51.01V101.04H53.01ZM53.0078 98.5456L53.4078 92.4656L51.4122 92.3344L51.0122 98.4144L53.0078 98.5456ZM53.41 92.3935L53.37 86.2735L51.37 86.2865L51.41 92.4065L53.41 92.3935ZM53.37 86.28V82.32H51.37V86.28H53.37ZM52.37 83.32H59.61V81.32H52.37V83.32ZM58.61 82.32V100.04H60.61V82.32H58.61ZM58.61 100.04C58.61 103.975 57.5527 106.694 55.6245 108.414L56.9555 109.906C59.454 107.679 60.61 104.318 60.61 100.04H58.61ZM55.6245 108.414C53.6523 110.172 50.7886 111.12 46.89 111.12V113.12C51.0981 113.12 54.501 112.095 56.9555 109.906L55.6245 108.414ZM45.57 101.88C43.8043 101.88 42.1914 101.489 40.7146 100.714L39.7854 102.486C41.562 103.417 43.4957 103.88 45.57 103.88V101.88ZM40.7319 100.724C39.2795 99.9249 38.11 98.8283 37.2131 97.4222L35.5269 98.4978C36.6033 100.185 38.0205 101.515 39.7681 102.476L40.7319 100.724ZM37.2236 97.4391C36.3736 96.046 35.93 94.379 35.93 92.4H33.93C33.93 94.6877 34.4464 96.7273 35.5164 98.4809L37.2236 97.4391ZM35.93 92.4C35.93 90.4205 36.3738 88.7702 37.2196 87.4074L35.5204 86.3526C34.4462 88.0832 33.93 90.1128 33.93 92.4H35.93ZM37.2172 87.4113C38.1135 85.9821 39.2785 84.8915 40.7206 84.1224L39.7794 82.3576C38.0215 83.2952 36.5999 84.6312 35.5228 86.3487L37.2172 87.4113ZM40.7145 84.1255C42.1914 83.3508 43.8043 82.96 45.57 82.96V80.96C43.4957 80.96 41.562 81.4225 39.7854 82.3545L40.7145 84.1255ZM45.57 82.96C47.2745 82.96 48.6685 83.3052 49.7939 83.9482L50.7861 82.2118C49.2981 81.3615 47.5455 80.96 45.57 80.96V82.96ZM49.8074 83.9558C50.8947 84.555 51.741 85.5054 52.3317 86.8758L54.1683 86.0842C53.4257 84.3612 52.2986 83.045 50.7726 82.2042L49.8074 83.9558ZM52.3375 86.8891C52.9544 88.2652 53.29 90.0865 53.29 92.4H55.29C55.29 89.9135 54.9323 87.7881 54.1625 86.0709L52.3375 86.8891ZM53.29 92.4C53.29 94.7135 52.9544 96.5348 52.3375 97.9109L54.1625 98.7291C54.9323 97.0119 55.29 94.8865 55.29 92.4H53.29ZM52.3317 97.9242C51.7401 99.2967 50.89 100.265 49.7939 100.892L50.7861 102.628C52.3033 101.761 53.4266 100.437 54.1683 98.7158L52.3317 97.9242ZM49.7939 100.892C48.6685 101.535 47.2745 101.88 45.57 101.88V103.88C47.5455 103.88 49.2981 103.479 50.7861 102.628L49.7939 100.892ZM47.37 97.84C48.4169 97.84 49.3843 97.6234 50.2441 97.1605L49.2959 95.3995C48.769 95.6832 48.1364 95.84 47.37 95.84V97.84ZM50.2303 97.1678C51.1073 96.713 51.808 96.067 52.3075 95.2345L50.5925 94.2055C50.292 94.7063 49.8727 95.1003 49.3097 95.3922L50.2303 97.1678ZM52.2923 95.2591C52.8332 94.4138 53.09 93.449 53.09 92.4H51.09C51.09 93.111 50.9201 93.6928 50.6077 94.1809L52.2923 95.2591ZM53.09 92.4C53.09 91.351 52.8332 90.3862 52.2923 89.5409L50.6077 90.6191C50.9201 91.1071 51.09 91.689 51.09 92.4H53.09ZM52.3075 89.5655C51.8041 88.7265 51.0946 88.0879 50.2038 87.659L49.3362 89.461C49.8854 89.7255 50.2959 90.1001 50.5925 90.5945L52.3075 89.5655ZM50.2441 87.6795C49.3843 87.2166 48.4169 87 47.37 87V89C48.1364 89 48.769 89.1568 49.2959 89.4405L50.2441 87.6795ZM47.37 87C46.3223 87 45.348 87.2168 44.4697 87.6722L45.3903 89.4478C45.952 89.1565 46.6044 89 47.37 89V87ZM44.4962 87.659C43.6108 88.0853 42.8954 88.7165 42.3677 89.5409L44.0523 90.6191C44.378 90.1102 44.8092 89.728 45.3638 89.461L44.4962 87.659ZM42.3525 89.5655C41.8474 90.4073 41.61 91.3632 41.61 92.4H43.61C43.61 91.6768 43.7726 91.086 44.0675 90.5945L42.3525 89.5655ZM41.61 92.4C41.61 93.4368 41.8474 94.3927 42.3525 95.2345L44.0675 94.2055C43.7726 93.714 43.61 93.1232 43.61 92.4H41.61ZM42.3677 95.2591C42.8913 96.0772 43.598 96.7158 44.4697 97.1678L45.3903 95.3922C44.822 95.0976 44.382 94.6961 44.0523 94.1809L42.3677 95.2591ZM44.4697 97.1678C45.348 97.6232 46.3223 97.84 47.37 97.84V95.84C46.6044 95.84 45.952 95.6835 45.3903 95.3922L44.4697 97.1678ZM66.0931 104H65.0931V105H66.0931V104ZM66.0931 82.32V81.32H65.0931V82.32H66.0931ZM73.3331 82.32H74.3331V81.32H73.3331V82.32ZM73.3331 88.64L72.4756 89.1545L74.3331 92.2503V88.64H73.3331ZM72.2531 86.84L71.3226 86.4739L71.1422 86.9322L71.3956 87.3545L72.2531 86.84ZM75.3731 83.2L75.8588 84.0742L75.871 84.0673L75.3731 83.2ZM80.6131 81.96H81.6131V80.96H80.6131V81.96ZM80.6131 88.8L80.4611 89.7884L81.6131 89.9656V88.8H80.6131ZM79.6931 88.72L79.5827 89.7139L79.6377 89.72H79.6931V88.72ZM75.1331 89.96L75.7857 90.7178L75.7916 90.7126L75.7975 90.7074L75.1331 89.96ZM73.6931 104V105H74.6931V104H73.6931ZM67.0931 104V82.32H65.0931V104H67.0931ZM66.0931 83.32H73.3331V81.32H66.0931V83.32ZM72.3331 82.32V88.64H74.3331V82.32H72.3331ZM74.1906 88.1255L73.1106 86.3255L71.3956 87.3545L72.4756 89.1545L74.1906 88.1255ZM73.1837 87.2061C73.7444 85.781 74.6345 84.7543 75.8588 84.0742L74.8875 82.3258C73.2318 83.2457 72.0419 84.6456 71.3226 86.4739L73.1837 87.2061ZM75.871 84.0673C77.1275 83.3459 78.6935 82.96 80.6131 82.96V80.96C78.4261 80.96 76.4987 81.4008 74.8753 82.3327L75.871 84.0673ZM79.6131 81.96V88.8H81.6131V81.96H79.6131ZM80.7652 87.8116C80.3829 87.7528 80.0237 87.72 79.6931 87.72V89.72C79.8959 89.72 80.15 89.7405 80.4611 89.7884L80.7652 87.8116ZM79.8036 87.7261C79.5201 87.6946 79.2158 87.68 78.8931 87.68V89.68C79.1571 89.68 79.3861 89.692 79.5827 89.7139L79.8036 87.7261ZM78.8931 87.68C77.1541 87.68 75.6476 88.1647 74.4688 89.2126L75.7975 90.7074C76.5387 90.0486 77.5388 89.68 78.8931 89.68V87.68ZM74.4806 89.2022C73.2093 90.2969 72.6931 92.0015 72.6931 94.04H74.6931C74.6931 92.2919 75.1369 91.2764 75.7857 90.7178L74.4806 89.2022ZM72.6931 94.04V104H74.6931V94.04H72.6931ZM73.6931 103H66.0931V105H73.6931V103ZM85.3494 104H84.3494V105H85.3494V104ZM85.3494 82.32V81.32H84.3494V82.32H85.3494ZM92.9494 82.32H93.9494V81.32H92.9494V82.32ZM92.9494 104V105H93.9494V104H92.9494ZM85.7894 78.76L86.4609 78.019L85.7894 78.76ZM85.7894 73L86.4609 73.741L85.7894 73ZM92.5094 72.96L91.8509 73.7126L91.8576 73.7185L91.8645 73.7243L92.5094 72.96ZM92.5094 78.76L93.1925 79.4903L93.1933 79.4895L92.5094 78.76ZM86.3494 104V82.32H84.3494V104H86.3494ZM85.3494 83.32H92.9494V81.32H85.3494V83.32ZM91.9494 82.32V104H93.9494V82.32H91.9494ZM92.9494 103H85.3494V105H92.9494V103ZM89.1494 78.92C87.9576 78.92 87.0942 78.593 86.4609 78.019L85.1179 79.501C86.1912 80.4737 87.5679 80.92 89.1494 80.92V78.92ZM86.4609 78.019C85.8157 77.4343 85.5094 76.743 85.5094 75.88H83.5094C83.5094 77.3103 84.0564 78.539 85.1179 79.501L86.4609 78.019ZM85.5094 75.88C85.5094 75.017 85.8157 74.3257 86.4609 73.741L85.1179 72.259C84.0564 73.221 83.5094 74.4497 83.5094 75.88H85.5094ZM86.4609 73.741C87.0942 73.167 87.9576 72.84 89.1494 72.84V70.84C87.5679 70.84 86.1912 71.2863 85.1179 72.259L86.4609 73.741ZM89.1494 72.84C90.3501 72.84 91.2182 73.159 91.8509 73.7126L93.1679 72.2074C92.0939 71.2677 90.7219 70.84 89.1494 70.84V72.84ZM91.8645 73.7243C92.4857 74.2485 92.7894 74.8988 92.7894 75.76H94.7894C94.7894 74.3279 94.2397 73.1115 93.1543 72.1957L91.8645 73.7243ZM92.7894 75.76C92.7894 76.6917 92.4713 77.425 91.8254 78.0305L93.1933 79.4895C94.2541 78.495 94.7894 77.2283 94.7894 75.76H92.7894ZM91.8262 78.0297C91.2279 78.5894 90.375 78.92 89.1494 78.92V80.92C90.7505 80.92 92.1375 80.4772 93.1925 79.4903L91.8262 78.0297ZM119.049 104H118.049V105H119.049V104ZM119.049 82.28H120.049V81.28H119.049V82.28ZM110.449 82.28H109.449V83.28H110.449V82.28ZM110.449 76V75H109.449V76H110.449ZM135.529 76H136.529V75H135.529V76ZM135.529 82.28V83.28H136.529V82.28H135.529ZM126.969 82.28V81.28H125.969V82.28H126.969ZM126.969 104V105H127.969V104H126.969ZM120.049 104V82.28H118.049V104H120.049ZM119.049 81.28H110.449V83.28H119.049V81.28ZM111.449 82.28V76H109.449V82.28H111.449ZM110.449 77H135.529V75H110.449V77ZM134.529 76V82.28H136.529V76H134.529ZM135.529 81.28H126.969V83.28H135.529V81.28ZM125.969 82.28V104H127.969V82.28H125.969ZM126.969 103H119.049V105H126.969V103ZM142.172 102.92L141.71 103.807L141.717 103.811L141.725 103.814L142.172 102.92ZM137.732 98.92L136.878 99.4404L136.883 99.4482L136.888 99.456L137.732 98.92ZM137.692 87.36L136.838 86.8396L136.836 86.8435L137.692 87.36ZM141.972 83.4L142.43 84.2892L142.44 84.2838L141.972 83.4ZM153.932 83.28L153.485 84.1745L153.496 84.1798L153.932 83.28ZM158.132 87.08L158.982 86.5536V86.5536L158.132 87.08ZM159.652 94.12L160.649 94.1967L159.652 94.12ZM159.572 95.08V96.08H160.485L160.568 95.1705L159.572 95.08ZM142.412 95.08H141.412V96.08H142.412V95.08ZM142.412 91.08V90.08H141.412V91.08H142.412ZM155.532 91.08L155.895 92.012L155.532 90.08V91.08ZM152.652 92.2L151.653 92.173L151.612 93.6775L153.015 93.132L152.652 92.2ZM152.092 89.64L151.204 90.1003L151.211 90.1131L151.218 90.1256L152.092 89.64ZM150.492 87.96L149.978 88.8175L149.985 88.8219L149.992 88.8262L150.492 87.96ZM145.732 87.96L145.232 87.0938L145.225 87.0981L145.218 87.1025L145.732 87.96ZM144.172 89.68L145.06 90.1403L145.063 90.1338L145.067 90.1272L144.172 89.68ZM144.252 96.16L143.377 96.6431L143.383 96.6545L143.389 96.6657L144.252 96.16ZM146.172 97.96L145.714 98.8486L145.725 98.8545L145.737 98.8602L146.172 97.96ZM151.852 98.12L152.218 99.0508L152.226 99.0475L152.235 99.044L151.852 98.12ZM154.132 96.68L154.853 95.9869L154.198 95.3061L153.481 95.9207L154.132 96.68ZM158.132 100.84L158.873 101.512L159.5 100.82L158.853 100.147L158.132 100.84ZM154.292 103.48L154.652 104.413L154.659 104.41L154.666 104.407L154.292 103.48ZM148.892 103.36C146.458 103.36 144.376 102.904 142.619 102.026L141.725 103.814C143.808 104.856 146.207 105.36 148.892 105.36V103.36ZM142.634 102.033C140.885 101.122 139.542 99.9047 138.576 98.384L136.888 99.456C138.056 101.295 139.672 102.745 141.71 103.807L142.634 102.033ZM138.586 98.3996C137.649 96.8624 137.172 95.1118 137.172 93.12H135.172C135.172 95.4482 135.735 97.5643 136.878 99.4404L138.586 98.3996ZM137.172 93.12C137.172 91.1231 137.639 89.3852 138.548 87.8765L136.836 86.8435C135.719 88.6948 135.172 90.7969 135.172 93.12H137.172ZM138.546 87.8804C139.488 86.3341 140.776 85.1401 142.43 84.2891L141.515 82.5109C139.541 83.5265 137.976 84.9726 136.838 86.8396L138.546 87.8804ZM142.44 84.2838C144.095 83.4079 145.971 82.96 148.092 82.96V80.96C145.68 80.96 143.476 81.4721 141.504 82.5162L142.44 84.2838ZM148.092 82.96C150.084 82.96 151.875 83.3696 153.485 84.1744L154.379 82.3856C152.469 81.4304 150.367 80.96 148.092 80.96V82.96ZM153.496 84.1798C155.083 84.9495 156.341 86.0858 157.282 87.6064L158.982 86.5536C157.844 84.7142 156.301 83.3171 154.368 82.3802L153.496 84.1798ZM157.282 87.6064C158.205 89.0973 158.692 90.9459 158.692 93.2H160.692C160.692 90.6541 160.139 88.4227 158.982 86.5536L157.282 87.6064ZM158.692 93.2C158.692 93.4348 158.68 93.715 158.655 94.0433L160.649 94.1967C160.677 93.8317 160.692 93.4986 160.692 93.2H158.692ZM158.655 94.0433C158.629 94.3862 158.602 94.7015 158.576 94.9895L160.568 95.1705C160.595 94.8719 160.622 94.5472 160.649 94.1967L158.655 94.0433ZM159.572 94.08H142.412V96.08H159.572V94.08ZM143.412 95.08V91.08H141.412V95.08H143.412ZM142.412 92.08H155.532V90.08H142.412V92.08ZM155.17 90.148L152.29 91.268L153.015 93.132L155.895 92.012L155.17 90.148ZM153.652 92.227C153.682 91.097 153.469 90.0594 152.966 89.1544L151.218 90.1256C151.515 90.6606 151.675 91.3297 151.653 92.173L153.652 92.227ZM152.98 89.1797C152.52 88.2925 151.853 87.5906 150.992 87.0938L149.992 88.8262C150.518 89.1294 150.918 89.5475 151.204 90.1003L152.98 89.1797ZM151.007 87.1025C150.16 86.5947 149.19 86.36 148.132 86.36V88.36C148.888 88.36 149.491 88.5253 149.978 88.8175L151.007 87.1025ZM148.132 86.36C147.074 86.36 146.097 86.595 145.232 87.0938L146.232 88.8262C146.754 88.525 147.377 88.36 148.132 88.36V86.36ZM145.218 87.1025C144.376 87.6076 143.73 88.3291 143.278 89.2328L145.067 90.1272C145.361 89.5376 145.755 89.1124 146.247 88.8175L145.218 87.1025ZM143.284 89.2197C142.823 90.1095 142.612 91.1274 142.612 92.24H144.612C144.612 91.3793 144.775 90.6905 145.06 90.1403L143.284 89.2197ZM142.612 92.24V93.4H144.612V92.24H142.612ZM142.612 93.4C142.612 94.6007 142.853 95.694 143.377 96.6431L145.128 95.6769C144.798 95.0793 144.612 94.3326 144.612 93.4H142.612ZM143.389 96.6657C143.942 97.6087 144.725 98.3386 145.714 98.8486L146.631 97.0714C145.966 96.7281 145.469 96.2579 145.115 95.6543L143.389 96.6657ZM145.737 98.8602C146.729 99.3401 147.871 99.56 149.132 99.56V97.56C148.1 97.56 147.269 97.3799 146.608 97.0598L145.737 98.8602ZM149.132 99.56C150.285 99.56 151.323 99.4022 152.218 99.0508L151.487 97.1892C150.888 97.4245 150.113 97.56 149.132 97.56V99.56ZM152.235 99.044C153.121 98.6773 153.97 98.1363 154.783 97.4393L153.481 95.9207C152.801 96.5037 152.13 96.9227 151.47 97.196L152.235 99.044ZM153.411 97.3731L157.411 101.533L158.853 100.147L154.853 95.9869L153.411 97.3731ZM157.391 100.168C156.459 101.197 155.307 101.992 153.918 102.553L154.666 104.407C156.318 103.741 157.726 102.777 158.873 101.512L157.391 100.168ZM153.932 102.547C152.554 103.079 150.882 103.36 148.892 103.36V105.36C151.063 105.36 152.991 105.054 154.652 104.413L153.932 102.547ZM169.436 102.92L168.979 103.809L168.984 103.812L169.436 102.92ZM165.036 98.96L164.188 99.49L164.192 99.496L165.036 98.96ZM165.036 87.32L164.192 86.784L165.036 87.32ZM169.436 83.4L169.883 84.2944L169.888 84.2919L169.436 83.4ZM182.236 83.52L182.739 82.6558L182.236 83.52ZM186.036 87.92L186.491 88.8108L187.3 88.398L186.967 87.5531L186.036 87.92ZM180.156 90.92L179.262 91.3672L179.713 92.2689L180.611 91.8108L180.156 90.92ZM178.276 88.72L177.735 89.5612L177.746 89.5681L177.757 89.5748L178.276 88.72ZM173.436 88.6L172.951 87.7258L173.436 88.6ZM171.716 90.36L170.841 89.8769L170.835 89.8878L171.716 90.36ZM171.716 95.96L170.828 96.4194L170.834 96.4313L170.841 96.4431L171.716 95.96ZM178.276 97.64L178.795 98.4948L178.806 98.4881L178.817 98.4812L178.276 97.64ZM180.156 95.4L180.611 94.5092L179.713 94.0511L179.262 94.9528L180.156 95.4ZM186.036 98.4L186.967 98.7669L187.3 97.922L186.491 97.5092L186.036 98.4ZM182.236 102.8L182.739 103.664L182.236 102.8ZM175.876 103.36C173.613 103.36 171.624 102.908 169.888 102.028L168.984 103.812C171.035 104.852 173.34 105.36 175.876 105.36V103.36ZM169.894 102.031C168.176 101.147 166.847 99.9456 165.88 98.424L164.192 99.496C165.359 101.334 166.963 102.773 168.979 103.809L169.894 102.031ZM165.884 98.43C164.925 96.896 164.436 95.1361 164.436 93.12H162.436C162.436 95.4773 163.014 97.6107 164.188 99.49L165.884 98.43ZM164.436 93.12C164.436 91.1037 164.925 89.3601 165.88 87.856L164.192 86.784C163.014 88.6399 162.436 90.7629 162.436 93.12H164.436ZM165.88 87.856C166.845 86.3369 168.171 85.1507 169.883 84.2944L168.989 82.5056C166.968 83.516 165.361 84.9431 164.192 86.784L165.88 87.856ZM169.888 84.2919C171.624 83.4118 173.613 82.96 175.876 82.96V80.96C173.34 80.96 171.035 81.4682 168.984 82.5081L169.888 84.2919ZM175.876 82.96C178.186 82.96 180.126 83.4485 181.733 84.3842L182.739 82.6558C180.774 81.5115 178.473 80.96 175.876 80.96V82.96ZM181.733 84.3842C183.329 85.3131 184.443 86.6062 185.106 88.2869L186.967 87.5531C186.136 85.4472 184.717 83.8069 182.739 82.6558L181.733 84.3842ZM185.582 87.0292L179.702 90.0292L180.611 91.8108L186.491 88.8108L185.582 87.0292ZM181.051 90.4728C180.484 89.3402 179.744 88.4414 178.795 87.8652L177.757 89.5748C178.302 89.9052 178.815 90.4732 179.262 91.3672L181.051 90.4728ZM178.817 87.8788C177.911 87.2961 176.91 87 175.836 87V89C176.523 89 177.149 89.1839 177.735 89.5612L178.817 87.8788ZM175.836 87C174.798 87 173.829 87.2377 172.951 87.7258L173.922 89.4742C174.483 89.1623 175.114 89 175.836 89V87ZM172.951 87.7258C172.055 88.2237 171.351 88.9516 170.841 89.8769L172.592 90.8431C172.935 90.2217 173.378 89.7763 173.922 89.4742L172.951 87.7258ZM170.835 89.8878C170.338 90.8158 170.116 91.9084 170.116 93.12H172.116C172.116 92.1449 172.295 91.3975 172.598 90.8322L170.835 89.8878ZM170.116 93.12C170.116 94.3555 170.337 95.4693 170.828 96.4194L172.604 95.5006C172.296 94.904 172.116 94.1245 172.116 93.12H170.116ZM170.841 96.4431C171.351 97.3684 172.055 98.0963 172.951 98.5942L173.922 96.8458C173.378 96.5437 172.935 96.0983 172.592 95.4769L170.841 96.4431ZM172.951 98.5942C173.829 99.0823 174.798 99.32 175.836 99.32V97.32C175.114 97.32 174.483 97.1577 173.922 96.8458L172.951 98.5942ZM175.836 99.32C176.898 99.32 177.891 99.0438 178.795 98.4948L177.757 96.7852C177.168 97.1428 176.535 97.32 175.836 97.32V99.32ZM178.817 98.4812C179.751 97.8806 180.486 96.9776 181.051 95.8472L179.262 94.9528C178.814 95.8491 178.295 96.4394 177.735 96.7988L178.817 98.4812ZM179.702 96.2908L185.582 99.2908L186.491 97.5092L180.611 94.5092L179.702 96.2908ZM185.106 98.0331C184.443 99.7138 183.329 101.007 181.733 101.936L182.739 103.664C184.717 102.513 186.136 100.873 186.967 98.7669L185.106 98.0331ZM181.733 101.936C180.126 102.872 178.186 103.36 175.876 103.36V105.36C178.473 105.36 180.774 104.808 182.739 103.664L181.733 101.936ZM209.1 83L208.646 83.8909L208.652 83.8945L208.66 83.8979L209.1 83ZM212.3 86.12L211.422 86.6L211.426 86.6063L211.429 86.6126L212.3 86.12ZM213.5 104V105H214.5V104H213.5ZM205.9 104H204.9V105H205.9V104ZM204.94 89.48L204.178 90.1285L204.191 90.1436L204.205 90.1583L204.94 89.48ZM200.14 88.96L200.601 89.8472L200.615 89.8401L200.628 89.8325L200.14 88.96ZM198.02 104V105H199.02V104H198.02ZM190.42 104H189.42V105H190.42V104ZM190.42 74.32V73.32H189.42V74.32H190.42ZM198.02 74.32H199.02V73.32H198.02V74.32ZM198.02 88.48L197.305 89.1791L199.02 90.9331V88.48H198.02ZM196.26 86.68L195.374 86.2149L195.036 86.8589L195.545 87.3791L196.26 86.68ZM199.66 83.16L200.133 84.041L200.139 84.0376L200.145 84.0342L199.66 83.16ZM204.54 82.96C206.078 82.96 207.44 83.2763 208.646 83.8909L209.554 82.1091C208.04 81.3371 206.361 80.96 204.54 80.96V82.96ZM208.66 83.8979C209.822 84.4678 210.742 85.3556 211.422 86.6L213.177 85.64C212.311 84.0578 211.097 82.8655 209.54 82.1021L208.66 83.8979ZM211.429 86.6126C212.118 87.8294 212.5 89.4702 212.5 91.6H214.5C214.5 89.2498 214.081 87.2373 213.17 85.6274L211.429 86.6126ZM212.5 91.6V104H214.5V91.6H212.5ZM213.5 103H205.9V105H213.5V103ZM206.9 104V92.84H204.9V104H206.9ZM206.9 92.84C206.9 91.1932 206.565 89.767 205.674 88.8017L204.205 90.1583C204.594 90.5797 204.9 91.3935 204.9 92.84H206.9ZM205.701 88.8315C204.862 87.8468 203.693 87.4 202.34 87.4V89.4C203.226 89.4 203.791 89.6732 204.178 90.1285L205.701 88.8315ZM202.34 87.4C201.377 87.4 200.474 87.6266 199.651 88.0875L200.628 89.8325C201.139 89.5468 201.702 89.4 202.34 89.4V87.4ZM199.678 88.0728C198.804 88.5275 198.142 89.2394 197.685 90.1528L199.474 91.0472C199.764 90.4673 200.142 90.0858 200.601 89.8472L199.678 88.0728ZM197.685 90.1528C197.219 91.0855 197.02 92.2279 197.02 93.52H199.02C199.02 92.412 199.194 91.6078 199.474 91.0472L197.685 90.1528ZM197.02 93.52V104H199.02V93.52H197.02ZM198.02 103H190.42V105H198.02V103ZM191.42 104V74.32H189.42V104H191.42ZM190.42 75.32H198.02V73.32H190.42V75.32ZM197.02 74.32V88.48H199.02V74.32H197.02ZM198.735 87.7809L196.975 85.9809L195.545 87.3791L197.305 89.1791L198.735 87.7809ZM197.145 87.1451C197.887 85.7323 198.884 84.7116 200.133 84.041L199.187 82.279C197.555 83.155 196.285 84.481 195.374 86.2149L197.145 87.1451ZM200.145 84.0342C201.422 83.3248 202.879 82.96 204.54 82.96V80.96C202.574 80.96 200.777 81.3952 199.174 82.2858L200.145 84.0342Z" fill="#C59402" mask="url(#path-2-outside-1_1_118)"/>
</svg>
