<svg width="1728" height="1169" viewBox="0 0 1728 1169" fill="none" xmlns="http://www.w3.org/2000/svg">
<path d="M0 0H1728V1169H0V0Z" fill="url(#paint0_linear_31_2)" fill-opacity="0.2"/>
<path d="M1723.79 58.1913C1722.01 58.1913 1720.58 59.6716 1720.58 61.4977C1720.58 63.3237 1722.01 64.8041 1723.79 64.8041C1725.56 64.8041 1727 63.3237 1727 61.4977C1727 59.6716 1725.56 58.1913 1723.79 58.1913Z" fill="#026E76"/>
<path d="M1723.79 29.0966C1722.01 29.0966 1720.58 30.5769 1720.58 32.4029C1720.58 34.229 1722.01 35.7093 1723.79 35.7093C1725.56 35.7093 1727 34.229 1727 32.4029C1727 30.5769 1725.56 29.0966 1723.79 29.0966Z" fill="#026E76"/>
<path d="M1723.79 0.000621307C1722.01 0.000621227 1720.58 1.48092 1720.58 3.30697C1720.58 5.13303 1722.01 6.61332 1723.79 6.61332C1725.56 6.61332 1727 5.13303 1727 3.30697C1727 1.48092 1725.56 0.000621387 1723.79 0.000621307Z" fill="#026E76"/>
<path d="M1696.31 58.1925C1694.54 58.1925 1693.1 59.6728 1693.1 61.4988C1693.1 63.3249 1694.54 64.8052 1696.31 64.8052C1698.08 64.8052 1699.52 63.3249 1699.52 61.4988C1699.52 59.6728 1698.08 58.1925 1696.31 58.1925Z" fill="#026E76"/>
<path d="M1668.04 58.1925C1666.27 58.1925 1664.83 59.6728 1664.83 61.4988C1664.83 63.3249 1666.27 64.8052 1668.04 64.8052C1669.82 64.8052 1671.26 63.3249 1671.26 61.4988C1671.26 59.6728 1669.82 58.1925 1668.04 58.1925Z" fill="#026E76"/>
<path d="M1639.78 58.1925C1638 58.1925 1636.57 59.6728 1636.57 61.4988C1636.57 63.3249 1638 64.8052 1639.78 64.8052C1641.55 64.8052 1642.99 63.3249 1642.99 61.4988C1642.99 59.6728 1641.55 58.1925 1639.78 58.1925Z" fill="#026E76"/>
<path d="M1696.31 29.0966C1694.54 29.0966 1693.1 30.5769 1693.1 32.4029C1693.1 34.229 1694.54 35.7093 1696.31 35.7093C1698.08 35.7093 1699.52 34.229 1699.52 32.4029C1699.52 30.5769 1698.08 29.0966 1696.31 29.0966Z" fill="#026E76"/>
<path d="M1668.04 29.0966C1666.27 29.0966 1664.83 30.5769 1664.83 32.4029C1664.83 34.229 1666.27 35.7093 1668.04 35.7093C1669.82 35.7093 1671.26 34.229 1671.26 32.4029C1671.26 30.5769 1669.82 29.0966 1668.04 29.0966Z" fill="#026E76"/>
<path d="M1639.78 29.0966C1638 29.0966 1636.57 30.5769 1636.57 32.4029C1636.57 34.229 1638 35.7093 1639.78 35.7093C1641.55 35.7093 1642.99 34.229 1642.99 32.4029C1642.99 30.5769 1641.55 29.0966 1639.78 29.0966Z" fill="#026E76"/>
<path d="M1696.31 2.70133e-05C1694.54 2.69335e-05 1693.1 1.48035 1693.1 3.30641C1693.1 5.13246 1694.54 6.61276 1696.31 6.61276C1698.08 6.61276 1699.52 5.13246 1699.52 3.30641C1699.52 1.48035 1698.08 2.70932e-05 1696.31 2.70133e-05Z" fill="#026E76"/>
<path d="M1668.04 0C1666.27 -7.98193e-08 1664.83 1.48035 1664.83 3.30641C1664.83 5.13246 1666.27 6.61276 1668.04 6.61276C1669.82 6.61276 1671.26 5.13246 1671.26 3.30641C1671.26 1.48035 1669.82 7.98193e-08 1668.04 0Z" fill="#026E76"/>
<path d="M1639.78 0C1638 -7.98193e-08 1636.57 1.48035 1636.57 3.30641C1636.57 5.13246 1638 6.61276 1639.78 6.61276C1641.55 6.61276 1642.99 5.13246 1642.99 3.30641C1642.99 1.48035 1641.55 7.98193e-08 1639.78 0Z" fill="#026E76"/>
<path d="M1723.79 144.952C1722.01 144.952 1720.58 146.432 1720.58 148.258C1720.58 150.084 1722.01 151.564 1723.79 151.564C1725.56 151.564 1727 150.084 1727 148.258C1727 146.432 1725.56 144.952 1723.79 144.952Z" fill="#026E76"/>
<path d="M1723.79 115.856C1722.01 115.856 1720.58 117.336 1720.58 119.162C1720.58 120.988 1722.01 122.468 1723.79 122.468C1725.56 122.468 1727 120.988 1727 119.162C1727 117.336 1725.56 115.856 1723.79 115.856Z" fill="#026E76"/>
<path d="M1723.79 173.387C1722.01 173.387 1720.58 174.868 1720.58 176.694C1720.58 178.52 1722.01 180 1723.79 180C1725.56 180 1727 178.52 1727 176.694C1727 174.868 1725.56 173.387 1723.79 173.387Z" fill="#026E76"/>
<path d="M1723.79 86.7604C1722.01 86.7604 1720.58 88.2407 1720.58 90.0668C1720.58 91.8928 1722.01 93.3731 1723.79 93.3731C1725.56 93.3731 1727 91.8928 1727 90.0668C1727 88.2407 1725.56 86.7604 1723.79 86.7604Z" fill="#026E76"/>
<path d="M1696.31 144.952C1694.54 144.952 1693.1 146.433 1693.1 148.259C1693.1 150.085 1694.54 151.565 1696.31 151.565C1698.08 151.565 1699.52 150.085 1699.52 148.259C1699.52 146.433 1698.08 144.952 1696.31 144.952Z" fill="#026E76"/>
<path d="M1668.04 144.952C1666.27 144.952 1664.83 146.433 1664.83 148.259C1664.83 150.085 1666.27 151.565 1668.04 151.565C1669.82 151.565 1671.26 150.085 1671.26 148.259C1671.26 146.433 1669.82 144.952 1668.04 144.952Z" fill="#026E76"/>
<path d="M1639.78 144.952C1638 144.952 1636.57 146.433 1636.57 148.259C1636.57 150.085 1638 151.565 1639.78 151.565C1641.55 151.565 1642.99 150.085 1642.99 148.259C1642.99 146.433 1641.55 144.952 1639.78 144.952Z" fill="#026E76"/>
<path d="M1696.31 115.856C1694.54 115.856 1693.1 117.336 1693.1 119.162C1693.1 120.988 1694.54 122.468 1696.31 122.468C1698.08 122.468 1699.52 120.988 1699.52 119.162C1699.52 117.336 1698.08 115.856 1696.31 115.856Z" fill="#026E76"/>
<path d="M1668.04 115.856C1666.27 115.856 1664.83 117.337 1664.83 119.163C1664.83 120.989 1666.27 122.469 1668.04 122.469C1669.82 122.469 1671.26 120.989 1671.26 119.163C1671.26 117.337 1669.82 115.856 1668.04 115.856Z" fill="#026E76"/>
<path d="M1639.78 115.856C1638 115.856 1636.57 117.337 1636.57 119.163C1636.57 120.989 1638 122.469 1639.78 122.469C1641.55 122.469 1642.99 120.989 1642.99 119.163C1642.99 117.337 1641.55 115.856 1639.78 115.856Z" fill="#026E76"/>
<path d="M1696.31 173.387C1694.54 173.387 1693.1 174.867 1693.1 176.693C1693.1 178.519 1694.54 179.999 1696.31 179.999C1698.08 179.999 1699.52 178.519 1699.52 176.693C1699.52 174.867 1698.08 173.387 1696.31 173.387Z" fill="#026E76"/>
<path d="M1696.31 86.7598C1694.54 86.7598 1693.1 88.2401 1693.1 90.0661C1693.1 91.8922 1694.54 93.3726 1696.31 93.3726C1698.08 93.3726 1699.52 91.8922 1699.52 90.0661C1699.52 88.2401 1698.08 86.7598 1696.31 86.7598Z" fill="#026E76"/>
<path d="M1668.04 173.387C1666.27 173.387 1664.83 174.867 1664.83 176.693C1664.83 178.519 1666.27 179.999 1668.04 179.999C1669.82 179.999 1671.26 178.519 1671.26 176.693C1671.26 174.867 1669.82 173.387 1668.04 173.387Z" fill="#026E76"/>
<path d="M1668.04 86.7598C1666.27 86.7598 1664.83 88.2401 1664.83 90.0661C1664.83 91.8922 1666.27 93.3726 1668.04 93.3726C1669.82 93.3726 1671.26 91.8922 1671.26 90.0661C1671.26 88.2401 1669.82 86.7598 1668.04 86.7598Z" fill="#026E76"/>
<path d="M1639.78 173.387C1638 173.387 1636.57 174.867 1636.57 176.693C1636.57 178.519 1638 179.999 1639.78 179.999C1641.55 179.999 1642.99 178.519 1642.99 176.693C1642.99 174.867 1641.55 173.387 1639.78 173.387Z" fill="#026E76"/>
<path d="M1639.78 86.7598C1638 86.7598 1636.57 88.2401 1636.57 90.0661C1636.57 91.8922 1638 93.3726 1639.78 93.3726C1641.55 93.3726 1642.99 91.8922 1642.99 90.0661C1642.99 88.2401 1641.55 86.7598 1639.78 86.7598Z" fill="#026E76"/>
<path d="M1614.22 58.1913C1612.45 58.1913 1611.01 59.6716 1611.01 61.4977C1611.01 63.3237 1612.45 64.8041 1614.22 64.8041C1616 64.8041 1617.43 63.3237 1617.43 61.4977C1617.43 59.6716 1616 58.1913 1614.22 58.1913Z" fill="#026E76"/>
<path d="M1614.22 29.0966C1612.45 29.0966 1611.01 30.5769 1611.01 32.4029C1611.01 34.229 1612.45 35.7093 1614.22 35.7093C1616 35.7093 1617.43 34.229 1617.43 32.4029C1617.43 30.5769 1616 29.0966 1614.22 29.0966Z" fill="#026E76"/>
<path d="M1614.22 0.000621307C1612.45 0.000621227 1611.01 1.48092 1611.01 3.30697C1611.01 5.13303 1612.45 6.61332 1614.22 6.61332C1616 6.61332 1617.43 5.13303 1617.43 3.30697C1617.43 1.48092 1616 0.000621387 1614.22 0.000621307Z" fill="#026E76"/>
<path d="M1586.74 58.1925C1584.97 58.1925 1583.53 59.6728 1583.53 61.4988C1583.53 63.3249 1584.97 64.8052 1586.74 64.8052C1588.52 64.8052 1589.96 63.3249 1589.96 61.4988C1589.96 59.6728 1588.52 58.1925 1586.74 58.1925Z" fill="#026E76"/>
<path d="M1558.48 58.1925C1556.7 58.1925 1555.27 59.6728 1555.27 61.4988C1555.27 63.3249 1556.7 64.8052 1558.48 64.8052C1560.25 64.8052 1561.69 63.3249 1561.69 61.4988C1561.69 59.6728 1560.25 58.1925 1558.48 58.1925Z" fill="#026E76"/>
<path d="M1530.21 58.1925C1528.44 58.1925 1527 59.6728 1527 61.4988C1527 63.3249 1528.44 64.8052 1530.21 64.8052C1531.99 64.8052 1533.42 63.3249 1533.42 61.4988C1533.42 59.6728 1531.99 58.1925 1530.21 58.1925Z" fill="#026E76"/>
<path d="M1586.74 29.0966C1584.97 29.0966 1583.53 30.5769 1583.53 32.4029C1583.53 34.229 1584.97 35.7093 1586.74 35.7093C1588.52 35.7093 1589.96 34.229 1589.96 32.4029C1589.96 30.5769 1588.52 29.0966 1586.74 29.0966Z" fill="#026E76"/>
<path d="M1558.48 29.0966C1556.7 29.0966 1555.27 30.5769 1555.27 32.4029C1555.27 34.229 1556.7 35.7093 1558.48 35.7093C1560.25 35.7093 1561.69 34.229 1561.69 32.4029C1561.69 30.5769 1560.25 29.0966 1558.48 29.0966Z" fill="#026E76"/>
<path d="M1530.21 29.0966C1528.44 29.0966 1527 30.5769 1527 32.4029C1527 34.229 1528.44 35.7093 1530.21 35.7093C1531.99 35.7093 1533.42 34.229 1533.42 32.4029C1533.42 30.5769 1531.99 29.0966 1530.21 29.0966Z" fill="#026E76"/>
<path d="M1586.74 2.70133e-05C1584.97 2.69335e-05 1583.53 1.48035 1583.53 3.30641C1583.53 5.13246 1584.97 6.61276 1586.74 6.61276C1588.52 6.61276 1589.96 5.13246 1589.96 3.30641C1589.96 1.48035 1588.52 2.70932e-05 1586.74 2.70133e-05Z" fill="#026E76"/>
<path d="M1558.48 0C1556.7 -7.98193e-08 1555.27 1.48035 1555.27 3.30641C1555.27 5.13246 1556.7 6.61276 1558.48 6.61276C1560.25 6.61276 1561.69 5.13246 1561.69 3.30641C1561.69 1.48035 1560.25 7.98193e-08 1558.48 0Z" fill="#026E76"/>
<path d="M1530.21 0C1528.44 -7.98193e-08 1527 1.48035 1527 3.30641C1527 5.13246 1528.44 6.61276 1530.21 6.61276C1531.99 6.61276 1533.42 5.13246 1533.42 3.30641C1533.42 1.48035 1531.99 7.98193e-08 1530.21 0Z" fill="#026E76"/>
<path d="M1614.22 144.952C1612.45 144.952 1611.01 146.432 1611.01 148.258C1611.01 150.084 1612.45 151.564 1614.22 151.564C1616 151.564 1617.43 150.084 1617.43 148.258C1617.43 146.432 1616 144.952 1614.22 144.952Z" fill="#026E76"/>
<path d="M1614.22 115.856C1612.45 115.856 1611.01 117.336 1611.01 119.162C1611.01 120.988 1612.45 122.468 1614.22 122.468C1616 122.468 1617.43 120.988 1617.43 119.162C1617.43 117.336 1616 115.856 1614.22 115.856Z" fill="#026E76"/>
<path d="M1614.22 173.387C1612.45 173.387 1611.01 174.868 1611.01 176.694C1611.01 178.52 1612.45 180 1614.22 180C1616 180 1617.43 178.52 1617.43 176.694C1617.43 174.868 1616 173.387 1614.22 173.387Z" fill="#026E76"/>
<path d="M1614.22 86.7604C1612.45 86.7604 1611.01 88.2407 1611.01 90.0668C1611.01 91.8928 1612.45 93.3731 1614.22 93.3731C1616 93.3731 1617.43 91.8928 1617.43 90.0668C1617.43 88.2407 1616 86.7604 1614.22 86.7604Z" fill="#026E76"/>
<path d="M1586.74 144.952C1584.97 144.952 1583.53 146.433 1583.53 148.259C1583.53 150.085 1584.97 151.565 1586.74 151.565C1588.52 151.565 1589.96 150.085 1589.96 148.259C1589.96 146.433 1588.52 144.952 1586.74 144.952Z" fill="#026E76"/>
<path d="M1558.48 144.952C1556.7 144.952 1555.27 146.433 1555.27 148.259C1555.27 150.085 1556.7 151.565 1558.48 151.565C1560.25 151.565 1561.69 150.085 1561.69 148.259C1561.69 146.433 1560.25 144.952 1558.48 144.952Z" fill="#026E76"/>
<path d="M1530.21 144.952C1528.44 144.952 1527 146.433 1527 148.259C1527 150.085 1528.44 151.565 1530.21 151.565C1531.99 151.565 1533.42 150.085 1533.42 148.259C1533.42 146.433 1531.99 144.952 1530.21 144.952Z" fill="#026E76"/>
<path d="M1586.74 115.856C1584.97 115.856 1583.53 117.336 1583.53 119.162C1583.53 120.988 1584.97 122.468 1586.74 122.468C1588.52 122.468 1589.96 120.988 1589.96 119.162C1589.96 117.336 1588.52 115.856 1586.74 115.856Z" fill="#026E76"/>
<path d="M1558.48 115.856C1556.7 115.856 1555.27 117.337 1555.27 119.163C1555.27 120.989 1556.7 122.469 1558.48 122.469C1560.25 122.469 1561.69 120.989 1561.69 119.163C1561.69 117.337 1560.25 115.856 1558.48 115.856Z" fill="#026E76"/>
<path d="M1530.21 115.856C1528.44 115.856 1527 117.337 1527 119.163C1527 120.989 1528.44 122.469 1530.21 122.469C1531.99 122.469 1533.42 120.989 1533.42 119.163C1533.42 117.337 1531.99 115.856 1530.21 115.856Z" fill="#026E76"/>
<path d="M1586.74 173.387C1584.97 173.387 1583.53 174.867 1583.53 176.693C1583.53 178.519 1584.97 179.999 1586.74 179.999C1588.52 179.999 1589.96 178.519 1589.96 176.693C1589.96 174.867 1588.52 173.387 1586.74 173.387Z" fill="#026E76"/>
<path d="M1586.74 86.7598C1584.97 86.7598 1583.53 88.2401 1583.53 90.0661C1583.53 91.8922 1584.97 93.3726 1586.74 93.3726C1588.52 93.3726 1589.96 91.8922 1589.96 90.0661C1589.96 88.2401 1588.52 86.7598 1586.74 86.7598Z" fill="#026E76"/>
<path d="M1558.48 173.387C1556.7 173.387 1555.27 174.867 1555.27 176.693C1555.27 178.519 1556.7 179.999 1558.48 179.999C1560.25 179.999 1561.69 178.519 1561.69 176.693C1561.69 174.867 1560.25 173.387 1558.48 173.387Z" fill="#026E76"/>
<path d="M1558.48 86.7598C1556.7 86.7598 1555.27 88.2401 1555.27 90.0661C1555.27 91.8922 1556.7 93.3726 1558.48 93.3726C1560.25 93.3726 1561.69 91.8922 1561.69 90.0661C1561.69 88.2401 1560.25 86.7598 1558.48 86.7598Z" fill="#026E76"/>
<path d="M1530.21 173.387C1528.44 173.387 1527 174.867 1527 176.693C1527 178.519 1528.44 179.999 1530.21 179.999C1531.99 179.999 1533.42 178.519 1533.42 176.693C1533.42 174.867 1531.99 173.387 1530.21 173.387Z" fill="#026E76"/>
<path d="M1530.21 86.7598C1528.44 86.7598 1527 88.2401 1527 90.0661C1527 91.8922 1528.44 93.3726 1530.21 93.3726C1531.99 93.3726 1533.42 91.8922 1533.42 90.0661C1533.42 88.2401 1531.99 86.7598 1530.21 86.7598Z" fill="#026E76"/>
<path d="M196.788 1047.19C195.014 1047.19 193.576 1048.67 193.576 1050.5C193.576 1052.32 195.014 1053.8 196.788 1053.8C198.562 1053.8 200 1052.32 200 1050.5C200 1048.67 198.562 1047.19 196.788 1047.19Z" fill="#026E76"/>
<path d="M196.788 1018.1C195.014 1018.1 193.576 1019.58 193.576 1021.4C193.576 1023.23 195.014 1024.71 196.788 1024.71C198.562 1024.71 200 1023.23 200 1021.4C200 1019.58 198.562 1018.1 196.788 1018.1Z" fill="#026E76"/>
<path d="M196.788 989.001C195.014 989.001 193.576 990.481 193.576 992.307C193.576 994.133 195.014 995.613 196.788 995.613C198.562 995.613 200 994.133 200 992.307C200 990.481 198.562 989.001 196.788 989.001Z" fill="#026E76"/>
<path d="M169.309 1047.19C167.535 1047.19 166.097 1048.67 166.097 1050.5C166.097 1052.32 167.535 1053.81 169.309 1053.81C171.083 1053.81 172.521 1052.32 172.521 1050.5C172.521 1048.67 171.083 1047.19 169.309 1047.19Z" fill="#026E76"/>
<path d="M141.043 1047.19C139.269 1047.19 137.831 1048.67 137.831 1050.5C137.831 1052.32 139.269 1053.81 141.043 1053.81C142.817 1053.81 144.255 1052.32 144.255 1050.5C144.255 1048.67 142.817 1047.19 141.043 1047.19Z" fill="#026E76"/>
<path d="M112.777 1047.19C111.003 1047.19 109.565 1048.67 109.565 1050.5C109.565 1052.32 111.003 1053.81 112.777 1053.81C114.551 1053.81 115.989 1052.32 115.989 1050.5C115.989 1048.67 114.551 1047.19 112.777 1047.19Z" fill="#026E76"/>
<path d="M169.309 1018.1C167.535 1018.1 166.097 1019.58 166.097 1021.4C166.097 1023.23 167.535 1024.71 169.309 1024.71C171.083 1024.71 172.521 1023.23 172.521 1021.4C172.521 1019.58 171.083 1018.1 169.309 1018.1Z" fill="#026E76"/>
<path d="M141.043 1018.1C139.269 1018.1 137.831 1019.58 137.831 1021.4C137.831 1023.23 139.269 1024.71 141.043 1024.71C142.817 1024.71 144.255 1023.23 144.255 1021.4C144.255 1019.58 142.817 1018.1 141.043 1018.1Z" fill="#026E76"/>
<path d="M112.777 1018.1C111.003 1018.1 109.565 1019.58 109.565 1021.4C109.565 1023.23 111.003 1024.71 112.777 1024.71C114.551 1024.71 115.989 1023.23 115.989 1021.4C115.989 1019.58 114.551 1018.1 112.777 1018.1Z" fill="#026E76"/>
<path d="M169.309 989C167.535 989 166.097 990.48 166.097 992.306C166.097 994.132 167.535 995.613 169.309 995.613C171.083 995.613 172.521 994.132 172.521 992.306C172.521 990.48 171.083 989 169.309 989Z" fill="#026E76"/>
<path d="M141.043 989C139.269 989 137.831 990.48 137.831 992.306C137.831 994.132 139.269 995.613 141.043 995.613C142.817 995.613 144.255 994.132 144.255 992.306C144.255 990.48 142.817 989 141.043 989Z" fill="#026E76"/>
<path d="M112.777 989C111.003 989 109.565 990.48 109.565 992.306C109.565 994.132 111.003 995.613 112.777 995.613C114.551 995.613 115.989 994.132 115.989 992.306C115.989 990.48 114.551 989 112.777 989Z" fill="#026E76"/>
<path d="M196.788 1133.95C195.014 1133.95 193.576 1135.43 193.576 1137.26C193.576 1139.08 195.014 1140.56 196.788 1140.56C198.562 1140.56 200 1139.08 200 1137.26C200 1135.43 198.562 1133.95 196.788 1133.95Z" fill="#026E76"/>
<path d="M196.788 1104.86C195.014 1104.86 193.576 1106.34 193.576 1108.16C193.576 1109.99 195.014 1111.47 196.788 1111.47C198.562 1111.47 200 1109.99 200 1108.16C200 1106.34 198.562 1104.86 196.788 1104.86Z" fill="#026E76"/>
<path d="M196.788 1162.39C195.014 1162.39 193.576 1163.87 193.576 1165.69C193.576 1167.52 195.014 1169 196.788 1169C198.562 1169 200 1167.52 200 1165.69C200 1163.87 198.562 1162.39 196.788 1162.39Z" fill="#026E76"/>
<path d="M196.788 1075.76C195.014 1075.76 193.576 1077.24 193.576 1079.07C193.576 1080.89 195.014 1082.37 196.788 1082.37C198.562 1082.37 200 1080.89 200 1079.07C200 1077.24 198.562 1075.76 196.788 1075.76Z" fill="#026E76"/>
<path d="M169.309 1133.95C167.535 1133.95 166.097 1135.43 166.097 1137.26C166.097 1139.08 167.535 1140.57 169.309 1140.57C171.083 1140.57 172.521 1139.08 172.521 1137.26C172.521 1135.43 171.083 1133.95 169.309 1133.95Z" fill="#026E76"/>
<path d="M141.043 1133.95C139.269 1133.95 137.831 1135.43 137.831 1137.26C137.831 1139.08 139.269 1140.57 141.043 1140.57C142.817 1140.57 144.255 1139.08 144.255 1137.26C144.255 1135.43 142.817 1133.95 141.043 1133.95Z" fill="#026E76"/>
<path d="M112.777 1133.95C111.003 1133.95 109.565 1135.43 109.565 1137.26C109.565 1139.08 111.003 1140.57 112.777 1140.57C114.551 1140.57 115.989 1139.08 115.989 1137.26C115.989 1135.43 114.551 1133.95 112.777 1133.95Z" fill="#026E76"/>
<path d="M169.309 1104.86C167.535 1104.86 166.097 1106.34 166.097 1108.16C166.097 1109.99 167.535 1111.47 169.309 1111.47C171.083 1111.47 172.521 1109.99 172.521 1108.16C172.521 1106.34 171.083 1104.86 169.309 1104.86Z" fill="#026E76"/>
<path d="M141.043 1104.86C139.269 1104.86 137.831 1106.34 137.831 1108.16C137.831 1109.99 139.269 1111.47 141.043 1111.47C142.817 1111.47 144.255 1109.99 144.255 1108.16C144.255 1106.34 142.817 1104.86 141.043 1104.86Z" fill="#026E76"/>
<path d="M112.777 1104.86C111.003 1104.86 109.565 1106.34 109.565 1108.16C109.565 1109.99 111.003 1111.47 112.777 1111.47C114.551 1111.47 115.989 1109.99 115.989 1108.16C115.989 1106.34 114.551 1104.86 112.777 1104.86Z" fill="#026E76"/>
<path d="M169.309 1162.39C167.535 1162.39 166.097 1163.87 166.097 1165.69C166.097 1167.52 167.535 1169 169.309 1169C171.083 1169 172.521 1167.52 172.521 1165.69C172.521 1163.87 171.083 1162.39 169.309 1162.39Z" fill="#026E76"/>
<path d="M169.309 1075.76C167.535 1075.76 166.097 1077.24 166.097 1079.07C166.097 1080.89 167.535 1082.37 169.309 1082.37C171.083 1082.37 172.521 1080.89 172.521 1079.07C172.521 1077.24 171.083 1075.76 169.309 1075.76Z" fill="#026E76"/>
<path d="M141.043 1162.39C139.269 1162.39 137.831 1163.87 137.831 1165.69C137.831 1167.52 139.269 1169 141.043 1169C142.817 1169 144.255 1167.52 144.255 1165.69C144.255 1163.87 142.817 1162.39 141.043 1162.39Z" fill="#026E76"/>
<path d="M141.043 1075.76C139.269 1075.76 137.831 1077.24 137.831 1079.07C137.831 1080.89 139.269 1082.37 141.043 1082.37C142.817 1082.37 144.255 1080.89 144.255 1079.07C144.255 1077.24 142.817 1075.76 141.043 1075.76Z" fill="#026E76"/>
<path d="M112.777 1162.39C111.003 1162.39 109.565 1163.87 109.565 1165.69C109.565 1167.52 111.003 1169 112.777 1169C114.551 1169 115.989 1167.52 115.989 1165.69C115.989 1163.87 114.551 1162.39 112.777 1162.39Z" fill="#026E76"/>
<path d="M112.777 1075.76C111.003 1075.76 109.565 1077.24 109.565 1079.07C109.565 1080.89 111.003 1082.37 112.777 1082.37C114.551 1082.37 115.989 1080.89 115.989 1079.07C115.989 1077.24 114.551 1075.76 112.777 1075.76Z" fill="#026E76"/>
<path d="M87.2228 1047.19C85.4488 1047.19 84.0107 1048.67 84.0107 1050.5C84.0107 1052.32 85.4488 1053.8 87.2228 1053.8C88.9967 1053.8 90.4348 1052.32 90.4348 1050.5C90.4348 1048.67 88.9967 1047.19 87.2228 1047.19Z" fill="#026E76"/>
<path d="M87.2228 1018.1C85.4488 1018.1 84.0107 1019.58 84.0107 1021.4C84.0107 1023.23 85.4488 1024.71 87.2228 1024.71C88.9967 1024.71 90.4348 1023.23 90.4348 1021.4C90.4348 1019.58 88.9967 1018.1 87.2228 1018.1Z" fill="#026E76"/>
<path d="M87.2228 989.001C85.4488 989.001 84.0107 990.481 84.0107 992.307C84.0107 994.133 85.4488 995.613 87.2228 995.613C88.9967 995.613 90.4348 994.133 90.4348 992.307C90.4348 990.481 88.9967 989.001 87.2228 989.001Z" fill="#026E76"/>
<path d="M59.7438 1047.19C57.9699 1047.19 56.5318 1048.67 56.5318 1050.5C56.5318 1052.32 57.9699 1053.81 59.7438 1053.81C61.5178 1053.81 62.9559 1052.32 62.9559 1050.5C62.9559 1048.67 61.5178 1047.19 59.7438 1047.19Z" fill="#026E76"/>
<path d="M31.4778 1047.19C29.7039 1047.19 28.2658 1048.67 28.2658 1050.5C28.2658 1052.32 29.7039 1053.81 31.4778 1053.81C33.2518 1053.81 34.6899 1052.32 34.6899 1050.5C34.6899 1048.67 33.2518 1047.19 31.4778 1047.19Z" fill="#026E76"/>
<path d="M3.21207 1047.19C1.4381 1047.19 3.12047e-05 1048.67 3.11272e-05 1050.5C3.10496e-05 1052.32 1.4381 1053.81 3.21207 1053.81C4.98603 1053.81 6.4241 1052.32 6.4241 1050.5C6.4241 1048.67 4.98603 1047.19 3.21207 1047.19Z" fill="#026E76"/>
<path d="M59.7438 1018.1C57.9699 1018.1 56.5318 1019.58 56.5318 1021.4C56.5318 1023.23 57.9699 1024.71 59.7438 1024.71C61.5178 1024.71 62.9559 1023.23 62.9559 1021.4C62.9559 1019.58 61.5178 1018.1 59.7438 1018.1Z" fill="#026E76"/>
<path d="M31.4778 1018.1C29.7039 1018.1 28.2658 1019.58 28.2658 1021.4C28.2658 1023.23 29.7039 1024.71 31.4778 1024.71C33.2518 1024.71 34.6899 1023.23 34.6899 1021.4C34.6899 1019.58 33.2518 1018.1 31.4778 1018.1Z" fill="#026E76"/>
<path d="M3.21207 1018.1C1.4381 1018.1 3.12047e-05 1019.58 3.11272e-05 1021.4C3.10496e-05 1023.23 1.4381 1024.71 3.21207 1024.71C4.98603 1024.71 6.4241 1023.23 6.4241 1021.4C6.4241 1019.58 4.98603 1018.1 3.21207 1018.1Z" fill="#026E76"/>
<path d="M59.7438 989C57.9699 989 56.5318 990.48 56.5318 992.306C56.5318 994.132 57.9699 995.613 59.7438 995.613C61.5178 995.613 62.9559 994.132 62.9559 992.306C62.9559 990.48 61.5178 989 59.7438 989Z" fill="#026E76"/>
<path d="M31.4778 989C29.7039 989 28.2658 990.48 28.2658 992.306C28.2658 994.132 29.7039 995.613 31.4778 995.613C33.2518 995.613 34.6899 994.132 34.6899 992.306C34.6899 990.48 33.2518 989 31.4778 989Z" fill="#026E76"/>
<path d="M3.21207 989C1.4381 989 3.12047e-05 990.48 3.11272e-05 992.306C3.10496e-05 994.132 1.4381 995.613 3.21207 995.613C4.98603 995.613 6.4241 994.132 6.4241 992.306C6.4241 990.48 4.98603 989 3.21207 989Z" fill="#026E76"/>
<path d="M87.2228 1133.95C85.4488 1133.95 84.0107 1135.43 84.0107 1137.26C84.0107 1139.08 85.4488 1140.56 87.2228 1140.56C88.9967 1140.56 90.4348 1139.08 90.4348 1137.26C90.4348 1135.43 88.9967 1133.95 87.2228 1133.95Z" fill="#026E76"/>
<path d="M87.2228 1104.86C85.4488 1104.86 84.0107 1106.34 84.0107 1108.16C84.0107 1109.99 85.4488 1111.47 87.2228 1111.47C88.9967 1111.47 90.4348 1109.99 90.4348 1108.16C90.4348 1106.34 88.9967 1104.86 87.2228 1104.86Z" fill="#026E76"/>
<path d="M87.2228 1162.39C85.4488 1162.39 84.0107 1163.87 84.0107 1165.69C84.0107 1167.52 85.4488 1169 87.2228 1169C88.9967 1169 90.4348 1167.52 90.4348 1165.69C90.4348 1163.87 88.9967 1162.39 87.2228 1162.39Z" fill="#026E76"/>
<path d="M87.2228 1075.76C85.4488 1075.76 84.0107 1077.24 84.0107 1079.07C84.0107 1080.89 85.4488 1082.37 87.2228 1082.37C88.9967 1082.37 90.4348 1080.89 90.4348 1079.07C90.4348 1077.24 88.9967 1075.76 87.2228 1075.76Z" fill="#026E76"/>
<path d="M59.7438 1133.95C57.9699 1133.95 56.5318 1135.43 56.5318 1137.26C56.5318 1139.08 57.9699 1140.57 59.7438 1140.57C61.5178 1140.57 62.9559 1139.08 62.9559 1137.26C62.9559 1135.43 61.5178 1133.95 59.7438 1133.95Z" fill="#026E76"/>
<path d="M31.4778 1133.95C29.7039 1133.95 28.2658 1135.43 28.2658 1137.26C28.2658 1139.08 29.7039 1140.57 31.4778 1140.57C33.2518 1140.57 34.6899 1139.08 34.6899 1137.26C34.6899 1135.43 33.2518 1133.95 31.4778 1133.95Z" fill="#026E76"/>
<path d="M3.21207 1133.95C1.4381 1133.95 3.12047e-05 1135.43 3.11272e-05 1137.26C3.10496e-05 1139.08 1.4381 1140.57 3.21207 1140.57C4.98603 1140.57 6.4241 1139.08 6.4241 1137.26C6.4241 1135.43 4.98603 1133.95 3.21207 1133.95Z" fill="#026E76"/>
<path d="M59.7438 1104.86C57.9699 1104.86 56.5318 1106.34 56.5318 1108.16C56.5318 1109.99 57.9699 1111.47 59.7438 1111.47C61.5178 1111.47 62.9559 1109.99 62.9559 1108.16C62.9559 1106.34 61.5178 1104.86 59.7438 1104.86Z" fill="#026E76"/>
<path d="M31.4778 1104.86C29.7039 1104.86 28.2658 1106.34 28.2658 1108.16C28.2658 1109.99 29.7039 1111.47 31.4778 1111.47C33.2518 1111.47 34.6899 1109.99 34.6899 1108.16C34.6899 1106.34 33.2518 1104.86 31.4778 1104.86Z" fill="#026E76"/>
<path d="M3.21207 1104.86C1.4381 1104.86 3.12047e-05 1106.34 3.11272e-05 1108.16C3.10496e-05 1109.99 1.4381 1111.47 3.21207 1111.47C4.98603 1111.47 6.4241 1109.99 6.4241 1108.16C6.4241 1106.34 4.98603 1104.86 3.21207 1104.86Z" fill="#026E76"/>
<path d="M59.7438 1162.39C57.9699 1162.39 56.5318 1163.87 56.5318 1165.69C56.5318 1167.52 57.9699 1169 59.7438 1169C61.5178 1169 62.9559 1167.52 62.9559 1165.69C62.9559 1163.87 61.5178 1162.39 59.7438 1162.39Z" fill="#026E76"/>
<path d="M59.7438 1075.76C57.9699 1075.76 56.5318 1077.24 56.5318 1079.07C56.5318 1080.89 57.9699 1082.37 59.7438 1082.37C61.5178 1082.37 62.9559 1080.89 62.9559 1079.07C62.9559 1077.24 61.5178 1075.76 59.7438 1075.76Z" fill="#026E76"/>
<path d="M31.4778 1162.39C29.7039 1162.39 28.2658 1163.87 28.2658 1165.69C28.2658 1167.52 29.7039 1169 31.4778 1169C33.2518 1169 34.6899 1167.52 34.6899 1165.69C34.6899 1163.87 33.2518 1162.39 31.4778 1162.39Z" fill="#026E76"/>
<path d="M31.4778 1075.76C29.7039 1075.76 28.2658 1077.24 28.2658 1079.07C28.2658 1080.89 29.7039 1082.37 31.4778 1082.37C33.2518 1082.37 34.6899 1080.89 34.6899 1079.07C34.6899 1077.24 33.2518 1075.76 31.4778 1075.76Z" fill="#026E76"/>
<path d="M3.21207 1162.39C1.4381 1162.39 3.12047e-05 1163.87 3.11272e-05 1165.69C3.10496e-05 1167.52 1.4381 1169 3.21207 1169C4.98603 1169 6.4241 1167.52 6.4241 1165.69C6.4241 1163.87 4.98603 1162.39 3.21207 1162.39Z" fill="#026E76"/>
<path d="M3.21207 1075.76C1.4381 1075.76 3.12047e-05 1077.24 3.11272e-05 1079.07C3.10496e-05 1080.89 1.4381 1082.37 3.21207 1082.37C4.98603 1082.37 6.4241 1080.89 6.4241 1079.07C6.4241 1077.24 4.98603 1075.76 3.21207 1075.76Z" fill="#026E76"/>
<defs>
<linearGradient id="paint0_linear_31_2" x1="-4.10186e-06" y1="559.125" x2="1728" y2="559.125" gradientUnits="userSpaceOnUse">
<stop stop-color="#026E76"/>
<stop offset="1" stop-color="#026E76"/>
</linearGradient>
</defs>
</svg>
