<svg width="20" height="20" viewBox="0 0 20 20" fill="none" xmlns="http://www.w3.org/2000/svg">
<g clip-path="url(#clip0_717_549)">
<path d="M9.04297 0.0230317C8.98047 0.0308442 8.78516 0.058188 8.61328 0.0816255C8.01562 0.15975 7.10938 0.370688 7.10938 0.429282C7.10938 0.444907 7.28906 0.675375 7.50781 0.941C8.89844 2.63631 10.4102 4.94881 11.3125 6.76913C11.5352 7.21444 11.4453 7.19491 12.207 6.94491C14.0664 6.33163 15.875 5.32381 17.5312 3.97616L17.8125 3.74178L17.7266 3.62069C17.5586 3.38631 16.7773 2.60506 16.3867 2.28475C14.9688 1.12069 13.4453 0.425375 11.625 0.108969C11.2461 0.0464692 10.9531 0.026938 10.1562 0.0191255C9.60938 0.011313 9.10938 0.0152192 9.04297 0.0230317Z" fill="#02BDD5"/>
<path d="M5.46501 1.06642C4.49626 1.5586 3.75408 2.10548 2.92595 2.9297C2.25408 3.59767 1.84392 4.1211 1.38298 4.89845C1.13689 5.3086 0.777515 6.03517 0.652515 6.37892C0.621265 6.46485 0.722828 6.51173 1.54314 6.79298C2.94939 7.28126 4.47673 7.58985 6.00017 7.69923C7.19158 7.78126 8.7697 7.71095 9.90252 7.51563C10.4455 7.42579 10.4142 7.46876 10.2072 7.0586C9.56658 5.78126 8.50017 4.08204 7.49236 2.7422C6.7658 1.77735 6.01189 0.863291 5.93376 0.863291C5.89861 0.859385 5.68767 0.953135 5.46501 1.06642Z" fill="#02BDD5"/>
<path d="M18.1055 4.94525C16.4414 6.30072 14.5117 7.37494 12.5508 8.03119L11.9961 8.21869L12.0547 8.35541C12.1992 8.69525 12.5391 9.58197 12.6562 9.92181L12.7852 10.2929H14.0391C15.0977 10.2968 15.3906 10.3085 15.918 10.3828C17.1172 10.5429 18.3398 10.8046 19.4844 11.1484C19.8789 11.2656 19.9297 11.2734 19.9531 11.2148C19.9688 11.1796 19.9805 10.6406 19.9805 10.0195C19.9805 9.01947 19.9688 8.82806 19.8906 8.37885C19.6797 7.17181 19.3047 6.1015 18.7422 5.10541C18.6094 4.87494 18.4844 4.68744 18.4609 4.68744C18.4375 4.69134 18.2773 4.80463 18.1055 4.94525Z" fill="#02BDD5"/>
<path d="M0.238365 7.72266C0.00399031 8.73047 -0.0741347 10.207 0.0586778 11.2383C0.336022 13.4141 1.27743 15.3789 2.78915 16.9492C3.16415 17.3359 3.65243 17.7734 3.70712 17.7734C3.72665 17.7734 3.80477 17.5859 3.8829 17.3594C4.78915 14.7422 6.50008 12.6562 8.71102 11.4766C9.4493 11.082 10.422 10.7227 11.2345 10.5469C11.4454 10.5039 11.6251 10.457 11.6329 10.4492C11.6602 10.4258 11.5313 10.0586 11.2188 9.26562C11.0118 8.73828 10.9024 8.51562 10.8634 8.51562C10.8282 8.51562 10.6173 8.55078 10.3907 8.59375C7.27743 9.19531 3.77743 8.86328 0.652428 7.67188C0.461022 7.59766 0.300865 7.53906 0.293053 7.53906C0.28524 7.53906 0.261803 7.62109 0.238365 7.72266Z" fill="#02BDD5"/>
<path d="M13.1406 11.4919C13.2227 11.7966 13.4531 12.9373 13.5156 13.3513C13.6523 14.2771 13.6875 14.7459 13.6875 15.7029C13.6875 16.9646 13.5898 17.8201 13.3164 18.9568C13.25 19.2341 13.2031 19.4646 13.2148 19.4763C13.2383 19.4998 13.8242 19.2771 14.2656 19.0701C16.3633 18.0974 18.1875 16.238 19.1484 14.0935C19.3242 13.6951 19.6484 12.7771 19.7031 12.5154L19.7305 12.3943L19.2305 12.2459C17.2383 11.6599 15.6641 11.4099 13.9492 11.406H13.1172L13.1406 11.4919Z" fill="#02BDD5"/>
<path d="M11.465 11.6561C8.89857 12.2576 6.98842 13.703 5.69154 16.035C5.26576 16.7928 4.62904 18.453 4.73451 18.5233C5.6681 19.1405 7.06654 19.6639 8.37904 19.8866C9.25795 20.0389 10.9064 20.0311 11.6954 19.8709L11.9259 19.8241L12.0783 19.2576C12.4533 17.8358 12.5548 17.0936 12.5548 15.6834C12.5509 14.3358 12.4415 13.4022 12.1173 12.0311C12.0275 11.6522 11.9962 11.5819 11.9337 11.5741C11.8908 11.5701 11.6798 11.6092 11.465 11.6561Z" fill="#02BDD5"/>
</g>
<defs>
<clipPath id="clip0_717_549">
<rect width="20" height="20" fill="white"/>
</clipPath>
</defs>
</svg>
