<svg width="20" height="20" viewBox="0 0 20 20" fill="none" xmlns="http://www.w3.org/2000/svg">
<g clip-path="url(#clip0_717_539)">
<path d="M4.19922 0.0546894C3.17578 0.234377 2.23828 0.710939 1.51953 1.41016C0.800781 2.11719 0.359375 2.88672 0.113281 3.875L0.0195312 4.23828V9.98047C0.0195312 15.4336 0.0234375 15.7383 0.09375 16.0352C0.574219 18.1055 2.14063 19.5938 4.21875 19.9414C4.71094 20.0273 15.2891 20.0273 15.7813 19.9414C16.8242 19.7656 17.75 19.3008 18.4805 18.5898C19.1953 17.8867 19.625 17.1367 19.8906 16.1328L19.9805 15.8008L19.9922 10.2148C20 6.24219 19.9922 4.53906 19.9609 4.31641C19.7031 2.48438 18.3789 0.878908 16.6211 0.273439C15.8516 0.00390816 16.3203 0.0234394 10.0977 0.0156269C5.82422 0.0117207 4.40625 0.0195332 4.19922 0.0546894ZM8.43359 5.98828C9.16797 6.21094 9.65625 6.71485 9.82422 7.42969C9.9375 7.91797 9.88672 8.51953 9.69531 8.88672C9.54688 9.17578 9.17578 9.46094 8.87891 9.51563C8.66797 9.55469 8.69531 9.59766 8.94531 9.62109C9.6875 9.6875 10.1523 10.4219 10.1563 11.5313C10.1563 12.7695 9.55859 13.6016 8.37891 13.9883C8.10938 14.0781 8.07422 14.0781 5.96875 14.0898L3.82813 14.1055V10V5.89453L6.02734 5.91016C7.91797 5.92188 8.25 5.9336 8.43359 5.98828ZM15.0391 6.73828V7.10938H13.3984H11.7578V6.73828V6.36719H13.3984H15.0391V6.73828ZM14.2539 8.03125C14.9375 8.20313 15.5 8.66797 15.7969 9.30469C15.8906 9.50391 15.9961 9.78125 16.0313 9.92188C16.1133 10.2422 16.1914 11.082 16.1563 11.2656L16.1289 11.4063H14.1328H12.1367L12.1602 11.6992C12.1992 12.207 12.4297 12.5742 12.8359 12.7773C13.0078 12.8633 13.0742 12.8711 13.5352 12.8711C14.0117 12.8711 14.0547 12.8633 14.2656 12.7617C14.5313 12.6328 14.6758 12.4727 14.7344 12.2422L14.7813 12.0703H15.4375C16.1836 12.0703 16.1211 12.0313 16.0508 12.457C15.8945 13.375 15.1602 13.9648 13.9844 14.125C12.5664 14.3125 11.3945 13.7852 10.8828 12.7266C10.5078 11.9492 10.4297 11.2031 10.6289 10.2969C10.8906 9.10547 11.6211 8.29688 12.6563 8.03906C13.1211 7.92578 13.8242 7.92188 14.2539 8.03125Z" fill="#02BDD5"/>
<path d="M5.54688 8.16016V9.0625H6.69141C7.72656 9.0625 7.84766 9.05469 7.96875 8.99219C8.18359 8.875 8.25781 8.67969 8.27344 8.20312C8.28516 7.83594 8.27734 7.77344 8.19531 7.62109C8.01953 7.28125 8.04297 7.28516 6.71484 7.27344L5.54688 7.26172V8.16016Z" fill="#02BDD5"/>
<path d="M5.54688 11.4258V12.5391H6.71875C8.03516 12.5391 8.0625 12.5352 8.3125 12.25C8.47656 12.0625 8.53516 11.8477 8.53125 11.4062C8.53125 10.875 8.38281 10.5625 8.03906 10.3867C7.90625 10.3203 7.79687 10.3125 6.71875 10.3125H5.54688V11.4258Z" fill="#02BDD5"/>
<path d="M13.043 9.11719C12.6055 9.27344 12.2344 9.72266 12.1289 10.2227L12.1016 10.3516H13.4023H14.6992L14.6719 10.1289C14.6367 9.83594 14.4492 9.44922 14.2695 9.30078C14.1914 9.23438 14.0469 9.15625 13.9492 9.12109C13.7383 9.05078 13.2383 9.04688 13.043 9.11719Z" fill="#02BDD5"/>
</g>
<defs>
<clipPath id="clip0_717_539">
<rect width="20" height="20" fill="white"/>
</clipPath>
</defs>
</svg>
