<svg width="1728" height="1169" viewBox="0 0 1728 1169" fill="none" xmlns="http://www.w3.org/2000/svg">
<path d="M0 0H1728V1169H0V0Z" fill="url(#paint0_linear_33_11)" fill-opacity="0.2"/>
<path d="M1724.79 58.1913C1723.01 58.1913 1721.58 59.6716 1721.58 61.4977C1721.58 63.3237 1723.01 64.8041 1724.79 64.8041C1726.56 64.8041 1728 63.3237 1728 61.4977C1728 59.6716 1726.56 58.1913 1724.79 58.1913Z" fill="#C49628"/>
<path d="M1724.79 29.0966C1723.01 29.0966 1721.58 30.5769 1721.58 32.4029C1721.58 34.229 1723.01 35.7093 1724.79 35.7093C1726.56 35.7093 1728 34.229 1728 32.4029C1728 30.5769 1726.56 29.0966 1724.79 29.0966Z" fill="#C49628"/>
<path d="M1724.79 0.000621307C1723.01 0.000621227 1721.58 1.48092 1721.58 3.30697C1721.58 5.13303 1723.01 6.61332 1724.79 6.61332C1726.56 6.61332 1728 5.13303 1728 3.30697C1728 1.48092 1726.56 0.000621387 1724.79 0.000621307Z" fill="#C49628"/>
<path d="M1697.31 58.1925C1695.54 58.1925 1694.1 59.6728 1694.1 61.4988C1694.1 63.3249 1695.54 64.8052 1697.31 64.8052C1699.08 64.8052 1700.52 63.3249 1700.52 61.4988C1700.52 59.6728 1699.08 58.1925 1697.31 58.1925Z" fill="#C49628"/>
<path d="M1669.04 58.1925C1667.27 58.1925 1665.83 59.6728 1665.83 61.4988C1665.83 63.3249 1667.27 64.8052 1669.04 64.8052C1670.82 64.8052 1672.26 63.3249 1672.26 61.4988C1672.26 59.6728 1670.82 58.1925 1669.04 58.1925Z" fill="#C49628"/>
<path d="M1640.78 58.1925C1639 58.1925 1637.57 59.6728 1637.57 61.4988C1637.57 63.3249 1639 64.8052 1640.78 64.8052C1642.55 64.8052 1643.99 63.3249 1643.99 61.4988C1643.99 59.6728 1642.55 58.1925 1640.78 58.1925Z" fill="#C49628"/>
<path d="M1697.31 29.0966C1695.54 29.0966 1694.1 30.5769 1694.1 32.4029C1694.1 34.229 1695.54 35.7093 1697.31 35.7093C1699.08 35.7093 1700.52 34.229 1700.52 32.4029C1700.52 30.5769 1699.08 29.0966 1697.31 29.0966Z" fill="#C49628"/>
<path d="M1669.04 29.0966C1667.27 29.0966 1665.83 30.5769 1665.83 32.4029C1665.83 34.229 1667.27 35.7093 1669.04 35.7093C1670.82 35.7093 1672.26 34.229 1672.26 32.4029C1672.26 30.5769 1670.82 29.0966 1669.04 29.0966Z" fill="#C49628"/>
<path d="M1640.78 29.0966C1639 29.0966 1637.57 30.5769 1637.57 32.4029C1637.57 34.229 1639 35.7093 1640.78 35.7093C1642.55 35.7093 1643.99 34.229 1643.99 32.4029C1643.99 30.5769 1642.55 29.0966 1640.78 29.0966Z" fill="#C49628"/>
<path d="M1697.31 2.70133e-05C1695.54 2.69335e-05 1694.1 1.48035 1694.1 3.30641C1694.1 5.13246 1695.54 6.61276 1697.31 6.61276C1699.08 6.61276 1700.52 5.13246 1700.52 3.30641C1700.52 1.48035 1699.08 2.70932e-05 1697.31 2.70133e-05Z" fill="#C49628"/>
<path d="M1669.04 0C1667.27 -7.98193e-08 1665.83 1.48035 1665.83 3.30641C1665.83 5.13246 1667.27 6.61276 1669.04 6.61276C1670.82 6.61276 1672.26 5.13246 1672.26 3.30641C1672.26 1.48035 1670.82 7.98193e-08 1669.04 0Z" fill="#C49628"/>
<path d="M1640.78 0C1639 -7.98193e-08 1637.57 1.48035 1637.57 3.30641C1637.57 5.13246 1639 6.61276 1640.78 6.61276C1642.55 6.61276 1643.99 5.13246 1643.99 3.30641C1643.99 1.48035 1642.55 7.98193e-08 1640.78 0Z" fill="#C49628"/>
<path d="M1724.79 144.952C1723.01 144.952 1721.58 146.432 1721.58 148.258C1721.58 150.084 1723.01 151.564 1724.79 151.564C1726.56 151.564 1728 150.084 1728 148.258C1728 146.432 1726.56 144.952 1724.79 144.952Z" fill="#C49628"/>
<path d="M1724.79 115.856C1723.01 115.856 1721.58 117.336 1721.58 119.162C1721.58 120.988 1723.01 122.468 1724.79 122.468C1726.56 122.468 1728 120.988 1728 119.162C1728 117.336 1726.56 115.856 1724.79 115.856Z" fill="#C49628"/>
<path d="M1724.79 173.387C1723.01 173.387 1721.58 174.868 1721.58 176.694C1721.58 178.52 1723.01 180 1724.79 180C1726.56 180 1728 178.52 1728 176.694C1728 174.868 1726.56 173.387 1724.79 173.387Z" fill="#C49628"/>
<path d="M1724.79 86.7604C1723.01 86.7604 1721.58 88.2407 1721.58 90.0668C1721.58 91.8928 1723.01 93.3731 1724.79 93.3731C1726.56 93.3731 1728 91.8928 1728 90.0668C1728 88.2407 1726.56 86.7604 1724.79 86.7604Z" fill="#C49628"/>
<path d="M1697.31 144.952C1695.54 144.952 1694.1 146.433 1694.1 148.259C1694.1 150.085 1695.54 151.565 1697.31 151.565C1699.08 151.565 1700.52 150.085 1700.52 148.259C1700.52 146.433 1699.08 144.952 1697.31 144.952Z" fill="#C49628"/>
<path d="M1669.04 144.952C1667.27 144.952 1665.83 146.433 1665.83 148.259C1665.83 150.085 1667.27 151.565 1669.04 151.565C1670.82 151.565 1672.26 150.085 1672.26 148.259C1672.26 146.433 1670.82 144.952 1669.04 144.952Z" fill="#C49628"/>
<path d="M1640.78 144.952C1639 144.952 1637.57 146.433 1637.57 148.259C1637.57 150.085 1639 151.565 1640.78 151.565C1642.55 151.565 1643.99 150.085 1643.99 148.259C1643.99 146.433 1642.55 144.952 1640.78 144.952Z" fill="#C49628"/>
<path d="M1697.31 115.856C1695.54 115.856 1694.1 117.336 1694.1 119.162C1694.1 120.988 1695.54 122.468 1697.31 122.468C1699.08 122.468 1700.52 120.988 1700.52 119.162C1700.52 117.336 1699.08 115.856 1697.31 115.856Z" fill="#C49628"/>
<path d="M1669.04 115.856C1667.27 115.856 1665.83 117.337 1665.83 119.163C1665.83 120.989 1667.27 122.469 1669.04 122.469C1670.82 122.469 1672.26 120.989 1672.26 119.163C1672.26 117.337 1670.82 115.856 1669.04 115.856Z" fill="#C49628"/>
<path d="M1640.78 115.856C1639 115.856 1637.57 117.337 1637.57 119.163C1637.57 120.989 1639 122.469 1640.78 122.469C1642.55 122.469 1643.99 120.989 1643.99 119.163C1643.99 117.337 1642.55 115.856 1640.78 115.856Z" fill="#C49628"/>
<path d="M1697.31 173.387C1695.54 173.387 1694.1 174.867 1694.1 176.693C1694.1 178.519 1695.54 179.999 1697.31 179.999C1699.08 179.999 1700.52 178.519 1700.52 176.693C1700.52 174.867 1699.08 173.387 1697.31 173.387Z" fill="#C49628"/>
<path d="M1697.31 86.7598C1695.54 86.7598 1694.1 88.2401 1694.1 90.0661C1694.1 91.8922 1695.54 93.3726 1697.31 93.3726C1699.08 93.3726 1700.52 91.8922 1700.52 90.0661C1700.52 88.2401 1699.08 86.7598 1697.31 86.7598Z" fill="#C49628"/>
<path d="M1669.04 173.387C1667.27 173.387 1665.83 174.867 1665.83 176.693C1665.83 178.519 1667.27 179.999 1669.04 179.999C1670.82 179.999 1672.26 178.519 1672.26 176.693C1672.26 174.867 1670.82 173.387 1669.04 173.387Z" fill="#C49628"/>
<path d="M1669.04 86.7598C1667.27 86.7598 1665.83 88.2401 1665.83 90.0661C1665.83 91.8922 1667.27 93.3726 1669.04 93.3726C1670.82 93.3726 1672.26 91.8922 1672.26 90.0661C1672.26 88.2401 1670.82 86.7598 1669.04 86.7598Z" fill="#C49628"/>
<path d="M1640.78 173.387C1639 173.387 1637.57 174.867 1637.57 176.693C1637.57 178.519 1639 179.999 1640.78 179.999C1642.55 179.999 1643.99 178.519 1643.99 176.693C1643.99 174.867 1642.55 173.387 1640.78 173.387Z" fill="#C49628"/>
<path d="M1640.78 86.7598C1639 86.7598 1637.57 88.2401 1637.57 90.0661C1637.57 91.8922 1639 93.3726 1640.78 93.3726C1642.55 93.3726 1643.99 91.8922 1643.99 90.0661C1643.99 88.2401 1642.55 86.7598 1640.78 86.7598Z" fill="#C49628"/>
<path d="M1615.22 58.1913C1613.45 58.1913 1612.01 59.6716 1612.01 61.4977C1612.01 63.3237 1613.45 64.8041 1615.22 64.8041C1617 64.8041 1618.43 63.3237 1618.43 61.4977C1618.43 59.6716 1617 58.1913 1615.22 58.1913Z" fill="#C49628"/>
<path d="M1615.22 29.0966C1613.45 29.0966 1612.01 30.5769 1612.01 32.4029C1612.01 34.229 1613.45 35.7093 1615.22 35.7093C1617 35.7093 1618.43 34.229 1618.43 32.4029C1618.43 30.5769 1617 29.0966 1615.22 29.0966Z" fill="#C49628"/>
<path d="M1615.22 0.000621307C1613.45 0.000621227 1612.01 1.48092 1612.01 3.30697C1612.01 5.13303 1613.45 6.61332 1615.22 6.61332C1617 6.61332 1618.43 5.13303 1618.43 3.30697C1618.43 1.48092 1617 0.000621387 1615.22 0.000621307Z" fill="#C49628"/>
<path d="M1587.74 58.1925C1585.97 58.1925 1584.53 59.6728 1584.53 61.4988C1584.53 63.3249 1585.97 64.8052 1587.74 64.8052C1589.52 64.8052 1590.96 63.3249 1590.96 61.4988C1590.96 59.6728 1589.52 58.1925 1587.74 58.1925Z" fill="#C49628"/>
<path d="M1559.48 58.1925C1557.7 58.1925 1556.27 59.6728 1556.27 61.4988C1556.27 63.3249 1557.7 64.8052 1559.48 64.8052C1561.25 64.8052 1562.69 63.3249 1562.69 61.4988C1562.69 59.6728 1561.25 58.1925 1559.48 58.1925Z" fill="#C49628"/>
<path d="M1531.21 58.1925C1529.44 58.1925 1528 59.6728 1528 61.4988C1528 63.3249 1529.44 64.8052 1531.21 64.8052C1532.99 64.8052 1534.42 63.3249 1534.42 61.4988C1534.42 59.6728 1532.99 58.1925 1531.21 58.1925Z" fill="#C49628"/>
<path d="M1587.74 29.0966C1585.97 29.0966 1584.53 30.5769 1584.53 32.4029C1584.53 34.229 1585.97 35.7093 1587.74 35.7093C1589.52 35.7093 1590.96 34.229 1590.96 32.4029C1590.96 30.5769 1589.52 29.0966 1587.74 29.0966Z" fill="#C49628"/>
<path d="M1559.48 29.0966C1557.7 29.0966 1556.27 30.5769 1556.27 32.4029C1556.27 34.229 1557.7 35.7093 1559.48 35.7093C1561.25 35.7093 1562.69 34.229 1562.69 32.4029C1562.69 30.5769 1561.25 29.0966 1559.48 29.0966Z" fill="#C49628"/>
<path d="M1531.21 29.0966C1529.44 29.0966 1528 30.5769 1528 32.4029C1528 34.229 1529.44 35.7093 1531.21 35.7093C1532.99 35.7093 1534.42 34.229 1534.42 32.4029C1534.42 30.5769 1532.99 29.0966 1531.21 29.0966Z" fill="#C49628"/>
<path d="M1587.74 2.70133e-05C1585.97 2.69335e-05 1584.53 1.48035 1584.53 3.30641C1584.53 5.13246 1585.97 6.61276 1587.74 6.61276C1589.52 6.61276 1590.96 5.13246 1590.96 3.30641C1590.96 1.48035 1589.52 2.70932e-05 1587.74 2.70133e-05Z" fill="#C49628"/>
<path d="M1559.48 0C1557.7 -7.98193e-08 1556.27 1.48035 1556.27 3.30641C1556.27 5.13246 1557.7 6.61276 1559.48 6.61276C1561.25 6.61276 1562.69 5.13246 1562.69 3.30641C1562.69 1.48035 1561.25 7.98193e-08 1559.48 0Z" fill="#C49628"/>
<path d="M1531.21 0C1529.44 -7.98193e-08 1528 1.48035 1528 3.30641C1528 5.13246 1529.44 6.61276 1531.21 6.61276C1532.99 6.61276 1534.42 5.13246 1534.42 3.30641C1534.42 1.48035 1532.99 7.98193e-08 1531.21 0Z" fill="#C49628"/>
<path d="M1615.22 144.952C1613.45 144.952 1612.01 146.432 1612.01 148.258C1612.01 150.084 1613.45 151.564 1615.22 151.564C1617 151.564 1618.43 150.084 1618.43 148.258C1618.43 146.432 1617 144.952 1615.22 144.952Z" fill="#C49628"/>
<path d="M1615.22 115.856C1613.45 115.856 1612.01 117.336 1612.01 119.162C1612.01 120.988 1613.45 122.468 1615.22 122.468C1617 122.468 1618.43 120.988 1618.43 119.162C1618.43 117.336 1617 115.856 1615.22 115.856Z" fill="#C49628"/>
<path d="M1615.22 173.387C1613.45 173.387 1612.01 174.868 1612.01 176.694C1612.01 178.52 1613.45 180 1615.22 180C1617 180 1618.43 178.52 1618.43 176.694C1618.43 174.868 1617 173.387 1615.22 173.387Z" fill="#C49628"/>
<path d="M1615.22 86.7604C1613.45 86.7604 1612.01 88.2407 1612.01 90.0668C1612.01 91.8928 1613.45 93.3731 1615.22 93.3731C1617 93.3731 1618.43 91.8928 1618.43 90.0668C1618.43 88.2407 1617 86.7604 1615.22 86.7604Z" fill="#C49628"/>
<path d="M1587.74 144.952C1585.97 144.952 1584.53 146.433 1584.53 148.259C1584.53 150.085 1585.97 151.565 1587.74 151.565C1589.52 151.565 1590.96 150.085 1590.96 148.259C1590.96 146.433 1589.52 144.952 1587.74 144.952Z" fill="#C49628"/>
<path d="M1559.48 144.952C1557.7 144.952 1556.27 146.433 1556.27 148.259C1556.27 150.085 1557.7 151.565 1559.48 151.565C1561.25 151.565 1562.69 150.085 1562.69 148.259C1562.69 146.433 1561.25 144.952 1559.48 144.952Z" fill="#C49628"/>
<path d="M1531.21 144.952C1529.44 144.952 1528 146.433 1528 148.259C1528 150.085 1529.44 151.565 1531.21 151.565C1532.99 151.565 1534.42 150.085 1534.42 148.259C1534.42 146.433 1532.99 144.952 1531.21 144.952Z" fill="#C49628"/>
<path d="M1587.74 115.856C1585.97 115.856 1584.53 117.336 1584.53 119.162C1584.53 120.988 1585.97 122.468 1587.74 122.468C1589.52 122.468 1590.96 120.988 1590.96 119.162C1590.96 117.336 1589.52 115.856 1587.74 115.856Z" fill="#C49628"/>
<path d="M1559.48 115.856C1557.7 115.856 1556.27 117.337 1556.27 119.163C1556.27 120.989 1557.7 122.469 1559.48 122.469C1561.25 122.469 1562.69 120.989 1562.69 119.163C1562.69 117.337 1561.25 115.856 1559.48 115.856Z" fill="#C49628"/>
<path d="M1531.21 115.856C1529.44 115.856 1528 117.337 1528 119.163C1528 120.989 1529.44 122.469 1531.21 122.469C1532.99 122.469 1534.42 120.989 1534.42 119.163C1534.42 117.337 1532.99 115.856 1531.21 115.856Z" fill="#C49628"/>
<path d="M1587.74 173.387C1585.97 173.387 1584.53 174.867 1584.53 176.693C1584.53 178.519 1585.97 179.999 1587.74 179.999C1589.52 179.999 1590.96 178.519 1590.96 176.693C1590.96 174.867 1589.52 173.387 1587.74 173.387Z" fill="#C49628"/>
<path d="M1587.74 86.7598C1585.97 86.7598 1584.53 88.2401 1584.53 90.0661C1584.53 91.8922 1585.97 93.3726 1587.74 93.3726C1589.52 93.3726 1590.96 91.8922 1590.96 90.0661C1590.96 88.2401 1589.52 86.7598 1587.74 86.7598Z" fill="#C49628"/>
<path d="M1559.48 173.387C1557.7 173.387 1556.27 174.867 1556.27 176.693C1556.27 178.519 1557.7 179.999 1559.48 179.999C1561.25 179.999 1562.69 178.519 1562.69 176.693C1562.69 174.867 1561.25 173.387 1559.48 173.387Z" fill="#C49628"/>
<path d="M1559.48 86.7598C1557.7 86.7598 1556.27 88.2401 1556.27 90.0661C1556.27 91.8922 1557.7 93.3726 1559.48 93.3726C1561.25 93.3726 1562.69 91.8922 1562.69 90.0661C1562.69 88.2401 1561.25 86.7598 1559.48 86.7598Z" fill="#C49628"/>
<path d="M1531.21 173.387C1529.44 173.387 1528 174.867 1528 176.693C1528 178.519 1529.44 179.999 1531.21 179.999C1532.99 179.999 1534.42 178.519 1534.42 176.693C1534.42 174.867 1532.99 173.387 1531.21 173.387Z" fill="#C49628"/>
<path d="M1531.21 86.7598C1529.44 86.7598 1528 88.2401 1528 90.0661C1528 91.8922 1529.44 93.3726 1531.21 93.3726C1532.99 93.3726 1534.42 91.8922 1534.42 90.0661C1534.42 88.2401 1532.99 86.7598 1531.21 86.7598Z" fill="#C49628"/>
<path d="M196.788 1047.19C195.014 1047.19 193.576 1048.67 193.576 1050.5C193.576 1052.32 195.014 1053.8 196.788 1053.8C198.562 1053.8 200 1052.32 200 1050.5C200 1048.67 198.562 1047.19 196.788 1047.19Z" fill="#C49628"/>
<path d="M196.788 1018.1C195.014 1018.1 193.576 1019.58 193.576 1021.4C193.576 1023.23 195.014 1024.71 196.788 1024.71C198.562 1024.71 200 1023.23 200 1021.4C200 1019.58 198.562 1018.1 196.788 1018.1Z" fill="#C49628"/>
<path d="M196.788 989.001C195.014 989.001 193.576 990.481 193.576 992.307C193.576 994.133 195.014 995.613 196.788 995.613C198.562 995.613 200 994.133 200 992.307C200 990.481 198.562 989.001 196.788 989.001Z" fill="#C49628"/>
<path d="M169.309 1047.19C167.535 1047.19 166.097 1048.67 166.097 1050.5C166.097 1052.32 167.535 1053.81 169.309 1053.81C171.083 1053.81 172.521 1052.32 172.521 1050.5C172.521 1048.67 171.083 1047.19 169.309 1047.19Z" fill="#C49628"/>
<path d="M141.043 1047.19C139.269 1047.19 137.831 1048.67 137.831 1050.5C137.831 1052.32 139.269 1053.81 141.043 1053.81C142.817 1053.81 144.255 1052.32 144.255 1050.5C144.255 1048.67 142.817 1047.19 141.043 1047.19Z" fill="#C49628"/>
<path d="M112.777 1047.19C111.003 1047.19 109.565 1048.67 109.565 1050.5C109.565 1052.32 111.003 1053.81 112.777 1053.81C114.551 1053.81 115.989 1052.32 115.989 1050.5C115.989 1048.67 114.551 1047.19 112.777 1047.19Z" fill="#C49628"/>
<path d="M169.309 1018.1C167.535 1018.1 166.097 1019.58 166.097 1021.4C166.097 1023.23 167.535 1024.71 169.309 1024.71C171.083 1024.71 172.521 1023.23 172.521 1021.4C172.521 1019.58 171.083 1018.1 169.309 1018.1Z" fill="#C49628"/>
<path d="M141.043 1018.1C139.269 1018.1 137.831 1019.58 137.831 1021.4C137.831 1023.23 139.269 1024.71 141.043 1024.71C142.817 1024.71 144.255 1023.23 144.255 1021.4C144.255 1019.58 142.817 1018.1 141.043 1018.1Z" fill="#C49628"/>
<path d="M112.777 1018.1C111.003 1018.1 109.565 1019.58 109.565 1021.4C109.565 1023.23 111.003 1024.71 112.777 1024.71C114.551 1024.71 115.989 1023.23 115.989 1021.4C115.989 1019.58 114.551 1018.1 112.777 1018.1Z" fill="#C49628"/>
<path d="M169.309 989C167.535 989 166.097 990.48 166.097 992.306C166.097 994.132 167.535 995.613 169.309 995.613C171.083 995.613 172.521 994.132 172.521 992.306C172.521 990.48 171.083 989 169.309 989Z" fill="#C49628"/>
<path d="M141.043 989C139.269 989 137.831 990.48 137.831 992.306C137.831 994.132 139.269 995.613 141.043 995.613C142.817 995.613 144.255 994.132 144.255 992.306C144.255 990.48 142.817 989 141.043 989Z" fill="#C49628"/>
<path d="M112.777 989C111.003 989 109.565 990.48 109.565 992.306C109.565 994.132 111.003 995.613 112.777 995.613C114.551 995.613 115.989 994.132 115.989 992.306C115.989 990.48 114.551 989 112.777 989Z" fill="#C49628"/>
<path d="M196.788 1133.95C195.014 1133.95 193.576 1135.43 193.576 1137.26C193.576 1139.08 195.014 1140.56 196.788 1140.56C198.562 1140.56 200 1139.08 200 1137.26C200 1135.43 198.562 1133.95 196.788 1133.95Z" fill="#C49628"/>
<path d="M196.788 1104.86C195.014 1104.86 193.576 1106.34 193.576 1108.16C193.576 1109.99 195.014 1111.47 196.788 1111.47C198.562 1111.47 200 1109.99 200 1108.16C200 1106.34 198.562 1104.86 196.788 1104.86Z" fill="#C49628"/>
<path d="M196.788 1162.39C195.014 1162.39 193.576 1163.87 193.576 1165.69C193.576 1167.52 195.014 1169 196.788 1169C198.562 1169 200 1167.52 200 1165.69C200 1163.87 198.562 1162.39 196.788 1162.39Z" fill="#C49628"/>
<path d="M196.788 1075.76C195.014 1075.76 193.576 1077.24 193.576 1079.07C193.576 1080.89 195.014 1082.37 196.788 1082.37C198.562 1082.37 200 1080.89 200 1079.07C200 1077.24 198.562 1075.76 196.788 1075.76Z" fill="#C49628"/>
<path d="M169.309 1133.95C167.535 1133.95 166.097 1135.43 166.097 1137.26C166.097 1139.08 167.535 1140.57 169.309 1140.57C171.083 1140.57 172.521 1139.08 172.521 1137.26C172.521 1135.43 171.083 1133.95 169.309 1133.95Z" fill="#C49628"/>
<path d="M141.043 1133.95C139.269 1133.95 137.831 1135.43 137.831 1137.26C137.831 1139.08 139.269 1140.57 141.043 1140.57C142.817 1140.57 144.255 1139.08 144.255 1137.26C144.255 1135.43 142.817 1133.95 141.043 1133.95Z" fill="#C49628"/>
<path d="M112.777 1133.95C111.003 1133.95 109.565 1135.43 109.565 1137.26C109.565 1139.08 111.003 1140.57 112.777 1140.57C114.551 1140.57 115.989 1139.08 115.989 1137.26C115.989 1135.43 114.551 1133.95 112.777 1133.95Z" fill="#C49628"/>
<path d="M169.309 1104.86C167.535 1104.86 166.097 1106.34 166.097 1108.16C166.097 1109.99 167.535 1111.47 169.309 1111.47C171.083 1111.47 172.521 1109.99 172.521 1108.16C172.521 1106.34 171.083 1104.86 169.309 1104.86Z" fill="#C49628"/>
<path d="M141.043 1104.86C139.269 1104.86 137.831 1106.34 137.831 1108.16C137.831 1109.99 139.269 1111.47 141.043 1111.47C142.817 1111.47 144.255 1109.99 144.255 1108.16C144.255 1106.34 142.817 1104.86 141.043 1104.86Z" fill="#C49628"/>
<path d="M112.777 1104.86C111.003 1104.86 109.565 1106.34 109.565 1108.16C109.565 1109.99 111.003 1111.47 112.777 1111.47C114.551 1111.47 115.989 1109.99 115.989 1108.16C115.989 1106.34 114.551 1104.86 112.777 1104.86Z" fill="#C49628"/>
<path d="M169.309 1162.39C167.535 1162.39 166.097 1163.87 166.097 1165.69C166.097 1167.52 167.535 1169 169.309 1169C171.083 1169 172.521 1167.52 172.521 1165.69C172.521 1163.87 171.083 1162.39 169.309 1162.39Z" fill="#C49628"/>
<path d="M169.309 1075.76C167.535 1075.76 166.097 1077.24 166.097 1079.07C166.097 1080.89 167.535 1082.37 169.309 1082.37C171.083 1082.37 172.521 1080.89 172.521 1079.07C172.521 1077.24 171.083 1075.76 169.309 1075.76Z" fill="#C49628"/>
<path d="M141.043 1162.39C139.269 1162.39 137.831 1163.87 137.831 1165.69C137.831 1167.52 139.269 1169 141.043 1169C142.817 1169 144.255 1167.52 144.255 1165.69C144.255 1163.87 142.817 1162.39 141.043 1162.39Z" fill="#C49628"/>
<path d="M141.043 1075.76C139.269 1075.76 137.831 1077.24 137.831 1079.07C137.831 1080.89 139.269 1082.37 141.043 1082.37C142.817 1082.37 144.255 1080.89 144.255 1079.07C144.255 1077.24 142.817 1075.76 141.043 1075.76Z" fill="#C49628"/>
<path d="M112.777 1162.39C111.003 1162.39 109.565 1163.87 109.565 1165.69C109.565 1167.52 111.003 1169 112.777 1169C114.551 1169 115.989 1167.52 115.989 1165.69C115.989 1163.87 114.551 1162.39 112.777 1162.39Z" fill="#C49628"/>
<path d="M112.777 1075.76C111.003 1075.76 109.565 1077.24 109.565 1079.07C109.565 1080.89 111.003 1082.37 112.777 1082.37C114.551 1082.37 115.989 1080.89 115.989 1079.07C115.989 1077.24 114.551 1075.76 112.777 1075.76Z" fill="#C49628"/>
<path d="M87.2228 1047.19C85.4488 1047.19 84.0107 1048.67 84.0107 1050.5C84.0107 1052.32 85.4488 1053.8 87.2228 1053.8C88.9967 1053.8 90.4348 1052.32 90.4348 1050.5C90.4348 1048.67 88.9967 1047.19 87.2228 1047.19Z" fill="#C49628"/>
<path d="M87.2228 1018.1C85.4488 1018.1 84.0107 1019.58 84.0107 1021.4C84.0107 1023.23 85.4488 1024.71 87.2228 1024.71C88.9967 1024.71 90.4348 1023.23 90.4348 1021.4C90.4348 1019.58 88.9967 1018.1 87.2228 1018.1Z" fill="#C49628"/>
<path d="M87.2228 989.001C85.4488 989.001 84.0107 990.481 84.0107 992.307C84.0107 994.133 85.4488 995.613 87.2228 995.613C88.9967 995.613 90.4348 994.133 90.4348 992.307C90.4348 990.481 88.9967 989.001 87.2228 989.001Z" fill="#C49628"/>
<path d="M59.7438 1047.19C57.9699 1047.19 56.5318 1048.67 56.5318 1050.5C56.5318 1052.32 57.9699 1053.81 59.7438 1053.81C61.5178 1053.81 62.9559 1052.32 62.9559 1050.5C62.9559 1048.67 61.5178 1047.19 59.7438 1047.19Z" fill="#C49628"/>
<path d="M31.4778 1047.19C29.7039 1047.19 28.2658 1048.67 28.2658 1050.5C28.2658 1052.32 29.7039 1053.81 31.4778 1053.81C33.2518 1053.81 34.6899 1052.32 34.6899 1050.5C34.6899 1048.67 33.2518 1047.19 31.4778 1047.19Z" fill="#C49628"/>
<path d="M3.21207 1047.19C1.4381 1047.19 3.12047e-05 1048.67 3.11272e-05 1050.5C3.10496e-05 1052.32 1.4381 1053.81 3.21207 1053.81C4.98603 1053.81 6.4241 1052.32 6.4241 1050.5C6.4241 1048.67 4.98603 1047.19 3.21207 1047.19Z" fill="#C49628"/>
<path d="M59.7438 1018.1C57.9699 1018.1 56.5318 1019.58 56.5318 1021.4C56.5318 1023.23 57.9699 1024.71 59.7438 1024.71C61.5178 1024.71 62.9559 1023.23 62.9559 1021.4C62.9559 1019.58 61.5178 1018.1 59.7438 1018.1Z" fill="#C49628"/>
<path d="M31.4778 1018.1C29.7039 1018.1 28.2658 1019.58 28.2658 1021.4C28.2658 1023.23 29.7039 1024.71 31.4778 1024.71C33.2518 1024.71 34.6899 1023.23 34.6899 1021.4C34.6899 1019.58 33.2518 1018.1 31.4778 1018.1Z" fill="#C49628"/>
<path d="M3.21207 1018.1C1.4381 1018.1 3.12047e-05 1019.58 3.11272e-05 1021.4C3.10496e-05 1023.23 1.4381 1024.71 3.21207 1024.71C4.98603 1024.71 6.4241 1023.23 6.4241 1021.4C6.4241 1019.58 4.98603 1018.1 3.21207 1018.1Z" fill="#C49628"/>
<path d="M59.7438 989C57.9699 989 56.5318 990.48 56.5318 992.306C56.5318 994.132 57.9699 995.613 59.7438 995.613C61.5178 995.613 62.9559 994.132 62.9559 992.306C62.9559 990.48 61.5178 989 59.7438 989Z" fill="#C49628"/>
<path d="M31.4778 989C29.7039 989 28.2658 990.48 28.2658 992.306C28.2658 994.132 29.7039 995.613 31.4778 995.613C33.2518 995.613 34.6899 994.132 34.6899 992.306C34.6899 990.48 33.2518 989 31.4778 989Z" fill="#C49628"/>
<path d="M3.21207 989C1.4381 989 3.12047e-05 990.48 3.11272e-05 992.306C3.10496e-05 994.132 1.4381 995.613 3.21207 995.613C4.98603 995.613 6.4241 994.132 6.4241 992.306C6.4241 990.48 4.98603 989 3.21207 989Z" fill="#C49628"/>
<path d="M87.2228 1133.95C85.4488 1133.95 84.0107 1135.43 84.0107 1137.26C84.0107 1139.08 85.4488 1140.56 87.2228 1140.56C88.9967 1140.56 90.4348 1139.08 90.4348 1137.26C90.4348 1135.43 88.9967 1133.95 87.2228 1133.95Z" fill="#C49628"/>
<path d="M87.2228 1104.86C85.4488 1104.86 84.0107 1106.34 84.0107 1108.16C84.0107 1109.99 85.4488 1111.47 87.2228 1111.47C88.9967 1111.47 90.4348 1109.99 90.4348 1108.16C90.4348 1106.34 88.9967 1104.86 87.2228 1104.86Z" fill="#C49628"/>
<path d="M87.2228 1162.39C85.4488 1162.39 84.0107 1163.87 84.0107 1165.69C84.0107 1167.52 85.4488 1169 87.2228 1169C88.9967 1169 90.4348 1167.52 90.4348 1165.69C90.4348 1163.87 88.9967 1162.39 87.2228 1162.39Z" fill="#C49628"/>
<path d="M87.2228 1075.76C85.4488 1075.76 84.0107 1077.24 84.0107 1079.07C84.0107 1080.89 85.4488 1082.37 87.2228 1082.37C88.9967 1082.37 90.4348 1080.89 90.4348 1079.07C90.4348 1077.24 88.9967 1075.76 87.2228 1075.76Z" fill="#C49628"/>
<path d="M59.7438 1133.95C57.9699 1133.95 56.5318 1135.43 56.5318 1137.26C56.5318 1139.08 57.9699 1140.57 59.7438 1140.57C61.5178 1140.57 62.9559 1139.08 62.9559 1137.26C62.9559 1135.43 61.5178 1133.95 59.7438 1133.95Z" fill="#C49628"/>
<path d="M31.4778 1133.95C29.7039 1133.95 28.2658 1135.43 28.2658 1137.26C28.2658 1139.08 29.7039 1140.57 31.4778 1140.57C33.2518 1140.57 34.6899 1139.08 34.6899 1137.26C34.6899 1135.43 33.2518 1133.95 31.4778 1133.95Z" fill="#C49628"/>
<path d="M3.21207 1133.95C1.4381 1133.95 3.12047e-05 1135.43 3.11272e-05 1137.26C3.10496e-05 1139.08 1.4381 1140.57 3.21207 1140.57C4.98603 1140.57 6.4241 1139.08 6.4241 1137.26C6.4241 1135.43 4.98603 1133.95 3.21207 1133.95Z" fill="#C49628"/>
<path d="M59.7438 1104.86C57.9699 1104.86 56.5318 1106.34 56.5318 1108.16C56.5318 1109.99 57.9699 1111.47 59.7438 1111.47C61.5178 1111.47 62.9559 1109.99 62.9559 1108.16C62.9559 1106.34 61.5178 1104.86 59.7438 1104.86Z" fill="#C49628"/>
<path d="M31.4778 1104.86C29.7039 1104.86 28.2658 1106.34 28.2658 1108.16C28.2658 1109.99 29.7039 1111.47 31.4778 1111.47C33.2518 1111.47 34.6899 1109.99 34.6899 1108.16C34.6899 1106.34 33.2518 1104.86 31.4778 1104.86Z" fill="#C49628"/>
<path d="M3.21207 1104.86C1.4381 1104.86 3.12047e-05 1106.34 3.11272e-05 1108.16C3.10496e-05 1109.99 1.4381 1111.47 3.21207 1111.47C4.98603 1111.47 6.4241 1109.99 6.4241 1108.16C6.4241 1106.34 4.98603 1104.86 3.21207 1104.86Z" fill="#C49628"/>
<path d="M59.7438 1162.39C57.9699 1162.39 56.5318 1163.87 56.5318 1165.69C56.5318 1167.52 57.9699 1169 59.7438 1169C61.5178 1169 62.9559 1167.52 62.9559 1165.69C62.9559 1163.87 61.5178 1162.39 59.7438 1162.39Z" fill="#C49628"/>
<path d="M59.7438 1075.76C57.9699 1075.76 56.5318 1077.24 56.5318 1079.07C56.5318 1080.89 57.9699 1082.37 59.7438 1082.37C61.5178 1082.37 62.9559 1080.89 62.9559 1079.07C62.9559 1077.24 61.5178 1075.76 59.7438 1075.76Z" fill="#C49628"/>
<path d="M31.4778 1162.39C29.7039 1162.39 28.2658 1163.87 28.2658 1165.69C28.2658 1167.52 29.7039 1169 31.4778 1169C33.2518 1169 34.6899 1167.52 34.6899 1165.69C34.6899 1163.87 33.2518 1162.39 31.4778 1162.39Z" fill="#C49628"/>
<path d="M31.4778 1075.76C29.7039 1075.76 28.2658 1077.24 28.2658 1079.07C28.2658 1080.89 29.7039 1082.37 31.4778 1082.37C33.2518 1082.37 34.6899 1080.89 34.6899 1079.07C34.6899 1077.24 33.2518 1075.76 31.4778 1075.76Z" fill="#C49628"/>
<path d="M3.21207 1162.39C1.4381 1162.39 3.12047e-05 1163.87 3.11272e-05 1165.69C3.10496e-05 1167.52 1.4381 1169 3.21207 1169C4.98603 1169 6.4241 1167.52 6.4241 1165.69C6.4241 1163.87 4.98603 1162.39 3.21207 1162.39Z" fill="#C49628"/>
<path d="M3.21207 1075.76C1.4381 1075.76 3.12047e-05 1077.24 3.11272e-05 1079.07C3.10496e-05 1080.89 1.4381 1082.37 3.21207 1082.37C4.98603 1082.37 6.4241 1080.89 6.4241 1079.07C6.4241 1077.24 4.98603 1075.76 3.21207 1075.76Z" fill="#C49628"/>
<defs>
<linearGradient id="paint0_linear_33_11" x1="-4.10186e-06" y1="559.125" x2="1728" y2="559.125" gradientUnits="userSpaceOnUse">
<stop stop-color="#C0921E"/>
<stop offset="1" stop-color="#B68915"/>
</linearGradient>
</defs>
</svg>
