<svg width="16" height="16" viewBox="0 0 16 16" fill="none" xmlns="http://www.w3.org/2000/svg">
<g clip-path="url(#clip0_165_736)">
<path d="M0.859325 0.056056C0.4687 0.190431 0.13745 0.546681 0.0311996 0.946681C-0.0219254 1.14043 0.00619965 2.34043 0.0780746 2.93731C0.2812 4.65606 0.721825 6.17168 1.46557 7.70293C2.21245 9.24356 3.08432 10.4623 4.30932 11.6904C5.53745 12.9154 6.7562 13.7873 8.29682 14.5342C9.82807 15.2779 11.3437 15.7186 13.0624 15.9217C13.6593 15.9936 14.8593 16.0217 15.0531 15.9686C15.3531 15.8904 15.6375 15.6779 15.8093 15.4092C15.9999 15.1154 15.9999 15.1186 15.9999 13.2467C15.9999 11.7373 15.9937 11.5248 15.9468 11.3873C15.8468 11.0904 15.6749 10.8686 15.4218 10.7029C15.1718 10.5436 15.0062 10.5029 14.5187 10.4811C13.6624 10.4498 12.9625 10.3373 12.1874 10.1154C11.6593 9.96543 11.3281 9.94356 11.0343 10.0404C10.8187 10.1123 10.8281 10.1061 9.72495 10.9436L8.79058 11.6498L8.40308 11.4248C6.67182 10.4217 5.57182 9.32168 4.57495 7.59668L4.34995 7.20918L5.0562 6.27168C5.44682 5.75606 5.79682 5.29043 5.83745 5.23731C5.9437 5.09356 6.0312 4.77481 6.0312 4.53106C6.0312 4.38106 5.99682 4.19668 5.90307 3.87168C5.6687 3.04043 5.5812 2.49356 5.5312 1.57793C5.50307 1.02481 5.47495 0.881056 5.35932 0.656056C5.28432 0.509181 5.04057 0.259181 4.88745 0.168556C4.60307 0.00293064 4.58745 -0.000193596 2.73432 0.00293064C1.19682 0.00293064 0.99995 0.00918102 0.859325 0.056056Z" fill="white"/>
</g>
<defs>
<clipPath id="clip0_165_736">
<rect width="16" height="16" fill="white"/>
</clipPath>
</defs>
</svg>
