<svg width="148" height="148" viewBox="0 0 148 148" fill="none" xmlns="http://www.w3.org/2000/svg">
<g filter="url(#filter0_bd_4_5840)">
<rect x="20" y="19" width="108" height="108" rx="18" fill="url(#paint0_linear_4_5840)" shape-rendering="crispEdges"/>
<rect x="21" y="20" width="106" height="106" rx="17" stroke="white" stroke-opacity="0.8" stroke-width="2" shape-rendering="crispEdges"/>
</g>
<path d="M83.05 42.3375C82.55 44.5875 82.55 44.575 81.975 44.7375C81.675 44.825 80.95 45.125 80.35 45.4L79.25 45.9125L78.1 45.2L76.9375 44.5L74.225 47.2125C72.7375 48.7 71.525 49.95 71.55 49.9875C71.5625 50.025 71.8875 50.55 72.25 51.1625L72.9125 52.25L72.4 53.35C72.125 53.95 71.825 54.675 71.7375 54.975C71.575 55.55 71.6875 55.4875 69.85 55.95L69 56.15V57.1375C69 57.95 68.9625 58.125 68.8125 58.125C68.4375 58.125 67.8 58.55 64.35 61.1375C62.4375 62.5875 60.725 63.8125 60.55 63.875C60.375 63.95 59.725 64 59.1 64H57.975L58.425 63.5C59.4375 62.3875 60 60.7625 60 59C60 57.075 59.3375 55.4 58.0875 54.125C56.675 52.675 55.0625 52 53.0375 52C51.025 52 49.375 52.6625 48.025 54.025C46.6625 55.375 46 57.025 46 59.0375C46 61.025 46.5875 62.475 47.95 63.875L48.625 64.575L48.0375 64.8625C45.7125 65.9875 43.875 68.225 43.25 70.7C43.0125 71.6375 43 72.15 43 86.2625C43 100.7 43 100.875 43.2625 101.55C43.575 102.387 44.3375 103.212 45.1875 103.625L45.8125 103.938L75.4125 103.975L105 104V80.0625V56.125L104.663 56.05C103.737 55.8375 102.475 55.5125 102.45 55.475C102.425 55.45 102.288 55.075 102.125 54.625C101.963 54.175 101.675 53.4875 101.475 53.1C101.288 52.7 101.125 52.3375 101.125 52.275C101.125 52.225 101.438 51.675 101.825 51.0625L102.513 49.95L99.7875 47.225L97.0625 44.5L95.9 45.2L94.7375 45.9125L93.775 45.4625C93.25 45.225 92.5375 44.925 92.1875 44.8C91.85 44.675 91.55 44.5625 91.525 44.55C91.4875 44.525 91.1625 43.275 90.95 42.3375L90.875 42H87H83.125L83.05 42.3375ZM89.2375 44.4625C89.3125 44.725 89.4375 45.2625 89.5125 45.65C89.6125 46.1375 89.7125 46.375 89.8375 46.375C90.2875 46.375 92.8375 47.325 93.7 47.825C94.2375 48.125 94.725 48.375 94.7875 48.375C94.85 48.375 95.325 48.1125 95.8375 47.7875L96.775 47.2125L98.275 48.725L99.7875 50.225L99.2125 51.1625C98.8875 51.675 98.625 52.15 98.625 52.2125C98.625 52.275 98.875 52.7625 99.175 53.3C99.6625 54.1625 100.625 56.7125 100.625 57.15C100.625 57.2625 100.888 57.375 101.35 57.475C101.737 57.5625 102.275 57.6875 102.538 57.75L103 57.8875V60V62.1125L102.538 62.25C102.275 62.3125 101.737 62.4375 101.35 62.525C100.888 62.625 100.625 62.7375 100.625 62.85C100.625 63.2875 99.6625 65.8375 99.175 66.7C98.875 67.2375 98.625 67.725 98.625 67.7875C98.625 67.85 98.8875 68.325 99.2125 68.8375L99.7875 69.775L98.275 71.275L96.775 72.7875L95.8375 72.2125C95.325 71.8875 94.85 71.625 94.7875 71.625C94.725 71.625 94.2375 71.875 93.7 72.175C92.8375 72.675 90.2875 73.625 89.8375 73.625C89.7125 73.625 89.6125 73.8625 89.5125 74.3375C89.4375 74.7375 89.3125 75.275 89.2375 75.525L89.1125 76H87H84.8875L84.7625 75.525C84.6875 75.275 84.5625 74.7375 84.4875 74.3375C84.3875 73.8625 84.2875 73.625 84.1625 73.625C83.7125 73.625 81.1625 72.675 80.3 72.175C79.7625 71.875 79.2875 71.625 79.2375 71.625C79.175 71.625 78.7 71.8875 78.175 72.2L77.225 72.7875L75.7125 71.275L74.2125 69.775L74.7875 68.8375C75.1125 68.325 75.375 67.8375 75.375 67.7625C75.375 67.6875 75.225 67.3875 75.0375 67.1C74.6375 66.45 74.175 65.4375 73.8125 64.375L73.5375 63.5625L73.7875 63.0125C74.15 62.2 74.05 60.6375 73.5875 59.8375C73.1375 59.0875 72.3625 58.4375 71.5875 58.175C70.8375 57.925 70.925 57.85 72.3375 57.55C73.05 57.4 73.375 57.275 73.375 57.15C73.375 56.7125 74.325 54.1625 74.825 53.3C75.125 52.7625 75.375 52.275 75.375 52.2125C75.375 52.15 75.1125 51.675 74.7875 51.1625L74.2125 50.225L75.725 48.725L77.225 47.2125L78.1625 47.7875C78.675 48.1125 79.15 48.375 79.2125 48.375C79.275 48.375 79.7625 48.125 80.3 47.825C81.1625 47.325 83.7125 46.375 84.1625 46.375C84.2875 46.375 84.3875 46.1375 84.4875 45.65C84.5625 45.2625 84.6875 44.725 84.7625 44.4625L84.8875 44H87H89.1125L89.2375 44.4625ZM55.0375 54.5375C55.9625 54.9625 57.0375 56.025 57.475 56.9625C57.775 57.6125 57.8125 57.8375 57.8125 59C57.8125 60.1625 57.775 60.3875 57.475 61.0375C57.0375 61.9625 55.9625 63.0375 55.0375 63.475C54.3875 63.775 54.1625 63.8125 53 63.8125C51.8375 63.8125 51.6125 63.775 50.9625 63.475C50.0375 63.0375 48.9625 61.9625 48.525 61.0375C48.225 60.3875 48.1875 60.1625 48.1875 59C48.1875 57.8375 48.225 57.6125 48.5125 57C49.1125 55.7375 50.1375 54.8 51.4125 54.35C52.3875 54 54.075 54.0875 55.0375 54.5375ZM71.1375 60.35C71.8 60.725 72.075 61.6875 71.7375 62.425C71.5625 62.8 64.9375 67.9625 64.0375 68.425C63.075 68.9 62.1 69 57.85 69H54V74.4875V79.975L56.2875 80.025C58.8875 80.075 59.35 80.2 60.1375 81.0875C60.925 81.9625 60.9375 82.025 60.9375 87.5C60.9375 92.25 60.925 92.45 60.675 92.875C59.8875 94.2125 58.1125 94.2125 57.325 92.875C57.075 92.4625 57.0625 92.175 57 88.8125C56.9375 84.85 56.925 84.7875 56.1625 84.2875C55.8625 84.0875 55.3625 84.05 51.625 84C47.7125 83.9375 47.4 83.925 46.875 83.675C46.2 83.3625 45.4625 82.5875 45.2375 81.925C44.9875 81.2125 44.9875 72.4875 45.2375 71.5C45.8875 68.925 47.725 67.0375 50.3125 66.275C50.8 66.125 51.9875 66.075 55.875 66.0375C58.5875 66.0125 61 65.9625 61.225 65.925C61.5 65.8875 62.825 64.9625 65.375 63.0625C67.4375 61.5125 69.3125 60.2 69.5375 60.1375C70.0125 60 70.6875 60.0875 71.1375 60.35ZM103 83.1875V102H76.8125C62.4125 102 50.625 101.975 50.625 101.95C50.625 101.925 50.7125 101.662 50.8125 101.375C50.925 101.05 51 100.388 51 99.6375V98.4375L53.5375 96.6625L56.0625 94.9L56.4875 95.2125C58 96.3625 60.4625 96.25 61.7875 94.9625C62.7125 94.0625 62.925 93.4375 62.975 91.625L63.025 90.0625L71.65 84.0625C76.4 80.7625 80.8375 77.675 81.5125 77.2125L82.7375 76.3625L82.8625 76.8375C82.925 77.1 83.0125 77.4625 83.05 77.65L83.125 78H87H90.875L90.95 77.65C91.1625 76.725 91.4875 75.475 91.525 75.45C91.55 75.4375 91.85 75.325 92.1875 75.2C92.5375 75.075 93.25 74.775 93.775 74.5375L94.7375 74.0875L95.9 74.8L97.0625 75.5L99.7875 72.775L102.513 70.05L101.825 68.9375C101.438 68.325 101.125 67.775 101.125 67.725C101.125 67.6625 101.288 67.3 101.475 66.9C101.675 66.5125 101.963 65.825 102.125 65.375C102.425 64.5625 102.55 64.375 102.85 64.375C102.963 64.375 103 68.225 103 83.1875ZM72.475 66.775L72.9125 67.75L72.25 68.8375C71.8875 69.45 71.5625 69.975 71.55 70.0125C71.525 70.05 72.7375 71.3 74.225 72.7875L76.9375 75.5L78.1 74.7875L79.2625 74.0875L80.0375 74.45C80.4625 74.6375 80.85 74.8375 80.9 74.875C80.975 74.925 63.45 87.225 63.1125 87.35C63.0625 87.375 63 86.075 62.975 84.475L62.9375 81.5625L62.575 80.8125C62.1 79.85 61.15 78.9 60.1875 78.425C59.4875 78.0875 59.325 78.0625 57.725 78.025L56 77.975V74.4875V71H59.5375C64.6 71 64.4 71.075 68.875 67.575C71.6 65.45 71.825 65.3 71.925 65.55C71.9875 65.6875 72.2375 66.25 72.475 66.775ZM47.7875 85.975L49.0125 86.025L48.975 93.2375C48.9375 100.237 48.925 100.45 48.675 100.875C47.8875 102.212 46.1125 102.212 45.325 100.875C45.075 100.45 45.0625 100.25 45.025 92.775L44.9875 85.125L45.775 85.525C46.4625 85.875 46.7125 85.9375 47.7875 85.975ZM54.9375 89.525L54.925 93.0625L53.1875 94.2875C52.225 94.9625 51.3375 95.575 51.225 95.6375C51.0125 95.75 51 95.4875 51 90.875V86H52.975H54.9375V89.525Z" fill="white"/>
<path d="M84.5 48.1875C80.0375 49.1875 76.625 52.4 75.35 56.825C75.1 57.6875 75.0625 58.0875 75.0625 60C75.0625 61.9125 75.1 62.3125 75.35 63.175C76.5625 67.35 79.65 70.4375 83.825 71.65C84.6875 71.9 85.0875 71.9375 87 71.9375C88.9125 71.9375 89.3125 71.9 90.175 71.65C94.35 70.4375 97.4375 67.35 98.65 63.175C98.9 62.3125 98.9375 61.9125 98.9375 60C98.9375 58.0875 98.9 57.6875 98.65 56.825C97.45 52.675 94.3625 49.575 90.2375 48.3625C89.025 48.0125 85.75 47.9125 84.5 48.1875ZM89.125 50.325C89.675 50.4375 90.575 50.775 91.3125 51.125C93.4625 52.175 94.825 53.5375 95.875 55.6875C96.6125 57.2125 96.875 58.3375 96.875 60C96.875 61.575 96.625 62.75 95.975 64.125C94.975 66.3 93.4625 67.825 91.3125 68.875C89.8125 69.6 88.5875 69.8875 87 69.8875C85.4125 69.8875 84.2 69.6 82.6875 68.875C80.5375 67.825 79.175 66.4625 78.125 64.3125C77.3875 62.7875 77.125 61.6625 77.125 60C77.125 58.3375 77.3875 57.2125 78.125 55.6875C79.175 53.5375 80.5375 52.175 82.6875 51.125C84.8375 50.075 86.725 49.85 89.125 50.325Z" fill="white"/>
<path d="M85.1 54.2375C84.175 54.5375 83.3 55.1 82.6 55.85C81.4625 57.0625 81 58.275 81 60C81 61.725 81.4625 62.9375 82.6 64.15C83.7875 65.4125 85.175 66 87 66C88.825 66 90.2125 65.4125 91.4 64.15C92.5375 62.9375 93 61.725 93 60C93 58.275 92.5375 57.0625 91.4 55.85C90.6875 55.0875 89.8125 54.5375 88.8625 54.2375C87.85 53.925 86.0875 53.925 85.1 54.2375ZM88.725 56.4875C89.4 56.8375 90.1625 57.5875 90.525 58.275C90.7625 58.725 90.8125 59 90.8125 60C90.8125 61.3625 90.6 61.9 89.75 62.75C88.9 63.6 88.3625 63.8125 87 63.8125C86 63.8125 85.725 63.7625 85.275 63.525C84.5875 63.15 83.8375 62.4 83.4875 61.725C83.15 61.075 83.0375 59.675 83.2375 58.9125C83.5375 57.7875 84.6875 56.5875 85.8 56.25C86.475 56.0375 88.125 56.175 88.725 56.4875Z" fill="white"/>
<path d="M75.2875 83.8C71.625 86.35 68.575 88.5 68.5 88.575C68.375 88.7 69.4125 90.3125 69.6125 90.3125C69.8 90.3125 83.2375 80.9375 83.2375 80.8125C83.2375 80.6375 82.2125 79.2125 82.0625 79.175C82 79.1625 78.9375 81.2375 75.2875 83.8Z" fill="white"/>
<path d="M65.5625 90.5625C65.15 90.8625 64.825 91.1875 64.85 91.2625C64.9 91.4625 65.8875 92.875 65.975 92.875C66.125 92.875 67.6125 91.8 67.625 91.7C67.625 91.5125 66.575 90.0125 66.4375 90.0125C66.375 90.0125 65.975 90.2625 65.5625 90.5625Z" fill="white"/>
<path d="M99 91V92H100H101V91V90H100H99V91Z" fill="white"/>
<path d="M99 95V96H100H101V95V94H100H99V95Z" fill="white"/>
<path d="M53 99V100H54H55V99V98H54H53V99Z" fill="white"/>
<path d="M57 99V100H58H59V99V98H58H57V99Z" fill="white"/>
<path d="M61 99V100H62H63V99V98H62H61V99Z" fill="white"/>
<path d="M99 99V100H100H101V99V98H100H99V99Z" fill="white"/>
<defs>
<filter id="filter0_bd_4_5840" x="0" y="-1" width="148" height="149" filterUnits="userSpaceOnUse" color-interpolation-filters="sRGB">
<feFlood flood-opacity="0" result="BackgroundImageFix"/>
<feGaussianBlur in="BackgroundImageFix" stdDeviation="10"/>
<feComposite in2="SourceAlpha" operator="in" result="effect1_backgroundBlur_4_5840"/>
<feColorMatrix in="SourceAlpha" type="matrix" values="0 0 0 0 0 0 0 0 0 0 0 0 0 0 0 0 0 0 127 0" result="hardAlpha"/>
<feMorphology radius="4" operator="dilate" in="SourceAlpha" result="effect2_dropShadow_4_5840"/>
<feOffset dy="1"/>
<feGaussianBlur stdDeviation="8"/>
<feComposite in2="hardAlpha" operator="out"/>
<feColorMatrix type="matrix" values="0 0 0 0 0 0 0 0 0 0 0 0 0 0 0 0 0 0 0.15 0"/>
<feBlend mode="normal" in2="effect1_backgroundBlur_4_5840" result="effect2_dropShadow_4_5840"/>
<feBlend mode="normal" in="SourceGraphic" in2="effect2_dropShadow_4_5840" result="shape"/>
</filter>
<linearGradient id="paint0_linear_4_5840" x1="23.2016" y1="26.4483" x2="138.431" y2="49.2344" gradientUnits="userSpaceOnUse">
<stop offset="0.206" stop-color="#C59402"/>
<stop offset="1" stop-color="#C59402" stop-opacity="0.4"/>
</linearGradient>
</defs>
</svg>
