<svg width="1728" height="1385" viewBox="0 0 1728 1385" fill="none" xmlns="http://www.w3.org/2000/svg">
<path d="M0 0H1728V1385H0V0Z" fill="#51A7D6" fill-opacity="0.2"/>
<path d="M196.788 1263.19C195.014 1263.19 193.576 1264.67 193.576 1266.5C193.576 1268.32 195.014 1269.8 196.788 1269.8C198.562 1269.8 200 1268.32 200 1266.5C200 1264.67 198.562 1263.19 196.788 1263.19Z" fill="#095FBA"/>
<path d="M196.788 1234.1C195.014 1234.1 193.576 1235.58 193.576 1237.4C193.576 1239.23 195.014 1240.71 196.788 1240.71C198.562 1240.71 200 1239.23 200 1237.4C200 1235.58 198.562 1234.1 196.788 1234.1Z" fill="#095FBA"/>
<path d="M196.788 1205C195.014 1205 193.576 1206.48 193.576 1208.31C193.576 1210.13 195.014 1211.61 196.788 1211.61C198.562 1211.61 200 1210.13 200 1208.31C200 1206.48 198.562 1205 196.788 1205Z" fill="#095FBA"/>
<path d="M169.309 1263.19C167.535 1263.19 166.097 1264.67 166.097 1266.5C166.097 1268.32 167.535 1269.81 169.309 1269.81C171.083 1269.81 172.521 1268.32 172.521 1266.5C172.521 1264.67 171.083 1263.19 169.309 1263.19Z" fill="#095FBA"/>
<path d="M141.043 1263.19C139.269 1263.19 137.831 1264.67 137.831 1266.5C137.831 1268.32 139.269 1269.81 141.043 1269.81C142.817 1269.81 144.255 1268.32 144.255 1266.5C144.255 1264.67 142.817 1263.19 141.043 1263.19Z" fill="#095FBA"/>
<path d="M112.777 1263.19C111.003 1263.19 109.565 1264.67 109.565 1266.5C109.565 1268.32 111.003 1269.81 112.777 1269.81C114.551 1269.81 115.989 1268.32 115.989 1266.5C115.989 1264.67 114.551 1263.19 112.777 1263.19Z" fill="#095FBA"/>
<path d="M169.309 1234.1C167.535 1234.1 166.097 1235.58 166.097 1237.4C166.097 1239.23 167.535 1240.71 169.309 1240.71C171.083 1240.71 172.521 1239.23 172.521 1237.4C172.521 1235.58 171.083 1234.1 169.309 1234.1Z" fill="#095FBA"/>
<path d="M141.043 1234.1C139.269 1234.1 137.831 1235.58 137.831 1237.4C137.831 1239.23 139.269 1240.71 141.043 1240.71C142.817 1240.71 144.255 1239.23 144.255 1237.4C144.255 1235.58 142.817 1234.1 141.043 1234.1Z" fill="#095FBA"/>
<path d="M112.777 1234.1C111.003 1234.1 109.565 1235.58 109.565 1237.4C109.565 1239.23 111.003 1240.71 112.777 1240.71C114.551 1240.71 115.989 1239.23 115.989 1237.4C115.989 1235.58 114.551 1234.1 112.777 1234.1Z" fill="#095FBA"/>
<path d="M169.309 1205C167.535 1205 166.097 1206.48 166.097 1208.31C166.097 1210.13 167.535 1211.61 169.309 1211.61C171.083 1211.61 172.521 1210.13 172.521 1208.31C172.521 1206.48 171.083 1205 169.309 1205Z" fill="#095FBA"/>
<path d="M141.043 1205C139.269 1205 137.831 1206.48 137.831 1208.31C137.831 1210.13 139.269 1211.61 141.043 1211.61C142.817 1211.61 144.255 1210.13 144.255 1208.31C144.255 1206.48 142.817 1205 141.043 1205Z" fill="#095FBA"/>
<path d="M112.777 1205C111.003 1205 109.565 1206.48 109.565 1208.31C109.565 1210.13 111.003 1211.61 112.777 1211.61C114.551 1211.61 115.989 1210.13 115.989 1208.31C115.989 1206.48 114.551 1205 112.777 1205Z" fill="#095FBA"/>
<path d="M196.788 1349.95C195.014 1349.95 193.576 1351.43 193.576 1353.26C193.576 1355.08 195.014 1356.56 196.788 1356.56C198.562 1356.56 200 1355.08 200 1353.26C200 1351.43 198.562 1349.95 196.788 1349.95Z" fill="#095FBA"/>
<path d="M196.788 1320.86C195.014 1320.86 193.576 1322.34 193.576 1324.16C193.576 1325.99 195.014 1327.47 196.788 1327.47C198.562 1327.47 200 1325.99 200 1324.16C200 1322.34 198.562 1320.86 196.788 1320.86Z" fill="#095FBA"/>
<path d="M196.788 1378.39C195.014 1378.39 193.576 1379.87 193.576 1381.69C193.576 1383.52 195.014 1385 196.788 1385C198.562 1385 200 1383.52 200 1381.69C200 1379.87 198.562 1378.39 196.788 1378.39Z" fill="#095FBA"/>
<path d="M196.788 1291.76C195.014 1291.76 193.576 1293.24 193.576 1295.07C193.576 1296.89 195.014 1298.37 196.788 1298.37C198.562 1298.37 200 1296.89 200 1295.07C200 1293.24 198.562 1291.76 196.788 1291.76Z" fill="#095FBA"/>
<path d="M169.309 1349.95C167.535 1349.95 166.097 1351.43 166.097 1353.26C166.097 1355.08 167.535 1356.57 169.309 1356.57C171.083 1356.57 172.521 1355.08 172.521 1353.26C172.521 1351.43 171.083 1349.95 169.309 1349.95Z" fill="#095FBA"/>
<path d="M141.043 1349.95C139.269 1349.95 137.831 1351.43 137.831 1353.26C137.831 1355.08 139.269 1356.57 141.043 1356.57C142.817 1356.57 144.255 1355.08 144.255 1353.26C144.255 1351.43 142.817 1349.95 141.043 1349.95Z" fill="#095FBA"/>
<path d="M112.777 1349.95C111.003 1349.95 109.565 1351.43 109.565 1353.26C109.565 1355.08 111.003 1356.57 112.777 1356.57C114.551 1356.57 115.989 1355.08 115.989 1353.26C115.989 1351.43 114.551 1349.95 112.777 1349.95Z" fill="#095FBA"/>
<path d="M169.309 1320.86C167.535 1320.86 166.097 1322.34 166.097 1324.16C166.097 1325.99 167.535 1327.47 169.309 1327.47C171.083 1327.47 172.521 1325.99 172.521 1324.16C172.521 1322.34 171.083 1320.86 169.309 1320.86Z" fill="#095FBA"/>
<path d="M141.043 1320.86C139.269 1320.86 137.831 1322.34 137.831 1324.16C137.831 1325.99 139.269 1327.47 141.043 1327.47C142.817 1327.47 144.255 1325.99 144.255 1324.16C144.255 1322.34 142.817 1320.86 141.043 1320.86Z" fill="#095FBA"/>
<path d="M112.777 1320.86C111.003 1320.86 109.565 1322.34 109.565 1324.16C109.565 1325.99 111.003 1327.47 112.777 1327.47C114.551 1327.47 115.989 1325.99 115.989 1324.16C115.989 1322.34 114.551 1320.86 112.777 1320.86Z" fill="#095FBA"/>
<path d="M169.309 1378.39C167.535 1378.39 166.097 1379.87 166.097 1381.69C166.097 1383.52 167.535 1385 169.309 1385C171.083 1385 172.521 1383.52 172.521 1381.69C172.521 1379.87 171.083 1378.39 169.309 1378.39Z" fill="#095FBA"/>
<path d="M169.309 1291.76C167.535 1291.76 166.097 1293.24 166.097 1295.07C166.097 1296.89 167.535 1298.37 169.309 1298.37C171.083 1298.37 172.521 1296.89 172.521 1295.07C172.521 1293.24 171.083 1291.76 169.309 1291.76Z" fill="#095FBA"/>
<path d="M141.043 1378.39C139.269 1378.39 137.831 1379.87 137.831 1381.69C137.831 1383.52 139.269 1385 141.043 1385C142.817 1385 144.255 1383.52 144.255 1381.69C144.255 1379.87 142.817 1378.39 141.043 1378.39Z" fill="#095FBA"/>
<path d="M141.043 1291.76C139.269 1291.76 137.831 1293.24 137.831 1295.07C137.831 1296.89 139.269 1298.37 141.043 1298.37C142.817 1298.37 144.255 1296.89 144.255 1295.07C144.255 1293.24 142.817 1291.76 141.043 1291.76Z" fill="#095FBA"/>
<path d="M112.777 1378.39C111.003 1378.39 109.565 1379.87 109.565 1381.69C109.565 1383.52 111.003 1385 112.777 1385C114.551 1385 115.989 1383.52 115.989 1381.69C115.989 1379.87 114.551 1378.39 112.777 1378.39Z" fill="#095FBA"/>
<path d="M112.777 1291.76C111.003 1291.76 109.565 1293.24 109.565 1295.07C109.565 1296.89 111.003 1298.37 112.777 1298.37C114.551 1298.37 115.989 1296.89 115.989 1295.07C115.989 1293.24 114.551 1291.76 112.777 1291.76Z" fill="#095FBA"/>
<path d="M87.2225 1263.19C85.4486 1263.19 84.0105 1264.67 84.0105 1266.5C84.0105 1268.32 85.4486 1269.8 87.2225 1269.8C88.9965 1269.8 90.4346 1268.32 90.4346 1266.5C90.4346 1264.67 88.9965 1263.19 87.2225 1263.19Z" fill="#095FBA"/>
<path d="M87.2225 1234.1C85.4486 1234.1 84.0105 1235.58 84.0105 1237.4C84.0105 1239.23 85.4486 1240.71 87.2225 1240.71C88.9965 1240.71 90.4346 1239.23 90.4346 1237.4C90.4346 1235.58 88.9965 1234.1 87.2225 1234.1Z" fill="#095FBA"/>
<path d="M87.2225 1205C85.4486 1205 84.0105 1206.48 84.0105 1208.31C84.0105 1210.13 85.4486 1211.61 87.2225 1211.61C88.9965 1211.61 90.4346 1210.13 90.4346 1208.31C90.4346 1206.48 88.9965 1205 87.2225 1205Z" fill="#095FBA"/>
<path d="M59.7436 1263.19C57.9696 1263.19 56.5316 1264.67 56.5316 1266.5C56.5316 1268.32 57.9696 1269.81 59.7436 1269.81C61.5176 1269.81 62.9556 1268.32 62.9556 1266.5C62.9556 1264.67 61.5176 1263.19 59.7436 1263.19Z" fill="#095FBA"/>
<path d="M31.4776 1263.19C29.7036 1263.19 28.2656 1264.67 28.2656 1266.5C28.2656 1268.32 29.7036 1269.81 31.4776 1269.81C33.2516 1269.81 34.6896 1268.32 34.6896 1266.5C34.6896 1264.67 33.2516 1263.19 31.4776 1263.19Z" fill="#095FBA"/>
<path d="M3.21182 1263.19C1.43785 1263.19 -0.000212936 1264.67 -0.000213013 1266.5C-0.000213091 1268.32 1.43785 1269.81 3.21182 1269.81C4.98579 1269.81 6.42386 1268.32 6.42386 1266.5C6.42386 1264.67 4.98579 1263.19 3.21182 1263.19Z" fill="#095FBA"/>
<path d="M59.7436 1234.1C57.9696 1234.1 56.5316 1235.58 56.5316 1237.4C56.5316 1239.23 57.9696 1240.71 59.7436 1240.71C61.5176 1240.71 62.9556 1239.23 62.9556 1237.4C62.9556 1235.58 61.5176 1234.1 59.7436 1234.1Z" fill="#095FBA"/>
<path d="M31.4776 1234.1C29.7036 1234.1 28.2656 1235.58 28.2656 1237.4C28.2656 1239.23 29.7036 1240.71 31.4776 1240.71C33.2516 1240.71 34.6896 1239.23 34.6896 1237.4C34.6896 1235.58 33.2516 1234.1 31.4776 1234.1Z" fill="#095FBA"/>
<path d="M3.21182 1234.1C1.43785 1234.1 -0.000212936 1235.58 -0.000213013 1237.4C-0.000213091 1239.23 1.43785 1240.71 3.21182 1240.71C4.98579 1240.71 6.42386 1239.23 6.42386 1237.4C6.42386 1235.58 4.98579 1234.1 3.21182 1234.1Z" fill="#095FBA"/>
<path d="M59.7436 1205C57.9696 1205 56.5316 1206.48 56.5316 1208.31C56.5316 1210.13 57.9696 1211.61 59.7436 1211.61C61.5176 1211.61 62.9556 1210.13 62.9556 1208.31C62.9556 1206.48 61.5176 1205 59.7436 1205Z" fill="#095FBA"/>
<path d="M31.4776 1205C29.7036 1205 28.2656 1206.48 28.2656 1208.31C28.2656 1210.13 29.7036 1211.61 31.4776 1211.61C33.2516 1211.61 34.6896 1210.13 34.6896 1208.31C34.6896 1206.48 33.2516 1205 31.4776 1205Z" fill="#095FBA"/>
<path d="M3.21182 1205C1.43785 1205 -0.000212936 1206.48 -0.000213013 1208.31C-0.000213091 1210.13 1.43785 1211.61 3.21182 1211.61C4.98579 1211.61 6.42386 1210.13 6.42386 1208.31C6.42386 1206.48 4.98579 1205 3.21182 1205Z" fill="#095FBA"/>
<path d="M87.2225 1349.95C85.4486 1349.95 84.0105 1351.43 84.0105 1353.26C84.0105 1355.08 85.4486 1356.56 87.2225 1356.56C88.9965 1356.56 90.4346 1355.08 90.4346 1353.26C90.4346 1351.43 88.9965 1349.95 87.2225 1349.95Z" fill="#095FBA"/>
<path d="M87.2225 1320.86C85.4486 1320.86 84.0105 1322.34 84.0105 1324.16C84.0105 1325.99 85.4486 1327.47 87.2225 1327.47C88.9965 1327.47 90.4346 1325.99 90.4346 1324.16C90.4346 1322.34 88.9965 1320.86 87.2225 1320.86Z" fill="#095FBA"/>
<path d="M87.2225 1378.39C85.4486 1378.39 84.0105 1379.87 84.0105 1381.69C84.0105 1383.52 85.4486 1385 87.2225 1385C88.9965 1385 90.4346 1383.52 90.4346 1381.69C90.4346 1379.87 88.9965 1378.39 87.2225 1378.39Z" fill="#095FBA"/>
<path d="M87.2225 1291.76C85.4486 1291.76 84.0105 1293.24 84.0105 1295.07C84.0105 1296.89 85.4486 1298.37 87.2225 1298.37C88.9965 1298.37 90.4346 1296.89 90.4346 1295.07C90.4346 1293.24 88.9965 1291.76 87.2225 1291.76Z" fill="#095FBA"/>
<path d="M59.7436 1349.95C57.9696 1349.95 56.5316 1351.43 56.5316 1353.26C56.5316 1355.08 57.9696 1356.57 59.7436 1356.57C61.5176 1356.57 62.9556 1355.08 62.9556 1353.26C62.9556 1351.43 61.5176 1349.95 59.7436 1349.95Z" fill="#095FBA"/>
<path d="M31.4776 1349.95C29.7036 1349.95 28.2656 1351.43 28.2656 1353.26C28.2656 1355.08 29.7036 1356.57 31.4776 1356.57C33.2516 1356.57 34.6896 1355.08 34.6896 1353.26C34.6896 1351.43 33.2516 1349.95 31.4776 1349.95Z" fill="#095FBA"/>
<path d="M3.21182 1349.95C1.43785 1349.95 -0.000212936 1351.43 -0.000213013 1353.26C-0.000213091 1355.08 1.43785 1356.57 3.21182 1356.57C4.98579 1356.57 6.42386 1355.08 6.42386 1353.26C6.42386 1351.43 4.98579 1349.95 3.21182 1349.95Z" fill="#095FBA"/>
<path d="M59.7436 1320.86C57.9696 1320.86 56.5316 1322.34 56.5316 1324.16C56.5316 1325.99 57.9696 1327.47 59.7436 1327.47C61.5176 1327.47 62.9556 1325.99 62.9556 1324.16C62.9556 1322.34 61.5176 1320.86 59.7436 1320.86Z" fill="#095FBA"/>
<path d="M31.4776 1320.86C29.7036 1320.86 28.2656 1322.34 28.2656 1324.16C28.2656 1325.99 29.7036 1327.47 31.4776 1327.47C33.2516 1327.47 34.6896 1325.99 34.6896 1324.16C34.6896 1322.34 33.2516 1320.86 31.4776 1320.86Z" fill="#095FBA"/>
<path d="M3.21182 1320.86C1.43785 1320.86 -0.000212936 1322.34 -0.000213013 1324.16C-0.000213091 1325.99 1.43785 1327.47 3.21182 1327.47C4.98579 1327.47 6.42386 1325.99 6.42386 1324.16C6.42386 1322.34 4.98579 1320.86 3.21182 1320.86Z" fill="#095FBA"/>
<path d="M59.7436 1378.39C57.9696 1378.39 56.5316 1379.87 56.5316 1381.69C56.5316 1383.52 57.9696 1385 59.7436 1385C61.5176 1385 62.9556 1383.52 62.9556 1381.69C62.9556 1379.87 61.5176 1378.39 59.7436 1378.39Z" fill="#095FBA"/>
<path d="M59.7436 1291.76C57.9696 1291.76 56.5316 1293.24 56.5316 1295.07C56.5316 1296.89 57.9696 1298.37 59.7436 1298.37C61.5176 1298.37 62.9556 1296.89 62.9556 1295.07C62.9556 1293.24 61.5176 1291.76 59.7436 1291.76Z" fill="#095FBA"/>
<path d="M31.4776 1378.39C29.7036 1378.39 28.2656 1379.87 28.2656 1381.69C28.2656 1383.52 29.7036 1385 31.4776 1385C33.2516 1385 34.6896 1383.52 34.6896 1381.69C34.6896 1379.87 33.2516 1378.39 31.4776 1378.39Z" fill="#095FBA"/>
<path d="M31.4776 1291.76C29.7036 1291.76 28.2656 1293.24 28.2656 1295.07C28.2656 1296.89 29.7036 1298.37 31.4776 1298.37C33.2516 1298.37 34.6896 1296.89 34.6896 1295.07C34.6896 1293.24 33.2516 1291.76 31.4776 1291.76Z" fill="#095FBA"/>
<path d="M3.21182 1378.39C1.43785 1378.39 -0.000212936 1379.87 -0.000213013 1381.69C-0.000213091 1383.52 1.43785 1385 3.21182 1385C4.98579 1385 6.42386 1383.52 6.42386 1381.69C6.42386 1379.87 4.98579 1378.39 3.21182 1378.39Z" fill="#095FBA"/>
<path d="M3.21182 1291.76C1.43785 1291.76 -0.000212936 1293.24 -0.000213013 1295.07C-0.000213091 1296.89 1.43785 1298.37 3.21182 1298.37C4.98579 1298.37 6.42386 1296.89 6.42386 1295.07C6.42386 1293.24 4.98579 1291.76 3.21182 1291.76Z" fill="#095FBA"/>
<path d="M1724.79 58.1913C1723.01 58.1913 1721.58 59.6716 1721.58 61.4977C1721.58 63.3237 1723.01 64.8041 1724.79 64.8041C1726.56 64.8041 1728 63.3237 1728 61.4977C1728 59.6716 1726.56 58.1913 1724.79 58.1913Z" fill="#095FBA"/>
<path d="M1724.79 29.0966C1723.01 29.0966 1721.58 30.5769 1721.58 32.4029C1721.58 34.229 1723.01 35.7093 1724.79 35.7093C1726.56 35.7093 1728 34.229 1728 32.4029C1728 30.5769 1726.56 29.0966 1724.79 29.0966Z" fill="#095FBA"/>
<path d="M1724.79 0.000621307C1723.01 0.000621227 1721.58 1.48092 1721.58 3.30697C1721.58 5.13303 1723.01 6.61332 1724.79 6.61332C1726.56 6.61332 1728 5.13303 1728 3.30697C1728 1.48092 1726.56 0.000621387 1724.79 0.000621307Z" fill="#095FBA"/>
<path d="M1697.31 58.1925C1695.54 58.1925 1694.1 59.6728 1694.1 61.4988C1694.1 63.3249 1695.54 64.8052 1697.31 64.8052C1699.08 64.8052 1700.52 63.3249 1700.52 61.4988C1700.52 59.6728 1699.08 58.1925 1697.31 58.1925Z" fill="#095FBA"/>
<path d="M1669.04 58.1925C1667.27 58.1925 1665.83 59.6728 1665.83 61.4988C1665.83 63.3249 1667.27 64.8052 1669.04 64.8052C1670.82 64.8052 1672.26 63.3249 1672.26 61.4988C1672.26 59.6728 1670.82 58.1925 1669.04 58.1925Z" fill="#095FBA"/>
<path d="M1640.78 58.1925C1639 58.1925 1637.57 59.6728 1637.57 61.4988C1637.57 63.3249 1639 64.8052 1640.78 64.8052C1642.55 64.8052 1643.99 63.3249 1643.99 61.4988C1643.99 59.6728 1642.55 58.1925 1640.78 58.1925Z" fill="#095FBA"/>
<path d="M1697.31 29.0966C1695.54 29.0966 1694.1 30.5769 1694.1 32.4029C1694.1 34.229 1695.54 35.7093 1697.31 35.7093C1699.08 35.7093 1700.52 34.229 1700.52 32.4029C1700.52 30.5769 1699.08 29.0966 1697.31 29.0966Z" fill="#095FBA"/>
<path d="M1669.04 29.0966C1667.27 29.0966 1665.83 30.5769 1665.83 32.4029C1665.83 34.229 1667.27 35.7093 1669.04 35.7093C1670.82 35.7093 1672.26 34.229 1672.26 32.4029C1672.26 30.5769 1670.82 29.0966 1669.04 29.0966Z" fill="#095FBA"/>
<path d="M1640.78 29.0966C1639 29.0966 1637.57 30.5769 1637.57 32.4029C1637.57 34.229 1639 35.7093 1640.78 35.7093C1642.55 35.7093 1643.99 34.229 1643.99 32.4029C1643.99 30.5769 1642.55 29.0966 1640.78 29.0966Z" fill="#095FBA"/>
<path d="M1697.31 2.70133e-05C1695.54 2.69335e-05 1694.1 1.48035 1694.1 3.30641C1694.1 5.13246 1695.54 6.61276 1697.31 6.61276C1699.08 6.61276 1700.52 5.13246 1700.52 3.30641C1700.52 1.48035 1699.08 2.70932e-05 1697.31 2.70133e-05Z" fill="#095FBA"/>
<path d="M1669.04 0C1667.27 -7.98193e-08 1665.83 1.48035 1665.83 3.30641C1665.83 5.13246 1667.27 6.61276 1669.04 6.61276C1670.82 6.61276 1672.26 5.13246 1672.26 3.30641C1672.26 1.48035 1670.82 7.98193e-08 1669.04 0Z" fill="#095FBA"/>
<path d="M1640.78 0C1639 -7.98193e-08 1637.57 1.48035 1637.57 3.30641C1637.57 5.13246 1639 6.61276 1640.78 6.61276C1642.55 6.61276 1643.99 5.13246 1643.99 3.30641C1643.99 1.48035 1642.55 7.98193e-08 1640.78 0Z" fill="#095FBA"/>
<path d="M1724.79 144.952C1723.01 144.952 1721.58 146.432 1721.58 148.258C1721.58 150.084 1723.01 151.564 1724.79 151.564C1726.56 151.564 1728 150.084 1728 148.258C1728 146.432 1726.56 144.952 1724.79 144.952Z" fill="#095FBA"/>
<path d="M1724.79 115.856C1723.01 115.856 1721.58 117.336 1721.58 119.162C1721.58 120.988 1723.01 122.468 1724.79 122.468C1726.56 122.468 1728 120.988 1728 119.162C1728 117.336 1726.56 115.856 1724.79 115.856Z" fill="#095FBA"/>
<path d="M1724.79 173.387C1723.01 173.387 1721.58 174.868 1721.58 176.694C1721.58 178.52 1723.01 180 1724.79 180C1726.56 180 1728 178.52 1728 176.694C1728 174.868 1726.56 173.387 1724.79 173.387Z" fill="#095FBA"/>
<path d="M1724.79 86.7604C1723.01 86.7604 1721.58 88.2407 1721.58 90.0668C1721.58 91.8928 1723.01 93.3731 1724.79 93.3731C1726.56 93.3731 1728 91.8928 1728 90.0668C1728 88.2407 1726.56 86.7604 1724.79 86.7604Z" fill="#095FBA"/>
<path d="M1697.31 144.952C1695.54 144.952 1694.1 146.433 1694.1 148.259C1694.1 150.085 1695.54 151.565 1697.31 151.565C1699.08 151.565 1700.52 150.085 1700.52 148.259C1700.52 146.433 1699.08 144.952 1697.31 144.952Z" fill="#095FBA"/>
<path d="M1669.04 144.952C1667.27 144.952 1665.83 146.433 1665.83 148.259C1665.83 150.085 1667.27 151.565 1669.04 151.565C1670.82 151.565 1672.26 150.085 1672.26 148.259C1672.26 146.433 1670.82 144.952 1669.04 144.952Z" fill="#095FBA"/>
<path d="M1640.78 144.952C1639 144.952 1637.57 146.433 1637.57 148.259C1637.57 150.085 1639 151.565 1640.78 151.565C1642.55 151.565 1643.99 150.085 1643.99 148.259C1643.99 146.433 1642.55 144.952 1640.78 144.952Z" fill="#095FBA"/>
<path d="M1697.31 115.856C1695.54 115.856 1694.1 117.336 1694.1 119.162C1694.1 120.988 1695.54 122.468 1697.31 122.468C1699.08 122.468 1700.52 120.988 1700.52 119.162C1700.52 117.336 1699.08 115.856 1697.31 115.856Z" fill="#095FBA"/>
<path d="M1669.04 115.856C1667.27 115.856 1665.83 117.337 1665.83 119.163C1665.83 120.989 1667.27 122.469 1669.04 122.469C1670.82 122.469 1672.26 120.989 1672.26 119.163C1672.26 117.337 1670.82 115.856 1669.04 115.856Z" fill="#095FBA"/>
<path d="M1640.78 115.856C1639 115.856 1637.57 117.337 1637.57 119.163C1637.57 120.989 1639 122.469 1640.78 122.469C1642.55 122.469 1643.99 120.989 1643.99 119.163C1643.99 117.337 1642.55 115.856 1640.78 115.856Z" fill="#095FBA"/>
<path d="M1697.31 173.387C1695.54 173.387 1694.1 174.867 1694.1 176.693C1694.1 178.519 1695.54 179.999 1697.31 179.999C1699.08 179.999 1700.52 178.519 1700.52 176.693C1700.52 174.867 1699.08 173.387 1697.31 173.387Z" fill="#095FBA"/>
<path d="M1697.31 86.7598C1695.54 86.7598 1694.1 88.2401 1694.1 90.0661C1694.1 91.8922 1695.54 93.3726 1697.31 93.3726C1699.08 93.3726 1700.52 91.8922 1700.52 90.0661C1700.52 88.2401 1699.08 86.7598 1697.31 86.7598Z" fill="#095FBA"/>
<path d="M1669.04 173.387C1667.27 173.387 1665.83 174.867 1665.83 176.693C1665.83 178.519 1667.27 179.999 1669.04 179.999C1670.82 179.999 1672.26 178.519 1672.26 176.693C1672.26 174.867 1670.82 173.387 1669.04 173.387Z" fill="#095FBA"/>
<path d="M1669.04 86.7598C1667.27 86.7598 1665.83 88.2401 1665.83 90.0661C1665.83 91.8922 1667.27 93.3726 1669.04 93.3726C1670.82 93.3726 1672.26 91.8922 1672.26 90.0661C1672.26 88.2401 1670.82 86.7598 1669.04 86.7598Z" fill="#095FBA"/>
<path d="M1640.78 173.387C1639 173.387 1637.57 174.867 1637.57 176.693C1637.57 178.519 1639 179.999 1640.78 179.999C1642.55 179.999 1643.99 178.519 1643.99 176.693C1643.99 174.867 1642.55 173.387 1640.78 173.387Z" fill="#095FBA"/>
<path d="M1640.78 86.7598C1639 86.7598 1637.57 88.2401 1637.57 90.0661C1637.57 91.8922 1639 93.3726 1640.78 93.3726C1642.55 93.3726 1643.99 91.8922 1643.99 90.0661C1643.99 88.2401 1642.55 86.7598 1640.78 86.7598Z" fill="#095FBA"/>
<path d="M1615.22 58.1913C1613.45 58.1913 1612.01 59.6716 1612.01 61.4977C1612.01 63.3237 1613.45 64.8041 1615.22 64.8041C1617 64.8041 1618.43 63.3237 1618.43 61.4977C1618.43 59.6716 1617 58.1913 1615.22 58.1913Z" fill="#095FBA"/>
<path d="M1615.22 29.0966C1613.45 29.0966 1612.01 30.5769 1612.01 32.4029C1612.01 34.229 1613.45 35.7093 1615.22 35.7093C1617 35.7093 1618.43 34.229 1618.43 32.4029C1618.43 30.5769 1617 29.0966 1615.22 29.0966Z" fill="#095FBA"/>
<path d="M1615.22 0.000621307C1613.45 0.000621227 1612.01 1.48092 1612.01 3.30697C1612.01 5.13303 1613.45 6.61332 1615.22 6.61332C1617 6.61332 1618.43 5.13303 1618.43 3.30697C1618.43 1.48092 1617 0.000621387 1615.22 0.000621307Z" fill="#095FBA"/>
<path d="M1587.74 58.1925C1585.97 58.1925 1584.53 59.6728 1584.53 61.4988C1584.53 63.3249 1585.97 64.8052 1587.74 64.8052C1589.52 64.8052 1590.96 63.3249 1590.96 61.4988C1590.96 59.6728 1589.52 58.1925 1587.74 58.1925Z" fill="#095FBA"/>
<path d="M1559.48 58.1925C1557.7 58.1925 1556.27 59.6728 1556.27 61.4988C1556.27 63.3249 1557.7 64.8052 1559.48 64.8052C1561.25 64.8052 1562.69 63.3249 1562.69 61.4988C1562.69 59.6728 1561.25 58.1925 1559.48 58.1925Z" fill="#095FBA"/>
<path d="M1531.21 58.1925C1529.44 58.1925 1528 59.6728 1528 61.4988C1528 63.3249 1529.44 64.8052 1531.21 64.8052C1532.99 64.8052 1534.42 63.3249 1534.42 61.4988C1534.42 59.6728 1532.99 58.1925 1531.21 58.1925Z" fill="#095FBA"/>
<path d="M1587.74 29.0966C1585.97 29.0966 1584.53 30.5769 1584.53 32.4029C1584.53 34.229 1585.97 35.7093 1587.74 35.7093C1589.52 35.7093 1590.96 34.229 1590.96 32.4029C1590.96 30.5769 1589.52 29.0966 1587.74 29.0966Z" fill="#095FBA"/>
<path d="M1559.48 29.0966C1557.7 29.0966 1556.27 30.5769 1556.27 32.4029C1556.27 34.229 1557.7 35.7093 1559.48 35.7093C1561.25 35.7093 1562.69 34.229 1562.69 32.4029C1562.69 30.5769 1561.25 29.0966 1559.48 29.0966Z" fill="#095FBA"/>
<path d="M1531.21 29.0966C1529.44 29.0966 1528 30.5769 1528 32.4029C1528 34.229 1529.44 35.7093 1531.21 35.7093C1532.99 35.7093 1534.42 34.229 1534.42 32.4029C1534.42 30.5769 1532.99 29.0966 1531.21 29.0966Z" fill="#095FBA"/>
<path d="M1587.74 2.70133e-05C1585.97 2.69335e-05 1584.53 1.48035 1584.53 3.30641C1584.53 5.13246 1585.97 6.61276 1587.74 6.61276C1589.52 6.61276 1590.96 5.13246 1590.96 3.30641C1590.96 1.48035 1589.52 2.70932e-05 1587.74 2.70133e-05Z" fill="#095FBA"/>
<path d="M1559.48 0C1557.7 -7.98193e-08 1556.27 1.48035 1556.27 3.30641C1556.27 5.13246 1557.7 6.61276 1559.48 6.61276C1561.25 6.61276 1562.69 5.13246 1562.69 3.30641C1562.69 1.48035 1561.25 7.98193e-08 1559.48 0Z" fill="#095FBA"/>
<path d="M1531.21 0C1529.44 -7.98193e-08 1528 1.48035 1528 3.30641C1528 5.13246 1529.44 6.61276 1531.21 6.61276C1532.99 6.61276 1534.42 5.13246 1534.42 3.30641C1534.42 1.48035 1532.99 7.98193e-08 1531.21 0Z" fill="#095FBA"/>
<path d="M1615.22 144.952C1613.45 144.952 1612.01 146.432 1612.01 148.258C1612.01 150.084 1613.45 151.564 1615.22 151.564C1617 151.564 1618.43 150.084 1618.43 148.258C1618.43 146.432 1617 144.952 1615.22 144.952Z" fill="#095FBA"/>
<path d="M1615.22 115.856C1613.45 115.856 1612.01 117.336 1612.01 119.162C1612.01 120.988 1613.45 122.468 1615.22 122.468C1617 122.468 1618.43 120.988 1618.43 119.162C1618.43 117.336 1617 115.856 1615.22 115.856Z" fill="#095FBA"/>
<path d="M1615.22 173.387C1613.45 173.387 1612.01 174.868 1612.01 176.694C1612.01 178.52 1613.45 180 1615.22 180C1617 180 1618.43 178.52 1618.43 176.694C1618.43 174.868 1617 173.387 1615.22 173.387Z" fill="#095FBA"/>
<path d="M1615.22 86.7604C1613.45 86.7604 1612.01 88.2407 1612.01 90.0668C1612.01 91.8928 1613.45 93.3731 1615.22 93.3731C1617 93.3731 1618.43 91.8928 1618.43 90.0668C1618.43 88.2407 1617 86.7604 1615.22 86.7604Z" fill="#095FBA"/>
<path d="M1587.74 144.952C1585.97 144.952 1584.53 146.433 1584.53 148.259C1584.53 150.085 1585.97 151.565 1587.74 151.565C1589.52 151.565 1590.96 150.085 1590.96 148.259C1590.96 146.433 1589.52 144.952 1587.74 144.952Z" fill="#095FBA"/>
<path d="M1559.48 144.952C1557.7 144.952 1556.27 146.433 1556.27 148.259C1556.27 150.085 1557.7 151.565 1559.48 151.565C1561.25 151.565 1562.69 150.085 1562.69 148.259C1562.69 146.433 1561.25 144.952 1559.48 144.952Z" fill="#095FBA"/>
<path d="M1531.21 144.952C1529.44 144.952 1528 146.433 1528 148.259C1528 150.085 1529.44 151.565 1531.21 151.565C1532.99 151.565 1534.42 150.085 1534.42 148.259C1534.42 146.433 1532.99 144.952 1531.21 144.952Z" fill="#095FBA"/>
<path d="M1587.74 115.856C1585.97 115.856 1584.53 117.336 1584.53 119.162C1584.53 120.988 1585.97 122.468 1587.74 122.468C1589.52 122.468 1590.96 120.988 1590.96 119.162C1590.96 117.336 1589.52 115.856 1587.74 115.856Z" fill="#095FBA"/>
<path d="M1559.48 115.856C1557.7 115.856 1556.27 117.337 1556.27 119.163C1556.27 120.989 1557.7 122.469 1559.48 122.469C1561.25 122.469 1562.69 120.989 1562.69 119.163C1562.69 117.337 1561.25 115.856 1559.48 115.856Z" fill="#095FBA"/>
<path d="M1531.21 115.856C1529.44 115.856 1528 117.337 1528 119.163C1528 120.989 1529.44 122.469 1531.21 122.469C1532.99 122.469 1534.42 120.989 1534.42 119.163C1534.42 117.337 1532.99 115.856 1531.21 115.856Z" fill="#095FBA"/>
<path d="M1587.74 173.387C1585.97 173.387 1584.53 174.867 1584.53 176.693C1584.53 178.519 1585.97 179.999 1587.74 179.999C1589.52 179.999 1590.96 178.519 1590.96 176.693C1590.96 174.867 1589.52 173.387 1587.74 173.387Z" fill="#095FBA"/>
<path d="M1587.74 86.7598C1585.97 86.7598 1584.53 88.2401 1584.53 90.0661C1584.53 91.8922 1585.97 93.3726 1587.74 93.3726C1589.52 93.3726 1590.96 91.8922 1590.96 90.0661C1590.96 88.2401 1589.52 86.7598 1587.74 86.7598Z" fill="#095FBA"/>
<path d="M1559.48 173.387C1557.7 173.387 1556.27 174.867 1556.27 176.693C1556.27 178.519 1557.7 179.999 1559.48 179.999C1561.25 179.999 1562.69 178.519 1562.69 176.693C1562.69 174.867 1561.25 173.387 1559.48 173.387Z" fill="#095FBA"/>
<path d="M1559.48 86.7598C1557.7 86.7598 1556.27 88.2401 1556.27 90.0661C1556.27 91.8922 1557.7 93.3726 1559.48 93.3726C1561.25 93.3726 1562.69 91.8922 1562.69 90.0661C1562.69 88.2401 1561.25 86.7598 1559.48 86.7598Z" fill="#095FBA"/>
<path d="M1531.21 173.387C1529.44 173.387 1528 174.867 1528 176.693C1528 178.519 1529.44 179.999 1531.21 179.999C1532.99 179.999 1534.42 178.519 1534.42 176.693C1534.42 174.867 1532.99 173.387 1531.21 173.387Z" fill="#095FBA"/>
<path d="M1531.21 86.7598C1529.44 86.7598 1528 88.2401 1528 90.0661C1528 91.8922 1529.44 93.3726 1531.21 93.3726C1532.99 93.3726 1534.42 91.8922 1534.42 90.0661C1534.42 88.2401 1532.99 86.7598 1531.21 86.7598Z" fill="#095FBA"/>
</svg>
