<svg width="104" height="72" viewBox="0 0 104 72" fill="none" xmlns="http://www.w3.org/2000/svg">
<path d="M96.2251 7.81772C78.4398 5.68961 64.73 4.56138 38.5549 3.03334C21.9888 2.13248 6.7394 1.11494 4.60019 0.796888C2.46099 0.478834 0.475367 0.57755 0.20565 0.917804C-0.153531 1.29909 2.00063 6.48249 4.95335 12.3823C7.88338 18.3467 10.3487 23.7122 10.4342 24.3226C10.5864 24.9565 9.64792 28.9058 8.48509 33.0662C5.74954 42.7661 3.24514 54.7961 3.61246 56.7389C4.0439 59.1395 6.2111 58.5244 16.3926 53.0424C19.8831 51.2248 23.0811 49.8121 23.5485 49.9767C24.0158 50.1413 26.003 53.4524 27.8753 57.3034C34.2201 70.2008 34.992 71.6332 36.0403 71.6396C36.5757 71.6106 40.4093 68.3906 44.5365 64.5486C68.2026 42.271 83.0707 29.0093 93.67 20.8454C98.1298 17.3381 102.368 13.6077 102.999 12.4519C103.947 10.6095 103.927 10.2398 102.706 9.44685C101.928 8.88302 101.106 8.44828 100.905 8.37775C100.682 8.37176 98.5873 8.14176 96.2251 7.81772ZM90.4714 11.3771C86.1156 12.4547 75.5119 14.0161 52.5218 16.8738C38.728 18.545 24.6204 20.4684 21.1593 21.1356C17.7209 21.7383 14.5736 22.1533 14.173 22.0122C12.3702 21.3774 3.84193 4.44695 5.07173 3.93701C6.32423 3.36252 88.0944 9.81471 91.0776 10.7201C91.768 10.8907 91.5436 11.1018 90.4714 11.3771ZM89.1926 19.9216C87.3313 21.5873 80.2704 27.3704 73.6355 32.7956C57.6083 45.9393 49.1334 53.183 42.0673 59.8346C38.904 62.8554 35.9678 65.2307 35.634 65.1132C35.2334 64.9721 33.0285 60.7864 30.5833 55.7907C28.2048 50.8184 25.2935 45.441 24.1437 43.8029L21.9536 40.8556L26.0209 39.5313C28.2335 38.7872 40.0575 34.6089 52.3062 30.29C71.8189 23.4513 91.8885 16.7362 92.4226 16.9243C92.5561 16.9713 91.098 18.3438 89.1926 19.9216ZM80.9414 16.0731C80.8961 16.2021 73.0952 18.9681 63.6413 22.1676C46.0301 28.08 39.6821 30.342 24.883 35.939C16.723 39.0863 16.4319 39.2739 13.5532 43.1928C9.25778 49.0066 8.63417 48.8596 10.8585 42.5341C11.9025 39.5649 13.5407 34.2662 14.5206 30.8393L16.2095 24.5428L45.2499 20.6964C61.2322 18.5628 75.7417 16.5633 77.5057 16.2414C80.9214 15.7033 81.0776 15.6858 80.9414 16.0731ZM20.7907 45.016C21.6307 46.2548 21.4732 46.4895 17.2216 48.7644C14.7821 50.154 12.6122 51.2034 12.4787 51.1564C12.0781 51.0153 13.9688 48.1992 16.3722 45.4186C18.5286 42.9137 19.3098 42.8261 20.7907 45.016Z" fill="#008037"/>
</svg>
