<svg width="92" height="92" viewBox="0 0 92 92" fill="none" xmlns="http://www.w3.org/2000/svg">
<g filter="url(#filter0_d_1_192)">
<rect x="11" y="7" width="70" height="70" rx="15" fill="#FEAD56"/>
</g>
<g clip-path="url(#clip0_1_192)">
<path d="M57.916 25.6497C57.3554 25.8069 56.7334 26.1213 56.289 26.4631C56.0771 26.6272 54.4707 28.1926 52.7275 29.9426L49.5625 33.1145L49.1523 32.9915C48.9267 32.9163 48.3662 32.8069 47.9013 32.7385L47.0605 32.6223L46.7392 32.1917C46.1513 31.4124 45.208 30.7834 44.2988 30.5715C43.8271 30.4622 42.7129 30.4417 42.3096 30.5305L42.0498 30.592L41.8037 30.2092C41.0791 29.0745 39.876 28.2131 38.5429 27.8713C37.8047 27.6868 36.6084 27.6799 35.8633 27.8713C34.332 28.2542 33.0058 29.3137 32.3086 30.7083C31.8369 31.6584 31.7138 32.2737 31.748 33.4495L31.7754 34.4202L31.3857 34.5979C30.6201 34.9465 29.9297 35.7395 29.6767 36.5598C29.5127 37.0793 29.5058 38.0227 29.6562 38.5422C29.9502 39.554 30.8047 40.4153 31.8095 40.7297C32.1787 40.8459 32.459 40.8596 34.4619 40.8596H36.7041L36.6699 42.1038C36.6357 43.4846 36.7314 44.2502 37.0185 45.0364L37.1826 45.4739L34.7627 47.9075L32.3428 50.3342L30.9345 53.9846C29.54 57.6213 29.5332 57.635 29.5605 58.0999C29.581 58.4758 29.622 58.6125 29.7861 58.845C30.0664 59.2415 30.4834 59.4534 30.9961 59.4534C31.3584 59.4534 31.789 59.303 35.0019 58.0725L38.6045 56.6985L40.3681 54.9485L42.125 53.1985V53.5471C42.125 53.7727 42.1797 53.9983 42.289 54.2102L42.4463 54.5315L42.289 54.8528C42.084 55.2561 42.0635 55.9397 42.2549 56.343C42.4121 56.678 42.7607 57.0198 43.0888 57.1565C43.2734 57.2317 43.3691 57.3342 43.4443 57.5188C43.6631 58.0793 44.3603 58.8245 44.9209 59.1116C45.8301 59.5696 47.1699 59.5696 48.0791 59.1116C48.6396 58.8245 49.3369 58.0793 49.5556 57.5188C49.6308 57.3342 49.7265 57.2317 49.9111 57.1565C50.4306 56.9377 50.8681 56.3362 50.875 55.8303V55.5979L51.2031 55.9192L51.5312 56.2405L51.8662 55.8918C52.4199 55.3245 52.7002 55.1467 53.042 55.1467C53.8144 55.1467 54.1494 55.6389 54.1562 56.7668V57.2659H55.7969H57.4375V56.7668C57.4443 55.6389 57.7793 55.1467 58.5517 55.1467C58.8935 55.1467 59.1738 55.3245 59.7275 55.8918L60.0693 56.2405L61.2451 55.0647L62.4277 53.8821L61.9902 53.4377C61.416 52.8499 61.334 52.7131 61.334 52.3577C61.334 51.592 61.833 51.2571 62.9609 51.2502H63.4531V49.6165V47.9895L62.7763 47.9553C62.0107 47.9211 61.7441 47.8049 61.4912 47.4221C61.2998 47.1487 61.2793 46.6428 61.4433 46.3967C61.5049 46.301 61.751 46.0276 61.9902 45.7815L62.4277 45.3372L61.2451 44.1545L60.0693 42.9788L59.7275 43.3274C59.1738 43.8948 58.8935 44.0725 58.5517 44.0725C57.7793 44.0725 57.4443 43.5803 57.4375 42.4456V41.9534H56.9043H56.3642L56.2822 41.2834C56.2412 40.9143 56.1318 40.3538 56.0429 40.0393L55.8857 39.4583L59.2422 36.0745C62.749 32.5403 62.8721 32.3967 63.2344 31.4397C63.3984 31.0227 63.4121 30.886 63.4189 29.9905C63.4189 29.1292 63.3984 28.9377 63.2617 28.5481C62.8242 27.2698 61.8193 26.2512 60.5273 25.7659C60.1445 25.6223 59.9258 25.5881 59.1806 25.5745C58.5312 25.554 58.1894 25.5745 57.916 25.6497ZM60.4316 27.0168C61.1152 27.3381 61.6621 27.8918 62.0039 28.6028C62.2295 29.0881 62.2568 29.1975 62.2773 29.8196C62.3183 30.9202 62.0312 31.5901 61.1631 32.4514L60.7187 32.8958L58.415 30.5852L56.1045 28.2815L56.5146 27.8645C56.7402 27.6389 57.0547 27.3586 57.2051 27.2493C58.1279 26.6135 59.3857 26.5178 60.4316 27.0168ZM38.2627 29.0129C39.165 29.2317 40.0605 29.8264 40.6416 30.5989L40.9629 31.0227L40.5527 31.3372C39.7597 31.9319 39.0967 32.9709 38.9053 33.9143C38.8301 34.3108 38.8027 34.3655 38.6318 34.3997C38.3926 34.4543 37.8935 34.8098 37.6474 35.1038C37.415 35.3772 37.2031 35.9309 37.2031 36.2454V36.4846H37.7842C38.3379 36.4846 38.3652 36.4778 38.3652 36.3274C38.3652 35.8967 38.8847 35.4592 39.3906 35.4592C39.8965 35.4592 40.416 35.8967 40.416 36.3274C40.416 36.4778 40.4365 36.4846 41.0039 36.4846H41.5986L41.5644 36.1497C41.4961 35.4866 41.0039 34.7961 40.3613 34.4954C40.1836 34.4133 40.0332 34.3381 40.0263 34.3313C39.9785 34.2971 40.2451 33.5383 40.4023 33.2717C40.997 32.2463 42.0498 31.6311 43.2119 31.6311C44.0937 31.6311 44.7773 31.8977 45.4199 32.5061C46.0898 33.135 46.4316 33.9211 46.4316 34.8303C46.4316 35.5481 46.4043 35.6165 46.0146 35.8626C45.3926 36.2727 44.9414 37.0042 44.8799 37.7288L44.8388 38.1252H45.4336C46.0146 38.1252 46.0215 38.1252 46.0215 37.9543C46.0215 37.5168 46.4385 36.9358 46.9238 36.6829C47.2383 36.5256 47.8398 36.512 48.1953 36.6624C48.7763 36.9016 49.166 37.4827 49.166 38.1252C49.166 38.7678 48.79 39.3352 48.1748 39.6086C47.915 39.7249 47.457 39.7317 40.4844 39.7522C32.7871 39.7727 32.3906 39.759 31.8642 39.4856C31.5156 39.3079 31.0986 38.8909 30.9004 38.5217C30.7705 38.2756 30.7431 38.1252 30.7431 37.5784C30.7431 37.0383 30.7705 36.8811 30.9004 36.6418C31.126 36.2112 31.4062 35.9172 31.8164 35.6917C32.1445 35.5139 32.2402 35.4934 32.8281 35.4934C33.375 35.4934 33.5254 35.5208 33.7715 35.6506C34.3935 35.9856 34.8515 36.6145 34.9267 37.2434L34.9678 37.5784H35.5351H36.1094V37.2708C36.1094 36.8811 35.8838 36.2043 35.6172 35.7874C35.1523 35.0491 34.2773 34.4749 33.4297 34.3381C32.9853 34.2698 32.9785 34.2698 32.9375 34.0237C32.8623 33.5657 32.8965 32.5471 32.999 32.1438C33.6006 29.8401 35.9521 28.4387 38.2627 29.0129ZM57.5742 31.4602L59.8642 33.7502L59.4678 34.1399L59.0781 34.5364L56.7744 32.2327L54.4638 29.9221L54.8398 29.5461C55.0449 29.3411 55.2295 29.1702 55.25 29.1702C55.2705 29.1702 56.3164 30.2024 57.5742 31.4602ZM54.5664 31.7336L55.4892 32.6565L54.2656 33.8801L53.0488 35.0969L52.4746 34.6663C52.1533 34.427 51.6474 34.0852 51.3467 33.9143L50.7929 33.593L52.1806 32.2053C52.9463 31.4397 53.5888 30.8108 53.6094 30.8108C53.6299 30.8108 54.0605 31.2278 54.5664 31.7336ZM57.3008 34.468L58.2236 35.3909L56.8154 36.7991L55.4072 38.2073L55.0517 37.592C54.8535 37.2571 54.5117 36.7581 54.2929 36.4778L53.8965 35.9719L55.0996 34.7551C55.7627 34.092 56.3232 33.5452 56.3437 33.5452C56.3642 33.5452 56.7949 33.9622 57.3008 34.468ZM48.8652 34.1262C51.5859 34.9124 53.8623 37.0999 54.7646 39.8069C55.3047 41.4065 55.332 43.3069 54.8398 44.7151C54.4707 45.7952 54.0263 46.3899 52.2763 48.1741C50.7998 49.678 50.2529 50.3479 49.7949 51.2366L49.501 51.7971H48.2705H47.0469V50.2043C47.0469 48.4338 47.0127 48.2834 46.5615 47.8528C46.1924 47.5042 45.9121 47.4221 45.0986 47.4221C44.039 47.4221 43.7246 47.2375 43.8613 46.6975C43.9502 46.342 44.1074 46.3284 47.2998 46.3284C50.0068 46.3284 50.2461 46.3147 50.499 46.1985C51.0869 45.925 51.4219 45.3782 51.4219 44.6877C51.4219 44.1956 51.292 43.8538 50.9912 43.5325C50.54 43.054 50.499 43.0471 47.8603 43.0471C46.2744 43.0471 45.4199 43.0198 45.2695 42.9719C44.9414 42.8557 44.8594 42.5891 44.8594 41.6526V40.8665L46.623 40.8459L48.3799 40.8254L48.79 40.6272C49.3164 40.3674 49.8359 39.8479 50.0957 39.3215C50.2803 38.9387 50.2939 38.8567 50.2939 38.1252C50.2939 37.3938 50.2803 37.3118 50.0957 36.929C49.6924 36.1086 48.8379 35.4866 48.0107 35.4114L47.5937 35.3704V34.7825C47.5937 34.4612 47.5732 34.1194 47.5459 34.0305C47.5049 33.8665 47.5049 33.8665 47.8808 33.9075C48.0859 33.9348 48.5303 34.0305 48.8652 34.1262ZM43.7656 41.8987C43.7656 43.0745 43.834 43.3137 44.251 43.7102C44.7021 44.134 44.75 44.1409 47.3545 44.1409C49.2549 44.1409 49.7607 44.1614 49.9521 44.2366C50.2051 44.3459 50.3076 44.5647 50.2324 44.8655C50.1435 45.2209 49.9863 45.2346 46.8076 45.2346C43.6015 45.2346 43.6152 45.2346 43.1572 45.6653C42.8222 45.9866 42.6719 46.3489 42.6719 46.8752C42.6719 47.4016 42.8222 47.7639 43.1572 48.0852C43.5263 48.4338 43.8066 48.5159 44.6064 48.5159C44.9961 48.5159 45.4199 48.55 45.5429 48.5911C45.9053 48.7209 45.9531 48.9397 45.9531 50.4641V51.7971H44.7295H43.499L43.2051 51.2366C42.7471 50.3479 42.2138 49.6917 40.6621 48.1125C38.8916 46.301 38.4883 45.7336 38.0508 44.4143C37.873 43.8674 37.8594 43.7649 37.8594 42.6028C37.8525 41.926 37.8799 41.2561 37.9072 41.1126L37.9619 40.8596H40.8603H43.7656V41.8987ZM56.542 44.0383C56.9316 44.8176 57.6221 45.2346 58.5517 45.2346C59.0576 45.2346 59.6181 45.0432 59.9189 44.7698C60.0351 44.6672 60.0625 44.6809 60.3906 45.0159C60.7256 45.344 60.7392 45.3713 60.6367 45.4875C60.5752 45.5559 60.4453 45.7815 60.3496 45.9866C60.0078 46.718 60.1513 47.7434 60.6846 48.3655C60.9922 48.7209 61.6621 49.0627 62.0654 49.0627H62.3594V49.6096V50.1565H62.0654C61.6484 50.1565 60.9922 50.4983 60.6777 50.8743C60.1445 51.5305 60.0078 52.5012 60.3496 53.2327C60.4453 53.4377 60.5752 53.6633 60.6367 53.7317C60.7392 53.8479 60.7256 53.8752 60.3906 54.2034C60.0625 54.5383 60.0351 54.552 59.9189 54.4495C59.8506 54.3879 59.625 54.2581 59.4199 54.1624C58.6885 53.8206 57.6631 53.9641 57.041 54.4973C56.6855 54.8049 56.3437 55.4749 56.3437 55.8782V56.1721H55.7969H55.25V55.8782C55.25 55.4612 54.9082 54.8049 54.5322 54.4905C53.876 53.9573 52.9053 53.8206 52.1738 54.1624C51.9687 54.2581 51.7431 54.3879 51.6748 54.4495C51.5654 54.552 51.5312 54.5315 51.2168 54.2239C50.875 53.8889 50.875 53.8889 50.875 53.4377C50.875 53.1233 50.834 52.9045 50.7383 52.72C50.6631 52.5696 50.6015 52.4124 50.6015 52.3645C50.6015 52.0637 51.8252 50.1702 51.9619 50.259C51.9961 50.2727 52.0371 50.4094 52.0644 50.553C52.1328 50.9973 52.6113 51.8655 53.0078 52.2688C53.8008 53.0686 54.6689 53.4377 55.7763 53.4377C56.8769 53.4377 57.7793 53.0754 58.5176 52.3303C59.2558 51.592 59.625 50.6897 59.625 49.6096C59.625 48.8577 59.5156 48.4202 59.167 47.7502C58.5928 46.6565 57.2324 45.7815 56.084 45.7815C55.7558 45.7815 55.7217 45.7678 55.7627 45.6584C55.9746 45.1321 56.2138 44.3049 56.248 43.9836C56.2754 43.7717 56.3027 43.594 56.3096 43.594C56.3164 43.594 56.4258 43.7922 56.542 44.0383ZM38.9326 48.0579L39.4795 48.6594L37.5244 50.6213L35.5625 52.5833L34.626 51.6399L33.6826 50.7034L35.7265 48.6594L37.7705 46.6155L38.0781 47.0325C38.249 47.2649 38.6318 47.7297 38.9326 48.0579ZM56.9111 47.1692C57.417 47.4016 58.0049 47.9827 58.2441 48.4954C58.4082 48.8508 58.4287 48.9739 58.4287 49.6096C58.4287 50.2454 58.4082 50.3684 58.2441 50.7239C58.0049 51.2297 57.417 51.8176 56.9111 52.0569C56.5556 52.2209 56.4326 52.2415 55.7969 52.2415C55.1611 52.2415 55.0381 52.2209 54.6826 52.0569C54.1699 51.8176 53.5888 51.2297 53.3564 50.7239C53.2129 50.4094 53.165 50.1907 53.1445 49.7053L53.1172 49.0833L53.8486 48.2903C54.2519 47.8528 54.6484 47.4084 54.7304 47.2922C54.9219 47.012 55.1611 46.9436 55.8994 46.9641C56.3984 46.9778 56.5898 47.0188 56.9111 47.1692ZM40.915 50.0813C41.1953 50.3752 41.5713 50.8333 41.7422 51.0862L42.0566 51.5579L40.1767 53.4377L38.2969 55.3176L37.3603 54.3743L36.417 53.4377L38.3652 51.4895C39.4385 50.4163 40.334 49.5413 40.3545 49.5413C40.3818 49.5413 40.6279 49.7874 40.915 50.0813ZM37.1484 55.9739C37.0801 56.0286 33.833 57.2659 33.751 57.2659C33.6621 57.2659 31.7344 55.3381 31.7344 55.2493C31.7344 55.2083 32.0078 54.47 32.3359 53.6086C32.6709 52.7405 32.9648 51.9749 32.9922 51.9065C33.0332 51.7903 33.3681 52.0979 35.1181 53.8479C36.2666 54.9963 37.1758 55.9465 37.1484 55.9739ZM49.4053 52.9866C49.8222 53.1643 49.8222 53.7112 49.4053 53.8889C49.0566 54.0325 43.9433 54.0325 43.5947 53.8889C43.1846 53.718 43.1777 53.1643 43.581 52.9934C43.9092 52.8499 49.0635 52.8499 49.4053 52.9866ZM49.4053 55.1741C49.8222 55.3518 49.8222 55.8987 49.4053 56.0764C49.0566 56.22 43.9433 56.22 43.5947 56.0764C43.1846 55.9055 43.1777 55.3518 43.581 55.1809C43.9092 55.0374 49.0635 55.0374 49.4053 55.1741ZM31.8232 58.0315C31.1191 58.3049 30.9209 58.3391 30.791 58.2092C30.6611 58.0793 30.6885 57.8948 30.9619 57.1838L31.2217 56.5139L31.8506 57.1428L32.4863 57.7786L31.8232 58.0315ZM48.2842 57.3958C48.1679 57.6077 47.7236 57.9563 47.3613 58.1272C47.0947 58.2502 46.8965 58.2913 46.5 58.2913C46.1035 58.2913 45.9053 58.2502 45.6387 58.1272C45.2763 57.9563 44.832 57.6077 44.7158 57.3958C44.6543 57.2727 44.7158 57.2659 46.5 57.2659C48.2842 57.2659 48.3457 57.2727 48.2842 57.3958Z" fill="white"/>
</g>
<defs>
<filter id="filter0_d_1_192" x="0" y="0" width="92" height="92" filterUnits="userSpaceOnUse" color-interpolation-filters="sRGB">
<feFlood flood-opacity="0" result="BackgroundImageFix"/>
<feColorMatrix in="SourceAlpha" type="matrix" values="0 0 0 0 0 0 0 0 0 0 0 0 0 0 0 0 0 0 127 0" result="hardAlpha"/>
<feOffset dy="4"/>
<feGaussianBlur stdDeviation="5.5"/>
<feColorMatrix type="matrix" values="0 0 0 0 0 0 0 0 0 0 0 0 0 0 0 0 0 0 0.06 0"/>
<feBlend mode="normal" in2="BackgroundImageFix" result="effect1_dropShadow_1_192"/>
<feBlend mode="normal" in="SourceGraphic" in2="effect1_dropShadow_1_192" result="shape"/>
</filter>
<clipPath id="clip0_1_192">
<rect width="35" height="35" fill="white" transform="translate(29 25)"/>
</clipPath>
</defs>
</svg>
