<svg width="1528" height="372" viewBox="0 0 1528 372" fill="none" xmlns="http://www.w3.org/2000/svg">
<ellipse cx="102" cy="173.859" rx="100" ry="100.07" fill="white" stroke="black" stroke-width="3" stroke-dasharray="5 10"/>
<ellipse cx="433" cy="173.859" rx="100" ry="100.07" fill="white" stroke="black" stroke-width="3" stroke-dasharray="5 10"/>
<ellipse cx="764" cy="173.859" rx="100" ry="100.07" fill="white" stroke="black" stroke-width="3" stroke-dasharray="5 10"/>
<ellipse cx="1426" cy="173.859" rx="100" ry="100.07" fill="white" stroke="black" stroke-width="3" stroke-dasharray="5 10"/>
<ellipse cx="1095" cy="173.859" rx="100" ry="100.07" fill="white" stroke="black" stroke-width="3" stroke-dasharray="5 10"/>
<path d="M316.354 174.213C316.549 174.018 316.549 173.701 316.354 173.506L313.172 170.324C312.976 170.129 312.66 170.129 312.464 170.324C312.269 170.519 312.269 170.836 312.464 171.031L315.293 173.859L312.464 176.688C312.269 176.883 312.269 177.2 312.464 177.395C312.66 177.59 312.976 177.59 313.172 177.395L316.354 174.213ZM216 174.359H219.125V173.359H216V174.359ZM225.375 174.359H231.625V173.359H225.375V174.359ZM237.875 174.359H244.125V173.359H237.875V174.359ZM250.375 174.359H256.625V173.359H250.375V174.359ZM262.875 174.359H269.125V173.359H262.875V174.359ZM275.375 174.359H281.625V173.359H275.375V174.359ZM287.875 174.359H294.125V173.359H287.875V174.359ZM300.375 174.359H306.625V173.359H300.375V174.359ZM312.875 174.359H316V173.359H312.875V174.359ZM316.354 174.213C316.549 174.018 316.549 173.701 316.354 173.506L313.172 170.324C312.976 170.129 312.66 170.129 312.464 170.324C312.269 170.519 312.269 170.836 312.464 171.031L315.293 173.859L312.464 176.688C312.269 176.883 312.269 177.2 312.464 177.395C312.66 177.59 312.976 177.59 313.172 177.395L316.354 174.213ZM216 174.359H219.125V173.359H216V174.359ZM225.375 174.359H231.625V173.359H225.375V174.359ZM237.875 174.359H244.125V173.359H237.875V174.359ZM250.375 174.359H256.625V173.359H250.375V174.359ZM262.875 174.359H269.125V173.359H262.875V174.359ZM275.375 174.359H281.625V173.359H275.375V174.359ZM287.875 174.359H294.125V173.359H287.875V174.359ZM300.375 174.359H306.625V173.359H300.375V174.359ZM312.875 174.359H316V173.359H312.875V174.359Z" fill="black"/>
<path d="M647.354 174.213C647.549 174.018 647.549 173.701 647.354 173.506L644.172 170.324C643.976 170.129 643.66 170.129 643.464 170.324C643.269 170.519 643.269 170.836 643.464 171.031L646.293 173.859L643.464 176.688C643.269 176.883 643.269 177.2 643.464 177.395C643.66 177.59 643.976 177.59 644.172 177.395L647.354 174.213ZM547 174.359H550.125V173.359H547V174.359ZM556.375 174.359H562.625V173.359H556.375V174.359ZM568.875 174.359H575.125V173.359H568.875V174.359ZM581.375 174.359H587.625V173.359H581.375V174.359ZM593.875 174.359H600.125V173.359H593.875V174.359ZM606.375 174.359H612.625V173.359H606.375V174.359ZM618.875 174.359H625.125V173.359H618.875V174.359ZM631.375 174.359H637.625V173.359H631.375V174.359ZM643.875 174.359H647V173.359H643.875V174.359ZM647.354 174.213C647.549 174.018 647.549 173.701 647.354 173.506L644.172 170.324C643.976 170.129 643.66 170.129 643.464 170.324C643.269 170.519 643.269 170.836 643.464 171.031L646.293 173.859L643.464 176.688C643.269 176.883 643.269 177.2 643.464 177.395C643.66 177.59 643.976 177.59 644.172 177.395L647.354 174.213ZM547 174.359H550.125V173.359H547V174.359ZM556.375 174.359H562.625V173.359H556.375V174.359ZM568.875 174.359H575.125V173.359H568.875V174.359ZM581.375 174.359H587.625V173.359H581.375V174.359ZM593.875 174.359H600.125V173.359H593.875V174.359ZM606.375 174.359H612.625V173.359H606.375V174.359ZM618.875 174.359H625.125V173.359H618.875V174.359ZM631.375 174.359H637.625V173.359H631.375V174.359ZM643.875 174.359H647V173.359H643.875V174.359Z" fill="black"/>
<path d="M980.354 191.225C980.549 191.029 980.549 190.713 980.354 190.518L977.172 187.336C976.976 187.14 976.66 187.14 976.464 187.336C976.269 187.531 976.269 187.847 976.464 188.043L979.293 190.871L976.464 193.7C976.269 193.895 976.269 194.211 976.464 194.407C976.66 194.602 976.976 194.602 977.172 194.407L980.354 191.225ZM880 191.371H883.125V190.371H880V191.371ZM889.375 191.371H895.625V190.371H889.375V191.371ZM901.875 191.371H908.125V190.371H901.875V191.371ZM914.375 191.371H920.625V190.371H914.375V191.371ZM926.875 191.371H933.125V190.371H926.875V191.371ZM939.375 191.371H945.625V190.371H939.375V191.371ZM951.875 191.371H958.125V190.371H951.875V191.371ZM964.375 191.371H970.625V190.371H964.375V191.371ZM976.875 191.371H980V190.371H976.875V191.371ZM980.354 191.225C980.549 191.029 980.549 190.713 980.354 190.518L977.172 187.336C976.976 187.14 976.66 187.14 976.464 187.336C976.269 187.531 976.269 187.847 976.464 188.043L979.293 190.871L976.464 193.7C976.269 193.895 976.269 194.211 976.464 194.407C976.66 194.602 976.976 194.602 977.172 194.407L980.354 191.225ZM880 191.371H883.125V190.371H880V191.371ZM889.375 191.371H895.625V190.371H889.375V191.371ZM901.875 191.371H908.125V190.371H901.875V191.371ZM914.375 191.371H920.625V190.371H914.375V191.371ZM926.875 191.371H933.125V190.371H926.875V191.371ZM939.375 191.371H945.625V190.371H939.375V191.371ZM951.875 191.371H958.125V190.371H951.875V191.371ZM964.375 191.371H970.625V190.371H964.375V191.371ZM976.875 191.371H980V190.371H976.875V191.371Z" fill="black"/>
<path d="M1310.35 174.213C1310.55 174.018 1310.55 173.701 1310.35 173.506L1307.17 170.324C1306.98 170.129 1306.66 170.129 1306.46 170.324C1306.27 170.519 1306.27 170.836 1306.46 171.031L1309.29 173.859L1306.46 176.688C1306.27 176.883 1306.27 177.2 1306.46 177.395C1306.66 177.59 1306.98 177.59 1307.17 177.395L1310.35 174.213ZM1210 174.359H1213.12V173.359H1210V174.359ZM1219.38 174.359H1225.62V173.359H1219.38V174.359ZM1231.88 174.359H1238.12V173.359H1231.88V174.359ZM1244.38 174.359H1250.62V173.359H1244.38V174.359ZM1256.88 174.359H1263.12V173.359H1256.88V174.359ZM1269.38 174.359H1275.62V173.359H1269.38V174.359ZM1281.88 174.359H1288.12V173.359H1281.88V174.359ZM1294.38 174.359H1300.62V173.359H1294.38V174.359ZM1306.88 174.359H1310V173.359H1306.88V174.359ZM1310.35 174.213C1310.55 174.018 1310.55 173.701 1310.35 173.506L1307.17 170.324C1306.98 170.129 1306.66 170.129 1306.46 170.324C1306.27 170.519 1306.27 170.836 1306.46 171.031L1309.29 173.859L1306.46 176.688C1306.27 176.883 1306.27 177.2 1306.46 177.395C1306.66 177.59 1306.98 177.59 1307.17 177.395L1310.35 174.213ZM1210 174.359H1213.12V173.359H1210V174.359ZM1219.38 174.359H1225.62V173.359H1219.38V174.359ZM1231.88 174.359H1238.12V173.359H1231.88V174.359ZM1244.38 174.359H1250.62V173.359H1244.38V174.359ZM1256.88 174.359H1263.12V173.359H1256.88V174.359ZM1269.38 174.359H1275.62V173.359H1269.38V174.359ZM1281.88 174.359H1288.12V173.359H1281.88V174.359ZM1294.38 174.359H1300.62V173.359H1294.38V174.359ZM1306.88 174.359H1310V173.359H1306.88V174.359Z" fill="black"/>
<path d="M1426 0.738281H764" stroke="black" stroke-dasharray="6 6"/>
<path d="M762.646 61.134C762.842 61.3292 763.158 61.3292 763.354 61.134L766.536 57.952C766.731 57.7567 766.731 57.4401 766.536 57.2449C766.34 57.0496 766.024 57.0496 765.828 57.2449L763 60.0733L760.172 57.2449C759.976 57.0496 759.66 57.0496 759.464 57.2449C759.269 57.4401 759.269 57.7567 759.464 57.952L762.646 61.134ZM762.5 0.738281V3.74039H763.5V0.738281L762.5 0.738281ZM762.5 9.7446V15.7488H763.5V9.7446H762.5ZM762.5 21.753V27.7572H763.5V21.753H762.5ZM762.5 33.7614V39.7657H763.5V33.7614H762.5ZM762.5 45.7699V51.7741H763.5V45.7699H762.5ZM762.5 57.7783V60.7804H763.5V57.7783H762.5ZM762.646 61.134C762.842 61.3292 763.158 61.3292 763.354 61.134L766.536 57.952C766.731 57.7567 766.731 57.4401 766.536 57.2449C766.34 57.0496 766.024 57.0496 765.828 57.2449L763 60.0733L760.172 57.2449C759.976 57.0496 759.66 57.0496 759.464 57.2449C759.269 57.4401 759.269 57.7567 759.464 57.952L762.646 61.134ZM762.5 0.738281V3.74039H763.5V0.738281L762.5 0.738281ZM762.5 9.7446V15.7488H763.5V9.7446H762.5ZM762.5 21.753V27.7572H763.5V21.753H762.5ZM762.5 33.7614V39.7657H763.5V33.7614H762.5ZM762.5 45.7699V51.7741H763.5V45.7699H762.5ZM762.5 57.7783V60.7804H763.5V57.7783H762.5Z" fill="black"/>
<path d="M1426 0.738281V60.7804" stroke="black" stroke-dasharray="6 6"/>
<path d="M877.646 156.201C877.451 156.006 877.451 155.689 877.646 155.494L880.828 152.312C881.024 152.117 881.34 152.117 881.536 152.312C881.731 152.507 881.731 152.824 881.536 153.019L878.707 155.848L881.536 158.676C881.731 158.871 881.731 159.188 881.536 159.383C881.34 159.578 881.024 159.578 880.828 159.383L877.646 156.201ZM978 156.348H974.875V155.348H978V156.348ZM968.625 156.348H962.375V155.348H968.625V156.348ZM956.125 156.348H949.875V155.348H956.125V156.348ZM943.625 156.348H937.375V155.348H943.625V156.348ZM931.125 156.348H924.875V155.348H931.125V156.348ZM918.625 156.348H912.375V155.348H918.625V156.348ZM906.125 156.348H899.875V155.348H906.125V156.348ZM893.625 156.348H887.375V155.348H893.625V156.348ZM881.125 156.348H878V155.348H881.125V156.348ZM877.646 156.201C877.451 156.006 877.451 155.689 877.646 155.494L880.828 152.312C881.024 152.117 881.34 152.117 881.536 152.312C881.731 152.507 881.731 152.824 881.536 153.019L878.707 155.848L881.536 158.676C881.731 158.871 881.731 159.188 881.536 159.383C881.34 159.578 881.024 159.578 880.828 159.383L877.646 156.201ZM978 156.348H974.875V155.348H978V156.348ZM968.625 156.348H962.375V155.348H968.625V156.348ZM956.125 156.348H949.875V155.348H956.125V156.348ZM943.625 156.348H937.375V155.348H943.625V156.348ZM931.125 156.348H924.875V155.348H931.125V156.348ZM918.625 156.348H912.375V155.348H918.625V156.348ZM906.125 156.348H899.875V155.348H906.125V156.348ZM893.625 156.348H887.375V155.348H893.625V156.348ZM881.125 156.348H878V155.348H881.125V156.348Z" fill="black"/>
<path d="M37.664 336.725C40.032 336.725 42.1013 337.184 43.872 338.101C45.664 338.997 47.04 340.298 48 342.005C48.9813 343.69 49.472 345.664 49.472 347.925C49.472 350.186 48.9813 352.149 48 353.813C47.04 355.477 45.664 356.757 43.872 357.653C42.1013 358.528 40.032 358.965 37.664 358.965H30.4V336.725H37.664ZM37.664 355.989C40.2667 355.989 42.2613 355.285 43.648 353.877C45.0347 352.469 45.728 350.485 45.728 347.925C45.728 345.344 45.0347 343.328 43.648 341.877C42.2613 340.426 40.2667 339.701 37.664 339.701H34.048V355.989H37.664ZM56.2235 338.997C55.5622 338.997 55.0075 338.773 54.5595 338.325C54.1115 337.877 53.8875 337.322 53.8875 336.661C53.8875 336 54.1115 335.445 54.5595 334.997C55.0075 334.549 55.5622 334.325 56.2235 334.325C56.8635 334.325 57.4075 334.549 57.8555 334.997C58.3035 335.445 58.5275 336 58.5275 336.661C58.5275 337.322 58.3035 337.877 57.8555 338.325C57.4075 338.773 56.8635 338.997 56.2235 338.997ZM58.0155 341.333V358.965H54.3675V341.333H58.0155ZM70.485 359.253C69.0983 359.253 67.8503 359.008 66.741 358.517C65.653 358.005 64.789 357.322 64.149 356.469C63.509 355.594 63.1677 354.624 63.125 353.557H66.901C66.965 354.304 67.317 354.933 67.957 355.445C68.6183 355.936 69.4397 356.181 70.421 356.181C71.445 356.181 72.2343 355.989 72.789 355.605C73.365 355.2 73.653 354.688 73.653 354.069C73.653 353.408 73.333 352.917 72.693 352.597C72.0743 352.277 71.0823 351.925 69.717 351.541C68.3943 351.178 67.317 350.826 66.485 350.485C65.653 350.144 64.9277 349.621 64.309 348.917C63.7117 348.213 63.413 347.285 63.413 346.133C63.413 345.194 63.6903 344.341 64.245 343.573C64.7997 342.784 65.589 342.165 66.613 341.717C67.6583 341.269 68.853 341.045 70.197 341.045C72.2023 341.045 73.813 341.557 75.029 342.581C76.2663 343.584 76.9277 344.96 77.013 346.709H73.365C73.301 345.92 72.981 345.29 72.405 344.821C71.829 344.352 71.0503 344.117 70.069 344.117C69.109 344.117 68.373 344.298 67.861 344.661C67.349 345.024 67.093 345.504 67.093 346.101C67.093 346.57 67.2637 346.965 67.605 347.285C67.9463 347.605 68.3623 347.861 68.853 348.053C69.3437 348.224 70.069 348.448 71.029 348.725C72.309 349.066 73.3543 349.418 74.165 349.781C74.997 350.122 75.7117 350.634 76.309 351.317C76.9063 352 77.2157 352.906 77.237 354.037C77.237 355.04 76.9597 355.936 76.405 356.725C75.8503 357.514 75.061 358.133 74.037 358.581C73.0343 359.029 71.8503 359.253 70.485 359.253ZM81.2428 350.133C81.2428 348.32 81.6054 346.73 82.3308 345.365C83.0774 343.978 84.1014 342.912 85.4028 342.165C86.7041 341.418 88.1974 341.045 89.8828 341.045C92.0161 341.045 93.7761 341.557 95.1628 342.581C96.5708 343.584 97.5201 345.024 98.0108 346.901H94.0748C93.7548 346.026 93.2428 345.344 92.5388 344.853C91.8348 344.362 90.9494 344.117 89.8828 344.117C88.3894 344.117 87.1948 344.65 86.2988 345.717C85.4241 346.762 84.9868 348.234 84.9868 350.133C84.9868 352.032 85.4241 353.514 86.2988 354.581C87.1948 355.648 88.3894 356.181 89.8828 356.181C91.9948 356.181 93.3921 355.253 94.0748 353.397H98.0108C97.4988 355.189 96.5388 356.618 95.1308 357.685C93.7228 358.73 91.9734 359.253 89.8828 359.253C88.1974 359.253 86.7041 358.88 85.4028 358.133C84.1014 357.365 83.0774 356.298 82.3308 354.933C81.6054 353.546 81.2428 351.946 81.2428 350.133ZM110.574 359.253C108.91 359.253 107.406 358.88 106.062 358.133C104.718 357.365 103.662 356.298 102.894 354.933C102.126 353.546 101.742 351.946 101.742 350.133C101.742 348.341 102.137 346.752 102.926 345.365C103.716 343.978 104.793 342.912 106.158 342.165C107.524 341.418 109.049 341.045 110.734 341.045C112.42 341.045 113.945 341.418 115.31 342.165C116.676 342.912 117.753 343.978 118.542 345.365C119.332 346.752 119.726 348.341 119.726 350.133C119.726 351.925 119.321 353.514 118.51 354.901C117.7 356.288 116.59 357.365 115.182 358.133C113.796 358.88 112.26 359.253 110.574 359.253ZM110.574 356.085C111.513 356.085 112.388 355.861 113.198 355.413C114.03 354.965 114.702 354.293 115.214 353.397C115.726 352.501 115.982 351.413 115.982 350.133C115.982 348.853 115.737 347.776 115.246 346.901C114.756 346.005 114.105 345.333 113.294 344.885C112.484 344.437 111.609 344.213 110.67 344.213C109.732 344.213 108.857 344.437 108.046 344.885C107.257 345.333 106.628 346.005 106.158 346.901C105.689 347.776 105.454 348.853 105.454 350.133C105.454 352.032 105.934 353.504 106.894 354.549C107.876 355.573 109.102 356.085 110.574 356.085ZM131.429 355.701L136.421 341.333H140.293L133.573 358.965H129.221L122.533 341.333H126.437L131.429 355.701ZM160.49 349.717C160.49 350.378 160.447 350.976 160.362 351.509H146.89C146.997 352.917 147.519 354.048 148.458 354.901C149.397 355.754 150.549 356.181 151.914 356.181C153.877 356.181 155.263 355.36 156.074 353.717H160.01C159.477 355.338 158.506 356.672 157.098 357.717C155.711 358.741 153.983 359.253 151.914 359.253C150.229 359.253 148.714 358.88 147.37 358.133C146.047 357.365 145.002 356.298 144.234 354.933C143.487 353.546 143.114 351.946 143.114 350.133C143.114 348.32 143.477 346.73 144.202 345.365C144.949 343.978 145.983 342.912 147.306 342.165C148.65 341.418 150.186 341.045 151.914 341.045C153.578 341.045 155.061 341.408 156.362 342.133C157.663 342.858 158.677 343.882 159.402 345.205C160.127 346.506 160.49 348.01 160.49 349.717ZM156.682 348.565C156.661 347.221 156.181 346.144 155.242 345.333C154.303 344.522 153.141 344.117 151.754 344.117C150.495 344.117 149.418 344.522 148.522 345.333C147.626 346.122 147.093 347.2 146.922 348.565H156.682ZM169.008 343.893C169.541 342.997 170.245 342.304 171.12 341.813C172.016 341.301 173.072 341.045 174.288 341.045V344.821H173.36C171.931 344.821 170.843 345.184 170.096 345.909C169.371 346.634 169.008 347.893 169.008 349.685V358.965H165.36V341.333H169.008V343.893Z" fill="black"/>
<path d="M366.952 358.965L361.832 350.069H359.048V358.965H355.4V336.725H363.08C364.787 336.725 366.227 337.024 367.4 337.621C368.595 338.218 369.48 339.018 370.056 340.021C370.653 341.024 370.952 342.144 370.952 343.381C370.952 344.832 370.525 346.154 369.672 347.349C368.84 348.522 367.549 349.322 365.8 349.749L371.304 358.965H366.952ZM359.048 347.157H363.08C364.445 347.157 365.469 346.816 366.152 346.133C366.856 345.45 367.208 344.533 367.208 343.381C367.208 342.229 366.867 341.333 366.184 340.693C365.501 340.032 364.467 339.701 363.08 339.701H359.048V347.157ZM393.059 349.717C393.059 350.378 393.016 350.976 392.931 351.509H379.459C379.565 352.917 380.088 354.048 381.027 354.901C381.965 355.754 383.117 356.181 384.483 356.181C386.445 356.181 387.832 355.36 388.643 353.717H392.579C392.045 355.338 391.075 356.672 389.667 357.717C388.28 358.741 386.552 359.253 384.483 359.253C382.797 359.253 381.283 358.88 379.939 358.133C378.616 357.365 377.571 356.298 376.803 354.933C376.056 353.546 375.683 351.946 375.683 350.133C375.683 348.32 376.045 346.73 376.771 345.365C377.517 343.978 378.552 342.912 379.875 342.165C381.219 341.418 382.755 341.045 384.483 341.045C386.147 341.045 387.629 341.408 388.931 342.133C390.232 342.858 391.245 343.882 391.971 345.205C392.696 346.506 393.059 348.01 393.059 349.717ZM389.251 348.565C389.229 347.221 388.749 346.144 387.811 345.333C386.872 344.522 385.709 344.117 384.323 344.117C383.064 344.117 381.987 344.522 381.091 345.333C380.195 346.122 379.661 347.2 379.491 348.565H389.251ZM404.329 359.253C402.942 359.253 401.694 359.008 400.585 358.517C399.497 358.005 398.633 357.322 397.993 356.469C397.353 355.594 397.011 354.624 396.969 353.557H400.745C400.809 354.304 401.161 354.933 401.801 355.445C402.462 355.936 403.283 356.181 404.265 356.181C405.289 356.181 406.078 355.989 406.633 355.605C407.209 355.2 407.497 354.688 407.497 354.069C407.497 353.408 407.177 352.917 406.537 352.597C405.918 352.277 404.926 351.925 403.561 351.541C402.238 351.178 401.161 350.826 400.329 350.485C399.497 350.144 398.771 349.621 398.153 348.917C397.555 348.213 397.257 347.285 397.257 346.133C397.257 345.194 397.534 344.341 398.089 343.573C398.643 342.784 399.433 342.165 400.457 341.717C401.502 341.269 402.697 341.045 404.041 341.045C406.046 341.045 407.657 341.557 408.873 342.581C410.11 343.584 410.771 344.96 410.857 346.709H407.209C407.145 345.92 406.825 345.29 406.249 344.821C405.673 344.352 404.894 344.117 403.913 344.117C402.953 344.117 402.217 344.298 401.705 344.661C401.193 345.024 400.937 345.504 400.937 346.101C400.937 346.57 401.107 346.965 401.449 347.285C401.79 347.605 402.206 347.861 402.697 348.053C403.187 348.224 403.913 348.448 404.873 348.725C406.153 349.066 407.198 349.418 408.009 349.781C408.841 350.122 409.555 350.634 410.153 351.317C410.75 352 411.059 352.906 411.081 354.037C411.081 355.04 410.803 355.936 410.249 356.725C409.694 357.514 408.905 358.133 407.881 358.581C406.878 359.029 405.694 359.253 404.329 359.253ZM432.463 349.717C432.463 350.378 432.42 350.976 432.335 351.509H418.863C418.969 352.917 419.492 354.048 420.431 354.901C421.369 355.754 422.521 356.181 423.887 356.181C425.849 356.181 427.236 355.36 428.047 353.717H431.983C431.449 355.338 430.479 356.672 429.071 357.717C427.684 358.741 425.956 359.253 423.887 359.253C422.201 359.253 420.687 358.88 419.343 358.133C418.02 357.365 416.975 356.298 416.207 354.933C415.46 353.546 415.087 351.946 415.087 350.133C415.087 348.32 415.449 346.73 416.175 345.365C416.921 343.978 417.956 342.912 419.279 342.165C420.623 341.418 422.159 341.045 423.887 341.045C425.551 341.045 427.033 341.408 428.335 342.133C429.636 342.858 430.649 343.882 431.375 345.205C432.1 346.506 432.463 348.01 432.463 349.717ZM428.655 348.565C428.633 347.221 428.153 346.144 427.215 345.333C426.276 344.522 425.113 344.117 423.727 344.117C422.468 344.117 421.391 344.522 420.495 345.333C419.599 346.122 419.065 347.2 418.895 348.565H428.655ZM436.117 350.069C436.117 348.298 436.479 346.73 437.205 345.365C437.951 344 438.954 342.944 440.213 342.197C441.493 341.429 442.901 341.045 444.437 341.045C445.823 341.045 447.029 341.322 448.053 341.877C449.098 342.41 449.93 343.082 450.549 343.893V341.333H454.229V358.965H450.549V356.341C449.93 357.173 449.087 357.866 448.021 358.421C446.954 358.976 445.738 359.253 444.373 359.253C442.858 359.253 441.471 358.869 440.213 358.101C438.954 357.312 437.951 356.224 437.205 354.837C436.479 353.429 436.117 351.84 436.117 350.069ZM450.549 350.133C450.549 348.917 450.293 347.861 449.781 346.965C449.29 346.069 448.639 345.386 447.829 344.917C447.018 344.448 446.143 344.213 445.205 344.213C444.266 344.213 443.391 344.448 442.581 344.917C441.77 345.365 441.109 346.037 440.597 346.933C440.106 347.808 439.861 348.853 439.861 350.069C439.861 351.285 440.106 352.352 440.597 353.269C441.109 354.186 441.77 354.89 442.581 355.381C443.413 355.85 444.287 356.085 445.205 356.085C446.143 356.085 447.018 355.85 447.829 355.381C448.639 354.912 449.29 354.229 449.781 353.333C450.293 352.416 450.549 351.349 450.549 350.133ZM463.948 343.893C464.481 342.997 465.185 342.304 466.06 341.813C466.956 341.301 468.012 341.045 469.228 341.045V344.821H468.3C466.871 344.821 465.783 345.184 465.036 345.909C464.311 346.634 463.948 347.893 463.948 349.685V358.965H460.3V341.333H463.948V343.893ZM472.645 350.133C472.645 348.32 473.008 346.73 473.733 345.365C474.48 343.978 475.504 342.912 476.805 342.165C478.107 341.418 479.6 341.045 481.285 341.045C483.419 341.045 485.179 341.557 486.565 342.581C487.973 343.584 488.923 345.024 489.413 346.901H485.477C485.157 346.026 484.645 345.344 483.941 344.853C483.237 344.362 482.352 344.117 481.285 344.117C479.792 344.117 478.597 344.65 477.701 345.717C476.827 346.762 476.389 348.234 476.389 350.133C476.389 352.032 476.827 353.514 477.701 354.581C478.597 355.648 479.792 356.181 481.285 356.181C483.397 356.181 484.795 355.253 485.477 353.397H489.413C488.901 355.189 487.941 356.618 486.533 357.685C485.125 358.73 483.376 359.253 481.285 359.253C479.6 359.253 478.107 358.88 476.805 358.133C475.504 357.365 474.48 356.298 473.733 354.933C473.008 353.546 472.645 351.946 472.645 350.133ZM503.449 341.045C504.793 341.045 505.987 341.333 507.033 341.909C508.099 342.485 508.931 343.338 509.529 344.469C510.147 345.6 510.457 346.965 510.457 348.565V358.965H506.841V349.109C506.841 347.53 506.446 346.325 505.657 345.493C504.867 344.64 503.79 344.213 502.425 344.213C501.059 344.213 499.971 344.64 499.161 345.493C498.371 346.325 497.977 347.53 497.977 349.109V358.965H494.329V335.285H497.977V343.381C498.595 342.634 499.374 342.058 500.313 341.653C501.273 341.248 502.318 341.045 503.449 341.045Z" fill="black"/>
<path d="M711.048 336.725V358.965H707.4V336.725H711.048ZM715.901 350.069C715.901 348.298 716.264 346.73 716.989 345.365C717.736 344 718.739 342.944 719.997 342.197C721.277 341.429 722.696 341.045 724.253 341.045C725.406 341.045 726.536 341.301 727.646 341.813C728.776 342.304 729.672 342.965 730.334 343.797V335.285H734.014V358.965H730.334V356.309C729.736 357.162 728.904 357.866 727.838 358.421C726.792 358.976 725.587 359.253 724.222 359.253C722.686 359.253 721.277 358.869 719.997 358.101C718.739 357.312 717.736 356.224 716.989 354.837C716.264 353.429 715.901 351.84 715.901 350.069ZM730.334 350.133C730.334 348.917 730.078 347.861 729.566 346.965C729.075 346.069 728.424 345.386 727.614 344.917C726.803 344.448 725.928 344.213 724.99 344.213C724.051 344.213 723.176 344.448 722.365 344.917C721.555 345.365 720.893 346.037 720.381 346.933C719.891 347.808 719.646 348.853 719.646 350.069C719.646 351.285 719.891 352.352 720.381 353.269C720.893 354.186 721.555 354.89 722.365 355.381C723.198 355.85 724.072 356.085 724.99 356.085C725.928 356.085 726.803 355.85 727.614 355.381C728.424 354.912 729.075 354.229 729.566 353.333C730.078 352.416 730.334 351.349 730.334 350.133ZM756.245 349.717C756.245 350.378 756.202 350.976 756.117 351.509H742.645C742.752 352.917 743.274 354.048 744.213 354.901C745.152 355.754 746.304 356.181 747.669 356.181C749.632 356.181 751.018 355.36 751.829 353.717H755.765C755.232 355.338 754.261 356.672 752.853 357.717C751.466 358.741 749.738 359.253 747.669 359.253C745.984 359.253 744.469 358.88 743.125 358.133C741.802 357.365 740.757 356.298 739.989 354.933C739.242 353.546 738.869 351.946 738.869 350.133C738.869 348.32 739.232 346.73 739.957 345.365C740.704 343.978 741.738 342.912 743.061 342.165C744.405 341.418 745.941 341.045 747.669 341.045C749.333 341.045 750.816 341.408 752.117 342.133C753.418 342.858 754.432 343.882 755.157 345.205C755.882 346.506 756.245 348.01 756.245 349.717ZM752.437 348.565C752.416 347.221 751.936 346.144 750.997 345.333C750.058 344.522 748.896 344.117 747.509 344.117C746.25 344.117 745.173 344.522 744.277 345.333C743.381 346.122 742.848 347.2 742.677 348.565H752.437ZM759.899 350.069C759.899 348.298 760.262 346.73 760.987 345.365C761.734 344 762.736 342.944 763.995 342.197C765.275 341.429 766.683 341.045 768.219 341.045C769.606 341.045 770.811 341.322 771.835 341.877C772.88 342.41 773.712 343.082 774.331 343.893V341.333H778.011V358.965H774.331V356.341C773.712 357.173 772.87 357.866 771.803 358.421C770.736 358.976 769.52 359.253 768.155 359.253C766.64 359.253 765.254 358.869 763.995 358.101C762.736 357.312 761.734 356.224 760.987 354.837C760.262 353.429 759.899 351.84 759.899 350.069ZM774.331 350.133C774.331 348.917 774.075 347.861 773.563 346.965C773.072 346.069 772.422 345.386 771.611 344.917C770.8 344.448 769.926 344.213 768.987 344.213C768.048 344.213 767.174 344.448 766.363 344.917C765.552 345.365 764.891 346.037 764.379 346.933C763.888 347.808 763.643 348.853 763.643 350.069C763.643 351.285 763.888 352.352 764.379 353.269C764.891 354.186 765.552 354.89 766.363 355.381C767.195 355.85 768.07 356.085 768.987 356.085C769.926 356.085 770.8 355.85 771.611 355.381C772.422 354.912 773.072 354.229 773.563 353.333C774.075 352.416 774.331 351.349 774.331 350.133ZM788.339 344.309V354.069C788.339 354.73 788.488 355.21 788.787 355.509C789.107 355.786 789.64 355.925 790.387 355.925H792.627V358.965H789.747C788.104 358.965 786.845 358.581 785.971 357.813C785.096 357.045 784.659 355.797 784.659 354.069V344.309H782.579V341.333H784.659V336.949H788.339V341.333H792.627V344.309H788.339ZM813.429 349.717C813.429 350.378 813.386 350.976 813.301 351.509H799.829C799.935 352.917 800.458 354.048 801.397 354.901C802.335 355.754 803.487 356.181 804.853 356.181C806.815 356.181 808.202 355.36 809.013 353.717H812.949C812.415 355.338 811.445 356.672 810.037 357.717C808.65 358.741 806.922 359.253 804.853 359.253C803.167 359.253 801.653 358.88 800.309 358.133C798.986 357.365 797.941 356.298 797.173 354.933C796.426 353.546 796.053 351.946 796.053 350.133C796.053 348.32 796.415 346.73 797.141 345.365C797.887 343.978 798.922 342.912 800.245 342.165C801.589 341.418 803.125 341.045 804.853 341.045C806.517 341.045 807.999 341.408 809.301 342.133C810.602 342.858 811.615 343.882 812.341 345.205C813.066 346.506 813.429 348.01 813.429 349.717ZM809.621 348.565C809.599 347.221 809.119 346.144 808.181 345.333C807.242 344.522 806.079 344.117 804.693 344.117C803.434 344.117 802.357 344.522 801.461 345.333C800.565 346.122 800.031 347.2 799.861 348.565H809.621Z" fill="black"/>
<path d="M1045.66 336.725C1048.03 336.725 1050.1 337.184 1051.87 338.101C1053.66 338.997 1055.04 340.298 1056 342.005C1056.98 343.69 1057.47 345.664 1057.47 347.925C1057.47 350.186 1056.98 352.149 1056 353.813C1055.04 355.477 1053.66 356.757 1051.87 357.653C1050.1 358.528 1048.03 358.965 1045.66 358.965H1038.4V336.725H1045.66ZM1045.66 355.989C1048.27 355.989 1050.26 355.285 1051.65 353.877C1053.03 352.469 1053.73 350.485 1053.73 347.925C1053.73 345.344 1053.03 343.328 1051.65 341.877C1050.26 340.426 1048.27 339.701 1045.66 339.701H1042.05V355.989H1045.66ZM1078.53 349.717C1078.53 350.378 1078.48 350.976 1078.4 351.509H1064.93C1065.03 352.917 1065.56 354.048 1066.5 354.901C1067.43 355.754 1068.59 356.181 1069.95 356.181C1071.91 356.181 1073.3 355.36 1074.11 353.717H1078.05C1077.51 355.338 1076.54 356.672 1075.14 357.717C1073.75 358.741 1072.02 359.253 1069.95 359.253C1068.27 359.253 1066.75 358.88 1065.41 358.133C1064.08 357.365 1063.04 356.298 1062.27 354.933C1061.52 353.546 1061.15 351.946 1061.15 350.133C1061.15 348.32 1061.51 346.73 1062.24 345.365C1062.99 343.978 1064.02 342.912 1065.34 342.165C1066.69 341.418 1068.22 341.045 1069.95 341.045C1071.62 341.045 1073.1 341.408 1074.4 342.133C1075.7 342.858 1076.71 343.882 1077.44 345.205C1078.16 346.506 1078.53 348.01 1078.53 349.717ZM1074.72 348.565C1074.7 347.221 1074.22 346.144 1073.28 345.333C1072.34 344.522 1071.18 344.117 1069.79 344.117C1068.53 344.117 1067.46 344.522 1066.56 345.333C1065.66 346.122 1065.13 347.2 1064.96 348.565H1074.72ZM1089.8 359.253C1088.41 359.253 1087.16 359.008 1086.05 358.517C1084.97 358.005 1084.1 357.322 1083.46 356.469C1082.82 355.594 1082.48 354.624 1082.44 353.557H1086.21C1086.28 354.304 1086.63 354.933 1087.27 355.445C1087.93 355.936 1088.75 356.181 1089.73 356.181C1090.76 356.181 1091.55 355.989 1092.1 355.605C1092.68 355.2 1092.97 354.688 1092.97 354.069C1092.97 353.408 1092.65 352.917 1092.01 352.597C1091.39 352.277 1090.39 351.925 1089.03 351.541C1087.71 351.178 1086.63 350.826 1085.8 350.485C1084.97 350.144 1084.24 349.621 1083.62 348.917C1083.02 348.213 1082.73 347.285 1082.73 346.133C1082.73 345.194 1083 344.341 1083.56 343.573C1084.11 342.784 1084.9 342.165 1085.93 341.717C1086.97 341.269 1088.17 341.045 1089.51 341.045C1091.51 341.045 1093.13 341.557 1094.34 342.581C1095.58 343.584 1096.24 344.96 1096.33 346.709H1092.68C1092.61 345.92 1092.29 345.29 1091.72 344.821C1091.14 344.352 1090.36 344.117 1089.38 344.117C1088.42 344.117 1087.69 344.298 1087.17 344.661C1086.66 345.024 1086.41 345.504 1086.41 346.101C1086.41 346.57 1086.58 346.965 1086.92 347.285C1087.26 347.605 1087.67 347.861 1088.17 348.053C1088.66 348.224 1089.38 348.448 1090.34 348.725C1091.62 349.066 1092.67 349.418 1093.48 349.781C1094.31 350.122 1095.02 350.634 1095.62 351.317C1096.22 352 1096.53 352.906 1096.55 354.037C1096.55 355.04 1096.27 355.936 1095.72 356.725C1095.16 357.514 1094.37 358.133 1093.35 358.581C1092.35 359.029 1091.16 359.253 1089.8 359.253ZM1103.63 338.997C1102.97 338.997 1102.41 338.773 1101.96 338.325C1101.52 337.877 1101.29 337.322 1101.29 336.661C1101.29 336 1101.52 335.445 1101.96 334.997C1102.41 334.549 1102.97 334.325 1103.63 334.325C1104.27 334.325 1104.81 334.549 1105.26 334.997C1105.71 335.445 1105.93 336 1105.93 336.661C1105.93 337.322 1105.71 337.877 1105.26 338.325C1104.81 338.773 1104.27 338.997 1103.63 338.997ZM1105.42 341.333V358.965H1101.77V341.333H1105.42ZM1118.59 341.045C1119.96 341.045 1121.16 341.322 1122.21 341.877C1123.28 342.41 1124.11 343.082 1124.7 343.893V341.333H1128.38V359.253C1128.38 360.874 1128.04 362.314 1127.36 363.573C1126.68 364.853 1125.69 365.856 1124.38 366.581C1123.1 367.306 1121.57 367.669 1119.78 367.669C1117.39 367.669 1115.4 367.104 1113.82 365.973C1112.25 364.864 1111.35 363.349 1111.14 361.429H1114.75C1115.03 362.346 1115.62 363.082 1116.51 363.637C1117.43 364.213 1118.52 364.501 1119.78 364.501C1121.25 364.501 1122.43 364.053 1123.33 363.157C1124.25 362.261 1124.7 360.96 1124.7 359.253V356.309C1124.09 357.141 1123.24 357.845 1122.18 358.421C1121.13 358.976 1119.94 359.253 1118.59 359.253C1117.06 359.253 1115.65 358.869 1114.37 358.101C1113.11 357.312 1112.11 356.224 1111.36 354.837C1110.64 353.429 1110.27 351.84 1110.27 350.069C1110.27 348.298 1110.64 346.73 1111.36 345.365C1112.11 344 1113.11 342.944 1114.37 342.197C1115.65 341.429 1117.06 341.045 1118.59 341.045ZM1124.7 350.133C1124.7 348.917 1124.45 347.861 1123.94 346.965C1123.45 346.069 1122.8 345.386 1121.98 344.917C1121.17 344.448 1120.3 344.213 1119.36 344.213C1118.42 344.213 1117.55 344.448 1116.74 344.917C1115.93 345.365 1115.26 346.037 1114.75 346.933C1114.26 347.808 1114.02 348.853 1114.02 350.069C1114.02 351.285 1114.26 352.352 1114.75 353.269C1115.26 354.186 1115.93 354.89 1116.74 355.381C1117.57 355.85 1118.44 356.085 1119.36 356.085C1120.3 356.085 1121.17 355.85 1121.98 355.381C1122.8 354.912 1123.45 354.229 1123.94 353.333C1124.45 352.416 1124.7 351.349 1124.7 350.133ZM1143.35 341.045C1144.74 341.045 1145.98 341.333 1147.06 341.909C1148.17 342.485 1149.04 343.338 1149.66 344.469C1150.27 345.6 1150.58 346.965 1150.58 348.565V358.965H1146.97V349.109C1146.97 347.53 1146.57 346.325 1145.78 345.493C1144.99 344.64 1143.92 344.213 1142.55 344.213C1141.19 344.213 1140.1 344.64 1139.29 345.493C1138.5 346.325 1138.1 347.53 1138.1 349.109V358.965H1134.46V341.333H1138.1V343.349C1138.7 342.624 1139.46 342.058 1140.38 341.653C1141.31 341.248 1142.31 341.045 1143.35 341.045Z" fill="black"/>
<path d="M1406.77 336.725V339.701H1400.85V358.965H1397.2V339.701H1391.25V336.725H1406.77ZM1427.9 349.717C1427.9 350.378 1427.86 350.976 1427.77 351.509H1414.3C1414.41 352.917 1414.93 354.048 1415.87 354.901C1416.81 355.754 1417.96 356.181 1419.33 356.181C1421.29 356.181 1422.68 355.36 1423.49 353.717H1427.42C1426.89 355.338 1425.92 356.672 1424.51 357.717C1423.12 358.741 1421.4 359.253 1419.33 359.253C1417.64 359.253 1416.13 358.88 1414.78 358.133C1413.46 357.365 1412.41 356.298 1411.65 354.933C1410.9 353.546 1410.53 351.946 1410.53 350.133C1410.53 348.32 1410.89 346.73 1411.61 345.365C1412.36 343.978 1413.4 342.912 1414.72 342.165C1416.06 341.418 1417.6 341.045 1419.33 341.045C1420.99 341.045 1422.47 341.408 1423.77 342.133C1425.08 342.858 1426.09 343.882 1426.81 345.205C1427.54 346.506 1427.9 348.01 1427.9 349.717ZM1424.09 348.565C1424.07 347.221 1423.59 346.144 1422.65 345.333C1421.72 344.522 1420.55 344.117 1419.17 344.117C1417.91 344.117 1416.83 344.522 1415.93 345.333C1415.04 346.122 1414.51 347.2 1414.33 348.565H1424.09ZM1439.17 359.253C1437.79 359.253 1436.54 359.008 1435.43 358.517C1434.34 358.005 1433.48 357.322 1432.84 356.469C1432.2 355.594 1431.86 354.624 1431.81 353.557H1435.59C1435.65 354.304 1436 354.933 1436.64 355.445C1437.31 355.936 1438.13 356.181 1439.11 356.181C1440.13 356.181 1440.92 355.989 1441.48 355.605C1442.05 355.2 1442.34 354.688 1442.34 354.069C1442.34 353.408 1442.02 352.917 1441.38 352.597C1440.76 352.277 1439.77 351.925 1438.4 351.541C1437.08 351.178 1436 350.826 1435.17 350.485C1434.34 350.144 1433.62 349.621 1433 348.917C1432.4 348.213 1432.1 347.285 1432.1 346.133C1432.1 345.194 1432.38 344.341 1432.93 343.573C1433.49 342.784 1434.28 342.165 1435.3 341.717C1436.35 341.269 1437.54 341.045 1438.88 341.045C1440.89 341.045 1442.5 341.557 1443.72 342.581C1444.95 343.584 1445.62 344.96 1445.7 346.709H1442.05C1441.99 345.92 1441.67 345.29 1441.09 344.821C1440.52 344.352 1439.74 344.117 1438.76 344.117C1437.8 344.117 1437.06 344.298 1436.55 344.661C1436.04 345.024 1435.78 345.504 1435.78 346.101C1435.78 346.57 1435.95 346.965 1436.29 347.285C1436.63 347.605 1437.05 347.861 1437.54 348.053C1438.03 348.224 1438.76 348.448 1439.72 348.725C1441 349.066 1442.04 349.418 1442.85 349.781C1443.68 350.122 1444.4 350.634 1445 351.317C1445.59 352 1445.9 352.906 1445.92 354.037C1445.92 355.04 1445.65 355.936 1445.09 356.725C1444.54 357.514 1443.75 358.133 1442.72 358.581C1441.72 359.029 1440.54 359.253 1439.17 359.253ZM1455.4 344.309V354.069C1455.4 354.73 1455.55 355.21 1455.85 355.509C1456.17 355.786 1456.7 355.925 1457.45 355.925H1459.69V358.965H1456.81C1455.17 358.965 1453.91 358.581 1453.03 357.813C1452.16 357.045 1451.72 355.797 1451.72 354.069V344.309H1449.64V341.333H1451.72V336.949H1455.4V341.333H1459.69V344.309H1455.4Z" fill="black"/>
<path d="M97.6 183.466C94.2 178.963 95.1 177.162 98.7 181.265L100.897 183.921L100.892 183.602M97.6 183.466L74.2 200.578C73 196.175 74.4 191.872 78 188.57M97.6 183.466C100.4 187.069 100.5 187.669 100.5 197.976M97.6 183.466L100.5 197.976M100.892 183.602L98.8541 181.137L98.8504 181.133L98.8503 181.133C97.9455 180.102 97.1993 179.428 96.6376 179.075C96.3595 178.9 96.1072 178.792 95.8919 178.772C95.7815 178.761 95.6714 178.774 95.5723 178.822C95.4707 178.871 95.3952 178.95 95.3461 179.049C95.2533 179.234 95.2559 179.482 95.3084 179.748C95.3625 180.022 95.4768 180.351 95.6493 180.729C95.9948 181.484 96.5849 182.454 97.4404 183.587L97.442 183.589C98.8386 185.386 99.5384 186.405 99.9038 188.246C100.274 190.111 100.3 192.813 100.3 197.976C100.3 202.886 100.249 205.644 99.9527 207.412C99.8052 208.292 99.5984 208.916 99.3124 209.433C99.0265 209.95 98.6552 210.372 98.1622 210.841L98.1585 210.844L98.1585 210.844C96.8429 212.161 95.2926 212.812 93.65 212.812C92.0041 212.812 90.2459 212.158 88.5222 210.827L88.5183 210.824L88.5183 210.824C87.7554 210.264 86.8172 209.732 85.9041 209.338C84.9961 208.947 84.091 208.684 83.4 208.684C82.6445 208.684 81.7649 208.411 80.8459 207.93C79.9294 207.45 78.9869 206.769 78.1095 205.972C76.3499 204.372 74.8794 202.327 74.3931 200.526L74.3929 200.526C73.2149 196.203 74.5836 191.976 78.1342 188.718M100.892 183.602L100.6 161.554C100.45 151.293 100.325 145.623 100.026 142.28C99.8762 140.609 99.6841 139.532 99.4288 138.76C99.1763 137.996 98.8608 137.525 98.4518 137.068C97.347 135.867 95.5283 135.18 93.6893 135.082C91.8495 134.984 90.0401 135.477 88.9437 136.572C88.5679 136.973 88.2992 137.274 88.1306 137.527C87.9635 137.779 87.9137 137.957 87.9357 138.12C87.9586 138.29 88.0655 138.487 88.315 138.761C88.5626 139.033 88.9274 139.356 89.4276 139.782C90.2071 140.411 90.7087 140.957 90.936 141.404C91.0501 141.628 91.1064 141.849 91.0701 142.052C91.0319 142.266 90.8978 142.425 90.7064 142.526C90.522 142.625 90.2824 142.672 90.0069 142.681C89.7289 142.691 89.3998 142.662 89.0259 142.595C88.2782 142.462 87.3333 142.176 86.2257 141.722C84.5772 141.073 83.5313 140.76 82.57 140.736C81.6139 140.712 80.7215 140.973 79.3778 141.521C76.2719 142.882 74.5102 146.289 75.0975 150.012L75.0987 150.019L75.0993 150.026C75.1269 150.357 75.0788 150.67 74.934 150.963C74.7899 151.255 74.5561 151.516 74.2309 151.755C73.5867 152.229 72.5561 152.636 71.0529 153.038C69.4602 153.486 68.3909 153.928 67.5973 154.541C66.809 155.151 66.2766 155.943 65.7846 157.125L65.784 157.126C65.2878 158.293 64.9821 159.288 64.862 160.124C64.7419 160.959 64.8094 161.62 65.0441 162.13C65.5046 163.13 66.6676 163.652 68.7 163.652C69.6427 163.652 70.4017 163.792 70.9531 164.021C71.4965 164.246 71.8765 164.576 71.981 164.978C72.0907 165.4 71.8769 165.806 71.4488 166.124C71.0217 166.441 70.3505 166.698 69.4357 166.851C65.9413 167.532 63.2 171.043 63.2 174.96C63.2 177.186 63.7197 178.719 64.7586 179.652C65.7986 180.587 67.4061 180.963 69.6826 180.765L69.6846 180.765C70.3383 180.715 70.8841 180.695 71.3306 180.711C71.7747 180.727 72.1329 180.778 72.4051 180.876C72.6797 180.975 72.8875 181.129 72.9906 181.362C73.0916 181.59 73.073 181.851 72.9915 182.123L72.9883 182.133L72.9838 182.144C72.8114 182.546 72.4239 182.924 71.9577 183.222C71.487 183.523 70.9128 183.758 70.3358 183.863L70.3329 183.864C68.9159 184.1 67.8416 185.142 67.3368 186.465C66.8326 187.786 66.9062 189.367 67.7643 190.657C68.2872 191.38 68.7169 191.891 69.1012 192.197C69.4812 192.5 69.7889 192.582 70.0867 192.504C70.4034 192.421 70.7599 192.145 71.1992 191.602C71.6343 191.065 72.1279 190.294 72.7271 189.27C73.2874 188.301 74.0987 187.288 74.945 186.428C75.7892 185.571 76.6821 184.853 77.4105 184.488L77.4104 184.488L77.4179 184.485C78.403 184.041 78.9796 183.614 79.3236 182.971C79.6733 182.318 79.8 181.412 79.8 179.964C79.8 178.042 80.1531 176.262 80.6669 175.092C80.9215 174.513 81.2278 174.055 81.5747 173.818C81.7523 173.697 81.9491 173.628 82.1572 173.642C82.3657 173.656 82.5599 173.751 82.7352 173.912L82.7489 173.925L82.76 173.94C82.8692 174.085 82.9232 174.307 82.9474 174.546C82.9725 174.794 82.9686 175.096 82.9366 175.43C82.8724 176.098 82.6934 176.915 82.3879 177.731M100.892 183.602L101.096 183.848L100.8 161.551C100.5 141.036 100.3 138.835 98.6 136.934L82.3879 177.731M78.1342 188.718C78.1339 188.718 78.1335 188.719 78.1332 188.719L78 188.57M78.1342 188.718C78.8339 188.093 79.3778 187.623 79.823 187.29C80.2708 186.954 80.6016 186.771 80.8753 186.699C81.1357 186.632 81.353 186.663 81.5901 186.79C81.8393 186.923 82.1084 187.16 82.4585 187.51L82.4625 187.514L82.4626 187.514C83.3719 188.374 84.2583 188.908 84.9434 189.017C85.2902 189.073 85.6151 189.023 85.8538 188.814C86.0915 188.605 86.2 188.276 86.2 187.869C86.2 187.146 85.5973 186.669 85 186.669C84.6021 186.669 84.1605 186.359 83.7269 185.75C83.3011 185.152 82.9185 184.314 82.6287 183.37C82.0471 181.475 81.8592 179.224 82.3879 177.731M78.1342 188.718C78.1345 188.718 78.1348 188.717 78.1352 188.717L78 188.57M78 188.57L82.3879 177.731M114.574 139.68L114.571 139.682C113.791 140.337 113.284 140.903 113.05 141.361C112.933 141.591 112.873 141.815 112.902 142.021C112.934 142.238 113.061 142.404 113.252 142.511C113.434 142.615 113.673 142.665 113.948 142.676C114.225 142.687 114.555 142.659 114.931 142.594C115.684 142.462 116.641 142.176 117.773 141.723C119.422 141.073 120.468 140.76 121.43 140.736C122.386 140.712 123.279 140.973 124.622 141.521C127.728 142.882 129.49 146.289 128.902 150.012L128.901 150.019L128.901 150.026C128.873 150.357 128.921 150.67 129.066 150.963C129.21 151.255 129.444 151.516 129.769 151.755C130.413 152.229 131.444 152.636 132.947 153.038C134.54 153.486 135.609 153.928 136.403 154.541C137.191 155.151 137.723 155.943 138.215 157.125L138.216 157.126C138.712 158.293 139.018 159.288 139.138 160.124C139.258 160.959 139.191 161.62 138.956 162.13C138.495 163.13 137.332 163.652 135.3 163.652C134.357 163.652 133.598 163.792 133.047 164.021C132.503 164.246 132.123 164.576 132.019 164.978C131.909 165.4 132.123 165.806 132.551 166.124C132.978 166.441 133.649 166.698 134.564 166.851C138.059 167.532 140.8 171.043 140.8 174.96C140.8 177.186 140.28 178.719 139.241 179.652C138.201 180.587 136.594 180.963 134.317 180.765L134.315 180.765C133.662 180.715 133.116 180.695 132.669 180.711C132.225 180.727 131.867 180.778 131.595 180.876C131.32 180.975 131.112 181.129 131.009 181.362C130.908 181.59 130.927 181.851 131.008 182.123L131.012 182.133L131.016 182.144C131.189 182.546 131.576 182.924 132.042 183.222C132.513 183.523 133.087 183.758 133.664 183.863L133.667 183.864C135.084 184.1 136.158 185.142 136.663 186.465C137.167 187.786 137.094 189.367 136.236 190.657C135.713 191.38 135.283 191.891 134.899 192.197C134.519 192.5 134.211 192.582 133.913 192.504C133.597 192.421 133.24 192.145 132.801 191.602C132.366 191.065 131.872 190.294 131.273 189.27C131.273 189.27 131.273 189.27 131.273 189.269L131.1 189.37C130 187.469 127.9 185.367 126.5 184.667L114.574 139.68ZM114.574 139.68C115.101 139.253 115.486 138.935 115.745 138.671C116.008 138.404 116.109 138.223 116.126 138.074C116.142 137.934 116.088 137.772 115.893 137.525C115.698 137.278 115.391 136.982 114.964 136.58C113.764 135.475 111.972 134.984 110.186 135.082C108.4 135.18 106.655 135.865 105.548 137.068C105.139 137.525 104.824 137.996 104.571 138.76C104.316 139.532 104.124 140.609 103.974 142.28C103.675 145.623 103.55 151.293 103.4 161.554L103.107 183.602M114.574 139.68L103.107 183.602M103.107 183.602L105.146 181.137L105.146 181.137L105.149 181.133C106.029 180.127 106.755 179.455 107.305 179.089C107.577 178.907 107.823 178.789 108.034 178.754C108.141 178.736 108.249 178.738 108.349 178.773C108.453 178.809 108.537 178.877 108.594 178.969C108.703 179.142 108.71 179.379 108.671 179.629C108.631 179.888 108.533 180.204 108.381 180.568C108.077 181.296 107.545 182.246 106.766 183.378C103.803 187.826 102.801 193.776 103.499 202.563C103.898 207.499 105.365 210.773 107.463 212.209C109.535 213.627 112.31 213.304 115.477 210.828L115.477 210.828L115.482 210.824C116.245 210.264 117.183 209.732 118.096 209.338C119.004 208.947 119.909 208.684 120.6 208.684C121.355 208.684 122.235 208.411 123.154 207.93C124.071 207.45 125.013 206.769 125.89 205.972C127.65 204.372 129.121 202.327 129.607 200.526L129.607 200.526C130.785 196.203 129.416 191.976 125.866 188.718C125.166 188.093 124.622 187.623 124.177 187.29C123.729 186.954 123.398 186.771 123.125 186.699C122.864 186.632 122.647 186.663 122.41 186.79C122.161 186.923 121.892 187.16 121.541 187.51L121.542 187.51L121.537 187.514C120.628 188.374 119.742 188.908 119.057 189.017C118.71 189.073 118.385 189.023 118.146 188.814C117.908 188.605 117.8 188.276 117.8 187.869C117.8 187.146 118.403 186.669 119 186.669C119.398 186.669 119.839 186.359 120.273 185.75C120.699 185.152 121.081 184.314 121.371 183.37C121.953 181.475 122.141 179.224 121.612 177.731L103.107 183.602ZM100.5 197.976C100.5 207.783 100.3 209.084 98.3 210.985L100.5 197.976ZM61.8426 181.989L61.8406 181.986C61.2689 181.232 60.8166 180.16 60.4868 178.96C60.1562 177.757 59.9449 176.411 59.8629 175.098C59.7809 173.785 59.8277 172.499 60.017 171.417C60.2047 170.344 60.5384 169.435 61.0585 168.915C61.2278 168.745 61.3904 168.459 61.5329 168.048C61.6742 167.64 61.7906 167.125 61.8769 166.514C62.0496 165.292 62.0998 163.705 62.0003 161.862C61.8508 159.119 61.8215 157.506 62.1957 156.24C62.574 154.961 63.3586 154.054 64.7576 152.704C65.5711 151.84 66.5599 151.079 67.4859 150.533C67.9498 150.26 68.4009 150.039 68.8093 149.885C69.2147 149.733 69.5906 149.643 69.9 149.643C70.7375 149.643 71.1688 149.492 71.4217 149.118C71.555 148.92 71.6516 148.643 71.7133 148.25C71.775 147.857 71.8 147.362 71.8 146.74C71.8 144.717 73.0376 142.443 74.7179 140.686C76.3968 138.93 78.5707 137.634 80.5 137.634C82.1204 137.634 84.0709 136.578 85.8537 134.696C87.0098 133.438 87.9335 132.662 89.0363 132.208C90.1369 131.754 91.395 131.63 93.2 131.63C96.1145 131.63 98.3803 132.231 99.7377 133.586C100.238 134.037 100.609 134.364 100.92 134.58C101.231 134.795 101.459 134.882 101.675 134.882C101.893 134.882 102.135 134.794 102.473 134.576C102.811 134.359 103.221 134.029 103.773 133.577L103.775 133.575C105.323 132.336 107.774 131.63 110.7 131.63C112.554 131.63 113.837 131.754 114.95 132.208C116.066 132.662 116.99 133.438 118.146 134.696C119.929 136.578 121.88 137.634 123.5 137.634C125.429 137.634 127.603 138.93 129.282 140.686C130.962 142.443 132.2 144.717 132.2 146.74C132.2 147.362 132.225 147.857 132.287 148.25C132.348 148.643 132.445 148.92 132.578 149.118C132.831 149.492 133.262 149.643 134.1 149.643C134.409 149.643 134.785 149.733 135.191 149.885C135.599 150.039 136.05 150.26 136.514 150.533C137.44 151.079 138.429 151.84 139.242 152.704C140.641 154.054 141.424 154.96 141.816 156.199C142.203 157.427 142.199 158.966 142.1 161.558L142.1 161.563C142 163.153 142.05 164.842 142.211 166.282C142.292 167.002 142.4 167.656 142.53 168.203C142.662 168.753 142.812 169.181 142.973 169.456L142.973 169.456L142.976 169.461C143.9 171.157 144.251 173.575 144.1 175.911C143.948 178.246 143.292 180.543 142.157 181.989C141.626 182.665 141.136 183.667 140.778 184.766C140.42 185.865 140.2 187.044 140.2 188.069C140.2 190.113 139.511 192.105 138.463 193.589C137.419 195.067 135.991 196.075 134.5 196.075C134.285 196.075 134.107 196.128 133.957 196.231C133.805 196.334 133.669 196.497 133.556 196.736C133.325 197.221 133.2 197.985 133.2 199.077C133.2 201.947 131.567 205.17 129.311 207.679C127.058 210.186 124.135 212.034 121.504 212.086V212.086H121.5C120.993 212.086 120.249 212.297 119.444 212.657C118.645 213.013 117.809 213.505 117.124 214.045C115.427 215.382 112.878 216.039 110.376 216.051C107.875 216.064 105.373 215.434 103.774 214.143L103.773 214.142C103.221 213.69 102.811 213.36 102.473 213.143C102.135 212.925 101.893 212.837 101.675 212.837C101.459 212.837 101.231 212.924 100.92 213.139C100.608 213.355 100.237 213.683 99.7348 214.135C98.3318 215.434 95.9478 216.064 93.5239 216.051C91.0957 216.039 88.5721 215.382 86.8761 214.045C86.1903 213.505 85.3548 213.013 84.5559 212.657C83.7513 212.297 83.0074 212.086 82.5 212.086V212.086L82.496 212.086C79.8653 212.034 76.9419 210.186 74.6887 207.679C72.433 205.17 70.8 201.947 70.8 199.077C70.8 197.985 70.6748 197.221 70.4444 196.736C70.3306 196.497 70.195 196.334 70.0433 196.231C69.8931 196.128 69.7149 196.075 69.5 196.075C68.0087 196.075 66.5808 195.067 65.5366 193.589C64.4886 192.105 63.8 190.113 63.8 188.069C63.8 187.044 63.5799 185.865 63.2223 184.766C62.8643 183.667 62.3735 182.665 61.8426 181.989Z" fill="black" stroke="black" stroke-width="0.4"/>
<path d="M82.2862 157.576L82.2862 157.576L82.2876 157.579C82.5402 158.262 82.707 158.85 82.7879 159.333C82.8677 159.809 82.8685 160.207 82.7627 160.495C82.7083 160.643 82.6224 160.769 82.4972 160.856C82.3712 160.944 82.2225 160.979 82.0643 160.973C81.7616 160.961 81.4011 160.799 80.997 160.523C80.8891 160.465 80.7975 160.373 80.7194 160.266C80.637 160.155 80.5614 160.016 80.4921 159.859C80.3533 159.545 80.2311 159.137 80.1295 158.667C79.9261 157.725 79.8 156.51 79.8 155.247C79.8 153.536 79.9504 152.234 80.3493 151.127C80.7492 150.016 81.3935 149.117 82.3578 148.202C83.0158 147.493 83.7494 146.86 84.3971 146.403C84.7215 146.174 85.0277 145.986 85.2946 145.855C85.5543 145.727 85.8016 145.641 86 145.641C86.4409 145.641 86.7822 145.78 86.9904 146.039C87.1973 146.297 87.2419 146.635 87.1706 146.97C87.029 147.637 86.4225 148.359 85.4725 148.729L85.4726 148.729L85.4678 148.731C84.8928 148.938 84.3342 149.412 83.8345 150.072C83.3365 150.73 82.9078 151.558 82.5883 152.45C81.9457 154.243 81.7615 156.239 82.2862 157.576Z" fill="black" stroke="black" stroke-width="0.4"/>
<path d="M93.9002 157.639L93.9002 157.639L93.9002 157.638C93.9993 155.853 93.8003 152.768 93.4042 150.885C93.2294 150.061 93.1031 149.429 93.0364 148.977C93.0032 148.751 92.9837 148.563 92.9816 148.414C92.9796 148.277 92.9906 148.134 93.0525 148.028C93.0884 147.967 93.1462 147.911 93.2299 147.887C93.3085 147.865 93.3825 147.879 93.4391 147.899C93.5464 147.938 93.6565 148.024 93.7634 148.122C93.9844 148.325 94.2805 148.667 94.6536 149.115L94.6537 149.115L94.6582 149.121C95.11 149.706 95.4616 150.647 95.7149 151.721C95.9697 152.801 96.1305 154.039 96.1872 155.238C96.2439 156.436 96.1971 157.602 96.0329 158.537C95.9508 159.005 95.8382 159.421 95.6907 159.757C95.5447 160.089 95.3551 160.365 95.106 160.52L95.1061 160.521L95.0992 160.524C94.8882 160.645 94.6597 160.684 94.4518 160.567C94.2606 160.46 94.1398 160.247 94.0597 160C93.8976 159.5 93.85 158.693 93.9002 157.639Z" fill="black" stroke="black" stroke-width="0.4"/>
<path d="M88.0585 166.595L88.0485 166.585L88.04 166.574C87.9202 166.414 87.9029 166.219 87.9415 166.029C87.9798 165.842 88.0755 165.642 88.2086 165.442C88.4752 165.042 88.9186 164.601 89.48 164.192C90.0338 163.764 90.529 163.427 90.9617 163.185C91.3925 162.944 91.773 162.79 92.0949 162.741C92.4194 162.692 92.7138 162.746 92.9218 162.961C93.1218 163.167 93.2 163.481 93.2 163.852C93.2 164.056 93.1165 164.259 92.9951 164.449C92.8723 164.641 92.7005 164.835 92.4992 165.024C92.0964 165.401 91.5566 165.773 90.9958 166.079C90.4356 166.385 89.8431 166.631 89.3325 166.749C89.0776 166.808 88.8341 166.837 88.6209 166.821C88.4092 166.805 88.2052 166.742 88.0585 166.595Z" fill="black" stroke="black" stroke-width="0.4"/>
<path d="M76.7652 172.572L76.7652 172.572L76.7621 172.576C76.232 173.309 75.7588 173.766 75.3646 173.964C75.1659 174.063 74.9645 174.107 74.7785 174.06C74.5847 174.01 74.4493 173.871 74.368 173.692C74.2139 173.353 74.2285 172.821 74.3806 172.187C74.5353 171.542 74.8419 170.752 75.3215 169.867C75.7252 169.009 76.179 168.227 76.5586 167.657C76.7485 167.372 76.9221 167.137 77.0634 166.971C77.1335 166.888 77.1996 166.818 77.2586 166.767C77.2879 166.742 77.3199 166.717 77.3535 166.698C77.3827 166.681 77.4352 166.655 77.5001 166.655C77.7031 166.655 77.8684 166.744 77.987 166.893C78.0993 167.034 78.1657 167.222 78.2031 167.427C78.278 167.838 78.2488 168.387 78.1472 168.978C77.9435 170.162 77.435 171.592 76.7652 172.572Z" fill="black" stroke="black" stroke-width="0.4"/>
<path d="M69.4 176.059C68.6855 176.059 68.0816 175.958 67.686 175.794C67.4924 175.714 67.3208 175.608 67.2239 175.466C67.1727 175.391 67.1397 175.302 67.1424 175.203C67.1451 175.107 67.1809 175.02 67.2352 174.945C67.4507 174.612 67.8811 174.383 68.3537 174.233C68.8389 174.08 69.4113 173.996 69.9578 173.983C70.5023 173.97 71.0374 174.027 71.4441 174.166C71.8313 174.298 72.2 174.542 72.2 174.959C72.2 175.17 72.0731 175.34 71.9158 175.467C71.7566 175.594 71.539 175.701 71.2898 175.786C70.7892 175.957 70.1165 176.059 69.4 176.059Z" fill="black" stroke="black" stroke-width="0.4"/>
<path d="M90.6 179.063C89.878 179.063 89.1566 178.935 88.5742 178.74C88.283 178.643 88.022 178.528 87.8111 178.401C87.6059 178.278 87.431 178.134 87.331 177.97C87.2681 177.874 87.2269 177.771 87.2191 177.661C87.211 177.549 87.2396 177.443 87.2958 177.35C87.4031 177.172 87.6057 177.044 87.8382 176.951C88.3106 176.762 89.0404 176.662 89.9 176.662C90.7629 176.662 91.5593 176.763 92.1469 176.946C92.4397 177.037 92.6928 177.152 92.877 177.295C93.0607 177.437 93.2 177.626 93.2 177.863C93.2 178.064 93.0899 178.238 92.9456 178.375C92.7994 178.514 92.5986 178.635 92.3663 178.734C91.9007 178.934 91.2733 179.063 90.6 179.063Z" fill="black" stroke="black" stroke-width="0.4"/>
<path d="M86.7646 204.777L86.7646 204.777L86.7625 204.777C86.2414 204.677 85.833 204.594 85.5707 204.506C85.4445 204.463 85.3216 204.411 85.2398 204.334C85.1956 204.293 85.1512 204.234 85.1366 204.154C85.1215 204.072 85.1437 203.999 85.1775 203.941C85.2372 203.839 85.3501 203.759 85.4669 203.691C85.5922 203.618 85.7583 203.54 85.9627 203.453C86.3714 203.28 86.9569 203.066 87.7293 202.792C89.437 202.108 90.5915 201.041 91.2041 199.634C91.8188 198.223 91.8989 196.445 91.4058 194.321C91.28 193.842 91.1965 193.439 91.1575 193.108C91.1189 192.78 91.1218 192.505 91.1826 192.292C91.2462 192.069 91.3792 191.9 91.5955 191.831C91.7936 191.768 92.0245 191.802 92.2632 191.882L92.2711 191.884L92.2788 191.888C92.5074 191.986 92.7092 192.2 92.8843 192.467C93.0626 192.739 93.2282 193.088 93.3753 193.491C93.6697 194.298 93.8978 195.341 93.9991 196.456L93.9992 196.458C94.2036 198.912 93.4124 201.167 92.0635 202.722C90.7142 204.278 88.797 205.142 86.7646 204.777Z" fill="black" stroke="black" stroke-width="0.4"/>
<path d="M118.532 148.731L118.525 148.728L118.519 148.725C118.048 148.516 117.626 148.227 117.318 147.905C117.015 147.588 116.8 147.216 116.8 146.841C116.8 146.383 116.936 146.017 117.245 145.823C117.546 145.634 117.946 145.65 118.374 145.788C119.234 146.066 120.386 146.894 121.641 148.2C122.606 149.116 123.251 150.016 123.651 151.127C124.05 152.234 124.2 153.536 124.2 155.247C124.2 156.51 124.074 157.725 123.87 158.667C123.769 159.137 123.647 159.545 123.508 159.859C123.439 160.016 123.363 160.155 123.281 160.266C123.203 160.373 123.111 160.465 123.003 160.523C122.599 160.799 122.238 160.961 121.936 160.973C121.778 160.979 121.629 160.944 121.503 160.856C121.378 160.769 121.292 160.643 121.237 160.495C121.131 160.207 121.132 159.809 121.212 159.333C121.293 158.85 121.46 158.262 121.712 157.579L121.712 157.579L121.714 157.576C122.238 156.239 122.054 154.243 121.412 152.45C121.092 151.558 120.664 150.73 120.166 150.072C119.666 149.412 119.107 148.938 118.532 148.731Z" fill="black" stroke="black" stroke-width="0.4"/>
<path d="M108.822 149.651L108.822 149.651L108.825 149.647C109.227 148.918 109.573 148.394 109.858 148.081C109.999 147.927 110.139 147.807 110.277 147.746C110.348 147.715 110.429 147.696 110.513 147.705C110.6 147.714 110.676 147.751 110.738 147.81C110.85 147.917 110.902 148.084 110.928 148.254C110.955 148.434 110.959 148.659 110.943 148.925C110.911 149.458 110.796 150.182 110.595 151.088C110.2 152.869 110 155.852 110.1 157.638L110.1 157.639C110.15 158.693 110.102 159.5 109.94 160C109.86 160.247 109.739 160.46 109.548 160.567C109.34 160.684 109.112 160.645 108.901 160.524L108.901 160.525L108.895 160.521C108.68 160.389 108.517 160.141 108.39 159.847C108.26 159.548 108.155 159.172 108.072 158.746C107.907 157.893 107.825 156.813 107.825 155.685C107.825 154.557 107.907 153.374 108.071 152.313C108.235 151.257 108.482 150.306 108.822 149.651Z" fill="black" stroke="black" stroke-width="0.4"/>
<path d="M115.96 166.574L115.952 166.585L115.941 166.595C115.795 166.742 115.591 166.805 115.379 166.821C115.166 166.837 114.922 166.808 114.667 166.749C114.157 166.631 113.564 166.385 113.004 166.079C112.443 165.773 111.904 165.401 111.501 165.024C111.3 164.835 111.128 164.641 111.005 164.449C110.884 164.259 110.8 164.056 110.8 163.852C110.8 163.481 110.878 163.167 111.078 162.961C111.286 162.746 111.581 162.692 111.905 162.741C112.227 162.79 112.608 162.944 113.038 163.185C113.471 163.427 113.966 163.764 114.52 164.192C115.081 164.601 115.525 165.042 115.791 165.442C115.925 165.642 116.02 165.842 116.058 166.029C116.097 166.219 116.08 166.414 115.96 166.574Z" fill="black" stroke="black" stroke-width="0.4"/>
<path d="M129.546 173.897C129.395 174.063 129.197 174.117 128.991 174.083C128.797 174.05 128.599 173.942 128.41 173.797C128.028 173.506 127.614 173.016 127.234 172.445C126.851 171.871 126.495 171.202 126.233 170.541C125.972 169.882 125.8 169.218 125.8 168.656C125.8 168.144 125.851 167.678 125.93 167.335C125.969 167.165 126.018 167.016 126.075 166.904C126.104 166.848 126.14 166.792 126.186 166.748C126.232 166.703 126.304 166.655 126.4 166.655C126.513 166.655 126.615 166.703 126.7 166.76C126.787 166.818 126.874 166.899 126.959 166.992C127.13 167.179 127.315 167.44 127.503 167.744C127.88 168.356 128.288 169.172 128.646 170.003C129.005 170.834 129.318 171.688 129.504 172.375C129.597 172.718 129.66 173.027 129.68 173.275C129.689 173.399 129.689 173.515 129.672 173.616C129.657 173.711 129.623 173.817 129.546 173.897Z" fill="black" stroke="black" stroke-width="0.4"/>
<path d="M134.7 176.059C133.935 176.059 133.236 175.958 132.72 175.772C132.463 175.68 132.24 175.563 132.077 175.417C131.913 175.27 131.8 175.082 131.8 174.859C131.8 174.478 132.132 174.205 132.517 174.059C132.917 173.907 133.454 173.856 134.034 173.961C134.818 174.088 135.446 174.26 135.902 174.451C136.13 174.546 136.32 174.648 136.466 174.755C136.61 174.859 136.727 174.981 136.785 175.12C136.848 175.273 136.832 175.434 136.732 175.571C136.641 175.695 136.494 175.784 136.322 175.851C135.975 175.984 135.433 176.059 134.7 176.059Z" fill="black" stroke="black" stroke-width="0.4"/>
<path d="M113.4 179.063C112.727 179.063 112.099 178.934 111.634 178.734C111.401 178.635 111.201 178.514 111.054 178.375C110.91 178.238 110.8 178.064 110.8 177.863C110.8 177.626 110.939 177.437 111.123 177.295C111.307 177.152 111.56 177.037 111.853 176.946C112.441 176.763 113.237 176.662 114.1 176.662C114.96 176.662 115.689 176.762 116.162 176.951C116.394 177.044 116.597 177.172 116.704 177.35C116.76 177.443 116.789 177.549 116.781 177.661C116.773 177.771 116.732 177.874 116.669 177.97C116.569 178.134 116.394 178.278 116.189 178.401C115.978 178.528 115.717 178.643 115.426 178.74C114.843 178.935 114.122 179.063 113.4 179.063Z" fill="black" stroke="black" stroke-width="0.4"/>
<path d="M117.109 205.081L117.109 205.081H117.1C113.168 205.081 109.8 201.266 109.8 196.875C109.8 195.866 109.876 194.854 110.002 194.054C110.066 193.655 110.143 193.303 110.232 193.028C110.276 192.891 110.325 192.769 110.379 192.667C110.427 192.576 110.487 192.488 110.564 192.425C110.844 192.122 111.144 191.931 111.449 191.965C111.77 192.002 111.983 192.271 112.122 192.609C112.404 193.292 112.5 194.534 112.4 196.187L112.4 196.187L112.399 196.19C112.25 198.086 112.356 199.255 112.945 200.21C113.539 201.173 114.643 201.952 116.595 203.004L116.595 203.004L116.597 203.005L116.602 203.008C117.323 203.405 117.869 203.707 118.245 203.936C118.433 204.051 118.584 204.151 118.695 204.238C118.75 204.282 118.799 204.326 118.839 204.37C118.878 204.412 118.917 204.465 118.939 204.527C118.963 204.595 118.966 204.677 118.926 204.755C118.89 204.827 118.83 204.87 118.78 204.897C118.685 204.948 118.553 204.976 118.412 204.996C118.125 205.036 117.686 205.056 117.123 205.08L117.109 205.081Z" fill="black" stroke="black" stroke-width="0.4"/>
<path d="M748.7 133.231C732.1 137.834 722.9 156.547 729.5 172.358C730.1 173.959 733.2 178.462 736.4 182.265L742 189.17V197.576C742 205.181 742.2 206.182 744.5 208.383C745.8 209.784 747.4 210.885 748.1 210.885C748.7 210.885 750.5 211.986 752.2 213.387C753.8 214.788 755.8 215.889 756.5 215.889C757.2 215.889 759.2 214.788 760.8 213.387C762.5 211.986 764.3 210.885 764.9 210.885C765.6 210.885 767.2 209.784 768.5 208.383C770.8 206.182 771 205.181 771 197.476V189.07L776 183.066C778.8 179.763 781 176.761 781 176.461C781 176.161 780.1 175.861 779.1 175.861C776.8 175.861 768.3 185.768 767.4 189.47C766.8 191.772 766.5 191.872 756.5 191.872C746.5 191.872 746.2 191.772 745.6 189.47C745.3 188.169 742.4 183.866 739.1 179.863C730.3 169.056 728.6 160.049 733.6 150.042C738.3 140.536 746.7 135.632 757.6 135.933C763.6 136.133 767.5 134.832 765.2 133.431C763 132.13 753.2 131.93 748.7 133.231ZM759.8 196.575C752.8 196.875 752 197.176 752 198.877C752 200.678 752.8 200.878 759.8 201.078L767.5 201.278L759.8 201.579C752.9 201.879 752 202.179 752 203.88C752 205.581 752.9 205.882 759.3 206.182C765 206.382 764.4 206.482 756.5 206.582C751 206.582 747.5 206.382 748.8 206.182C752.2 205.481 751.8 201.879 748.3 201.779L745.5 201.579L748.3 201.178C750.1 200.878 751 200.178 751 198.877C751 197.576 750.1 196.875 748.3 196.575C746.7 196.375 750.5 196.175 756.5 196.275C764.7 196.275 765.5 196.375 759.8 196.575Z" fill="black"/>
<path d="M776 134.232C774.8 137.535 773.6 138.035 770.4 136.834C766.3 135.233 763.7 138.035 764.5 143.038C765.1 146.441 764.9 146.941 762.6 147.942C758.9 149.643 758.9 155.347 762.6 157.048C764.8 158.049 765 158.649 764.5 161.852C763.7 166.755 766.3 169.257 771.2 168.356C774.2 167.756 774.8 168.056 775.8 170.258C776.7 172.359 777.7 172.859 780.5 172.859C783.4 172.859 784.1 172.459 784.6 170.258C785.2 167.856 785.6 167.756 789.4 168.256C792.9 168.857 794 168.556 795.5 166.855C797 165.154 797.1 164.453 796.1 162.252C794.8 159.25 795.3 158.049 798.6 156.848C800.5 156.048 801 155.147 801 152.445C801 149.743 800.5 148.943 798.6 148.442C795.7 147.742 794.7 145.34 796.1 142.638C797 140.937 796.8 140.136 794.7 138.135C792.7 136.034 791.9 135.833 790.2 136.734C787.5 138.135 785.1 137.134 784.4 134.232C783.9 132.331 783.1 131.831 780.4 131.831C777.7 131.831 776.8 132.331 776 134.232ZM781.7 137.334C782.5 139.636 787.2 141.738 789.5 140.837C792.3 139.836 793.1 140.537 792.1 143.139C791.1 145.64 793 150.244 795.5 151.144C797.5 151.945 797.4 153.546 795.2 154.246C792.9 155.047 791 160.05 792.1 162.152C793.2 164.053 791.7 165.254 789.1 164.353C786.6 163.553 782.3 165.654 781.7 167.956C781 170.458 779.3 170.358 778.5 167.756C777.7 165.254 773.7 163.653 770.3 164.453C767.9 165.054 767.8 164.954 768.4 162.552C769.2 159.15 767.6 155.147 765.1 154.346C762.5 153.546 762.4 151.845 764.9 151.144C767.2 150.544 769.3 146.241 768.5 143.739C767.6 141.137 768.8 139.636 770.7 140.737C772.8 141.838 777.8 139.936 778.6 137.635C779.3 135.433 780.9 135.333 781.7 137.334Z" fill="black"/>
<path d="M776.2 145.539C774.1 146.339 771.9 151.643 772.6 154.245C774.1 160.249 782.4 162.451 786.1 157.947C791.6 151.143 784.4 142.236 776.2 145.539ZM783.5 150.242C785.6 153.344 784 156.847 780.7 156.847C774.5 156.847 774.5 148.041 780.7 147.84C781.4 147.84 782.7 148.941 783.5 150.242Z" fill="black"/>
<path d="M749.4 139.935C748.4 141.636 750.7 143.537 752.1 142.136C753.3 140.936 752.5 138.834 751 138.834C750.5 138.834 749.8 139.335 749.4 139.935Z" fill="black"/>
<path d="M755 140.335C755 141.135 755.7 141.836 756.5 141.836C757.3 141.836 758 141.135 758 140.335C758 139.534 757.3 138.834 756.5 138.834C755.7 138.834 755 139.534 755 140.335Z" fill="black"/>
<path d="M744.5 141.836C743.8 143.037 744.7 144.838 746.1 144.838C746.6 144.838 747 143.937 747 142.836C747 140.735 745.5 140.135 744.5 141.836Z" fill="black"/>
<path d="M740 146.341C740 147.141 740.7 147.842 741.5 147.842C742.3 147.842 743 147.141 743 146.341C743 145.54 742.3 144.84 741.5 144.84C740.7 144.84 740 145.54 740 146.341Z" fill="black"/>
<path d="M736.4 149.943C735.6 151.344 738.2 153.045 739.4 151.845C740.3 150.944 739.4 148.842 738 148.842C737.5 148.842 736.8 149.343 736.4 149.943Z" fill="black"/>
<path d="M734.4 154.947C733.4 156.648 735.7 158.549 737.1 157.148C738.3 155.947 737.5 153.846 736 153.846C735.5 153.846 734.8 154.346 734.4 154.947Z" fill="black"/>
<path d="M734 161.351C734 162.151 734.7 162.852 735.5 162.852C736.3 162.852 737 162.151 737 161.351C737 160.55 736.3 159.849 735.5 159.849C734.7 159.849 734 160.55 734 161.351Z" fill="black"/>
<path d="M734.4 165.954C733.4 167.656 735.7 169.557 737.1 168.156C738.3 166.955 737.5 164.854 736 164.854C735.5 164.854 734.8 165.354 734.4 165.954Z" fill="black"/>
<path d="M737 170.857C735.8 171.558 735.8 172.058 736.8 173.059C737.7 173.96 738.3 173.96 739.2 173.059C740.8 171.458 739 169.657 737 170.857Z" fill="black"/>
<path d="M740 176.362C740 177.163 740.7 177.863 741.5 177.863C742.3 177.863 743 177.163 743 176.362C743 175.562 742.3 174.861 741.5 174.861C740.7 174.861 740 175.562 740 176.362Z" fill="black"/>
<path d="M1064.2 143.137C1060.3 147.14 1057 150.842 1057 151.342C1057 151.943 1061.9 157.347 1068 163.351C1076.7 172.057 1079.2 174.058 1080.2 173.058C1081.2 172.057 1079.3 169.655 1071.2 161.55L1061 151.342L1066.7 145.538L1072.5 139.834L1082.7 150.042C1090.8 158.147 1093.2 160.049 1094.2 159.048C1095.2 158.047 1093.2 155.545 1084.5 146.839C1078.5 140.735 1073.1 135.832 1072.5 135.832C1071.9 135.832 1068.2 139.134 1064.2 143.137Z" fill="black"/>
<path d="M1120.5 137.333C1118.9 138.133 1105.3 151.042 1090.4 166.053L1063.3 193.372L1059.7 202.779C1057.7 207.982 1056.2 212.385 1056.4 212.586C1056.6 212.786 1060.9 211.285 1066.1 209.283L1075.5 205.581L1102.8 178.462C1118.9 162.45 1130.7 149.942 1131.6 147.94C1133.7 143.037 1133.3 140.235 1130.4 137.933C1127.4 135.532 1124.8 135.431 1120.5 137.333ZM1129 141.736C1129.5 142.737 1129.5 144.038 1129 144.938C1128.2 146.039 1127.6 145.839 1125.3 143.537C1123 141.336 1122.8 140.635 1123.9 139.935C1125.7 138.834 1127.8 139.534 1129 141.736ZM1123.8 152.543L1121.6 154.845L1117.8 151.142L1114 147.44L1116.2 145.138L1118.4 142.837L1122.2 146.539L1126 150.242L1123.8 152.543ZM1115 154.345L1118.4 157.947L1097.1 179.162C1084.8 191.371 1075.6 199.877 1075.3 199.076C1075 198.476 1074.2 197.875 1073.4 197.875C1072.6 197.875 1071.6 197.075 1071.3 196.174C1070.9 195.173 1070.2 194.073 1069.6 193.672C1068.9 193.172 1076.9 184.466 1089.5 171.857C1101 160.349 1110.7 150.842 1111 150.842C1111.4 150.842 1113.1 152.443 1115 154.345ZM1068 198.376C1068 200.377 1068.5 200.877 1070.6 200.877C1074.1 200.877 1073.2 202.979 1068.9 204.48C1065.4 205.681 1062.8 204.78 1063.5 202.579C1065.4 197.175 1066.1 195.874 1067 195.874C1067.5 195.874 1068 196.975 1068 198.376Z" fill="black"/>
<path d="M1110 153.843C1110 155.144 1110.5 155.845 1111.3 155.544C1111.9 155.344 1112.5 154.544 1112.5 153.843C1112.5 153.143 1111.9 152.342 1111.3 152.042C1110.5 151.842 1110 152.542 1110 153.843Z" fill="black"/>
<path d="M1106 157.347C1106 158.147 1106.7 158.848 1107.5 158.848C1108.3 158.848 1109 158.147 1109 157.347C1109 156.546 1108.3 155.846 1107.5 155.846C1106.7 155.846 1106 156.546 1106 157.347Z" fill="black"/>
<path d="M1102 161.351C1102 162.151 1102.7 162.852 1103.5 162.852C1104.3 162.852 1105 162.151 1105 161.351C1105 160.55 1104.3 159.849 1103.5 159.849C1102.7 159.849 1102 160.55 1102 161.351Z" fill="black"/>
<path d="M1098.3 165.053C1098.5 165.753 1099.3 166.354 1100 166.354C1100.7 166.354 1101.5 165.753 1101.8 165.053C1102 164.352 1101.3 163.852 1100 163.852C1098.7 163.852 1098 164.352 1098.3 165.053Z" fill="black"/>
<path d="M1095 168.855C1095 170.156 1095.5 170.856 1096.3 170.556C1096.9 170.356 1097.5 169.555 1097.5 168.855C1097.5 168.154 1096.9 167.354 1096.3 167.054C1095.5 166.853 1095 167.554 1095 168.855Z" fill="black"/>
<path d="M1091 172.358C1091 173.159 1091.7 173.859 1092.5 173.859C1093.3 173.859 1094 173.159 1094 172.358C1094 171.558 1093.3 170.857 1092.5 170.857C1091.7 170.857 1091 171.558 1091 172.358Z" fill="black"/>
<path d="M1087 176.36C1087 177.161 1087.7 177.861 1088.5 177.861C1089.3 177.861 1090 177.161 1090 176.36C1090 175.56 1089.3 174.859 1088.5 174.859C1087.7 174.859 1087 175.56 1087 176.36Z" fill="black"/>
<path d="M1083.3 180.062C1083.5 180.763 1084.3 181.363 1085 181.363C1085.7 181.363 1086.5 180.763 1086.8 180.062C1087 179.362 1086.3 178.862 1085 178.862C1083.7 178.862 1083 179.362 1083.3 180.062Z" fill="black"/>
<path d="M1080 183.865C1080 185.166 1080.5 185.866 1081.3 185.566C1081.9 185.366 1082.5 184.565 1082.5 183.865C1082.5 183.164 1081.9 182.364 1081.3 182.063C1080.5 181.863 1080 182.564 1080 183.865Z" fill="black"/>
<path d="M1076 187.368C1076 188.169 1076.7 188.869 1077.5 188.869C1078.3 188.869 1079 188.169 1079 187.368C1079 186.568 1078.3 185.867 1077.5 185.867C1076.7 185.867 1076 186.568 1076 187.368Z" fill="black"/>
<path d="M1072 191.37C1072 192.171 1072.7 192.871 1073.5 192.871C1074.3 192.871 1075 192.171 1075 191.37C1075 190.569 1074.3 189.869 1073.5 189.869C1072.7 189.869 1072 190.569 1072 191.37Z" fill="black"/>
<path d="M1072 146.339C1072 147.139 1072.7 147.84 1073.5 147.84C1074.3 147.84 1075 147.139 1075 146.339C1075 145.538 1074.3 144.838 1073.5 144.838C1072.7 144.838 1072 145.538 1072 146.339Z" fill="black"/>
<path d="M1068.3 150.041C1068.5 150.741 1069.3 151.342 1070 151.342C1070.7 151.342 1071.5 150.741 1071.8 150.041C1072 149.34 1071.3 148.84 1070 148.84C1068.7 148.84 1068 149.34 1068.3 150.041Z" fill="black"/>
<path d="M1076 150.343C1076 151.143 1076.7 151.844 1077.5 151.844C1078.3 151.844 1079 151.143 1079 150.343C1079 149.542 1078.3 148.842 1077.5 148.842C1076.7 148.842 1076 149.542 1076 150.343Z" fill="black"/>
<path d="M1080 153.843C1080 155.144 1080.5 155.845 1081.3 155.544C1081.9 155.344 1082.5 154.544 1082.5 153.843C1082.5 153.143 1081.9 152.342 1081.3 152.042C1080.5 151.842 1080 152.542 1080 153.843Z" fill="black"/>
<path d="M1076 157.347C1076 158.147 1076.7 158.848 1077.5 158.848C1078.3 158.848 1079 158.147 1079 157.347C1079 156.546 1078.3 155.846 1077.5 155.846C1076.7 155.846 1076 156.546 1076 157.347Z" fill="black"/>
<path d="M1083.7 156.446C1082.4 157.747 1083 158.848 1085.1 158.848C1086.2 158.848 1087 158.347 1086.8 157.647C1086.3 156.246 1084.6 155.545 1083.7 156.446Z" fill="black"/>
<path d="M1087 161.351C1087 162.151 1087.7 162.852 1088.5 162.852C1089.3 162.852 1090 162.151 1090 161.351C1090 160.55 1089.3 159.849 1088.5 159.849C1087.7 159.849 1087 160.55 1087 161.351Z" fill="black"/>
<path d="M1083.3 165.053C1083.5 165.753 1084.3 166.354 1085 166.354C1085.7 166.354 1086.5 165.753 1086.8 165.053C1087 164.352 1086.3 163.852 1085 163.852C1083.7 163.852 1083 164.352 1083.3 165.053Z" fill="black"/>
<path d="M1109.4 174.959C1109 175.559 1113.1 180.363 1118.9 186.267L1129 196.374L1123.3 202.178L1117.5 207.882L1107.3 197.675C1099.2 189.569 1096.8 187.668 1095.8 188.668C1094.8 189.669 1096.8 192.171 1105.5 200.877C1111.5 206.981 1116.9 211.885 1117.5 211.885C1118.8 211.885 1133 197.675 1133 196.374C1133 195.273 1111.9 173.858 1110.8 173.858C1110.4 173.858 1109.8 174.358 1109.4 174.959Z" fill="black"/>
<path d="M1106 180.362C1106 181.163 1106.7 181.863 1107.5 181.863C1108.3 181.863 1109 181.163 1109 180.362C1109 179.562 1108.3 178.861 1107.5 178.861C1106.7 178.861 1106 179.562 1106 180.362Z" fill="black"/>
<path d="M1110 183.865C1110 185.166 1110.5 185.866 1111.3 185.566C1111.9 185.366 1112.5 184.565 1112.5 183.865C1112.5 183.164 1111.9 182.364 1111.3 182.063C1110.5 181.863 1110 182.564 1110 183.865Z" fill="black"/>
<path d="M1102 184.366C1102 185.167 1102.7 185.867 1103.5 185.867C1104.3 185.867 1105 185.167 1105 184.366C1105 183.566 1104.3 182.865 1103.5 182.865C1102.7 182.865 1102 183.566 1102 184.366Z" fill="black"/>
<path d="M1113.3 188.068C1113.5 188.769 1114.3 189.369 1115 189.369C1115.7 189.369 1116.5 188.769 1116.8 188.068C1117 187.368 1116.3 186.867 1115 186.867C1113.7 186.867 1113 187.368 1113.3 188.068Z" fill="black"/>
<path d="M1110.2 191.271C1110.3 192.272 1111 192.973 1111.5 192.973C1113 192.873 1112.7 190.571 1111.2 190.071C1110.3 189.77 1109.9 190.271 1110.2 191.271Z" fill="black"/>
<path d="M1117 191.37C1117 192.171 1117.7 192.871 1118.5 192.871C1119.3 192.871 1120 192.171 1120 191.37C1120 190.569 1119.3 189.869 1118.5 189.869C1117.7 189.869 1117 190.569 1117 191.37Z" fill="black"/>
<path d="M1121 195.374C1121 196.175 1121.7 196.875 1122.5 196.875C1123.3 196.875 1124 196.175 1124 195.374C1124 194.573 1123.3 193.873 1122.5 193.873C1121.7 193.873 1121 194.573 1121 195.374Z" fill="black"/>
<path d="M1117 199.376C1117 200.176 1117.7 200.877 1118.5 200.877C1119.3 200.877 1120 200.176 1120 199.376C1120 198.575 1119.3 197.875 1118.5 197.875C1117.7 197.875 1117 198.575 1117 199.376Z" fill="black"/>
<path d="M1411.3 131.63C1410.7 132.03 1409.9 133.531 1409.5 135.032C1409 137.133 1409.3 138.034 1410.9 139.035C1412.8 140.136 1413 141.236 1413 149.342C1413 159.449 1414.7 155.446 1398.2 183.866C1395.2 189.07 1391.2 195.975 1389.4 199.177C1385.2 206.482 1384.9 210.885 1388.6 213.787C1391.2 215.789 1392.4 215.889 1426 215.889C1459.6 215.889 1460.8 215.789 1463.4 213.787C1467 210.885 1466.8 206.482 1462.6 199.177C1460.8 195.975 1454.7 185.467 1449.1 175.861L1439 158.348V149.342C1439 141.436 1439.2 140.136 1441 139.035C1443.4 137.534 1443.6 134.532 1441.4 132.43C1440.2 131.129 1437.3 130.829 1426.2 130.829C1418.7 130.829 1412 131.229 1411.3 131.63ZM1438.8 135.532C1439 136.333 1438.3 136.833 1437.1 136.833C1434.6 136.833 1433.4 138.634 1434.9 140.136C1435.5 140.736 1436 145.139 1436 150.743C1436 159.549 1436.3 160.75 1439 165.353C1440.6 168.055 1442 171.157 1442 172.058C1442 173.059 1442.4 173.859 1442.9 173.859C1444 173.859 1463 206.282 1463 208.183C1463 211.686 1461.2 211.886 1426 211.886C1390.8 211.886 1389 211.686 1389 208.183C1389 206.282 1408 173.859 1409.1 173.859C1409.6 173.859 1410 173.059 1410 172.058C1410 171.157 1411.4 168.055 1413 165.353C1415.7 160.75 1416 159.549 1416 150.743C1416 145.139 1416.5 140.736 1417.1 140.136C1418.6 138.634 1417.4 136.833 1414.9 136.833C1413 136.833 1412.4 135.732 1413.7 134.432C1415 133.131 1438.3 134.231 1438.8 135.532Z" fill="black"/>
<path d="M1419.4 137.935C1418.4 139.636 1420.7 141.537 1422.1 140.136C1423.3 138.936 1422.5 136.834 1421 136.834C1420.5 136.834 1419.8 137.335 1419.4 137.935Z" fill="black"/>
<path d="M1424.4 137.935C1423.4 139.636 1425.7 141.537 1427.1 140.136C1428.3 138.936 1427.5 136.834 1426 136.834C1425.5 136.834 1424.8 137.335 1424.4 137.935Z" fill="black"/>
<path d="M1429.4 137.935C1428.4 139.636 1430.7 141.537 1432.1 140.136C1433.3 138.936 1432.5 136.834 1431 136.834C1430.5 136.834 1429.8 137.335 1429.4 137.935Z" fill="black"/>
<path d="M1423.7 152.645C1421.5 155.147 1421.6 158.149 1423.9 160.25C1426.5 162.652 1430.1 161.951 1431.9 158.749C1433.2 156.347 1433.2 155.847 1431.7 153.445C1429.6 150.343 1426.1 150.043 1423.7 152.645ZM1429 156.347C1429 157.148 1428.4 157.848 1427.6 157.848C1425.9 157.848 1424.8 156.448 1425.7 155.447C1426.9 154.246 1429 154.846 1429 156.347Z" fill="black"/>
<path d="M1412 172.358C1412 173.159 1412.7 173.859 1413.5 173.859C1414.3 173.859 1415 173.159 1415 172.358C1415 171.558 1414.3 170.857 1413.5 170.857C1412.7 170.857 1412 171.558 1412 172.358Z" fill="black"/>
<path d="M1417 172.358C1417 173.159 1417.7 173.859 1418.5 173.859C1419.3 173.859 1420 173.159 1420 172.358C1420 171.558 1419.3 170.857 1418.5 170.857C1417.7 170.857 1417 171.558 1417 172.358Z" fill="black"/>
<path d="M1422 172.358C1422 173.159 1422.7 173.859 1423.5 173.859C1424.3 173.859 1425 173.159 1425 172.358C1425 171.558 1424.3 170.857 1423.5 170.857C1422.7 170.857 1422 171.558 1422 172.358Z" fill="black"/>
<path d="M1427 172.358C1427 173.159 1427.7 173.859 1428.5 173.859C1429.3 173.859 1430 173.159 1430 172.358C1430 171.558 1429.3 170.857 1428.5 170.857C1427.7 170.857 1427 171.558 1427 172.358Z" fill="black"/>
<path d="M1432 172.358C1432 173.159 1432.7 173.859 1433.5 173.859C1434.3 173.859 1435 173.159 1435 172.358C1435 171.558 1434.3 170.857 1433.5 170.857C1432.7 170.857 1432 171.558 1432 172.358Z" fill="black"/>
<path d="M1437 172.358C1437 173.159 1437.7 173.859 1438.5 173.859C1439.3 173.859 1440 173.159 1440 172.358C1440 171.558 1439.3 170.857 1438.5 170.857C1437.7 170.857 1437 171.558 1437 172.358Z" fill="black"/>
<path d="M1416 178.863C1413.6 181.264 1413.5 182.665 1415.6 185.668C1417.3 188.069 1421.8 188.67 1423.8 186.668C1425.8 184.667 1425.2 180.164 1422.8 178.462C1419.8 176.361 1418.4 176.461 1416 178.863ZM1421.3 181.565C1422.2 182.465 1420 184.967 1418.9 184.267C1417.5 183.466 1417.8 180.864 1419.3 180.864C1420.1 180.864 1421 181.164 1421.3 181.565Z" fill="black"/>
<path d="M1432.2 191.072C1429.3 193.974 1432.1 200.879 1436.2 200.879C1438.4 200.879 1441 197.577 1441 194.775C1441 191.572 1439.3 189.871 1436 189.871C1434.6 189.871 1432.9 190.372 1432.2 191.072ZM1437.6 193.974C1438.6 195.675 1436.3 197.577 1434.9 196.176C1433.7 194.975 1434.5 192.873 1436 192.873C1436.5 192.873 1437.2 193.374 1437.6 193.974Z" fill="black"/>
<g clip-path="url(#clip0_178_128)">
<path d="M405.383 128.633C401.633 129.552 398.566 132.757 397.746 136.627C397.316 138.679 397.316 209.823 397.746 211.875C398.566 215.784 401.652 218.97 405.48 219.888C406.535 220.123 408.996 220.182 421.301 220.182C435.5 220.182 435.891 220.162 436.359 219.791C437.434 218.95 437.551 217.348 436.594 216.449L436.086 215.979L421.32 215.882C406.691 215.784 406.535 215.784 405.617 215.354C404.25 214.729 403.059 213.517 402.414 212.11L401.848 210.898V174.251V137.604L402.414 136.392C403.059 134.985 404.25 133.773 405.617 133.148C406.535 132.718 406.535 132.718 425.383 132.659C435.754 132.62 444.523 132.659 444.875 132.718L445.5 132.835V139.637C445.5 147.611 445.52 147.689 447.238 149.448C449.113 151.344 449.328 151.383 457.297 151.383H463.996L464.133 152.4C464.191 152.967 464.25 159.71 464.25 167.371C464.25 176.557 464.328 181.444 464.445 181.698C464.562 181.893 464.914 182.206 465.227 182.362C466.457 183.007 467.824 182.538 468.332 181.346C468.508 180.935 468.547 176.87 468.508 165.749C468.449 150.797 468.449 150.699 468.02 149.429C467.785 148.725 467.297 147.709 466.945 147.142C466.086 145.813 451.359 130.939 449.992 130.021C449.406 129.63 448.391 129.102 447.746 128.868L446.574 128.418L426.555 128.379C409.758 128.359 406.359 128.399 405.383 128.633ZM455.461 141.474L461.027 147.103L455.988 147.044L450.93 146.986L450.363 146.341L449.797 145.715V140.692C449.797 137.936 449.816 135.728 449.855 135.767C449.875 135.826 452.395 138.386 455.461 141.474Z" fill="black"/>
<path d="M410.734 147.65C410.09 148.295 409.855 148.998 410.031 149.741C410.109 150.034 410.422 150.503 410.734 150.816L411.281 151.383H423.586C435.519 151.383 435.89 151.363 436.359 150.992C437.492 150.112 437.551 148.471 436.496 147.591L435.89 147.083H423.586H411.281L410.734 147.65Z" fill="black"/>
<path d="M416.984 160.159C416.34 160.804 416.105 161.508 416.281 162.251C416.359 162.544 416.672 163.013 416.984 163.326L417.531 163.893H436.086C454.23 163.893 454.64 163.893 455.109 163.502C456.242 162.622 456.301 160.98 455.246 160.101L454.64 159.593H436.086H417.531L416.984 160.159Z" fill="black"/>
<path d="M411.008 170.323C409.816 171.047 409.66 172.649 410.676 173.705L411.203 174.252H433H454.797L455.344 173.705C456.008 172.982 456.183 171.965 455.773 171.164C455.109 169.874 456.476 169.952 432.961 169.952C412.414 169.952 411.594 169.972 411.008 170.323Z" fill="black"/>
<path d="M445.891 178.375C436.613 179.039 429.25 186.642 428.762 196.063C428.215 206.285 435.344 214.709 445.558 215.901C448.254 216.214 450.871 215.921 453.683 214.982L455.734 214.298L460.129 218.696C462.941 221.471 464.855 223.23 465.422 223.524C466.633 224.13 468.918 224.266 470.285 223.797C471.848 223.289 473.098 222.175 473.859 220.631C474.406 219.497 474.504 219.126 474.504 217.836C474.484 215.295 474.133 214.748 469.035 209.627L464.641 205.23L465.148 203.959C466.086 201.672 466.457 199.307 466.34 196.434C466.223 193.483 465.773 191.587 464.641 189.164C463.371 186.466 461.613 184.18 459.504 182.479C455.558 179.352 451.105 178.003 445.891 178.375ZM449.66 182.87C454.289 183.593 458.41 186.584 460.441 190.727C461.652 193.209 461.984 194.597 461.984 197.216C461.984 198.819 461.867 199.757 461.555 200.891C460.207 205.66 456.652 209.432 452.043 210.937C449.816 211.66 446.398 211.797 444.191 211.23C441.223 210.468 438.273 208.63 436.457 206.383C435.207 204.839 433.898 202.181 433.488 200.343C433 198.174 433.156 194.812 433.84 192.721C436.047 186.036 442.824 181.815 449.66 182.87ZM470.109 217.699C470.109 219.028 468.996 219.986 467.824 219.712C467.473 219.615 465.891 218.188 463.43 215.725L459.582 211.894L460.891 210.507L462.199 209.119L466.164 213.048C469.894 216.761 470.109 217.015 470.109 217.699Z" fill="black"/>
<path d="M438.137 195.361C437.316 195.849 437.102 196.299 437.102 197.55C437.102 202.807 442.004 207.674 447.277 207.674C448.527 207.674 449.191 207.283 449.602 206.325C450.227 204.781 449.23 203.511 447.258 203.315C445.656 203.139 444.426 202.573 443.312 201.478C442.238 200.423 441.652 199.172 441.477 197.589C441.398 196.944 441.262 196.279 441.164 196.084C440.91 195.595 439.836 194.97 439.25 194.97C438.977 194.97 438.488 195.146 438.137 195.361Z" fill="black"/>
<path d="M410.656 181.052C409.992 181.775 409.816 182.792 410.227 183.593C410.852 184.805 410.988 184.824 418.645 184.766L425.559 184.707L426.145 184.14C426.652 183.651 426.75 183.417 426.75 182.596C426.75 181.814 426.652 181.56 426.184 181.072L425.617 180.505H418.41H411.203L410.656 181.052Z" fill="black"/>
<path d="M410.734 191.431C410.09 192.076 409.855 192.78 410.031 193.522C410.109 193.815 410.422 194.285 410.734 194.597L411.281 195.164H416.301H421.32L421.984 194.5C422.531 193.952 422.648 193.679 422.648 193.014C422.648 192.35 422.531 192.076 421.984 191.529L421.32 190.864H416.301H411.281L410.734 191.431Z" fill="black"/>
<path d="M411.008 201.595C409.816 202.318 409.66 203.921 410.676 204.976L411.203 205.523H417.375H423.547L424.094 204.976C424.758 204.253 424.933 203.237 424.523 202.435C423.918 201.263 423.664 201.224 417.336 201.224C412.082 201.224 411.555 201.263 411.008 201.595Z" fill="black"/>
</g>
<defs>
<clipPath id="clip0_178_128">
<rect width="100" height="100.07" fill="white" transform="translate(383 124.215)"/>
</clipPath>
</defs>
</svg>
