<svg width="92" height="92" viewBox="0 0 92 92" fill="none" xmlns="http://www.w3.org/2000/svg">
<g filter="url(#filter0_d_1_169)">
<rect x="11" y="7" width="70" height="70" rx="15" fill="#FEAD56"/>
</g>
<g clip-path="url(#clip0_1_169)">
<path d="M37.8457 25.4785C37.5791 25.5059 37.292 25.5537 37.2099 25.5811C37.0117 25.6426 36.8613 25.957 36.8613 26.3262C36.8613 26.5996 36.6904 27.1875 36.6084 27.1875C36.499 27.1875 36.1709 26.9551 35.9521 26.7158C35.6308 26.3672 35.4121 26.3057 35.0908 26.4766C34.7148 26.6748 33.915 27.3379 33.6142 27.707C32.8964 28.5684 32.8691 28.7461 33.375 29.2793C33.5664 29.4775 33.7168 29.6963 33.7168 29.7715C33.7168 29.9424 33.457 30.0518 32.9375 30.1064C32.4795 30.1475 32.3086 30.25 32.247 30.5303C32.2129 30.7012 32.165 30.7217 31.7275 30.7969C31.4677 30.8447 31.0986 30.9541 30.9209 31.0498C30.2373 31.3916 29.6972 32.1299 29.5468 32.9229C29.4443 33.4561 29.4511 49.8896 29.5537 50.375C29.7246 51.1953 30.2646 51.8721 31.0439 52.2549L31.4267 52.4463L36.8476 52.4668L42.2617 52.4805V53.6357V54.791L41.2226 54.8184C40.3066 54.8389 40.1425 54.8594 39.8896 54.9893C39.288 55.3174 39.165 55.707 39.1992 57.2998C39.2197 58.6396 39.288 58.8584 39.7939 59.2139L40.0879 59.4189H46.5H52.9121L53.206 59.2139C53.7119 58.8584 53.7802 58.6396 53.8007 57.2998C53.8349 55.707 53.7119 55.3174 53.1103 54.9893C52.8574 54.8594 52.6933 54.8389 51.7841 54.8184L50.7382 54.791V53.6357V52.4805L56.1591 52.4668L61.5732 52.4463L61.9492 52.2686C62.7353 51.8926 63.289 51.1816 63.4531 50.3271C63.5078 50.0332 63.5215 47.5586 63.5078 41.3721L63.4873 32.8272L63.3437 32.4717C63.0429 31.7402 62.5234 31.2139 61.8261 30.9336L61.4365 30.7764L53.124 30.7559L44.8047 30.7422L44.7636 30.5713C44.7021 30.3389 44.4902 30.2432 43.916 30.1885C43.6425 30.168 43.3828 30.1133 43.3418 30.0723C43.2461 29.9766 43.4101 29.7031 43.8066 29.334C44.039 29.1152 44.1074 29.0059 44.1074 28.835C44.1074 28.4248 43.2461 27.3379 42.4463 26.7363C41.9062 26.333 41.7216 26.3467 41.2021 26.8457C40.997 27.0303 40.792 27.1875 40.7373 27.1875C40.58 27.1875 40.4843 26.8731 40.4843 26.3672C40.4843 25.7861 40.3886 25.6563 39.8554 25.5537C39.3222 25.4512 38.3994 25.417 37.8457 25.4785ZM39.3017 26.627C39.3496 26.6543 39.4179 26.8389 39.4589 27.0371C39.5547 27.5361 39.7597 27.9121 40.0605 28.1035C40.5595 28.4316 41.0517 28.4043 41.6738 28.0078L42.0088 27.7959L42.3095 28.0898C42.4804 28.2539 42.6787 28.4727 42.7539 28.5752L42.8906 28.7666L42.7539 28.917C42.3642 29.3477 42.2138 30.0654 42.4257 30.5576C42.5898 30.9609 43.1982 31.3574 43.6357 31.3574C43.9023 31.3574 43.957 31.5283 43.916 32.2188L43.8886 32.7725L43.5058 32.8135C42.7334 32.8955 42.1933 33.4561 42.1933 34.1875C42.1933 34.5566 42.3847 35.0488 42.6103 35.2949L42.747 35.4385L42.2617 35.8965L41.7832 36.3477L41.4414 36.1152C41.0312 35.835 40.498 35.7051 40.1152 35.7939C39.6367 35.9102 39.1992 36.4639 39.083 37.1133C39.0488 37.2842 38.9941 37.373 38.8916 37.4004C38.6933 37.4551 38.1601 37.4551 37.9004 37.4004C37.7158 37.3662 37.6884 37.3252 37.6474 37.0381C37.5449 36.3545 37.1621 35.7803 36.7109 35.6641C36.3349 35.5615 35.9863 35.6299 35.5214 35.9102L35.125 36.1494L34.8242 35.8555C34.6601 35.6914 34.4619 35.4727 34.3867 35.3701L34.25 35.1787L34.3867 35.0283C34.8105 34.5635 34.9472 33.7363 34.6738 33.2852C34.4961 32.9912 33.9765 32.6699 33.5869 32.6152C33.416 32.5879 33.2519 32.5332 33.2246 32.4922C33.163 32.4033 33.1562 31.5215 33.2109 31.3164C33.2451 31.2002 33.3203 31.166 33.6211 31.1318C34.8105 31.0088 35.2822 29.9287 34.5986 28.9102C34.3593 28.5615 34.3867 28.4863 34.8584 28.0967C35.33 27.707 35.33 27.707 35.583 27.8984C36.0547 28.2607 36.6562 28.3838 37.1142 28.2061C37.5517 28.042 38.0234 27.3174 38.0234 26.8115C38.0234 26.7227 38.0644 26.6338 38.1123 26.6201C38.249 26.5586 39.2129 26.5723 39.3017 26.627ZM32.1035 32.4648C32.1787 33.3398 32.247 33.5381 32.5205 33.6543C32.6504 33.709 32.8623 33.75 32.999 33.75C33.3134 33.75 33.7168 33.9209 33.7168 34.0508C33.7168 34.1055 33.5527 34.3311 33.3476 34.5566C32.8213 35.1172 32.8144 35.1924 33.2314 35.8145C33.6142 36.3818 34.5234 37.2842 34.8925 37.4619C35.207 37.6123 35.3984 37.5508 35.8222 37.1543C36.0273 36.9629 36.2324 36.8262 36.2939 36.8398C36.499 36.8809 36.5947 37.168 36.5537 37.6191C36.499 38.207 36.622 38.3506 37.2646 38.4531C37.9345 38.5693 38.9531 38.5557 39.3701 38.4326C39.9443 38.2617 40.0195 38.166 40.0742 37.5098C40.1494 36.6826 40.375 36.5732 40.874 37.127C41.1611 37.4482 41.3457 37.5713 41.5439 37.5781C41.913 37.585 43.3554 36.3477 43.7382 35.6982C43.9707 35.3018 43.9228 35.124 43.4853 34.6592C42.9316 34.0781 43.0478 33.873 43.9638 33.8184L44.5517 33.7842L44.6679 33.5449C44.7363 33.415 44.8047 33.1211 44.8252 32.8955C44.8457 32.6699 44.8798 32.3555 44.9004 32.1914L44.9345 31.9043L53.165 31.918L61.3886 31.9385L61.6894 32.1436C61.8808 32.2803 62.0449 32.4785 62.1748 32.7178L62.3593 33.0938V40.6338V48.1738H46.5H30.6406V40.6338V33.1006L30.8047 32.752C31.0234 32.2871 31.5019 31.918 31.9121 31.9111C32.0488 31.9043 32.0625 31.9522 32.1035 32.4648ZM62.3593 49.7119C62.3593 50.4229 62.0927 50.8877 61.5048 51.2021L61.2314 51.3525H46.5H31.7685L31.4951 51.2021C30.9072 50.8877 30.6406 50.4229 30.6406 49.7119V49.2676H46.5H62.3593V49.7119ZM49.5761 53.6426V54.8047H46.5H43.4238V53.6426V52.4805H46.5H49.5761V53.6426ZM52.6181 57.1289V58.2568H46.5H40.3818L40.3613 57.2041C40.3476 56.4863 40.3681 56.124 40.4228 56.0625C40.4912 55.9805 41.455 55.9668 46.5615 55.9805L52.6181 56.001V57.1289Z" fill="white"/>
<path d="M37.5517 28.5957C36.3965 28.9033 35.4326 29.8193 35.0771 30.9473C34.7832 31.8838 34.9267 33.1143 35.4326 33.9209C36.1162 35.0215 37.1894 35.6094 38.5019 35.6094C40.1631 35.6094 41.4619 34.625 41.9472 33.0049C42.084 32.5332 42.0908 31.6445 41.9541 31.1182C41.6396 29.915 40.6279 28.9033 39.4248 28.5889C38.9258 28.459 38.0439 28.4658 37.5517 28.5957ZM39.3222 29.751C40.0674 30.0107 40.6689 30.6875 40.8672 31.5146C41.1474 32.6289 40.5664 33.7705 39.4726 34.2832C39.1377 34.4404 38.9941 34.4678 38.4678 34.4678C37.9277 34.4678 37.8047 34.4404 37.4697 34.2695C36.9844 34.0303 36.5195 33.5586 36.2666 33.0664C36.1025 32.7383 36.082 32.6084 36.0752 32.0752C36.0752 31.5488 36.1025 31.4053 36.2529 31.0771C36.8203 29.8809 38.0986 29.3271 39.3222 29.751Z" fill="white"/>
<path d="M47.751 33.5449C47.1221 33.6748 46.6846 34.0166 46.418 34.6045L46.2607 34.9463V40.21C46.2607 45.0156 46.2676 45.4941 46.377 45.7266C46.5684 46.1504 46.8213 46.4307 47.1973 46.6426L47.5596 46.8408L53.6025 46.8613C60.377 46.8818 60.0215 46.9023 60.6162 46.3828C60.7871 46.2324 60.999 45.9795 61.0811 45.8223L61.2314 45.542L61.252 40.3262C61.2656 36.8809 61.2451 35.0215 61.1973 34.8438C61.0674 34.3652 60.7256 33.9414 60.2812 33.7158L59.8711 33.5107L53.958 33.4971C50.7041 33.4971 47.9082 33.5176 47.751 33.5449ZM59.6865 34.7275C59.7754 34.7686 59.9189 34.8984 59.9941 35.001C60.1172 35.1719 60.1377 35.3086 60.1582 36.1152L60.1855 37.0313H53.7871H47.3887V36.1426C47.3887 35.4795 47.416 35.1924 47.4912 35.0488C47.71 34.625 47.416 34.6455 53.7461 34.6455C58.1963 34.6387 59.5635 34.6592 59.6865 34.7275ZM60.1582 41.6729C60.1377 45.0703 60.1377 45.1592 59.9941 45.3506C59.9189 45.4531 59.748 45.5967 59.6182 45.6582C59.3994 45.7744 58.9824 45.7813 53.7598 45.7813C47.7373 45.7813 47.8672 45.7881 47.5596 45.4395C47.4297 45.2959 47.4229 45.1797 47.4023 41.7412L47.3818 38.1934H53.7803H60.1787L60.1582 41.6729Z" fill="white"/>
<path d="M48.209 35.459C48.1201 35.5479 48.0723 35.6846 48.0723 35.8691C48.0723 36.0537 48.1201 36.1904 48.209 36.2793C48.3389 36.4092 48.4346 36.416 51.4766 36.416H54.6143L54.7578 36.2588C54.9629 36.04 54.9561 35.6641 54.751 35.4727C54.5938 35.3223 54.5801 35.3223 51.4697 35.3223C48.4346 35.3223 48.3389 35.3291 48.209 35.459Z" fill="white"/>
<path d="M55.5918 35.459C55.5029 35.5479 55.4551 35.6846 55.4551 35.8691C55.4551 36.3066 55.6191 36.416 56.2686 36.416C56.9521 36.416 57.1299 36.2998 57.1299 35.8691C57.1299 35.4385 56.9521 35.3223 56.2686 35.3223C55.8174 35.3223 55.708 35.3428 55.5918 35.459Z" fill="white"/>
<path d="M57.8545 35.5C57.6631 35.7461 57.6699 36.0811 57.8681 36.2656C58.0049 36.3955 58.1074 36.416 58.5791 36.416C59.0986 36.416 59.1465 36.4023 59.2763 36.2383C59.3584 36.1357 59.4199 35.9717 59.4199 35.8691C59.4199 35.7666 59.3584 35.6025 59.2763 35.5C59.1465 35.3359 59.0986 35.3223 58.5654 35.3223C58.0322 35.3223 57.9844 35.3359 57.8545 35.5Z" fill="white"/>
<path d="M53.9374 39.3555C53.7939 39.4443 53.7324 39.6426 53.0966 42.0078C52.7753 43.2246 52.5976 44.0039 52.6249 44.0928C52.707 44.3594 52.8642 44.4824 53.1376 44.4824C53.6435 44.4824 53.6777 44.4141 54.2929 42.001C54.8466 39.8135 54.874 39.6562 54.6484 39.4033C54.5322 39.2734 54.1289 39.2461 53.9374 39.3555Z" fill="white"/>
<path d="M50.7451 40.5996C49.6787 41.6455 49.7197 41.5977 49.7129 41.8848C49.7129 42.0967 49.8018 42.2061 50.6221 43.0264C51.4971 43.9014 51.5381 43.9355 51.8115 43.9355C52.0371 43.9355 52.126 43.9014 52.2354 43.7578C52.5156 43.4023 52.4336 43.2246 51.6475 42.4248L51.0732 41.8369L51.6611 41.3037C52.2969 40.7227 52.4814 40.4629 52.4062 40.2236C52.3242 39.9502 52.0986 39.7656 51.8457 39.7656C51.6338 39.7656 51.5107 39.8545 50.7451 40.5996Z" fill="white"/>
<path d="M55.3115 39.834C55.1542 39.9229 55.0243 40.2783 55.0722 40.4697C55.0927 40.5518 55.3935 40.9072 55.749 41.249L56.3847 41.8711L55.749 42.5205C55.0517 43.2246 54.9765 43.4023 55.2568 43.7578C55.3661 43.9014 55.455 43.9355 55.6806 43.9355C55.954 43.9355 55.9951 43.9014 56.8701 43.0195C58.0732 41.8096 58.08 41.9463 56.829 40.709C55.9814 39.8613 55.8583 39.7656 55.6533 39.7656C55.5234 39.7656 55.373 39.7998 55.3115 39.834Z" fill="white"/>
<path d="M33.833 42.2949C33.0947 42.4248 32.4726 42.8965 32.1513 43.5869C31.9121 44.1064 31.8916 45.0293 32.124 45.5215C32.3291 45.9727 32.7802 46.4307 33.2314 46.6494L33.6142 46.8408H38.5019H43.3896L43.7041 46.6836C44.2168 46.4307 44.5586 46.0889 44.8047 45.5967C44.9961 45.207 45.0302 45.0703 45.0302 44.626C45.0302 43.8604 44.8662 43.4502 44.3535 42.9443C43.622 42.2197 43.9638 42.2676 38.707 42.2539C36.205 42.2471 34.0175 42.2676 33.833 42.2949ZM43.2187 43.5254C43.8545 43.8467 44.0869 44.5918 43.7246 45.1455C43.622 45.2959 43.4101 45.501 43.2597 45.5898L42.9795 45.7471H38.4541H33.9355L33.6416 45.542C33.1425 45.1865 32.9511 44.5645 33.1904 44.0928C33.3203 43.8467 33.6347 43.5527 33.8535 43.4639C33.9629 43.4229 35.6992 43.3955 38.4882 43.3955C42.8154 43.3887 42.959 43.3955 43.2187 43.5254Z" fill="white"/>
<path d="M34.6532 44.0859C34.3935 44.291 34.3593 44.7148 34.5917 44.9746C34.6874 45.0908 34.9062 45.0977 37.3329 45.0977C38.7821 45.0977 40.0058 45.0703 40.0468 45.043C40.3134 44.8652 40.3476 44.4072 40.1083 44.1748L39.9442 44.0039H37.3534C35.3915 44.0039 34.7421 44.0244 34.6532 44.0859Z" fill="white"/>
<path d="M45.2763 49.9922C45.0849 50.2383 45.0917 50.5322 45.3036 50.7373C45.4608 50.9014 45.495 50.9082 46.4999 50.9082C47.5048 50.9082 47.539 50.9014 47.6962 50.7373C47.9081 50.5322 47.9149 50.2383 47.7235 49.9922L47.5868 49.8145H46.4999H45.413L45.2763 49.9922Z" fill="white"/>
</g>
<defs>
<filter id="filter0_d_1_169" x="0" y="0" width="92" height="92" filterUnits="userSpaceOnUse" color-interpolation-filters="sRGB">
<feFlood flood-opacity="0" result="BackgroundImageFix"/>
<feColorMatrix in="SourceAlpha" type="matrix" values="0 0 0 0 0 0 0 0 0 0 0 0 0 0 0 0 0 0 127 0" result="hardAlpha"/>
<feOffset dy="4"/>
<feGaussianBlur stdDeviation="5.5"/>
<feColorMatrix type="matrix" values="0 0 0 0 0 0 0 0 0 0 0 0 0 0 0 0 0 0 0.06 0"/>
<feBlend mode="normal" in2="BackgroundImageFix" result="effect1_dropShadow_1_169"/>
<feBlend mode="normal" in="SourceGraphic" in2="effect1_dropShadow_1_169" result="shape"/>
</filter>
<clipPath id="clip0_1_169">
<rect width="35" height="35" fill="white" transform="translate(29 25)"/>
</clipPath>
</defs>
</svg>
