<svg width="19" height="117" viewBox="0 0 19 117" fill="none" xmlns="http://www.w3.org/2000/svg">
<line x1="9.5" y1="77" x2="9.5" y2="117" stroke="#02BDD5"/>
<path d="M15.375 2.40625L4 2.40625V1.44531L15.375 1.44531V2.40625ZM10.1406 7.70313H9.3125V2.08594H10.1406V7.70313ZM15.375 8.49219H14.5469V2.08594L15.375 2.08594V8.49219ZM8.09375 9.53906H8.35156C8.96615 9.53906 9.53385 9.6276 10.0547 9.80469C10.5755 9.98177 11.026 10.2344 11.4062 10.5625C11.7865 10.8958 12.0807 11.2943 12.2891 11.7578C12.5026 12.2214 12.6094 12.737 12.6094 13.3047C12.6094 13.8776 12.5026 14.3958 12.2891 14.8594C12.0807 15.3229 11.7865 15.7214 11.4062 16.0547C11.026 16.388 10.5755 16.6432 10.0547 16.8203C9.53385 16.9974 8.96615 17.0859 8.35156 17.0859H8.09375C7.47917 17.0859 6.91146 16.9974 6.39063 16.8203C5.875 16.6432 5.42708 16.388 5.04688 16.0547C4.66667 15.7266 4.36979 15.3307 4.15625 14.8672C3.94792 14.4036 3.84375 13.888 3.84375 13.3203C3.84375 12.7474 3.94792 12.2292 4.15625 11.7656C4.36979 11.3021 4.66667 10.9036 5.04688 10.5703C5.42708 10.237 5.875 9.98177 6.39062 9.80469C6.91146 9.6276 7.47917 9.53906 8.09375 9.53906ZM8.35156 10.4688H8.09375C7.63021 10.4688 7.1901 10.5312 6.77344 10.6562C6.36198 10.7812 5.99479 10.9635 5.67188 11.2031C5.35417 11.4427 5.10417 11.7396 4.92188 12.0938C4.73958 12.4479 4.64844 12.8568 4.64844 13.3203C4.64844 13.7786 4.73958 14.1823 4.92188 14.5312C5.10417 14.8854 5.35417 15.1823 5.67188 15.4219C5.99479 15.6615 6.36198 15.8411 6.77344 15.9609C7.1901 16.0859 7.63021 16.1484 8.09375 16.1484H8.35156C8.8099 16.1484 9.24479 16.0859 9.65625 15.9609C10.0677 15.8411 10.4349 15.6589 10.7578 15.4141C11.0807 15.1745 11.3359 14.8776 11.5234 14.5234C11.7109 14.1693 11.8047 13.763 11.8047 13.3047C11.8047 12.8464 11.7109 12.4401 11.5234 12.0859C11.3359 11.737 11.0807 11.4401 10.7578 11.1953C10.4349 10.9557 10.0677 10.7734 9.65625 10.6484C9.24479 10.5286 8.8099 10.4688 8.35156 10.4688ZM16 20.0625H4V19.1328H16V20.0625ZM16 23.6562H4V22.7266H16V23.6562ZM8.09375 25.6953H8.35156C8.96615 25.6953 9.53385 25.7839 10.0547 25.9609C10.5755 26.138 11.026 26.3906 11.4063 26.7188C11.7865 27.0521 12.0807 27.4505 12.2891 27.9141C12.5026 28.3776 12.6094 28.8932 12.6094 29.4609C12.6094 30.0339 12.5026 30.5521 12.2891 31.0156C12.0807 31.4792 11.7865 31.8776 11.4063 32.2109C11.026 32.5443 10.5755 32.7995 10.0547 32.9766C9.53385 33.1536 8.96615 33.2422 8.35156 33.2422H8.09375C7.47917 33.2422 6.91146 33.1536 6.39063 32.9766C5.875 32.7995 5.42708 32.5443 5.04688 32.2109C4.66667 31.8828 4.36979 31.487 4.15625 31.0234C3.94792 30.5599 3.84375 30.0443 3.84375 29.4766C3.84375 28.9036 3.94792 28.3854 4.15625 27.9219C4.36979 27.4583 4.66667 27.0599 5.04688 26.7266C5.42708 26.3932 5.875 26.138 6.39063 25.9609C6.91146 25.7839 7.47917 25.6953 8.09375 25.6953ZM8.35156 26.625H8.09375C7.63021 26.625 7.1901 26.6875 6.77344 26.8125C6.36198 26.9375 5.99479 27.1198 5.67188 27.3594C5.35417 27.599 5.10417 27.8958 4.92188 28.25C4.73958 28.6042 4.64844 29.013 4.64844 29.4766C4.64844 29.9349 4.73958 30.3385 4.92188 30.6875C5.10417 31.0417 5.35417 31.3385 5.67188 31.5781C5.99479 31.8177 6.36198 31.9974 6.77344 32.1172C7.1901 32.2422 7.63021 32.3047 8.09375 32.3047H8.35156C8.8099 32.3047 9.24479 32.2422 9.65625 32.1172C10.0677 31.9974 10.4349 31.8151 10.7578 31.5703C11.0807 31.3307 11.3359 31.0339 11.5234 30.6797C11.7109 30.3255 11.8047 29.9193 11.8047 29.4609C11.8047 29.0026 11.7109 28.5964 11.5234 28.2422C11.3359 27.8932 11.0807 27.5964 10.7578 27.3516C10.4349 27.112 10.0677 26.9297 9.65625 26.8047C9.24479 26.6849 8.8099 26.625 8.35156 26.625ZM5.97656 37.5234L12.4531 39.5625V40.2188L10.7109 39.8281L4 37.6953V37.0391L5.97656 37.5234ZM12.4531 35.4062L5.9375 37.1953L4 37.5781V36.8984L12.4531 34.4453V35.4062ZM5.96094 42.7578L12.4531 44.5V45.4609L4 43.0078V42.3359L5.96094 42.7578ZM12.4531 40.3516L6.03125 42.3594L4 42.8672V42.2109L10.7188 40.0312L12.4531 39.6641V40.3516ZM15.375 58.25V59.2109H7.67188C6.81771 59.2109 6.10677 59.0312 5.53906 58.6719C4.97135 58.3125 4.54688 57.8281 4.26563 57.2188C3.98438 56.6146 3.84375 55.9453 3.84375 55.2109C3.84375 54.4557 3.98438 53.776 4.26563 53.1719C4.54688 52.5677 4.97135 52.0885 5.53906 51.7344C6.10677 51.3854 6.81771 51.2109 7.67188 51.2109H15.375V52.1641H7.67188C7.01042 52.1641 6.45573 52.2943 6.00781 52.5547C5.5599 52.8151 5.22396 53.1745 5 53.6328C4.77604 54.0911 4.66406 54.6172 4.66406 55.2109C4.66406 55.7995 4.77604 56.3229 5 56.7812C5.22396 57.2396 5.5599 57.599 6.00781 57.8594C6.45573 58.1198 7.01042 58.25 7.67188 58.25H15.375ZM6.15625 66.7578C6.38542 66.7578 6.61198 66.7005 6.83594 66.5859C7.0599 66.4714 7.26563 66.25 7.45313 65.9219C7.64063 65.599 7.79948 65.1224 7.92969 64.4922C8.03385 64.0234 8.15104 63.6042 8.28125 63.2344C8.41146 62.8698 8.56771 62.5625 8.75 62.3125C8.93229 62.0625 9.15104 61.8724 9.40625 61.7422C9.66146 61.612 9.96354 61.5469 10.3125 61.5469C10.625 61.5469 10.9193 61.6146 11.1953 61.75C11.4766 61.8906 11.7214 62.0885 11.9297 62.3438C12.1432 62.6042 12.3099 62.9167 12.4297 63.2812C12.5495 63.651 12.6094 64.0651 12.6094 64.5234C12.6094 65.1745 12.4974 65.7318 12.2734 66.1953C12.0547 66.6641 11.7552 67.0208 11.375 67.2656C10.9948 67.5156 10.5651 67.6406 10.0859 67.6406V66.7109C10.3776 66.7109 10.6536 66.625 10.9141 66.4531C11.1745 66.2865 11.388 66.0391 11.5547 65.7109C11.7214 65.388 11.8047 64.9922 11.8047 64.5234C11.8047 64.0391 11.7318 63.6458 11.5859 63.3438C11.4401 63.0417 11.2552 62.8203 11.0313 62.6797C10.8073 62.5443 10.5755 62.4766 10.3359 62.4766C10.1484 62.4766 9.97656 62.5052 9.82031 62.5625C9.66927 62.625 9.52865 62.7344 9.39844 62.8906C9.26823 63.0521 9.14583 63.2812 9.03125 63.5781C8.91667 63.875 8.80469 64.2604 8.69531 64.7344C8.54427 65.4167 8.35938 65.974 8.14063 66.4062C7.92708 66.8438 7.66146 67.1667 7.34375 67.375C7.03125 67.5833 6.65104 67.6875 6.20313 67.6875C5.85417 67.6875 5.53385 67.6146 5.24219 67.4688C4.95573 67.3229 4.70833 67.112 4.5 66.8359C4.29167 66.5651 4.13021 66.237 4.01563 65.8516C3.90104 65.4714 3.84375 65.0443 3.84375 64.5703C3.84375 63.8568 3.96094 63.2526 4.19531 62.7578C4.4349 62.2682 4.7474 61.8958 5.13281 61.6406C5.52344 61.3906 5.9375 61.2656 6.375 61.2656V62.1953C5.9375 62.2266 5.59115 62.3646 5.33594 62.6094C5.08594 62.8542 4.90885 63.1536 4.80469 63.5078C4.70052 63.8672 4.64844 64.2214 4.64844 64.5703C4.64844 65.0495 4.71875 65.4505 4.85938 65.7734C5 66.0964 5.1849 66.3411 5.41406 66.5078C5.64323 66.6745 5.89063 66.7578 6.15625 66.7578Z" fill="#02BDD5"/>
</svg>
