<svg width="197" height="318" viewBox="0 0 197 318" fill="none" xmlns="http://www.w3.org/2000/svg">
<line x1="21" y1="0.5" x2="196" y2="0.5" stroke="white"/>
<line x1="21" y1="317.5" x2="196" y2="317.5" stroke="white"/>
<line x1="21.5" y1="203" x2="21.5" y2="318" stroke="white"/>
<line x1="196.5" y1="2.18557e-08" x2="196.5" y2="20" stroke="white"/>
<line x1="196.5" y1="244" x2="196.5" y2="318" stroke="white"/>
<path d="M33 190.43L32.9915 191.43L34 191.438V190.43H33ZM28.8867 190.395H27.8867V191.386L28.8782 191.394L28.8867 190.395ZM27.9551 181.359L28.7919 180.812L28.7871 180.805L27.9551 181.359ZM25.1953 179.215L24.8177 180.141L24.8255 180.144L25.1953 179.215ZM16.1074 178.898L16.3686 179.864L16.3792 179.861L16.1074 178.898ZM12.0645 182.098L12.9772 182.506L12.9822 182.495L12.0645 182.098ZM11.5371 190.535V191.535H12.5371V190.535H11.5371ZM7.40625 190.535H6.40625V191.535H7.40625V190.535ZM8.28516 180.111L9.2094 180.493L9.21311 180.484L8.28516 180.111ZM14.6309 173.994L14.982 174.931L14.9908 174.927L14.6309 173.994ZM25.793 173.994L25.4354 174.928L25.4418 174.93L25.793 173.994ZM29.6602 176.402L28.9649 177.121L28.965 177.121L29.6602 176.402ZM32.1387 180.111L33.0666 179.739L33.0651 179.735L32.1387 180.111ZM7.40625 187.441V186.441H6.40625V187.441H7.40625ZM33 187.441H34V186.441H33V187.441ZM33 192.715V193.715H34V192.715H33ZM7.40625 192.715H6.40625V193.715H7.40625V192.715ZM32 184.857V190.43H34V184.857H32ZM33.0085 189.43L28.8953 189.395L28.8782 191.394L32.9915 191.43L33.0085 189.43ZM29.8867 190.395V184.857H27.8867V190.395H29.8867ZM29.8867 184.857C29.8867 183.323 29.5408 181.956 28.7919 180.812L27.1183 181.907C27.6116 182.661 27.8867 183.626 27.8867 184.857H29.8867ZM28.7871 180.805C28.0266 179.664 26.9336 178.83 25.5651 178.286L24.8255 180.144C25.8711 180.56 26.6179 181.156 27.123 181.914L28.7871 180.805ZM25.5729 178.289C24.2149 177.735 22.6203 177.477 20.8184 177.477V179.477C22.4383 179.477 23.7617 179.71 24.8177 180.141L25.5729 178.289ZM20.8184 177.477H19.5703V179.477H20.8184V177.477ZM19.5703 177.477C18.1893 177.477 16.9401 177.624 15.8357 177.936L16.3792 179.861C17.2669 179.61 18.3264 179.477 19.5703 179.477V177.477ZM15.8462 177.933C14.7434 178.232 13.7767 178.69 12.9724 179.328L14.2151 180.895C14.7702 180.455 15.4793 180.104 16.3686 179.864L15.8462 177.933ZM12.9724 179.328C12.1655 179.968 11.553 180.762 11.1467 181.7L12.9822 182.495C13.2556 181.863 13.6627 181.333 14.2151 180.895L12.9724 179.328ZM11.1518 181.689C10.733 182.624 10.5371 183.67 10.5371 184.805H12.5371C12.5371 183.9 12.6928 183.141 12.9771 182.506L11.1518 181.689ZM10.5371 184.805V190.535H12.5371V184.805H10.5371ZM11.5371 189.535H7.40625V191.535H11.5371V189.535ZM8.40625 190.535V184.805H6.40625L6.40625 190.535H8.40625ZM8.40625 184.805C8.40625 183.21 8.67892 181.777 9.20936 180.493L7.36095 179.729C6.71952 181.282 6.40625 182.978 6.40625 184.805H8.40625ZM9.21311 180.484C9.73641 179.181 10.4846 178.064 11.459 177.121L10.0684 175.684C8.88648 176.827 7.98234 178.182 7.3572 179.739L9.21311 180.484ZM11.459 177.121C12.4319 176.18 13.6016 175.448 14.982 174.93L14.2797 173.058C12.6602 173.665 11.2517 174.539 10.0684 175.684L11.459 177.121ZM14.9908 174.927C16.3488 174.403 17.8827 174.133 19.6055 174.133V172.133C17.672 172.133 15.8895 172.437 14.2709 173.061L14.9908 174.927ZM19.6055 174.133H20.8184V172.133H19.6055V174.133ZM20.8184 174.133C22.5284 174.133 24.0635 174.403 25.4355 174.928L26.1505 173.06C24.5224 172.437 22.7411 172.133 20.8184 172.133V174.133ZM25.4418 174.93C26.8223 175.448 27.9919 176.18 28.9649 177.121L30.3554 175.684C29.1722 174.539 27.7637 173.665 26.1441 173.058L25.4418 174.93ZM28.965 177.121C29.9265 178.051 30.6762 179.169 31.2123 180.488L33.0651 179.735C32.4293 178.171 31.5266 176.816 30.3553 175.683L28.965 177.121ZM31.2107 180.484C31.7317 181.781 32 183.235 32 184.857H34C34 183.011 33.694 181.301 33.0666 179.739L31.2107 180.484ZM7.40625 188.441H33V186.441H7.40625L7.40625 188.441ZM32 187.441V192.715H34V187.441H32ZM33 191.715H7.40625V193.715H33V191.715ZM8.40625 192.715V187.441H6.40625L6.40625 192.715H8.40625ZM28.8867 152.127V151.127H27.8867V152.127H28.8867ZM33 152.127H34V151.127H33V152.127ZM33 165.75V166.75H34V165.75H33ZM28.8867 165.75H27.8867L27.8867 166.75H28.8867L28.8867 165.75ZM7.40625 164.027V163.027H6.40625V164.027H7.40625ZM33 164.027H34V163.027H33V164.027ZM33 169.301V170.301H34V169.301H33ZM7.40625 169.301H6.40625V170.301H7.40625V169.301ZM17.8301 153.902V152.902H16.8301V153.902H17.8301ZM21.8379 153.902H22.8379V152.902H21.8379V153.902ZM21.8379 165.75L21.8379 166.75H22.8379L22.8379 165.75H21.8379ZM17.8301 165.75H16.8301L16.8301 166.75H17.8301L17.8301 165.75ZM7.40625 152.145V151.145H6.40625V152.145H7.40625ZM11.5371 152.145H12.5371L12.5371 151.145H11.5371L11.5371 152.145ZM11.5371 165.75V166.75H12.5371V165.75H11.5371ZM7.40625 165.75H6.40625V166.75H7.40625V165.75ZM28.8867 153.127H33V151.127H28.8867V153.127ZM32 152.127V165.75H34V152.127H32ZM33 164.75H28.8867L28.8867 166.75H33V164.75ZM29.8867 165.75V152.127H27.8867V165.75H29.8867ZM7.40625 165.027H33V163.027H7.40625V165.027ZM32 164.027V169.301H34V164.027H32ZM33 168.301H7.40625V170.301H33V168.301ZM8.40625 169.301V164.027H6.40625V169.301H8.40625ZM17.8301 154.902H21.8379V152.902H17.8301V154.902ZM20.8379 153.902V165.75H22.8379V153.902H20.8379ZM21.8379 164.75H17.8301L17.8301 166.75H21.8379L21.8379 164.75ZM18.8301 165.75V153.902H16.8301V165.75H18.8301ZM7.40625 153.145H11.5371L11.5371 151.145H7.40625V153.145ZM10.5371 152.145V165.75H12.5371V152.145H10.5371ZM11.5371 164.75H7.40625V166.75H11.5371V164.75ZM8.40625 165.75V152.145H6.40625L6.40625 165.75H8.40625ZM25.0723 135.938L25.3973 136.883L25.4154 136.877L25.4333 136.87L25.0723 135.938ZM24.0527 136.676L24.8068 137.333L24.8129 137.326L24.8189 137.318L24.0527 136.676ZM22.1719 140.754L23.1234 141.061L23.1258 141.054L22.1719 140.754ZM20.9063 144.059L21.8166 144.472L21.8184 144.469L20.9063 144.059ZM19.2715 146.801L20.0501 147.428L20.0552 147.422L20.0602 147.416L19.2715 146.801ZM17.0742 148.664L17.5461 149.546L17.5557 149.541L17.0742 148.664ZM11.2734 148.629L11.749 147.749L11.744 147.747L11.2734 148.629ZM9.02344 146.66L9.82881 146.067L9.82344 146.06L9.02344 146.66ZM7.56445 143.672L6.60478 143.953L6.60556 143.956L7.56445 143.672ZM10.8691 131.648L11.4162 132.486L11.4219 132.482L10.8691 131.648ZM14.9297 130.471H15.9297V129.471H14.9297V130.471ZM14.9297 135.709V136.709H15.9297V135.709H14.9297ZM12.9609 136.184L13.4297 137.067L13.4405 137.061L13.4512 137.055L12.9609 136.184ZM11.6074 137.59L12.4916 138.057L12.4952 138.05L11.6074 137.59ZM11.5371 142.23L12.4516 141.826L12.4484 141.819L12.4451 141.811L11.5371 142.23ZM12.6445 143.602L13.1993 142.769L13.1895 142.763L12.6445 143.602ZM15.3691 143.742L15.8836 144.6L15.894 144.593L15.9042 144.587L15.3691 143.742ZM18.0059 138.961L18.9611 139.257L18.963 139.25L18.0059 138.961ZM19.4297 135.287L20.3241 135.734L20.3261 135.73L19.4297 135.287ZM32.8594 143.479L33.8233 143.745L33.8256 143.736L32.8594 143.479ZM31.3301 146.836L32.1561 147.4L32.1591 147.395L31.3301 146.836ZM24.9844 150.123H23.9844V151.123H24.9844V150.123ZM24.9844 144.832V143.832H23.9844V144.832H24.9844ZM28.3418 143.426L29.1368 144.033L29.1443 144.022L28.3418 143.426ZM29.0801 141.809L30.0513 142.047L30.0523 142.043L29.0801 141.809ZM28.9219 137.484L28.0036 137.88L28.0066 137.887L28.9219 137.484ZM27.8496 136.166L27.3099 137.008L27.3177 137.013L27.3255 137.018L27.8496 136.166ZM26.3027 134.727C25.7432 134.727 25.2078 134.813 24.7113 135.005L25.4333 136.87C25.6633 136.781 25.9482 136.727 26.3027 136.727V134.727ZM24.7472 134.992C24.1694 135.19 23.685 135.558 23.2865 136.033L24.8189 137.318C25.0298 137.067 25.2251 136.942 25.3973 136.883L24.7472 134.992ZM23.2987 136.019C22.8978 136.479 22.5407 137.081 22.2141 137.784L24.0281 138.626C24.3109 138.017 24.5749 137.599 24.8068 137.333L23.2987 136.019ZM22.2141 137.784C21.8845 138.494 21.5532 139.388 21.218 140.454L23.1258 141.054C23.4468 140.034 23.7483 139.229 24.0281 138.626L22.2141 137.784ZM21.2203 140.446C20.8559 141.574 20.4469 142.641 19.9941 143.649L21.8184 144.469C22.3031 143.39 22.7379 142.254 23.1234 141.061L21.2203 140.446ZM19.9959 143.645C19.5558 144.613 19.0501 145.458 18.4828 146.186L20.0602 147.416C20.735 146.55 21.3192 145.567 21.8166 144.472L19.9959 143.645ZM18.4929 146.173C17.9368 146.863 17.3035 147.397 16.5928 147.788L17.5557 149.541C18.509 149.017 19.3406 148.309 20.0501 147.428L18.4929 146.173ZM16.6023 147.782C15.938 148.138 15.1384 148.332 14.1738 148.332V150.332C15.4124 150.332 16.5464 150.081 17.5461 149.546L16.6023 147.782ZM14.1738 148.332C13.2595 148.332 12.4583 148.133 11.749 147.749L10.7979 149.509C11.823 150.063 12.9553 150.332 14.1738 150.332V148.332ZM11.744 147.747C11.0038 147.352 10.366 146.797 9.82877 146.067L8.2181 147.253C8.92305 148.211 9.78531 148.969 10.8028 149.511L11.744 147.747ZM9.82344 146.06C9.27095 145.324 8.83398 144.438 8.52335 143.388L6.60556 143.956C6.97462 145.203 7.5103 146.309 8.22344 147.26L9.82344 146.06ZM8.52413 143.391C8.21455 142.334 8.05469 141.158 8.05469 139.857H6.05469C6.05469 141.322 6.23467 142.689 6.60478 143.953L8.52413 143.391ZM8.05469 139.857C8.05469 138.091 8.3727 136.598 8.97457 135.353L7.17387 134.483C6.41637 136.05 6.05469 137.851 6.05469 139.857H8.05469ZM8.97457 135.353C9.58371 134.093 10.4003 133.149 11.4162 132.486L10.3221 130.811C8.97082 131.694 7.9241 132.931 7.17387 134.483L8.97457 135.353ZM11.4219 132.482C12.4296 131.813 13.5879 131.471 14.9297 131.471V129.471C13.2246 129.471 11.6758 129.913 10.3163 130.815L11.4219 132.482ZM13.9297 130.471V135.709H15.9297V130.471H13.9297ZM14.9297 134.709C14.036 134.709 13.2056 134.899 12.4707 135.312L13.4512 137.055C13.8413 136.836 14.3233 136.709 14.9297 136.709V134.709ZM12.4922 135.3C11.7213 135.709 11.1318 136.335 10.7197 137.13L12.4952 138.05C12.7393 137.579 13.0521 137.267 13.4297 137.067L12.4922 135.3ZM10.7232 137.123C10.2971 137.929 10.1152 138.888 10.1152 139.945H12.1152C12.1152 139.104 12.2615 138.492 12.4916 138.057L10.7232 137.123ZM10.1152 139.945C10.1152 140.955 10.2695 141.87 10.6292 142.65L12.4451 141.811C12.2422 141.372 12.1152 140.764 12.1152 139.945H10.1152ZM10.6226 142.635C10.9553 143.387 11.4391 144.011 12.0995 144.44L13.1895 142.763C12.9124 142.583 12.658 142.292 12.4516 141.826L10.6226 142.635ZM12.0898 144.434C12.7188 144.853 13.4292 145.059 14.1914 145.059V143.059C13.8051 143.059 13.4843 142.96 13.1992 142.77L12.0898 144.434ZM14.1914 145.059C14.7954 145.059 15.3676 144.909 15.8836 144.6L14.8546 142.885C14.6676 142.997 14.4546 143.059 14.1914 143.059V145.059ZM15.9042 144.587C16.3929 144.278 16.8112 143.846 17.1717 143.333L15.5353 142.183C15.2865 142.537 15.0485 142.762 14.8341 142.897L15.9042 144.587ZM17.1717 143.333C17.5265 142.828 17.8455 142.229 18.1349 141.55L16.2948 140.766C16.0451 141.353 15.7899 141.821 15.5353 142.183L17.1717 143.333ZM18.1349 141.55C18.4207 140.879 18.6957 140.113 18.9611 139.257L17.0507 138.665C16.8004 139.473 16.548 140.172 16.2948 140.766L18.1349 141.55ZM18.963 139.25C19.3721 137.898 19.8272 136.728 20.3241 135.734L18.5353 134.84C17.9775 135.955 17.4833 137.235 17.0487 138.671L18.963 139.25ZM20.3261 135.73C20.8206 134.73 21.362 133.923 21.9417 133.292L20.4684 131.939C19.7357 132.737 19.0935 133.711 18.5333 134.844L20.3261 135.73ZM21.9417 133.292C22.5104 132.672 23.1419 132.218 23.8376 131.915L23.0374 130.082C22.069 130.504 21.2123 131.129 20.4684 131.939L21.9417 133.292ZM23.8376 131.915C24.5247 131.615 25.3285 131.453 26.2676 131.453V129.453C25.0972 129.453 24.0144 129.655 23.0374 130.082L23.8376 131.915ZM26.2676 131.453C27.2484 131.453 28.0898 131.643 28.8134 132L29.6983 130.207C28.6641 129.697 27.5133 129.453 26.2676 129.453V131.453ZM28.8134 132C29.544 132.361 30.1666 132.882 30.6855 133.581L32.291 132.388C31.5912 131.446 30.7256 130.714 29.6983 130.207L28.8134 132ZM30.6855 133.581C31.2113 134.288 31.6251 135.152 31.9136 136.188L33.8403 135.652C33.496 134.415 32.984 133.321 32.291 132.388L30.6855 133.581ZM31.9136 136.188C32.2016 137.223 32.3516 138.402 32.3516 139.734H34.3516C34.3516 138.254 34.1852 136.891 33.8403 135.652L31.9136 136.188ZM32.3516 139.734C32.3516 140.912 32.199 142.074 31.8931 143.221L33.8256 143.736C34.176 142.422 34.3516 141.088 34.3516 139.734H32.3516ZM31.8955 143.212C31.583 144.344 31.1172 145.363 30.501 146.277L32.1591 147.395C32.9023 146.293 33.4561 145.074 33.8233 143.745L31.8955 143.212ZM30.5041 146.272C29.911 147.141 29.158 147.834 28.2355 148.357L29.2215 150.097C30.4084 149.424 31.3898 148.523 32.1561 147.4L30.5041 146.272ZM28.2355 148.357C27.3573 148.854 26.2857 149.123 24.9844 149.123V151.123C26.5658 151.123 27.9904 150.794 29.2215 150.097L28.2355 148.357ZM25.9844 150.123V144.832H23.9844V150.123H25.9844ZM24.9844 145.832C25.8789 145.832 26.7005 145.695 27.4138 145.376L26.5979 143.55C26.2096 143.723 25.6836 143.832 24.9844 143.832V145.832ZM27.4138 145.376C28.1051 145.067 28.6878 144.621 29.1367 144.032L27.5468 142.819C27.3161 143.121 27.0082 143.367 26.5979 143.55L27.4138 145.376ZM29.1443 144.022C29.5729 143.446 29.8711 142.782 30.0513 142.047L28.1089 141.57C27.9844 142.078 27.7904 142.491 27.5393 142.829L29.1443 144.022ZM30.0523 142.043C30.2256 141.323 30.3086 140.552 30.3086 139.734H28.3086C28.3086 140.417 28.2392 141.029 28.1079 141.575L30.0523 142.043ZM30.3086 139.734C30.3086 138.737 30.1694 137.837 29.8372 137.082L28.0066 137.887C28.19 138.304 28.3086 138.904 28.3086 139.734H30.3086ZM29.8401 137.088C29.5185 136.343 29.0402 135.725 28.3737 135.314L27.3255 137.018C27.573 137.17 27.8096 137.431 28.0037 137.88L29.8401 137.088ZM28.3893 135.324C27.7617 134.922 27.0567 134.727 26.3027 134.727V136.727C26.6972 136.727 27.0235 136.824 27.3099 137.008L28.3893 135.324ZM7.40625 121.26V120.26H6.40625V121.26H7.40625ZM33 121.26H34V120.26H33V121.26ZM33 126.516V127.516H34V126.516H33ZM7.40625 126.516H6.40625V127.516H7.40625V126.516ZM7.40625 122.26H33V120.26H7.40625V122.26ZM32 121.26V126.516H34V121.26H32ZM33 125.516H7.40625V127.516H33V125.516ZM8.40625 126.516L8.40625 121.26H6.40625V126.516H8.40625ZM19.623 96.0352V95.0352H18.623V96.0352H19.623ZM29.7656 96.0352L30.404 95.2654L30.1263 95.0352H29.7656V96.0352ZM31.3301 97.8809L32.164 97.3288L32.1585 97.3208L31.3301 97.8809ZM32.543 110.379L33.4698 110.754L33.4725 110.748L32.543 110.379ZM30.1348 113.895L30.8127 114.63L30.8171 114.626L30.1348 113.895ZM26.2676 116.145L26.5925 117.09L26.5947 117.09L26.2676 116.145ZM14.1563 116.18L13.8378 117.128L13.8444 117.13L14.1563 116.18ZM8.12695 100.729L9.01846 101.182L9.02138 101.176L8.12695 100.729ZM11.1152 97.459L11.6216 98.3214L11.6309 98.3158L11.1152 97.459ZM15.4746 96.0527H16.4746V94.9399L15.3681 95.0584L15.4746 96.0527ZM15.4746 101.168L15.6216 102.157L16.4746 102.03V101.168H15.4746ZM11.6953 103.471L12.5738 103.948L12.5772 103.942L11.6953 103.471ZM11.6953 108.428L12.5835 107.968L12.5806 107.963L11.6953 108.428ZM24.5625 111.205L24.805 112.175L24.8077 112.175L24.5625 111.205ZM27.1465 110.062L27.729 110.875L27.7367 110.87L27.7443 110.864L27.1465 110.062ZM29.0273 103.471L28.0572 103.713L28.0584 103.718L29.0273 103.471ZM28.5176 102.117L29.3803 101.611L29.3751 101.603L28.5176 102.117ZM27.9199 101.309L28.627 100.601L28.3341 100.309H27.9199V101.309ZM23.3848 101.309V100.309H22.3848V101.309H23.3848ZM23.3848 106.125V107.125H24.3848V106.125H23.3848ZM19.623 106.125H18.623V107.125H19.623V106.125ZM19.623 97.0352H29.7656V95.0352H19.623V97.0352ZM29.1273 96.8049C29.5042 97.1175 29.9641 97.6459 30.5016 98.4409L32.1585 97.3208C31.571 96.4518 30.988 95.7497 30.404 95.2654L29.1273 96.8049ZM30.4962 98.4328C30.9778 99.1603 31.417 100.136 31.797 101.388L33.7108 100.807C33.2939 99.4341 32.7839 98.2655 32.1639 97.3289L30.4962 98.4328ZM31.797 101.388C32.1587 102.58 32.3516 104.064 32.3516 105.861H34.3516C34.3516 103.932 34.146 102.241 33.7108 100.807L31.797 101.388ZM32.3516 105.861C32.3516 107.404 32.1003 108.782 31.6134 110.01L33.4725 110.748C34.0638 109.257 34.3516 107.624 34.3516 105.861H32.3516ZM31.6162 110.003C31.1191 111.23 30.3989 112.28 29.4524 113.163L30.8171 114.626C31.98 113.54 32.8653 112.246 33.4698 110.754L31.6162 110.003ZM29.4568 113.159C28.5152 114.028 27.3499 114.712 25.9405 115.2L26.5947 117.09C28.2322 116.523 29.645 115.707 30.8127 114.63L29.4568 113.159ZM25.9427 115.199C24.5316 115.683 22.8927 115.936 21.0117 115.936V117.936C23.0683 117.936 24.9332 117.66 26.5925 117.09L25.9427 115.199ZM21.0117 115.936H19.4121V117.936H21.0117V115.936ZM19.4121 115.936C17.527 115.936 15.8834 115.694 14.4681 115.23L13.8444 117.13C15.4994 117.673 17.3597 117.936 19.4121 117.936V115.936ZM14.4746 115.232C13.0509 114.754 11.8801 114.085 10.9404 113.239L9.60252 114.726C10.7722 115.778 12.1913 116.575 13.8379 117.128L14.4746 115.232ZM10.9404 113.239C9.99574 112.389 9.27928 111.38 8.78538 110.203L6.94118 110.977C7.54885 112.425 8.43785 113.678 9.60252 114.726L10.9404 113.239ZM8.78538 110.203C8.2922 109.028 8.03711 107.702 8.03711 106.213H6.03711C6.03711 107.934 6.33281 109.527 6.94118 110.977L8.78538 110.203ZM8.03711 106.213C8.03711 104.086 8.38542 102.427 9.01844 101.182L7.23547 100.275C6.41536 101.889 6.03711 103.887 6.03711 106.213H8.03711ZM9.02138 101.176C9.65687 99.9047 10.5243 98.9656 11.6216 98.3213L10.6089 96.5966C9.15151 97.4524 8.02672 98.6929 7.23253 100.281L9.02138 101.176ZM11.6309 98.3158C12.7579 97.6375 14.0682 97.2091 15.5811 97.047L15.3681 95.0584C13.5997 95.2479 12.0038 95.757 10.5996 96.6022L11.6309 98.3158ZM14.4746 96.0527V101.168H16.4746V96.0527H14.4746ZM15.3276 100.179C14.3614 100.322 13.4847 100.602 12.716 101.035L13.698 102.777C14.2184 102.484 14.8535 102.271 15.6216 102.157L15.3276 100.179ZM12.716 101.035C11.8987 101.496 11.2624 102.159 10.8134 102.999L12.5772 103.942C12.8548 103.423 13.2263 103.043 13.698 102.777L12.716 101.035ZM10.8168 102.993C10.3482 103.855 10.1504 104.902 10.1504 106.072H12.1504C12.1504 105.109 12.3159 104.423 12.5738 103.948L10.8168 102.993ZM10.1504 106.072C10.1504 107.093 10.3624 108.041 10.8101 108.893L12.5806 107.963C12.3017 107.432 12.1504 106.81 12.1504 106.072H10.1504ZM10.8071 108.887C11.2421 109.728 11.8821 110.425 12.6986 110.978L13.8209 109.323C13.2546 108.939 12.8516 108.487 12.5835 107.968L10.8071 108.887ZM12.6986 110.978C13.5111 111.529 14.484 111.927 15.5915 112.195L16.0608 110.251C15.1293 110.026 14.3913 109.709 13.8209 109.323L12.6986 110.978ZM15.5915 112.195C16.7061 112.464 17.9714 112.592 19.377 112.592V110.592C18.0872 110.592 16.9854 110.474 16.0608 110.251L15.5915 112.195ZM19.377 112.592H21.0117V110.592H19.377V112.592ZM21.0117 112.592C22.4095 112.592 23.6772 112.457 24.805 112.175L24.32 110.235C23.3853 110.469 22.2858 110.592 21.0117 110.592V112.592ZM24.8077 112.175C25.923 111.893 26.9049 111.466 27.729 110.875L26.564 109.25C25.9818 109.667 25.241 110.002 24.3173 110.236L24.8077 112.175ZM27.7443 110.864C28.5621 110.254 29.192 109.494 29.6164 108.588L27.8055 107.74C27.5268 108.334 27.1137 108.84 26.5487 109.261L27.7443 110.864ZM29.6164 108.588C30.0416 107.681 30.2383 106.658 30.2383 105.545H28.2383C28.2383 106.424 28.0834 107.147 27.8055 107.74L29.6164 108.588ZM30.2383 105.545C30.2383 104.664 30.1646 103.883 29.9963 103.223L28.0584 103.718C28.1713 104.16 28.2383 104.762 28.2383 105.545H30.2383ZM29.9975 103.228C29.8436 102.612 29.6445 102.062 29.3803 101.611L27.6549 102.623C27.789 102.852 27.9299 103.204 28.0572 103.713L29.9975 103.228ZM29.3751 101.603C29.1423 101.215 28.8947 100.869 28.627 100.601L27.2128 102.016C27.3201 102.123 27.471 102.317 27.6601 102.632L29.3751 101.603ZM27.9199 100.309H23.3848V102.309H27.9199V100.309ZM22.3848 101.309V106.125H24.3848V101.309H22.3848ZM23.3848 105.125H19.623V107.125H23.3848V105.125ZM20.623 106.125V96.0352H18.623V106.125H20.623ZM7.40625 70.9512V69.9512H6.40625V70.9512H7.40625ZM33 70.9512H34V69.9512H33V70.9512ZM33 76.2246L33.5141 77.0823L34 76.7911V76.2246H33ZM15.8438 86.5078L15.3296 85.6501L12.2303 87.5078H15.8438V86.5078ZM33 86.5078H34V85.5078H33V86.5078ZM33 91.7812V92.7812H34V91.7812H33ZM7.40625 91.7812H6.40625V92.7812H7.40625V91.7812ZM7.40625 86.5078L6.89188 85.6502L6.40625 85.9415L6.40625 86.5078H7.40625ZM24.5801 76.207L25.0944 77.0646L28.1915 75.207H24.5801V76.207ZM7.40625 76.207H6.40625V77.207H7.40625V76.207ZM7.40625 71.9512H33V69.9512H7.40625L7.40625 71.9512ZM32 70.9512V76.2246H34V70.9512H32ZM32.4859 75.3669L15.3296 85.6501L16.3579 87.3655L33.5141 77.0823L32.4859 75.3669ZM15.8438 87.5078H33V85.5078H15.8438V87.5078ZM32 86.5078V91.7812H34V86.5078H32ZM33 90.7812H7.40625V92.7812H33V90.7812ZM8.40625 91.7812V86.5078H6.40625V91.7812H8.40625ZM7.92062 87.3654L25.0944 77.0646L24.0657 75.3495L6.89188 85.6502L7.92062 87.3654ZM24.5801 75.207H7.40625V77.207H24.5801V75.207ZM8.40625 76.207V70.9512H6.40625L6.40625 76.207H8.40625Z" fill="#02BDD5"/>
<line x1="21.5" y1="2.18557e-08" x2="21.5" y2="60" stroke="white"/>
</svg>
