<svg width="14" height="14" viewBox="0 0 14 14" fill="none" xmlns="http://www.w3.org/2000/svg">
<g clip-path="url(#clip0_188_703)">
<path d="M3.03794 0.0439453C1.5395 0.295508 0.287158 1.55879 0.0410645 3.0627C-0.0218262 3.45371 -0.0218262 10.5467 0.0410645 10.9377C0.287158 12.4553 1.54497 13.7131 3.06255 13.9592C3.45356 14.0221 10.5465 14.0221 10.9375 13.9592C12.4551 13.7131 13.7129 12.4553 13.959 10.9377C14.0219 10.5467 14.0219 3.45371 13.959 3.0627C13.7129 1.54512 12.4551 0.287305 10.9375 0.0412111C10.5657 -0.0189447 3.39888 -0.0162106 3.03794 0.0439453ZM9.28325 2.48848C10.3715 2.59238 11.2356 3.36348 11.479 4.45176C11.52 4.64316 11.5254 4.88652 11.5254 7.0002C11.5254 9.1084 11.52 9.35996 11.479 9.54863C11.2575 10.5357 10.5356 11.2576 9.54849 11.4791C9.35708 11.5201 9.11372 11.5256 7.00005 11.5256C4.89185 11.5256 4.64028 11.5201 4.45161 11.4791C3.4645 11.2576 2.74263 10.5357 2.52114 9.54863C2.48013 9.35723 2.47466 9.11387 2.47466 7.0002C2.47466 4.42441 2.47192 4.49277 2.64966 4.0334C2.83286 3.56035 3.22661 3.09277 3.65864 2.83301C3.95122 2.65801 4.35317 2.52129 4.66489 2.49121C5.0231 2.4584 8.92231 2.45566 9.28325 2.48848Z" fill="#02BDD5"/>
<path d="M4.47087 3.33364C3.91032 3.4977 3.46736 3.94887 3.32243 4.50395C3.25954 4.74458 3.26228 9.25356 3.32517 9.49692C3.47009 10.0602 3.9404 10.5305 4.50095 10.6754C4.64861 10.7137 4.96306 10.7192 7.00017 10.7192C9.58689 10.7192 9.47751 10.7274 9.85486 10.536C10.1174 10.4047 10.4045 10.1176 10.5357 9.85512C10.7271 9.47778 10.7189 9.58716 10.7189 7.00044C10.7189 4.41372 10.7271 4.52309 10.5357 4.14575C10.4045 3.88325 10.1174 3.59614 9.85486 3.46489C9.47751 3.27348 9.58962 3.28169 6.98376 3.28442C4.83181 3.28442 4.62126 3.28989 4.47087 3.33364ZM9.55407 4.31802C9.67165 4.39731 9.73454 4.50942 9.73454 4.64887C9.73454 4.78833 9.67165 4.90044 9.55407 4.97973C9.38728 5.08911 9.13845 5.02895 9.02087 4.85122C8.95798 4.75552 8.95251 4.56684 9.00993 4.4602C9.10017 4.28247 9.38454 4.20864 9.55407 4.31802ZM7.45954 5.02075C7.70837 5.0727 8.08572 5.26137 8.28532 5.43091C8.77478 5.84653 9.02361 6.377 9.02361 6.9977C9.02361 7.34497 8.97439 7.56372 8.83493 7.85903C8.63806 8.28012 8.3072 8.61645 7.88884 8.8188C7.57986 8.96919 7.3365 9.02661 7.00017 9.02661C6.66384 9.02661 6.42048 8.96919 6.1115 8.8188C5.69314 8.61645 5.38415 8.30473 5.18181 7.88911C5.02595 7.57192 4.97673 7.35864 4.97673 7.00044C4.97673 6.64223 5.02595 6.42622 5.18181 6.11177C5.37595 5.71528 5.67947 5.40083 6.06775 5.19848C6.51072 4.9688 6.94275 4.91411 7.45954 5.02075Z" fill="#02BDD5"/>
<path d="M6.59258 5.82148C6.26445 5.94453 6.02656 6.16055 5.8707 6.47773C5.78594 6.65273 5.7832 6.67188 5.7832 7C5.7832 7.33359 5.78594 7.34727 5.87617 7.5332C5.99922 7.78477 6.21523 8.00078 6.4668 8.12383C6.65273 8.21406 6.66641 8.2168 7 8.2168C7.33359 8.2168 7.34727 8.21406 7.5332 8.12383C7.78477 8.00078 8.00078 7.78477 8.12383 7.5332C8.21406 7.34727 8.2168 7.33359 8.2168 7C8.2168 6.66641 8.21406 6.65273 8.12383 6.4668C8.00078 6.21523 7.78477 5.99922 7.5332 5.87891C7.35547 5.79141 7.31719 5.7832 7.04102 5.77773C6.79492 5.76953 6.71289 5.77773 6.59258 5.82148Z" fill="#02BDD5"/>
</g>
<defs>
<clipPath id="clip0_188_703">
<rect width="14" height="14" fill="white"/>
</clipPath>
</defs>
</svg>
