<svg width="70" height="61" viewBox="0 0 70 61" fill="none" xmlns="http://www.w3.org/2000/svg">
<path d="M0.816 56.3804V47.9804H6.24V49.2164H2.352V51.5684H5.496V52.7804H2.352V56.3804H0.816ZM9.62138 56.5244C8.87738 56.5244 8.30138 56.2924 7.89338 55.8284C7.49338 55.3644 7.29338 54.6844 7.29338 53.7884V50.4284H8.81738V53.6444C8.81738 54.1564 8.92138 54.5484 9.12938 54.8204C9.33738 55.0924 9.66538 55.2284 10.1134 55.2284C10.5374 55.2284 10.8854 55.0764 11.1574 54.7724C11.4374 54.4684 11.5774 54.0444 11.5774 53.5004V50.4284H13.1134V56.3804H11.7574L11.6374 55.3724C11.4534 55.7244 11.1854 56.0044 10.8334 56.2124C10.4894 56.4204 10.0854 56.5244 9.62138 56.5244ZM14.3062 56.3804V55.1444L17.3422 51.7004H14.3422V50.4284H19.0942V51.6644L16.0102 55.1084H19.1542V56.3804H14.3062ZM20.0483 56.3804V55.1444L23.0843 51.7004H20.0843V50.4284H24.8363V51.6644L21.7523 55.1084H24.8963V56.3804H20.0483ZM26.9185 59.0204L28.2985 55.9844H27.9385L25.6225 50.4284H27.2905L28.9585 54.6164L30.6985 50.4284H32.3305L28.5505 59.0204H26.9185ZM40.0341 56.5244C39.1861 56.5244 38.4581 56.3444 37.8501 55.9844C37.2421 55.6164 36.7741 55.1084 36.4461 54.4604C36.1181 53.8044 35.9541 53.0484 35.9541 52.1924C35.9541 51.3364 36.1181 50.5804 36.4461 49.9244C36.7741 49.2684 37.2421 48.7564 37.8501 48.3884C38.4581 48.0204 39.1861 47.8364 40.0341 47.8364C41.0421 47.8364 41.8661 48.0884 42.5061 48.5924C43.1541 49.0884 43.5581 49.7884 43.7181 50.6924H42.0261C41.9221 50.2364 41.6981 49.8804 41.3541 49.6244C41.0181 49.3604 40.5701 49.2284 40.0101 49.2284C39.2341 49.2284 38.6261 49.4924 38.1861 50.0204C37.7461 50.5484 37.5261 51.2724 37.5261 52.1924C37.5261 53.1124 37.7461 53.8364 38.1861 54.3644C38.6261 54.8844 39.2341 55.1444 40.0101 55.1444C40.5701 55.1444 41.0181 55.0244 41.3541 54.7844C41.6981 54.5364 41.9221 54.1964 42.0261 53.7644H43.7181C43.5581 54.6284 43.1541 55.3044 42.5061 55.7924C41.8661 56.2804 41.0421 56.5244 40.0341 56.5244ZM45.0417 56.3804V47.7404H46.5777V56.3804H45.0417ZM51.0032 56.5244C50.4272 56.5244 49.9072 56.3924 49.4432 56.1284C48.9872 55.8644 48.6232 55.5004 48.3512 55.0364C48.0872 54.5644 47.9552 54.0204 47.9552 53.4044C47.9552 52.7884 48.0912 52.2484 48.3632 51.7844C48.6352 51.3124 48.9992 50.9444 49.4552 50.6804C49.9192 50.4164 50.4392 50.2844 51.0152 50.2844C51.5832 50.2844 52.0952 50.4164 52.5512 50.6804C53.0152 50.9444 53.3792 51.3124 53.6432 51.7844C53.9152 52.2484 54.0512 52.7884 54.0512 53.4044C54.0512 54.0204 53.9152 54.5644 53.6432 55.0364C53.3792 55.5004 53.0152 55.8644 52.5512 56.1284C52.0872 56.3924 51.5712 56.5244 51.0032 56.5244ZM51.0032 55.1924C51.4032 55.1924 51.7512 55.0444 52.0472 54.7484C52.3432 54.4444 52.4912 53.9964 52.4912 53.4044C52.4912 52.8124 52.3432 52.3684 52.0472 52.0724C51.7512 51.7684 51.4072 51.6164 51.0152 51.6164C50.6072 51.6164 50.2552 51.7684 49.9592 52.0724C49.6712 52.3684 49.5272 52.8124 49.5272 53.4044C49.5272 53.9964 49.6712 54.4444 49.9592 54.7484C50.2552 55.0444 50.6032 55.1924 51.0032 55.1924ZM57.6565 56.5244C56.9125 56.5244 56.3365 56.2924 55.9285 55.8284C55.5285 55.3644 55.3285 54.6844 55.3285 53.7884V50.4284H56.8525V53.6444C56.8525 54.1564 56.9565 54.5484 57.1645 54.8204C57.3725 55.0924 57.7005 55.2284 58.1485 55.2284C58.5725 55.2284 58.9205 55.0764 59.1925 54.7724C59.4725 54.4684 59.6125 54.0444 59.6125 53.5004V50.4284H61.1485V56.3804H59.7925L59.6725 55.3724C59.4885 55.7244 59.2205 56.0044 58.8685 56.2124C58.5245 56.4204 58.1205 56.5244 57.6565 56.5244ZM65.4613 56.5244C64.9013 56.5244 64.4013 56.3884 63.9613 56.1164C63.5213 55.8444 63.1733 55.4724 62.9173 55.0004C62.6613 54.5284 62.5333 53.9924 62.5333 53.3924C62.5333 52.7924 62.6613 52.2604 62.9173 51.7964C63.1733 51.3244 63.5213 50.9564 63.9613 50.6924C64.4013 50.4204 64.9013 50.2844 65.4613 50.2844C65.9093 50.2844 66.3013 50.3684 66.6373 50.5364C66.9733 50.7044 67.2453 50.9404 67.4533 51.2444V47.7404H68.9893V56.3804H67.6213L67.4533 55.5284C67.2613 55.7924 67.0053 56.0244 66.6853 56.2244C66.3733 56.4244 65.9653 56.5244 65.4613 56.5244ZM65.7853 55.1804C66.2813 55.1804 66.6853 55.0164 66.9973 54.6884C67.3173 54.3524 67.4773 53.9244 67.4773 53.4044C67.4773 52.8844 67.3173 52.4604 66.9973 52.1324C66.6853 51.7964 66.2813 51.6284 65.7853 51.6284C65.2973 51.6284 64.8933 51.7924 64.5733 52.1204C64.2533 52.4484 64.0933 52.8724 64.0933 53.3924C64.0933 53.9124 64.2533 54.3404 64.5733 54.6764C64.8933 55.0124 65.2973 55.1804 65.7853 55.1804Z" fill="white"/>
<path d="M55.9312 44.8193H44.8701V39.5837C48.9996 38.0351 49.5895 33.6844 48.5572 31.3984L54.8251 29.1862C58.8071 34.3481 64.264 31.251 65.2226 27.8589H69.9742C69.9742 39.5837 61.0931 44.1802 55.9312 44.8193Z" fill="white"/>
<path d="M37.3771 44.7314L40.7194 44.7741V39.5385C36.9506 38.0414 35.6288 32.4053 38.4329 29.4757C39.0344 28.8473 39.7184 28.3697 40.3507 28.0349V24.4216C38.3211 23.5077 37.2194 22.3338 36.6732 21.1406C35.3178 18.1792 37.2916 14.1225 40.4783 13.4503C41.174 13.3035 41.8349 13.3158 42.4155 13.3605C45.4605 13.5947 47.0091 16.3839 47.2086 17.5637C47.7449 20.7347 45.955 22.8976 44.7752 23.6105V27.0025L46.4712 28.1087L54.0144 26.0152C55.1943 18.7149 63.0108 19.4523 64.9281 23.9054H69.9945C67.7528 17.0623 61.1257 13.848 57.4586 13.3605H52.0018C47.3708 1.91589 38.1186 -0.194218 32.6079 0.0133712C20.7494 0.460088 15.8688 10.4354 14.9101 15.3515C7.94898 14.7025 3.0595 19.4523 1.12055 24.7166C-4.75219 40.661 20.3869 44.5147 37.3771 44.7314Z" fill="white"/>
<path d="M13.5318 44.3767L40.7443 44.8192V39.5098C36.893 37.8379 36.893 34.0541 36.893 34.0541C23.2246 37.8237 0.629214 39.8464 2.37338 25.7754C2.72507 22.9382 4.05542 20.2759 5.49411 18.3462C-5.20716 27.9054 1.43828 43.3443 13.5318 44.3767Z" fill="white"/>
<path d="M55.9312 44.8193H44.8701V39.5837C48.9996 38.0351 49.5895 33.6844 48.5572 31.3984L54.8251 29.1862C58.8071 34.3481 64.264 31.251 65.2226 27.8589H69.9742C69.9742 39.5837 61.0931 44.1802 55.9312 44.8193Z" fill="url(#paint0_linear_1_287)"/>
<path d="M37.3771 44.7314L40.7194 44.7741V39.5385C36.9506 38.0414 35.6288 32.4053 38.4329 29.4757C39.0344 28.8473 39.7184 28.3697 40.3507 28.0349V24.4216C38.3211 23.5077 37.2194 22.3338 36.6732 21.1406C35.3178 18.1792 37.2916 14.1225 40.4783 13.4503C41.174 13.3035 41.8349 13.3158 42.4155 13.3605C45.4605 13.5947 47.0091 16.3839 47.2086 17.5637C47.7449 20.7347 45.955 22.8976 44.7752 23.6105V27.0025L46.4712 28.1087L54.0144 26.0152C55.1943 18.7149 63.0108 19.4523 64.9281 23.9054H69.9945C67.7528 17.0623 61.1257 13.848 57.4586 13.3605H52.0018C47.3708 1.91589 38.1186 -0.194218 32.6079 0.0133712C20.7494 0.460088 15.8688 10.4354 14.9101 15.3515C7.94898 14.7025 3.0595 19.4523 1.12055 24.7166C-4.75219 40.661 20.3869 44.5147 37.3771 44.7314Z" fill="url(#paint1_linear_1_287)"/>
<circle cx="59.767" cy="26.2363" r="2.94963" fill="#FEAD56"/>
<circle cx="41.7338" cy="19.0307" r="2.94963" fill="#FEAD56"/>
<circle cx="42.8066" cy="33.9052" r="2.94963" fill="#FEAD56"/>
<path d="M13.5318 44.3767L40.7443 44.8192V39.5098C36.893 37.8379 36.893 34.0541 36.893 34.0541C23.2246 37.8237 0.629214 39.8464 2.37338 25.7754C2.72507 22.9382 4.05542 20.2759 5.49411 18.3462C-5.20716 27.9054 1.43828 43.3443 13.5318 44.3767Z" fill="#02BDD5"/>
<defs>
<linearGradient id="paint0_linear_1_287" x1="46.5246" y1="44.8193" x2="72.1126" y2="28.4488" gradientUnits="userSpaceOnUse">
<stop stop-color="#02BDD5" stop-opacity="0.8"/>
<stop offset="1" stop-color="#02BDD5" stop-opacity="0.1"/>
</linearGradient>
<linearGradient id="paint1_linear_1_287" x1="50.7282" y1="-3.55482" x2="11.4244" y2="38.2562" gradientUnits="userSpaceOnUse">
<stop stop-color="#02BDD5" stop-opacity="0.35"/>
<stop offset="0.786458" stop-color="#FEAD56" stop-opacity="0.7"/>
</linearGradient>
</defs>
</svg>
