<svg width="16" height="16" viewBox="0 0 16 16" fill="none" xmlns="http://www.w3.org/2000/svg">
<g clip-path="url(#clip0_165_751)">
<path d="M7.09384 0.0623045C5.80946 0.281054 4.78759 0.806054 3.89071 1.70293C2.84696 2.74355 2.28446 4.03418 2.20321 5.5623C2.14071 6.71543 2.51571 8.06543 3.37196 9.7623C4.10634 11.2154 5.04384 12.6529 6.31571 14.2811C6.98446 15.1373 7.57821 15.8373 7.71571 15.9279C7.86259 16.0279 8.13759 16.0279 8.28446 15.9279C8.49696 15.7873 9.80634 14.1686 10.547 13.1404C12.2188 10.8092 13.3407 8.60293 13.6688 6.99043C13.7845 6.4248 13.822 6.00918 13.797 5.5623C13.7157 4.03418 13.1532 2.74355 12.1095 1.70293C11.197 0.787305 10.1313 0.25293 8.82509 0.0498047C8.38759 -0.0189457 7.52821 -0.0126953 7.09384 0.0623045ZM8.79696 3.0123C9.42196 3.1998 9.92509 3.5498 10.3126 4.06855C10.9688 4.94355 11.0751 6.0623 10.5938 7.0498C10.3063 7.64043 9.85009 8.0998 9.26571 8.39043C8.88446 8.58105 8.56884 8.65918 8.10946 8.67793C7.81259 8.69043 7.67196 8.68105 7.43759 8.63105C5.77509 8.2873 4.74696 6.59668 5.22196 4.9873C5.52821 3.95293 6.35009 3.1998 7.44071 2.95293C7.76884 2.87793 8.44696 2.90918 8.79696 3.0123Z" fill="white"/>
</g>
<defs>
<clipPath id="clip0_165_751">
<rect width="16" height="16" fill="white"/>
</clipPath>
</defs>
</svg>
