<svg width="148" height="148" viewBox="0 0 148 148" fill="none" xmlns="http://www.w3.org/2000/svg">
<g filter="url(#filter0_bd_4_6578)">
<rect x="21" y="20" width="106" height="106" rx="17" stroke="white" stroke-opacity="0.8" stroke-width="2" shape-rendering="crispEdges"/>
</g>
<path d="M89.8752 42.2621C87.8377 42.4996 85.2752 43.4871 83.4627 44.7371C82.4377 45.4496 80.8877 46.9621 80.0752 48.0371C78.9002 49.6121 77.9127 51.9496 77.5627 53.9746C77.3627 55.0871 77.3252 57.6621 77.4877 58.6371L77.5752 59.2121L76.7002 58.9246C74.9752 58.3871 74.3627 58.3621 63.8127 58.3996C53.9002 58.4496 53.8002 58.4496 52.7502 58.7246C51.6002 59.0371 49.8752 59.7371 49.0377 60.2371C48.3752 60.6371 48.1627 61.0996 48.3752 61.6246C48.7127 62.4246 49.1377 62.4371 50.7877 61.6246C51.4877 61.2871 52.5127 60.8871 53.0627 60.7246L54.0627 60.4371H64.4377H74.8127L75.9127 60.7871C80.8252 62.3246 84.1627 66.3121 84.7502 71.3371C84.8877 72.4996 84.7877 74.3746 84.5502 75.1371C84.5002 75.3246 84.1877 75.3496 82.2127 75.4121C80.4252 75.4496 79.7252 75.5246 78.9627 75.7246C74.7752 76.8621 71.5252 79.4871 69.6377 83.2621C69.2877 83.9496 69.0002 84.5996 69.0002 84.7121C69.0002 84.8621 68.0752 84.8871 61.7252 84.8371C54.7877 84.7996 54.3877 84.7871 53.4377 84.5246C48.9627 83.3496 45.7627 80.2871 44.4127 75.9121C44.1002 74.8996 44.0752 74.6371 44.0752 72.6246C44.0627 70.6996 44.1002 70.3121 44.3502 69.4371C44.7377 68.0996 45.5752 66.3746 46.3627 65.3121C46.8002 64.7121 47.0002 64.3246 47.0002 64.0496C47.0002 63.5246 46.5502 63.1246 45.9752 63.1246C45.5877 63.1246 45.4377 63.2121 45.0252 63.7121C43.9502 64.9621 42.9127 67.0371 42.3377 69.0996C42.1127 69.9371 42.0752 70.3871 42.0752 72.5621C42.0752 74.7496 42.1127 75.1871 42.3502 76.0371C43.0877 78.6871 44.1877 80.6496 46.0002 82.4996C47.6877 84.2246 49.4627 85.3621 51.5752 86.0746C53.6752 86.7746 53.7752 86.7871 61.3502 86.8371L68.3752 86.8871L68.2877 87.5996C68.1377 88.6996 68.1877 91.2121 68.3752 92.1871C68.9002 94.9996 70.1377 97.3496 72.1627 99.4621C74.5002 101.887 77.5127 103.375 80.7877 103.737C82.4252 103.925 83.2002 103.912 83.6127 103.687C84.1877 103.4 84.3002 102.762 83.8752 102.225C83.6502 101.937 83.5377 101.912 82.2252 101.837C81.4502 101.8 80.4127 101.675 79.9252 101.575C74.8752 100.487 70.9752 96.2996 70.2627 91.1996C69.9877 89.2496 70.2127 87.2496 70.9252 85.3621C72.2877 81.7121 75.2127 78.9996 79.0752 77.7871L80.1877 77.4371H87.0627C93.8502 77.4371 93.9502 77.4371 94.9377 77.7246C98.3252 78.6871 101.213 81.0746 102.75 84.1871C103.763 86.2371 103.938 87.0496 103.925 89.6246C103.925 91.6496 103.9 91.8996 103.575 92.9371C102.288 97.1496 98.9752 100.35 94.7877 101.462C93.6752 101.75 93.2752 101.787 90.4627 101.837C86.9502 101.912 86.8627 101.937 86.8377 102.8C86.8252 103.187 86.9002 103.35 87.1877 103.6L87.5502 103.912L90.6877 103.837C94.0252 103.762 95.0127 103.625 96.7502 102.962C100.425 101.575 103.55 98.5621 104.963 95.0621C105.688 93.2496 105.9 92.2371 105.963 90.2246C106.075 87.2371 105.688 85.4371 104.425 82.9996C102.613 79.4996 99.2627 76.8121 95.4377 75.7871C94.2377 75.4621 94.0377 75.4496 90.3877 75.3996L86.6002 75.3496L86.6627 74.7746C86.8502 73.2746 86.8877 72.2246 86.7627 71.1996C86.6877 70.5746 86.6502 70.0621 86.6752 70.0371C86.7002 70.0121 86.8752 70.0496 87.0752 70.1371C87.8502 70.4246 89.6252 70.7496 90.8752 70.8246C92.3502 70.9121 93.9627 70.7496 95.4127 70.3746C96.7002 70.0371 98.6002 69.2121 98.9877 68.8246C99.6252 68.1746 99.2502 67.1246 98.3752 67.1246C98.1877 67.1246 97.5002 67.3746 96.8627 67.6746C95.0377 68.5246 93.7877 68.7996 91.6877 68.7996C89.6627 68.7996 88.3502 68.5371 86.8127 67.8246C85.9002 67.3996 85.8877 67.3871 85.5002 66.5496C84.5877 64.5246 82.5502 62.0996 80.7377 60.8746L79.9002 60.3121L79.6752 59.3746C79.3127 57.9246 79.3377 54.7746 79.7252 53.4496C80.4127 51.0871 81.4752 49.2746 83.1502 47.6871C84.8627 46.0371 86.5127 45.1121 88.6752 44.5621C92.9127 43.4871 97.1002 44.6371 100.288 47.7371C101.913 49.3121 102.988 51.1246 103.65 53.4496C104.038 54.7871 104.063 58.0996 103.713 59.3746C103.275 60.9121 102.725 62.1246 101.963 63.2746C101.538 63.8996 101.088 64.5621 100.975 64.7371C100.663 65.1871 100.7 65.5871 101.063 65.9371C101.538 66.4246 102.113 66.3621 102.65 65.7746C104.163 64.1121 105.388 61.4746 105.813 59.0246C106.05 57.6621 106.05 55.3246 105.813 53.9746C105.45 51.9121 104.5 49.6871 103.25 47.9996C102.475 46.9496 100.775 45.3121 99.7752 44.6371C96.8877 42.6996 93.4127 41.8621 89.8752 42.2621Z" fill="white"/>
<path d="M87.4123 51.3005L87.0623 51.6005L86.9998 55.513L86.9373 59.4255L86.5998 59.613C86.2998 59.788 86.2373 59.7755 85.7873 59.463C85.1998 59.063 84.7748 59.038 84.3248 59.388C83.6748 59.9005 83.9998 60.863 85.0123 61.3755C86.4623 62.113 88.1373 61.588 88.7623 60.188C88.9748 59.738 88.9998 59.288 88.9998 55.6005V51.513L88.6748 51.263C88.2373 50.913 87.8373 50.938 87.4123 51.3005Z" fill="white"/>
<path d="M93.5626 51.3862C93.1251 51.5487 92.4126 52.0612 92.1001 52.4362C91.8376 52.7487 91.5001 53.6862 91.5001 54.1112C91.5001 55.0612 92.1251 56.0487 92.9876 56.4862C93.2376 56.6112 93.9751 56.9237 94.6251 57.1862C96.4626 57.8987 96.8251 58.2612 96.4501 58.9737C96.1001 59.6487 95.0626 59.9237 94.1126 59.6112C93.8751 59.5237 93.4001 59.2487 93.0501 58.9862C92.1751 58.3112 91.5376 58.3362 91.1751 59.0237C90.8876 59.5737 91.1126 60.0987 91.8751 60.6737C93.5376 61.9362 95.8626 62.0862 97.3376 61.0112C98.5626 60.1237 98.9501 58.4612 98.2126 57.2112C97.7376 56.3987 97.1376 55.9987 95.3501 55.2862C93.7001 54.6362 93.3876 54.3737 93.6376 53.8362C93.8126 53.4362 94.2376 53.2487 94.9501 53.2487C95.4626 53.2487 95.7126 53.3362 96.8376 53.9237C97.5501 54.2987 98.3001 53.8612 98.3001 53.0612C98.3001 52.5112 98.0126 52.2112 97.0251 51.7237C96.3251 51.3737 96.0626 51.3112 95.0751 51.2862C94.4501 51.2737 93.7751 51.3112 93.5626 51.3862Z" fill="white"/>
<path d="M52.2627 67.6995C52.0127 68.0245 52.0002 68.162 52.0002 72.612C52.0127 77.5245 52.0002 77.487 52.6627 77.737C53.0627 77.8995 53.7002 77.6995 53.8752 77.3745C53.9502 77.2495 54.0002 76.462 54.0002 75.637V74.1245H54.9127C56.1377 74.1245 56.9627 73.862 57.6502 73.2495C58.4002 72.5995 58.7627 71.737 58.7627 70.6745C58.7627 69.3245 58.0752 68.262 56.8127 67.6745C56.2502 67.3995 56.0127 67.3745 54.3502 67.3745C52.5252 67.3745 52.5127 67.3745 52.2627 67.6995ZM56.3252 69.7995C56.6627 70.137 56.7502 70.3245 56.7502 70.712C56.7502 71.6495 56.1127 72.1245 54.8127 72.1245H54.0002V70.7495V69.3745H54.9502C55.8627 69.3745 55.9127 69.387 56.3252 69.7995Z" fill="white"/>
<path d="M60.6252 67.6246C60.3877 67.8621 60.3752 68.0371 60.3752 72.5496C60.3752 76.9246 60.3877 77.2371 60.6127 77.5121C60.9502 77.9371 61.6877 77.9121 62.0752 77.4496C62.3627 77.1246 62.3752 77.0246 62.3752 75.2371V73.3746H64.3127H66.2502V75.2996C66.2502 76.9871 66.2752 77.2621 66.4877 77.5121C66.8252 77.9371 67.5627 77.9121 67.9502 77.4496L68.2502 77.1121V72.5746C68.2502 68.1746 68.2377 68.0246 67.9877 67.6996C67.6627 67.2871 66.8877 67.2371 66.5002 67.6246C66.2752 67.8496 66.2502 68.0371 66.2502 69.6871V71.4996H64.3127H62.3752V69.7621C62.3752 68.1996 62.3502 67.9996 62.1127 67.6996C61.7877 67.2871 61.0127 67.2371 60.6252 67.6246Z" fill="white"/>
<path d="M70.8752 67.6246C70.6377 67.8621 70.6252 68.0371 70.6252 72.5496C70.6252 76.9246 70.6377 77.2371 70.8627 77.5121C71.2002 77.9371 71.9377 77.9121 72.3252 77.4496C72.6002 77.1371 72.6252 77.0121 72.6252 75.6371V74.1496L73.7877 74.0996C74.7627 74.0621 75.0377 73.9996 75.6002 73.6871C76.8377 73.0121 77.4627 71.8496 77.3502 70.4496C77.2752 69.5246 76.9252 68.8121 76.3002 68.2496C75.4252 67.4871 75.0252 67.3746 72.9752 67.3746C71.2877 67.3746 71.1002 67.3996 70.8752 67.6246ZM74.7252 69.5746C75.0502 69.7996 75.3752 70.3871 75.3752 70.7496C75.3752 71.5871 74.6002 72.1246 73.3877 72.1246H72.6252V70.7496V69.3746H73.5377C74.1627 69.3746 74.5377 69.4371 74.7252 69.5746Z" fill="white"/>
<path d="M92.1624 81.2745C91.9624 81.487 91.7749 82.1495 91.4249 83.837L90.9499 86.1245H89.7999C88.7749 86.1245 88.5999 86.162 88.3249 86.3995C87.8749 86.812 87.8374 87.462 88.2499 87.8745C88.4624 88.087 88.6624 88.1245 89.5124 88.1245C90.4999 88.1245 90.5249 88.137 90.4749 88.3995C90.4374 88.562 90.2749 89.3495 90.1124 90.1495L89.8249 91.6245H88.7249C87.4749 91.6245 87.0624 91.762 86.8874 92.262C86.7374 92.6995 86.9249 93.3245 87.2499 93.4995C87.3749 93.5745 87.9124 93.6245 88.4249 93.6245C88.9499 93.6245 89.3749 93.6495 89.3749 93.6745C89.3749 93.6995 89.1749 94.662 88.9374 95.812C88.6874 96.9745 88.5374 98.0245 88.5749 98.1995C88.7499 98.8745 89.7374 99.112 90.2249 98.587C90.4124 98.387 90.5999 97.7245 90.9624 95.9745L91.4374 93.6245H92.2999C92.9249 93.6245 93.1374 93.662 93.0999 93.7745C93.0624 93.862 92.8499 94.8745 92.6124 96.0245L92.1874 98.112L92.4499 98.462C92.6499 98.7245 92.8374 98.8245 93.1999 98.8495C94.0124 98.912 94.1499 98.662 94.6999 95.962L95.1749 93.6245H96.3499C96.9874 93.6245 97.6249 93.5745 97.7499 93.4995C98.0624 93.337 98.2624 92.687 98.1249 92.3245C97.9249 91.7995 97.5249 91.6245 96.5249 91.6245C95.6249 91.6245 95.5999 91.612 95.6499 91.337C95.6874 91.187 95.8499 90.3995 96.0124 89.587L96.2999 88.1245H97.5124C98.5124 88.1245 98.7749 88.087 99.0124 87.887C99.4374 87.5495 99.4124 86.812 98.9499 86.4245C98.6624 86.162 98.4749 86.1245 97.6749 86.1245C97.1624 86.1245 96.7499 86.112 96.7499 86.087C96.7499 86.0745 96.9374 85.137 97.1749 84.012C97.5124 82.3995 97.5749 81.8995 97.4749 81.612C97.1874 80.7745 95.9374 80.762 95.6624 81.587C95.5874 81.787 95.3499 82.8745 95.1124 84.0245L94.6874 86.1245H93.8374C93.0249 86.1245 92.9999 86.112 93.0624 85.837C93.5124 83.862 93.8624 81.9245 93.7999 81.6745C93.6249 80.9995 92.6374 80.762 92.1624 81.2745ZM94.2499 88.212C94.2374 88.2745 94.0874 89.037 93.8999 89.937L93.5499 91.562L92.6999 91.5995C91.8624 91.637 91.8499 91.6245 91.9124 91.3495C91.9499 91.187 92.0999 90.4745 92.2499 89.7495C92.3999 89.0245 92.5374 88.362 92.5624 88.2745C92.6249 88.112 94.2499 88.0495 94.2499 88.212Z" fill="white"/>
<path d="M79.7747 84.9865C78.8622 85.324 78.3747 85.649 77.6997 86.374C75.7372 88.4615 75.8497 91.7615 77.9372 93.7365C79.0872 94.8365 80.6747 95.3365 82.2497 95.124C83.9497 94.8865 85.3997 93.7115 85.1872 92.7365C85.0122 91.9615 84.1497 91.774 83.4747 92.3615C82.4872 93.224 81.2872 93.4115 80.1872 92.874C79.1622 92.374 78.2497 90.999 78.2497 89.9365C78.2497 89.199 78.6622 88.324 79.2872 87.699C80.3122 86.6865 81.6747 86.449 82.9747 87.0615C83.7872 87.4365 84.2872 87.4615 84.6247 87.124C84.9247 86.824 84.9497 86.174 84.6997 85.799C84.5997 85.6615 84.1622 85.374 83.7247 85.174C82.6747 84.699 80.8122 84.6115 79.7747 84.9865Z" fill="white"/>
<defs>
<filter id="filter0_bd_4_6578" x="0" y="-1" width="148" height="149" filterUnits="userSpaceOnUse" color-interpolation-filters="sRGB">
<feFlood flood-opacity="0" result="BackgroundImageFix"/>
<feGaussianBlur in="BackgroundImageFix" stdDeviation="10"/>
<feComposite in2="SourceAlpha" operator="in" result="effect1_backgroundBlur_4_6578"/>
<feColorMatrix in="SourceAlpha" type="matrix" values="0 0 0 0 0 0 0 0 0 0 0 0 0 0 0 0 0 0 127 0" result="hardAlpha"/>
<feMorphology radius="4" operator="dilate" in="SourceAlpha" result="effect2_dropShadow_4_6578"/>
<feOffset dy="1"/>
<feGaussianBlur stdDeviation="8"/>
<feComposite in2="hardAlpha" operator="out"/>
<feColorMatrix type="matrix" values="0 0 0 0 0 0 0 0 0 0 0 0 0 0 0 0 0 0 0.15 0"/>
<feBlend mode="normal" in2="effect1_backgroundBlur_4_6578" result="effect2_dropShadow_4_6578"/>
<feBlend mode="normal" in="SourceGraphic" in2="effect2_dropShadow_4_6578" result="shape"/>
</filter>
</defs>
</svg>
