<svg width="28" height="28" viewBox="0 0 28 28" fill="none" xmlns="http://www.w3.org/2000/svg">
<g clip-path="url(#clip0_165_2548)">
<path d="M2.35694 0.0873985C1.53663 0.306149 0.688973 0.989742 0.338973 1.71162C-0.0274332 2.4663 -0.00555819 1.72802 0.0108481 12.3921L0.0272543 22.0663L0.185848 22.4491C0.508504 23.2257 0.989754 23.7726 1.68429 24.1335C2.40616 24.5163 2.16007 24.4999 7.6835 24.4999C12.5507 24.4999 12.6655 24.4944 12.8405 24.3905C13.3601 24.0733 13.3819 23.2093 12.8679 22.8757C12.7312 22.7827 12.4249 22.7772 7.82022 22.7499L2.92569 22.7226L2.61397 22.5694C2.26397 22.3999 2.06163 22.1866 1.8921 21.8202L1.77725 21.5741V12.2499V2.92568L1.93038 2.61396C2.09991 2.26396 2.31319 2.06162 2.6796 1.89209C2.92569 1.77724 2.93663 1.77724 9.92569 1.77724C16.9093 1.77724 16.9257 1.77724 17.1718 1.89209C17.4944 2.03974 17.7569 2.30771 17.9155 2.65224L18.0468 2.92568V6.3163V9.7124L18.1726 9.95302C18.4788 10.5655 19.2882 10.6093 19.7093 10.0405C19.8241 9.89287 19.8241 9.84365 19.8241 6.24521C19.8241 2.63037 19.8241 2.59208 19.7038 2.21474C19.4687 1.46005 18.8507 0.727243 18.1616 0.360836C17.4288 -0.0219765 17.921 -0.000101089 9.89288 0.00536728C3.75694 0.00536728 2.6085 0.0217743 2.35694 0.0873985Z" fill="white"/>
<path d="M3.94844 4.74141C3.65859 4.88359 3.5 5.1625 3.5 5.52891C3.5 5.86797 3.62031 6.10313 3.89922 6.31094C4.05234 6.42578 4.09609 6.42578 7 6.42578C9.90391 6.42578 9.94766 6.42578 10.1008 6.31094C10.3742 6.10859 10.5 5.86797 10.5 5.53438C10.5 5.1625 10.3523 4.90547 10.057 4.75781C9.85469 4.65391 9.72891 4.64844 6.98906 4.64844C4.45156 4.64844 4.10703 4.65938 3.94844 4.74141Z" fill="white"/>
<path d="M4.04688 9.35703C3.70234 9.49375 3.5 9.82187 3.5 10.232C3.5 10.5875 3.65313 10.8445 3.94297 10.9922C4.14531 11.1016 4.29297 11.1016 9.94219 11.1016H15.7336L15.9195 10.9758C16.018 10.9102 16.1602 10.768 16.2313 10.6641C16.3406 10.5055 16.357 10.4234 16.3406 10.1555C16.3133 9.77813 16.193 9.59219 15.8594 9.41719L15.6188 9.29688L9.89844 9.30234C6.23984 9.30234 4.13438 9.32422 4.04688 9.35703Z" fill="white"/>
<path d="M17.6094 12.7365C15.8813 13.3271 14.3992 13.8521 14.3172 13.9068C14 14.1256 14 14.1037 14 17.2428C14 20.3873 14.0164 20.5896 14.3281 21.5686C14.5469 22.2412 14.7109 22.6131 15.0664 23.2146C16.0945 24.9646 17.9484 26.6053 20.1305 27.7045C21.0109 28.1475 21.2078 28.1201 22.5039 27.3709C23.625 26.7201 24.4617 26.0857 25.3422 25.2217C26.507 24.0732 27.2344 22.9357 27.6664 21.585C27.9836 20.5896 28 20.3928 28 17.2428C28 14.0654 28.0055 14.1146 27.65 13.8904C27.3383 13.699 21.2242 11.6482 20.9781 11.6537C20.8414 11.6537 19.5344 12.0748 17.6094 12.7365ZM23.6469 14.3935L26.2609 15.285L26.2336 17.6365C26.2008 20.2178 26.1898 20.3654 25.8453 21.2787C25.2383 22.9029 23.7508 24.4943 21.7 25.7193C21.3664 25.9217 21.0547 26.0857 21.0055 26.0857C20.8633 26.0857 19.7477 25.4021 19.1023 24.9209C18.4297 24.4178 17.4891 23.499 17.0789 22.9467C16.6852 22.4107 16.3625 21.8311 16.1547 21.2787C15.8102 20.3654 15.7992 20.2178 15.7664 17.6365L15.7391 15.285L18.3313 14.399C19.7531 13.9123 20.9398 13.5131 20.9727 13.5131C21 13.5076 22.2031 13.9068 23.6469 14.3935Z" fill="white"/>
<path d="M23.8273 16.3896C23.6469 16.4662 23.4008 16.7615 22.1375 18.4514C21.3227 19.5396 20.6445 20.4365 20.6336 20.4475C20.6227 20.4639 20.2289 20.0865 19.7531 19.6217C19.2828 19.1514 18.8234 18.7412 18.7414 18.7084C18.3422 18.5553 17.8609 18.692 17.6313 19.0256C17.4781 19.2553 17.4508 19.7092 17.5766 19.9498C17.675 20.1248 20.1578 22.6021 20.3273 22.6896C20.5133 22.7826 20.9891 22.7607 21.175 22.6514C21.3664 22.542 25.025 17.6803 25.0797 17.467C25.1344 17.2482 25.0688 16.8435 24.9539 16.685C24.8227 16.5045 24.418 16.2967 24.1992 16.3021C24.1117 16.3021 23.9422 16.3404 23.8273 16.3896Z" fill="white"/>
<path d="M3.89375 14.1094C3.63125 14.2734 3.5 14.5195 3.5 14.875C3.5 15.2305 3.63125 15.4766 3.89375 15.6406C4.06875 15.7445 4.17812 15.75 7.57969 15.75H11.0852L11.2656 15.6242C11.5773 15.4164 11.6758 15.2359 11.6758 14.875C11.6758 14.5141 11.5773 14.3336 11.2656 14.1203L11.0852 14H7.57969C4.17812 14 4.06875 14.0055 3.89375 14.1094Z" fill="white"/>
</g>
<defs>
<clipPath id="clip0_165_2548">
<rect width="28" height="28" fill="white"/>
</clipPath>
</defs>
</svg>
