<svg width="197" height="318" viewBox="0 0 197 318" fill="none" xmlns="http://www.w3.org/2000/svg">
<line x1="21" y1="0.5" x2="196" y2="0.5" stroke="white"/>
<line x1="21" y1="317.5" x2="196" y2="317.5" stroke="white"/>
<line x1="21.5" y1="233" x2="21.5" y2="318" stroke="white"/>
<line x1="196.5" y1="2.18557e-08" x2="196.5" y2="20" stroke="white"/>
<line x1="196.5" y1="244" x2="196.5" y2="318" stroke="white"/>
<mask id="path-6-outside-1_686_1000" maskUnits="userSpaceOnUse" x="6" y="97" width="29" height="125" fill="black">
<rect fill="white" x="6" y="97" width="29" height="125"/>
<path d="M33 212.857V218.43L28.8867 218.395V212.857C28.8867 211.475 28.5762 210.309 27.9551 209.359C27.3223 208.41 26.4023 207.695 25.1953 207.215C23.9883 206.723 22.5293 206.477 20.8184 206.477H19.5703C18.2578 206.477 17.1035 206.617 16.1074 206.898C15.1113 207.168 14.2734 207.572 13.5938 208.111C12.9141 208.65 12.4043 209.312 12.0645 210.098C11.7129 210.883 11.5371 211.785 11.5371 212.805V218.535H7.40625L7.40625 212.805C7.40625 211.094 7.69922 209.529 8.28516 208.111C8.85938 206.682 9.68555 205.445 10.7637 204.402C11.8418 203.359 13.1309 202.557 14.6309 201.994C16.1191 201.42 17.7773 201.133 19.6055 201.133H20.8184C22.6348 201.133 24.293 201.42 25.793 201.994C27.293 202.557 28.582 203.359 29.6602 204.402C30.7266 205.434 31.5527 206.67 32.1387 208.111C32.7129 209.541 33 211.123 33 212.857ZM7.40625 215.441H33V220.715H7.40625L7.40625 215.441ZM28.8867 180.127H33V193.75H28.8867V180.127ZM7.40625 192.027H33V197.301H7.40625V192.027ZM17.8301 181.902H21.8379V193.75H17.8301V181.902ZM7.40625 180.145H11.5371V193.75H7.40625L7.40625 180.145ZM26.3027 163.727C25.8457 163.727 25.4355 163.797 25.0723 163.938C24.6973 164.066 24.3574 164.312 24.0527 164.676C23.7363 165.039 23.4258 165.549 23.1211 166.205C22.8164 166.861 22.5 167.711 22.1719 168.754C21.7969 169.914 21.375 171.016 20.9063 172.059C20.4375 173.09 19.8926 174.004 19.2715 174.801C18.6387 175.586 17.9063 176.207 17.0742 176.664C16.2422 177.109 15.2754 177.332 14.1738 177.332C13.1074 177.332 12.1406 177.098 11.2734 176.629C10.3945 176.16 9.64453 175.504 9.02344 174.66C8.39063 173.816 7.9043 172.82 7.56445 171.672C7.22461 170.512 7.05469 169.24 7.05469 167.857C7.05469 165.971 7.39453 164.324 8.07422 162.918C8.75391 161.512 9.68555 160.422 10.8691 159.648C12.0527 158.863 13.4063 158.471 14.9297 158.471V163.709C14.1797 163.709 13.5234 163.867 12.9609 164.184C12.3867 164.488 11.9355 164.957 11.6074 165.59C11.2793 166.211 11.1152 166.996 11.1152 167.945C11.1152 168.859 11.2559 169.621 11.5371 170.23C11.8066 170.84 12.1758 171.297 12.6445 171.602C13.1016 171.906 13.6172 172.059 14.1914 172.059C14.625 172.059 15.0176 171.953 15.3691 171.742C15.7207 171.52 16.0488 171.191 16.3535 170.758C16.6582 170.324 16.9453 169.791 17.2148 169.158C17.4844 168.525 17.748 167.793 18.0059 166.961C18.4277 165.566 18.9023 164.342 19.4297 163.287C19.957 162.221 20.5488 161.33 21.2051 160.615C21.8613 159.9 22.6055 159.361 23.4375 158.998C24.2695 158.635 25.2129 158.453 26.2676 158.453C27.3809 158.453 28.377 158.67 29.2559 159.104C30.1348 159.537 30.8789 160.164 31.4883 160.984C32.0977 161.805 32.5605 162.783 32.877 163.92C33.1934 165.057 33.3516 166.328 33.3516 167.734C33.3516 169 33.1875 170.248 32.8594 171.479C32.5195 172.709 32.0098 173.828 31.3301 174.836C30.6504 175.832 29.7832 176.629 28.7285 177.227C27.6738 177.824 26.4258 178.123 24.9844 178.123V172.832C25.7813 172.832 26.4551 172.709 27.0059 172.463C27.5566 172.217 28.002 171.871 28.3418 171.426C28.6816 170.969 28.9277 170.43 29.0801 169.809C29.2324 169.176 29.3086 168.484 29.3086 167.734C29.3086 166.82 29.1797 166.07 28.9219 165.484C28.6641 164.887 28.3066 164.447 27.8496 164.166C27.3926 163.873 26.877 163.727 26.3027 163.727ZM7.40625 149.26H33V154.516H7.40625V149.26ZM19.623 124.035H29.7656C30.2461 124.434 30.7676 125.049 31.3301 125.881C31.8809 126.713 32.3555 127.785 32.7539 129.098C33.1523 130.41 33.3516 131.998 33.3516 133.861C33.3516 135.514 33.082 137.02 32.543 138.379C31.9922 139.738 31.1895 140.91 30.1348 141.895C29.0801 142.867 27.791 143.617 26.2676 144.145C24.7324 144.672 22.9805 144.936 21.0117 144.936H19.4121C17.4434 144.936 15.6914 144.684 14.1563 144.18C12.6211 143.664 11.3262 142.932 10.2715 141.982C9.2168 141.033 8.41406 139.902 7.86328 138.59C7.3125 137.277 7.03711 135.818 7.03711 134.213C7.03711 131.986 7.40039 130.158 8.12695 128.729C8.8418 127.299 9.83789 126.209 11.1152 125.459C12.3809 124.697 13.834 124.229 15.4746 124.053V129.168C14.6074 129.297 13.8516 129.543 13.207 129.906C12.5625 130.27 12.0586 130.791 11.6953 131.471C11.332 132.139 11.1504 133.006 11.1504 134.072C11.1504 134.951 11.332 135.736 11.6953 136.428C12.0469 137.107 12.5684 137.682 13.2598 138.15C13.9512 138.619 14.8066 138.977 15.8262 139.223C16.8457 139.469 18.0293 139.592 19.377 139.592H21.0117C22.3477 139.592 23.5313 139.463 24.5625 139.205C25.582 138.947 26.4434 138.566 27.1465 138.062C27.8379 137.547 28.3594 136.914 28.7109 136.164C29.0625 135.414 29.2383 134.541 29.2383 133.545C29.2383 132.713 29.168 132.021 29.0273 131.471C28.8867 130.908 28.7168 130.457 28.5176 130.117C28.3066 129.766 28.1074 129.496 27.9199 129.309H23.3848V134.125H19.623V124.035ZM7.40625 98.9512H33V104.225L15.8438 114.508H33V119.781H7.40625V114.508L24.5801 104.207H7.40625L7.40625 98.9512Z"/>
</mask>
<path d="M33 218.43L32.9915 219.43L34 219.438V218.43H33ZM28.8867 218.395H27.8867V219.386L28.8782 219.394L28.8867 218.395ZM27.9551 209.359L28.7919 208.812L28.7871 208.805L27.9551 209.359ZM25.1953 207.215L24.8177 208.141L24.8255 208.144L25.1953 207.215ZM16.1074 206.898L16.3686 207.864L16.3792 207.861L16.1074 206.898ZM12.0645 210.098L12.9772 210.506L12.9822 210.495L12.0645 210.098ZM11.5371 218.535V219.535H12.5371V218.535H11.5371ZM7.40625 218.535H6.40625V219.535H7.40625V218.535ZM8.28516 208.111L9.2094 208.493L9.21311 208.484L8.28516 208.111ZM14.6309 201.994L14.982 202.931L14.9908 202.927L14.6309 201.994ZM25.793 201.994L25.4354 202.928L25.4418 202.93L25.793 201.994ZM29.6602 204.402L28.9649 205.121L28.965 205.121L29.6602 204.402ZM32.1387 208.111L33.0666 207.739L33.0651 207.735L32.1387 208.111ZM7.40625 215.441V214.441H6.40625V215.441H7.40625ZM33 215.441H34V214.441H33V215.441ZM33 220.715V221.715H34V220.715H33ZM7.40625 220.715H6.40625V221.715H7.40625V220.715ZM32 212.857V218.43H34V212.857H32ZM33.0085 217.43L28.8953 217.395L28.8782 219.394L32.9915 219.43L33.0085 217.43ZM29.8867 218.395V212.857H27.8867V218.395H29.8867ZM29.8867 212.857C29.8867 211.323 29.5408 209.956 28.7919 208.812L27.1183 209.907C27.6116 210.661 27.8867 211.626 27.8867 212.857H29.8867ZM28.7871 208.805C28.0266 207.664 26.9336 206.83 25.5651 206.286L24.8255 208.144C25.8711 208.56 26.6179 209.156 27.123 209.914L28.7871 208.805ZM25.5729 206.289C24.2149 205.735 22.6203 205.477 20.8184 205.477V207.477C22.4383 207.477 23.7617 207.71 24.8177 208.141L25.5729 206.289ZM20.8184 205.477H19.5703V207.477H20.8184V205.477ZM19.5703 205.477C18.1893 205.477 16.9401 205.624 15.8357 205.936L16.3792 207.861C17.2669 207.61 18.3264 207.477 19.5703 207.477V205.477ZM15.8462 205.933C14.7434 206.232 13.7767 206.69 12.9724 207.328L14.2151 208.895C14.7702 208.455 15.4793 208.104 16.3686 207.864L15.8462 205.933ZM12.9724 207.328C12.1655 207.968 11.553 208.762 11.1467 209.7L12.9822 210.495C13.2556 209.863 13.6627 209.333 14.2151 208.895L12.9724 207.328ZM11.1518 209.689C10.733 210.624 10.5371 211.67 10.5371 212.805H12.5371C12.5371 211.9 12.6928 211.141 12.9771 210.506L11.1518 209.689ZM10.5371 212.805V218.535H12.5371V212.805H10.5371ZM11.5371 217.535H7.40625V219.535H11.5371V217.535ZM8.40625 218.535V212.805H6.40625L6.40625 218.535H8.40625ZM8.40625 212.805C8.40625 211.21 8.67892 209.777 9.20936 208.493L7.36095 207.729C6.71952 209.282 6.40625 210.978 6.40625 212.805H8.40625ZM9.21311 208.484C9.73641 207.181 10.4846 206.064 11.459 205.121L10.0684 203.684C8.88648 204.827 7.98234 206.182 7.35721 207.739L9.21311 208.484ZM11.459 205.121C12.4319 204.18 13.6016 203.448 14.982 202.93L14.2797 201.058C12.6602 201.665 11.2517 202.539 10.0684 203.684L11.459 205.121ZM14.9908 202.927C16.3488 202.403 17.8827 202.133 19.6055 202.133V200.133C17.672 200.133 15.8895 200.437 14.2709 201.061L14.9908 202.927ZM19.6055 202.133H20.8184V200.133H19.6055V202.133ZM20.8184 202.133C22.5284 202.133 24.0635 202.403 25.4355 202.928L26.1505 201.06C24.5224 200.437 22.7411 200.133 20.8184 200.133V202.133ZM25.4418 202.93C26.8223 203.448 27.9919 204.18 28.9649 205.121L30.3554 203.684C29.1722 202.539 27.7637 201.665 26.1441 201.058L25.4418 202.93ZM28.965 205.121C29.9265 206.051 30.6762 207.169 31.2123 208.488L33.0651 207.735C32.4293 206.171 31.5266 204.816 30.3553 203.683L28.965 205.121ZM31.2107 208.484C31.7317 209.781 32 211.235 32 212.857H34C34 211.011 33.694 209.301 33.0666 207.739L31.2107 208.484ZM7.40625 216.441H33V214.441H7.40625L7.40625 216.441ZM32 215.441V220.715H34V215.441H32ZM33 219.715H7.40625V221.715H33V219.715ZM8.40625 220.715V215.441H6.40625L6.40625 220.715H8.40625ZM28.8867 180.127V179.127H27.8867V180.127H28.8867ZM33 180.127H34V179.127H33V180.127ZM33 193.75V194.75H34V193.75H33ZM28.8867 193.75H27.8867L27.8867 194.75H28.8867L28.8867 193.75ZM7.40625 192.027V191.027H6.40625V192.027H7.40625ZM33 192.027H34V191.027H33V192.027ZM33 197.301V198.301H34V197.301H33ZM7.40625 197.301H6.40625V198.301H7.40625V197.301ZM17.8301 181.902V180.902H16.8301V181.902H17.8301ZM21.8379 181.902H22.8379V180.902H21.8379V181.902ZM21.8379 193.75L21.8379 194.75H22.8379L22.8379 193.75H21.8379ZM17.8301 193.75H16.8301L16.8301 194.75H17.8301L17.8301 193.75ZM7.40625 180.145V179.145H6.40625V180.145H7.40625ZM11.5371 180.145H12.5371L12.5371 179.145H11.5371L11.5371 180.145ZM11.5371 193.75V194.75H12.5371V193.75H11.5371ZM7.40625 193.75H6.40625V194.75H7.40625V193.75ZM28.8867 181.127H33V179.127H28.8867V181.127ZM32 180.127V193.75H34V180.127H32ZM33 192.75H28.8867L28.8867 194.75H33V192.75ZM29.8867 193.75V180.127H27.8867V193.75H29.8867ZM7.40625 193.027H33V191.027H7.40625V193.027ZM32 192.027V197.301H34V192.027H32ZM33 196.301H7.40625V198.301H33V196.301ZM8.40625 197.301V192.027H6.40625V197.301H8.40625ZM17.8301 182.902H21.8379V180.902H17.8301V182.902ZM20.8379 181.902V193.75H22.8379V181.902H20.8379ZM21.8379 192.75H17.8301L17.8301 194.75H21.8379L21.8379 192.75ZM18.8301 193.75V181.902H16.8301V193.75H18.8301ZM7.40625 181.145H11.5371L11.5371 179.145H7.40625V181.145ZM10.5371 180.145V193.75H12.5371V180.145H10.5371ZM11.5371 192.75H7.40625V194.75H11.5371V192.75ZM8.40625 193.75V180.145H6.40625L6.40625 193.75H8.40625ZM25.0723 163.938L25.3973 164.883L25.4154 164.877L25.4333 164.87L25.0723 163.938ZM24.0527 164.676L24.8068 165.333L24.8129 165.326L24.8189 165.318L24.0527 164.676ZM22.1719 168.754L23.1234 169.061L23.1258 169.054L22.1719 168.754ZM20.9063 172.059L21.8166 172.472L21.8184 172.469L20.9063 172.059ZM19.2715 174.801L20.0501 175.428L20.0552 175.422L20.0602 175.416L19.2715 174.801ZM17.0742 176.664L17.5461 177.546L17.5557 177.541L17.0742 176.664ZM11.2734 176.629L11.749 175.749L11.744 175.747L11.2734 176.629ZM9.02344 174.66L9.82881 174.067L9.82344 174.06L9.02344 174.66ZM7.56445 171.672L6.60478 171.953L6.60556 171.956L7.56445 171.672ZM10.8691 159.648L11.4162 160.486L11.4219 160.482L10.8691 159.648ZM14.9297 158.471H15.9297V157.471H14.9297V158.471ZM14.9297 163.709V164.709H15.9297V163.709H14.9297ZM12.9609 164.184L13.4297 165.067L13.4405 165.061L13.4512 165.055L12.9609 164.184ZM11.6074 165.59L12.4916 166.057L12.4952 166.05L11.6074 165.59ZM11.5371 170.23L12.4516 169.826L12.4484 169.819L12.4451 169.811L11.5371 170.23ZM12.6445 171.602L13.1993 170.769L13.1895 170.763L12.6445 171.602ZM15.3691 171.742L15.8836 172.6L15.894 172.593L15.9042 172.587L15.3691 171.742ZM18.0059 166.961L18.9611 167.257L18.963 167.25L18.0059 166.961ZM19.4297 163.287L20.3241 163.734L20.3261 163.73L19.4297 163.287ZM32.8594 171.479L33.8233 171.745L33.8256 171.736L32.8594 171.479ZM31.3301 174.836L32.1561 175.4L32.1592 175.395L31.3301 174.836ZM24.9844 178.123H23.9844V179.123H24.9844V178.123ZM24.9844 172.832V171.832H23.9844V172.832H24.9844ZM28.3418 171.426L29.1368 172.033L29.1443 172.022L28.3418 171.426ZM29.0801 169.809L30.0513 170.047L30.0523 170.043L29.0801 169.809ZM28.9219 165.484L28.0036 165.88L28.0066 165.887L28.9219 165.484ZM27.8496 164.166L27.3099 165.008L27.3177 165.013L27.3255 165.018L27.8496 164.166ZM26.3027 162.727C25.7432 162.727 25.2078 162.813 24.7113 163.005L25.4333 164.87C25.6633 164.781 25.9482 164.727 26.3027 164.727V162.727ZM24.7472 162.992C24.1694 163.19 23.685 163.558 23.2865 164.033L24.8189 165.318C25.0298 165.067 25.2251 164.942 25.3973 164.883L24.7472 162.992ZM23.2987 164.019C22.8978 164.479 22.5407 165.081 22.2141 165.784L24.0281 166.626C24.3109 166.017 24.5749 165.599 24.8068 165.333L23.2987 164.019ZM22.2141 165.784C21.8845 166.494 21.5532 167.388 21.218 168.454L23.1258 169.054C23.4468 168.034 23.7483 167.229 24.0281 166.626L22.2141 165.784ZM21.2203 168.446C20.8559 169.574 20.4469 170.641 19.9941 171.649L21.8184 172.469C22.3031 171.39 22.7379 170.254 23.1234 169.061L21.2203 168.446ZM19.9959 171.645C19.5558 172.613 19.0501 173.458 18.4828 174.186L20.0602 175.416C20.735 174.55 21.3192 173.567 21.8166 172.472L19.9959 171.645ZM18.4929 174.173C17.9368 174.863 17.3035 175.397 16.5928 175.788L17.5557 177.541C18.509 177.017 19.3406 176.309 20.0501 175.428L18.4929 174.173ZM16.6023 175.782C15.938 176.138 15.1384 176.332 14.1738 176.332V178.332C15.4124 178.332 16.5464 178.081 17.5461 177.546L16.6023 175.782ZM14.1738 176.332C13.2595 176.332 12.4583 176.133 11.749 175.749L10.7979 177.509C11.823 178.063 12.9553 178.332 14.1738 178.332V176.332ZM11.744 175.747C11.0038 175.352 10.366 174.797 9.82877 174.067L8.2181 175.253C8.92305 176.211 9.78531 176.969 10.8028 177.511L11.744 175.747ZM9.82344 174.06C9.27095 173.324 8.83398 172.438 8.52335 171.388L6.60556 171.956C6.97462 173.203 7.5103 174.309 8.22344 175.26L9.82344 174.06ZM8.52413 171.391C8.21455 170.334 8.05469 169.158 8.05469 167.857H6.05469C6.05469 169.322 6.23467 170.69 6.60478 171.953L8.52413 171.391ZM8.05469 167.857C8.05469 166.091 8.3727 164.598 8.97457 163.353L7.17387 162.483C6.41637 164.05 6.05469 165.851 6.05469 167.857H8.05469ZM8.97457 163.353C9.58371 162.093 10.4003 161.149 11.4162 160.486L10.3221 158.811C8.97082 159.694 7.9241 160.931 7.17387 162.483L8.97457 163.353ZM11.4219 160.482C12.4296 159.813 13.5879 159.471 14.9297 159.471V157.471C13.2246 157.471 11.6758 157.913 10.3163 158.815L11.4219 160.482ZM13.9297 158.471V163.709H15.9297V158.471H13.9297ZM14.9297 162.709C14.036 162.709 13.2056 162.899 12.4707 163.312L13.4512 165.055C13.8413 164.836 14.3233 164.709 14.9297 164.709V162.709ZM12.4922 163.3C11.7213 163.709 11.1318 164.335 10.7197 165.13L12.4952 166.05C12.7393 165.579 13.0521 165.267 13.4297 165.067L12.4922 163.3ZM10.7232 165.123C10.2971 165.929 10.1152 166.888 10.1152 167.945H12.1152C12.1152 167.104 12.2615 166.492 12.4916 166.057L10.7232 165.123ZM10.1152 167.945C10.1152 168.955 10.2695 169.87 10.6291 170.65L12.4451 169.811C12.2422 169.372 12.1152 168.764 12.1152 167.945H10.1152ZM10.6226 170.635C10.9553 171.387 11.4391 172.011 12.0995 172.44L13.1895 170.763C12.9124 170.583 12.658 170.292 12.4516 169.826L10.6226 170.635ZM12.0898 172.434C12.7188 172.853 13.4292 173.059 14.1914 173.059V171.059C13.8051 171.059 13.4843 170.96 13.1992 170.77L12.0898 172.434ZM14.1914 173.059C14.7954 173.059 15.3676 172.909 15.8836 172.6L14.8546 170.885C14.6676 170.997 14.4546 171.059 14.1914 171.059V173.059ZM15.9042 172.587C16.3929 172.278 16.8112 171.846 17.1717 171.333L15.5353 170.183C15.2865 170.537 15.0485 170.762 14.8341 170.897L15.9042 172.587ZM17.1717 171.333C17.5265 170.828 17.8455 170.229 18.1349 169.55L16.2948 168.766C16.0451 169.353 15.7899 169.821 15.5353 170.183L17.1717 171.333ZM18.1349 169.55C18.4207 168.879 18.6957 168.113 18.9611 167.257L17.0507 166.665C16.8004 167.473 16.548 168.172 16.2948 168.766L18.1349 169.55ZM18.963 167.25C19.3721 165.898 19.8272 164.728 20.3241 163.734L18.5353 162.84C17.9775 163.955 17.4833 165.235 17.0487 166.671L18.963 167.25ZM20.3261 163.73C20.8206 162.73 21.362 161.923 21.9417 161.292L20.4684 159.939C19.7357 160.737 19.0935 161.711 18.5333 162.844L20.3261 163.73ZM21.9417 161.292C22.5104 160.672 23.1419 160.218 23.8376 159.915L23.0374 158.082C22.069 158.504 21.2123 159.129 20.4684 159.939L21.9417 161.292ZM23.8376 159.915C24.5247 159.615 25.3285 159.453 26.2676 159.453V157.453C25.0972 157.453 24.0144 157.655 23.0374 158.082L23.8376 159.915ZM26.2676 159.453C27.2484 159.453 28.0898 159.643 28.8134 160L29.6983 158.207C28.6641 157.697 27.5133 157.453 26.2676 157.453V159.453ZM28.8134 160C29.544 160.361 30.1666 160.882 30.6855 161.581L32.291 160.388C31.5912 159.446 30.7256 158.714 29.6983 158.207L28.8134 160ZM30.6855 161.581C31.2113 162.288 31.6251 163.152 31.9136 164.188L33.8403 163.652C33.496 162.415 32.984 161.321 32.291 160.388L30.6855 161.581ZM31.9136 164.188C32.2016 165.223 32.3516 166.402 32.3516 167.734H34.3516C34.3516 166.254 34.1852 164.891 33.8403 163.652L31.9136 164.188ZM32.3516 167.734C32.3516 168.912 32.199 170.074 31.8931 171.221L33.8256 171.736C34.176 170.422 34.3516 169.088 34.3516 167.734H32.3516ZM31.8955 171.212C31.583 172.344 31.1172 173.363 30.501 174.277L32.1592 175.395C32.9023 174.293 33.4561 173.074 33.8233 171.745L31.8955 171.212ZM30.5041 174.272C29.911 175.141 29.158 175.834 28.2355 176.357L29.2215 178.097C30.4084 177.424 31.3898 176.523 32.1561 175.4L30.5041 174.272ZM28.2355 176.357C27.3573 176.854 26.2857 177.123 24.9844 177.123V179.123C26.5658 179.123 27.9904 178.794 29.2215 178.097L28.2355 176.357ZM25.9844 178.123V172.832H23.9844V178.123H25.9844ZM24.9844 173.832C25.8789 173.832 26.7005 173.695 27.4138 173.376L26.5979 171.55C26.2096 171.723 25.6836 171.832 24.9844 171.832V173.832ZM27.4138 173.376C28.1051 173.067 28.6878 172.621 29.1367 172.032L27.5468 170.819C27.3161 171.121 27.0082 171.367 26.5979 171.55L27.4138 173.376ZM29.1443 172.022C29.5729 171.446 29.8711 170.782 30.0513 170.047L28.1089 169.57C27.9844 170.078 27.7904 170.491 27.5393 170.829L29.1443 172.022ZM30.0523 170.043C30.2256 169.323 30.3086 168.552 30.3086 167.734H28.3086C28.3086 168.417 28.2392 169.029 28.1079 169.575L30.0523 170.043ZM30.3086 167.734C30.3086 166.737 30.1694 165.837 29.8372 165.082L28.0066 165.887C28.19 166.304 28.3086 166.904 28.3086 167.734H30.3086ZM29.8401 165.088C29.5185 164.343 29.0402 163.725 28.3737 163.314L27.3255 165.018C27.573 165.17 27.8096 165.431 28.0037 165.88L29.8401 165.088ZM28.3893 163.324C27.7617 162.922 27.0567 162.727 26.3027 162.727V164.727C26.6972 164.727 27.0235 164.824 27.3099 165.008L28.3893 163.324ZM7.40625 149.26V148.26H6.40625V149.26H7.40625ZM33 149.26H34V148.26H33V149.26ZM33 154.516V155.516H34V154.516H33ZM7.40625 154.516H6.40625V155.516H7.40625V154.516ZM7.40625 150.26H33V148.26H7.40625V150.26ZM32 149.26V154.516H34V149.26H32ZM33 153.516H7.40625V155.516H33V153.516ZM8.40625 154.516L8.40625 149.26H6.40625V154.516H8.40625ZM19.623 124.035V123.035H18.623V124.035H19.623ZM29.7656 124.035L30.404 123.265L30.1263 123.035H29.7656V124.035ZM31.3301 125.881L32.164 125.329L32.1585 125.321L31.3301 125.881ZM32.543 138.379L33.4698 138.754L33.4725 138.748L32.543 138.379ZM30.1348 141.895L30.8127 142.63L30.8171 142.626L30.1348 141.895ZM26.2676 144.145L26.5925 145.09L26.5947 145.09L26.2676 144.145ZM14.1563 144.18L13.8378 145.128L13.8444 145.13L14.1563 144.18ZM8.12695 128.729L9.01846 129.182L9.02138 129.176L8.12695 128.729ZM11.1152 125.459L11.6216 126.321L11.6309 126.316L11.1152 125.459ZM15.4746 124.053H16.4746V122.94L15.3681 123.058L15.4746 124.053ZM15.4746 129.168L15.6216 130.157L16.4746 130.03V129.168H15.4746ZM11.6953 131.471L12.5738 131.948L12.5772 131.942L11.6953 131.471ZM11.6953 136.428L12.5835 135.968L12.5806 135.963L11.6953 136.428ZM24.5625 139.205L24.805 140.175L24.8077 140.175L24.5625 139.205ZM27.1465 138.062L27.729 138.875L27.7367 138.87L27.7443 138.864L27.1465 138.062ZM29.0273 131.471L28.0572 131.713L28.0584 131.718L29.0273 131.471ZM28.5176 130.117L29.3803 129.611L29.3751 129.603L28.5176 130.117ZM27.9199 129.309L28.627 128.601L28.3341 128.309H27.9199V129.309ZM23.3848 129.309V128.309H22.3848V129.309H23.3848ZM23.3848 134.125V135.125H24.3848V134.125H23.3848ZM19.623 134.125H18.623V135.125H19.623V134.125ZM19.623 125.035H29.7656V123.035H19.623V125.035ZM29.1273 124.805C29.5042 125.117 29.9641 125.646 30.5016 126.441L32.1585 125.321C31.571 124.452 30.988 123.75 30.404 123.265L29.1273 124.805ZM30.4962 126.433C30.9778 127.16 31.417 128.136 31.797 129.388L33.7108 128.807C33.2939 127.434 32.7839 126.265 32.1639 125.329L30.4962 126.433ZM31.797 129.388C32.1587 130.58 32.3516 132.064 32.3516 133.861H34.3516C34.3516 131.932 34.146 130.241 33.7108 128.807L31.797 129.388ZM32.3516 133.861C32.3516 135.404 32.1003 136.782 31.6134 138.01L33.4725 138.748C34.0638 137.257 34.3516 135.624 34.3516 133.861H32.3516ZM31.6162 138.003C31.1191 139.23 30.3989 140.28 29.4524 141.163L30.8171 142.626C31.98 141.54 32.8653 140.246 33.4698 138.754L31.6162 138.003ZM29.4568 141.159C28.5152 142.028 27.3499 142.712 25.9405 143.2L26.5947 145.09C28.2322 144.523 29.645 143.707 30.8127 142.63L29.4568 141.159ZM25.9427 143.199C24.5316 143.683 22.8927 143.936 21.0117 143.936V145.936C23.0683 145.936 24.9332 145.66 26.5925 145.09L25.9427 143.199ZM21.0117 143.936H19.4121V145.936H21.0117V143.936ZM19.4121 143.936C17.527 143.936 15.8834 143.694 14.4681 143.23L13.8444 145.13C15.4994 145.673 17.3597 145.936 19.4121 145.936V143.936ZM14.4746 143.232C13.0509 142.754 11.8801 142.085 10.9404 141.239L9.60252 142.726C10.7722 143.778 12.1913 144.575 13.8379 145.128L14.4746 143.232ZM10.9404 141.239C9.99574 140.389 9.27928 139.38 8.78538 138.203L6.94118 138.977C7.54885 140.425 8.43785 141.678 9.60252 142.726L10.9404 141.239ZM8.78538 138.203C8.2922 137.028 8.03711 135.702 8.03711 134.213H6.03711C6.03711 135.934 6.3328 137.527 6.94118 138.977L8.78538 138.203ZM8.03711 134.213C8.03711 132.086 8.38542 130.427 9.01844 129.182L7.23547 128.275C6.41536 129.889 6.03711 131.887 6.03711 134.213H8.03711ZM9.02138 129.176C9.65687 127.905 10.5243 126.966 11.6216 126.321L10.6089 124.597C9.15151 125.452 8.02672 126.693 7.23253 128.281L9.02138 129.176ZM11.6309 126.316C12.7579 125.637 14.0682 125.209 15.5811 125.047L15.3681 123.058C13.5997 123.248 12.0038 123.757 10.5996 124.602L11.6309 126.316ZM14.4746 124.053V129.168H16.4746V124.053H14.4746ZM15.3276 128.179C14.3614 128.322 13.4847 128.602 12.716 129.035L13.698 130.777C14.2184 130.484 14.8535 130.271 15.6216 130.157L15.3276 128.179ZM12.716 129.035C11.8987 129.496 11.2624 130.159 10.8134 130.999L12.5772 131.942C12.8548 131.423 13.2263 131.043 13.698 130.777L12.716 129.035ZM10.8168 130.993C10.3482 131.855 10.1504 132.902 10.1504 134.072H12.1504C12.1504 133.109 12.3159 132.423 12.5738 131.948L10.8168 130.993ZM10.1504 134.072C10.1504 135.093 10.3624 136.041 10.8101 136.893L12.5806 135.963C12.3017 135.432 12.1504 134.81 12.1504 134.072H10.1504ZM10.8071 136.887C11.2421 137.728 11.8821 138.425 12.6986 138.978L13.8209 137.323C13.2546 136.939 12.8516 136.487 12.5835 135.968L10.8071 136.887ZM12.6986 138.978C13.5111 139.529 14.484 139.927 15.5915 140.195L16.0608 138.251C15.1293 138.026 14.3913 137.709 13.8209 137.323L12.6986 138.978ZM15.5915 140.195C16.7061 140.464 17.9714 140.592 19.377 140.592V138.592C18.0872 138.592 16.9854 138.474 16.0608 138.251L15.5915 140.195ZM19.377 140.592H21.0117V138.592H19.377V140.592ZM21.0117 140.592C22.4095 140.592 23.6773 140.457 24.805 140.175L24.32 138.235C23.3852 138.469 22.2858 138.592 21.0117 138.592V140.592ZM24.8077 140.175C25.923 139.893 26.9049 139.466 27.729 138.875L26.564 137.25C25.9818 137.667 25.241 138.002 24.3173 138.236L24.8077 140.175ZM27.7443 138.864C28.5621 138.254 29.192 137.494 29.6164 136.588L27.8055 135.74C27.5268 136.334 27.1137 136.84 26.5487 137.261L27.7443 138.864ZM29.6164 136.588C30.0416 135.681 30.2383 134.658 30.2383 133.545H28.2383C28.2383 134.424 28.0834 135.147 27.8055 135.74L29.6164 136.588ZM30.2383 133.545C30.2383 132.664 30.1646 131.883 29.9963 131.223L28.0584 131.718C28.1713 132.16 28.2383 132.762 28.2383 133.545H30.2383ZM29.9975 131.228C29.8436 130.612 29.6445 130.062 29.3803 129.611L27.6549 130.623C27.789 130.852 27.9299 131.204 28.0572 131.713L29.9975 131.228ZM29.3751 129.603C29.1423 129.215 28.8947 128.869 28.627 128.601L27.2128 130.016C27.3201 130.123 27.471 130.317 27.6601 130.632L29.3751 129.603ZM27.9199 128.309H23.3848V130.309H27.9199V128.309ZM22.3848 129.309V134.125H24.3848V129.309H22.3848ZM23.3848 133.125H19.623V135.125H23.3848V133.125ZM20.623 134.125V124.035H18.623V134.125H20.623ZM7.40625 98.9512V97.9512H6.40625V98.9512H7.40625ZM33 98.9512H34V97.9512H33V98.9512ZM33 104.225L33.5141 105.082L34 104.791V104.225H33ZM15.8438 114.508L15.3296 113.65L12.2303 115.508H15.8438V114.508ZM33 114.508H34V113.508H33V114.508ZM33 119.781V120.781H34V119.781H33ZM7.40625 119.781H6.40625V120.781H7.40625V119.781ZM7.40625 114.508L6.89188 113.65L6.40625 113.942L6.40625 114.508H7.40625ZM24.5801 104.207L25.0944 105.065L28.1915 103.207H24.5801V104.207ZM7.40625 104.207H6.40625V105.207H7.40625V104.207ZM7.40625 99.9512H33V97.9512H7.40625L7.40625 99.9512ZM32 98.9512V104.225H34V98.9512H32ZM32.4859 103.367L15.3296 113.65L16.3579 115.366L33.5141 105.082L32.4859 103.367ZM15.8438 115.508H33V113.508H15.8438V115.508ZM32 114.508V119.781H34V114.508H32ZM33 118.781H7.40625V120.781H33V118.781ZM8.40625 119.781V114.508H6.40625V119.781H8.40625ZM7.92062 115.365L25.0944 105.065L24.0657 103.349L6.89188 113.65L7.92062 115.365ZM24.5801 103.207H7.40625V105.207H24.5801V103.207ZM8.40625 104.207V98.9512H6.40625L6.40625 104.207H8.40625Z" fill="#02BDD5" mask="url(#path-6-outside-1_686_1000)"/>
<line x1="21.5" y1="2.18557e-08" x2="21.5" y2="86" stroke="white"/>
</svg>
