<svg width="61" height="80" viewBox="0 0 61 80" fill="none" xmlns="http://www.w3.org/2000/svg">
<path d="M0.203857 8.13284V16.2928H16.5733C34.2091 16.2928 34.7016 16.347 37.3751 17.7567C39.0636 18.6513 40.6349 20.3863 41.4088 22.2298C41.9951 23.6123 42.0655 24.019 42.0655 26.8655C42.0655 29.5493 41.9951 30.1728 41.5261 31.3385C40.4708 33.9953 38.4773 35.7032 35.4051 36.5707C34.0684 36.9231 31.4418 37.0044 17.0423 37.0857L0.203857 37.1942V45.327V53.4327H15.2834C23.5619 53.4327 31.1369 53.5683 32.0984 53.7038C35.9914 54.2731 38.1959 56.5232 39.134 60.8878C39.6734 63.5446 40.0721 69.5086 40.0721 75.4998V80H49.2183H58.3646V78.2921C58.3646 75.5812 57.919 65.4693 57.661 62.3517C57.192 56.7672 56.1366 53.7852 53.5804 50.8573C51.7511 48.7428 50.1329 47.6855 47.3656 46.7638C46.3806 46.4385 45.7474 46.1132 45.935 46.0319C46.1227 45.9505 47.0138 45.6794 47.9285 45.4083C50.7896 44.5679 53.0879 43.0498 55.222 40.5829C58.9743 36.2182 60.4518 31.2843 60.1703 23.9648C59.7013 10.898 53.1348 3.11758 40.4942 0.677734C38.3835 0.271095 35.6866 0.189766 19.153 0.108437L0.203857 0V8.13284Z" fill="#212B36"/>
<path d="M0.203857 73.9004V80H11.9298H23.6557V75.5812C23.6557 70.2406 23.3743 69.2104 21.7327 68.3429C20.7946 67.855 20.1145 67.8007 10.4758 67.8007H0.203857V73.9004Z" fill="#212B36"/>
</svg>
