<svg width="100" height="80" viewBox="0 0 100 80" fill="none" xmlns="http://www.w3.org/2000/svg">
<path d="M13.9845 0.234375C12.2462 0.734375 10.6642 2.32812 10.4493 3.8125C10.3907 4.25 10.3517 20.8438 10.3907 40.7031L10.4493 76.7969L10.879 77.4375C11.5235 78.3906 12.2462 79.0156 13.2618 79.5L14.1603 79.9219H50.0001H85.8399L86.7384 79.5C87.754 79.0156 88.4767 78.3906 89.1212 77.4375L89.5509 76.7969L89.6095 48.5469L89.6485 20.2969L89.1798 19.9219C88.4962 19.375 87.4806 19.3906 86.9337 19.9375L86.5235 20.3594V48.1094C86.5235 74.2188 86.504 75.8906 86.172 76.4062C85.9962 76.7031 85.5274 77.0781 85.1563 77.2656C84.4923 77.5781 84.1798 77.5781 65.586 77.625L46.6798 77.6562V40V2.34375L65.586 2.375C84.1798 2.42188 84.4923 2.42188 85.1563 2.73438C86.504 3.375 86.5235 3.45312 86.5235 9.92188C86.5235 16.2656 86.5235 16.2812 87.6759 16.4844C88.4181 16.6094 89.4142 16.2188 89.5509 15.7344C89.629 15.5312 89.6485 12.6406 89.6095 9.29688C89.5509 3.35938 89.5313 3.1875 89.1212 2.5625C88.4767 1.60938 87.754 0.984375 86.7384 0.5L85.8399 0.078125L50.2931 0.046875C20.4103 0.015625 14.629 0.046875 13.9845 0.234375ZM43.5548 40V77.6719L29.5509 77.625C15.8595 77.5781 15.5079 77.5781 14.8438 77.2656C14.4728 77.0781 14.004 76.7031 13.8282 76.4062C13.4962 75.8906 13.4767 73.8281 13.4767 40.0312C13.4767 2.14062 13.4376 3.57812 14.3165 2.98438C15.254 2.375 15.6251 2.35938 29.8438 2.34375H43.5548V40Z" fill="#FEAD56"/>
<path d="M25.9767 8.9999C21.6798 9.73428 18.0079 12.703 17.09 16.1718C15.84 20.953 19.1798 25.4687 25.1954 27.1249C26.8165 27.578 30.5079 27.5312 32.2267 27.0468C35.7228 26.0624 38.3986 23.953 39.59 21.2343C40.254 19.7187 40.4103 17.5624 39.9611 16.0468C38.4962 11.0468 32.2657 7.90615 25.9767 8.9999ZM30.0782 11.4062C32.3439 11.7499 34.7267 13.0937 35.879 14.6562C37.0118 16.203 37.3829 18.1562 36.8361 19.7655C36.6407 20.3905 36.0743 21.453 35.84 21.6874C35.8204 21.703 35.215 21.2655 34.4923 20.7187C33.2618 19.7655 33.2032 19.6874 33.4181 19.2812C33.7501 18.5624 33.672 16.9687 33.2423 16.2187C32.2071 14.3437 29.59 13.3905 27.0704 13.9687C24.3361 14.6093 22.8126 16.9687 23.672 19.2499C23.8868 19.8124 23.8673 19.8749 23.4181 20.1093C23.1642 20.2499 22.5782 20.6874 22.1095 21.078C21.172 21.8905 21.172 21.8905 20.5275 20.5312C19.3361 18.0155 20.0978 15.2968 22.5392 13.3437C24.6681 11.6562 27.2853 10.9843 30.0782 11.4062ZM29.922 16.828C30.879 17.5624 30.5861 18.8593 29.3556 19.3593C28.5939 19.6718 27.9298 19.5624 27.2267 18.9999C25.3126 17.4687 27.9689 15.328 29.922 16.828ZM27.9493 21.9687C28.4571 22.0312 29.297 21.9843 29.8634 21.8749C30.84 21.6874 30.8986 21.703 31.6407 22.1093C32.5392 22.6093 33.4767 23.5312 33.3009 23.7499C33.0861 24.0155 31.4064 24.6405 30.2931 24.8437C28.3595 25.203 25.2736 24.7499 23.9845 23.9062L23.5353 23.6093L24.7657 22.6562C25.8204 21.828 26.0743 21.703 26.5236 21.7812C26.8165 21.828 27.4611 21.9218 27.9493 21.9687Z" fill="#FEAD56"/>
<path d="M18.6523 36.3125C17.9297 36.5781 17.2852 37.125 17.0117 37.7031C16.8945 37.9531 16.7969 39.1406 16.7969 40.3438C16.7969 42.9219 17.0703 43.625 18.3203 44.25L19.043 44.6094H28.5156C37.6367 44.6094 38.0078 44.5938 38.6523 44.2969C40.0195 43.6406 40.1367 43.4062 40.1953 40.5C40.2539 37.9844 40.2344 37.875 39.8047 37.3594C39.5508 37.0625 39.1016 36.6719 38.8086 36.5C38.2617 36.1719 38.0469 36.1719 28.75 36.1406C21.1133 36.1094 19.1211 36.1406 18.6523 36.3125ZM37.1094 40.3906V42.1875H28.5156H19.9219V40.3906V38.5938H28.5156H37.1094V40.3906Z" fill="#FEAD56"/>
<path d="M19.2189 48.5779C18.3204 48.7654 17.6368 49.2186 17.1681 49.9529C16.8165 50.5467 16.7775 50.8279 16.8361 53.0311C16.8947 55.1873 16.9337 55.4998 17.3048 55.8748C18.1251 56.7498 18.6525 56.9529 20.4298 57.0154C21.9533 57.0623 22.1486 57.0311 22.5783 56.7029C23.1447 56.2654 23.2033 55.4998 22.6759 54.9842C22.4025 54.7029 22.0704 54.6248 21.1134 54.5623L19.9025 54.4998L19.9611 52.7498L20.0197 51.0154L28.5743 50.9686L37.1095 50.9373V52.7342V54.5311H32.6173C29.7072 54.5311 27.9689 54.5936 27.6564 54.7029C26.6798 55.0623 26.5431 56.3123 27.4025 56.7967C27.754 56.9842 28.7501 57.0311 32.9298 57.0311C37.9103 57.0311 38.047 57.0154 38.6915 56.6717C39.0431 56.4842 39.5509 56.0779 39.7853 55.7967C40.1954 55.2967 40.2345 55.1092 40.2345 52.8592C40.2345 50.0623 40.0587 49.5936 38.8087 48.9373L38.0079 48.5154L28.9259 48.4842C23.9259 48.4686 19.5509 48.5154 19.2189 48.5779Z" fill="#FEAD56"/>
<path d="M18.6328 61.1562C18.3008 61.2812 17.7734 61.6406 17.4609 61.9688C16.8945 62.5469 16.8945 62.5781 16.8359 65.0312C16.7773 67.3594 16.7969 67.5312 17.207 68.125C17.4609 68.4844 17.9688 68.9219 18.3594 69.1094C19.043 69.4531 19.1406 69.4531 28.3203 69.5L37.5977 69.5469L38.457 69.1875C40.0195 68.5469 40.1367 68.3125 40.1953 65.3438C40.2539 62.8281 40.2344 62.7188 39.8047 62.2031C39.5508 61.9062 39.1016 61.5156 38.8086 61.3438C38.2617 61.0156 38.0469 61.0156 28.75 60.9844C21.0352 60.9531 19.1211 60.9844 18.6328 61.1562ZM37.1094 65.2344V67.0312H28.5156H19.9219V65.2344V63.4375H28.5156H37.1094V65.2344Z" fill="#FEAD56"/>
<path d="M58.594 12.4375C56.4455 12.8906 54.3947 14.4062 53.6135 16.1406C53.0861 17.2812 53.1252 19.1562 53.6916 20.3437C54.2971 21.5937 55.7424 22.8281 57.383 23.4687C58.5744 23.9375 58.8283 23.9844 60.5471 23.9844C62.715 23.9844 63.6916 23.7031 65.0002 22.7031C65.9963 21.9531 66.1135 21.2187 65.3713 20.6562C64.7658 20.2031 63.6721 20.2031 63.1643 20.6406C62.676 21.0781 61.3869 21.5625 60.6643 21.5625C58.34 21.5781 56.3674 19.9844 56.3674 18.125C56.3674 15.625 59.7268 13.9687 62.4611 15.1094C63.6135 15.6094 64.5119 15.5781 65.0197 15.0625C66.1135 13.9531 64.9025 12.8281 62.1486 12.3594C60.8205 12.1406 59.9221 12.1562 58.594 12.4375Z" fill="#FEAD56"/>
<path d="M70.0782 12.422C69.0626 12.8752 69.1407 13.2345 71.4649 18.5939C72.7735 21.5783 73.7501 23.5939 73.9649 23.7189C74.7852 24.1877 75.879 24.1408 76.504 23.6095C76.8555 23.3127 80.8595 13.8908 80.8595 13.3752C80.8595 13.2189 80.586 12.8908 80.2735 12.6252C79.7657 12.2345 79.5704 12.172 79.043 12.2502C78.6915 12.297 78.2618 12.4845 78.086 12.6564C77.9102 12.8283 77.168 14.3908 76.4454 16.1252L75.1368 19.2658L74.4923 17.797C74.1212 16.9845 73.5157 15.5627 73.1251 14.6252C72.1485 12.297 71.4845 11.8127 70.0782 12.422Z" fill="#FEAD56"/>
<path d="M52.2266 30.9375C51.6797 31.1094 51.1719 31.6875 51.1719 32.125C51.1719 32.3125 51.3477 32.6406 51.582 32.875L51.9727 33.2812H66.5039H81.0352L81.4258 32.875C82.1289 32.1719 81.8164 31.2344 80.8008 30.9375C80.0781 30.75 52.8516 30.7344 52.2266 30.9375Z" fill="#FEAD56"/>
<path d="M52.2266 38.125C51.6797 38.2969 51.1719 38.875 51.1719 39.3125C51.1719 39.5 51.3477 39.8281 51.582 40.0625L51.9727 40.4688H66.5039H81.0352L81.4258 40.0625C81.9727 39.5156 81.9336 39.0156 81.3672 38.4844L80.8984 38.0469L66.7578 38.0156C59.0039 38 52.4414 38.0469 52.2266 38.125Z" fill="#FEAD56"/>
<path d="M52.4023 45.2656C51.8555 45.3594 51.1719 46.0312 51.1719 46.4844C51.1719 46.6719 51.3477 47.0156 51.582 47.25L51.9727 47.6562H59.6484C66.9922 47.6562 67.3437 47.6406 67.6562 47.3594C68.1641 46.9062 68.1445 46 67.6172 45.5781C67.1875 45.2344 67.1484 45.2344 60 45.2188C56.0547 45.2031 52.6367 45.2188 52.4023 45.2656Z" fill="#FEAD56"/>
<path d="M51.582 52.9062C51.3477 53.1406 51.1719 53.4844 51.1719 53.6719C51.1719 53.8594 51.3477 54.2031 51.582 54.4375L51.9727 54.8438H66.5039H81.0352L81.4258 54.4375C81.9531 53.9062 81.9531 53.4375 81.4258 52.9062L81.0352 52.5H66.5039H51.9727L51.582 52.9062Z" fill="#FEAD56"/>
<path d="M51.582 60.0938C51.3477 60.3281 51.1719 60.6719 51.1719 60.8594C51.1719 61.0469 51.3477 61.3906 51.582 61.625L51.9727 62.0312H66.5039H81.0352L81.4258 61.625C81.9531 61.0938 81.9531 60.625 81.4258 60.0938L81.0352 59.6875H66.5039H51.9727L51.582 60.0938Z" fill="#FEAD56"/>
<path d="M51.6603 67.4219C50.8986 68.0156 51.1329 69.0156 52.09 69.3594C52.4025 69.4688 54.8829 69.5312 59.7267 69.5312C67.5197 69.5312 67.5587 69.5312 67.9689 68.6562C68.1837 68.2031 67.8712 67.3906 67.3829 67.1875C67.1681 67.0938 64.0626 67.0312 59.5704 67.0312H52.129L51.6603 67.4219Z" fill="#FEAD56"/>
</svg>
