<svg width="80" height="80" viewBox="0 0 80 80" fill="none" xmlns="http://www.w3.org/2000/svg">
<g clip-path="url(#clip0_165_777)">
<path d="M39.6406 0.390625C39.5078 0.4375 39.3125 0.546875 39.2109 0.640625C39.1094 0.742188 38.5703 1.58594 38.0156 2.51562C37.3359 3.64844 36.9453 4.22656 36.8438 4.25C36.75 4.27344 36.5156 4.29688 36.3125 4.29688H35.9531L34.5781 2.78906C33.8281 1.95312 33.1172 1.23438 33.0078 1.1875C32.5234 0.960938 31.8047 1.15625 31.5312 1.57812C31.4688 1.67969 31.125 2.5625 30.7734 3.55469C30.4219 4.53906 30.1016 5.39062 30.0625 5.4375C30.0312 5.48438 29.7891 5.58594 29.5391 5.65625L29.0703 5.78906L27.4219 4.5625C25.9297 3.45312 25.7344 3.32812 25.3984 3.29688C24.9297 3.25781 24.5156 3.4375 24.2969 3.78906C24.1875 3.96875 24.0703 4.53125 23.8672 5.90625C23.7188 6.92969 23.5781 7.85156 23.5547 7.94531C23.5234 8.0625 23.3594 8.20312 23.0625 8.35156L22.6094 8.57812L20.9766 7.80469C18.9531 6.83594 18.7188 6.75781 18.3047 6.86719C17.9453 6.96875 17.6016 7.29688 17.5 7.64844C17.4375 7.875 17.4922 9.66406 17.6094 11.3672L17.6484 11.9219L17.2266 12.25L16.8047 12.5781L14.9297 12.1094C13.8984 11.8516 12.8984 11.6406 12.7188 11.6406C12.1172 11.6406 11.6406 12.1172 11.6406 12.7188C11.6406 12.8984 11.8516 13.8984 12.1094 14.9297L12.5781 16.8047L12.25 17.2266L11.9219 17.6484L11.3281 17.6094C9.1875 17.4766 7.88281 17.4375 7.63281 17.5078C7.27344 17.6016 6.90625 18.0312 6.83594 18.4141C6.77344 18.7891 6.83594 18.9375 7.83594 21.0547L8.57812 22.6094L8.35156 23.0625C8.20312 23.3594 8.0625 23.5234 7.94531 23.5547C7.85156 23.5781 6.92969 23.7188 5.89844 23.875C4.54688 24.0703 3.96094 24.1953 3.78125 24.3047C3.4375 24.5156 3.25781 24.9297 3.29688 25.3984C3.32812 25.7344 3.45312 25.9297 4.5625 27.4219L5.78906 29.0703L5.65625 29.5391C5.58594 29.7891 5.48438 30.0312 5.4375 30.0625C5.39062 30.1016 4.54688 30.4219 3.55469 30.7734C2.57031 31.125 1.67969 31.4688 1.57812 31.5312C1.15625 31.8047 0.960938 32.5234 1.1875 33.0078C1.23438 33.1172 1.96094 33.8281 2.78906 34.5781C4.24219 35.8984 4.29688 35.9531 4.29688 36.2422C4.29688 36.9688 4.35938 36.9062 2.4375 38.0625C0.492188 39.2266 0.359375 39.3516 0.359375 40C0.359375 40.6484 0.492188 40.7734 2.4375 41.9375C4.35938 43.0938 4.29688 43.0312 4.29688 43.7578C4.29688 44.0469 4.24219 44.1016 2.78906 45.4219C1.96094 46.1719 1.23438 46.8828 1.1875 46.9922C0.960938 47.4766 1.15625 48.1953 1.57812 48.4688C1.67969 48.5312 2.57031 48.875 3.55469 49.2266C4.54688 49.5781 5.39062 49.8984 5.4375 49.9375C5.48438 49.9688 5.58594 50.2109 5.65625 50.4609L5.78906 50.9297L4.5625 52.5781C3.45312 54.0703 3.32812 54.2656 3.29688 54.6016C3.25781 55.0703 3.4375 55.4844 3.78125 55.6953C3.96094 55.8047 4.54688 55.9297 5.89844 56.125C6.92969 56.2812 7.85156 56.4219 7.94531 56.4453C8.0625 56.4766 8.20312 56.6406 8.35156 56.9375L8.57812 57.3906L7.83594 58.9453C6.83594 61.0625 6.77344 61.2109 6.83594 61.5859C6.90625 61.9688 7.27344 62.3984 7.63281 62.4922C7.88281 62.5625 9.1875 62.5234 11.3281 62.3906L11.9219 62.3516L12.25 62.7734L12.5781 63.1953L12.1094 65.0703C11.8516 66.1016 11.6406 67.1016 11.6406 67.2812C11.6406 67.8828 12.1172 68.3594 12.7188 68.3594C12.8984 68.3594 13.8984 68.1484 14.9297 67.8906L16.8047 67.4219L17.2266 67.75L17.6484 68.0781L17.6094 68.6328C17.4922 70.3359 17.4375 72.125 17.5 72.3516C17.6016 72.7031 17.9453 73.0312 18.3047 73.1328C18.7188 73.2422 18.9531 73.1641 20.9766 72.1953L22.6094 71.4219L23.0625 71.6484C23.3594 71.7969 23.5234 71.9375 23.5547 72.0547C23.5781 72.1484 23.7188 73.0703 23.8672 74.0938C24.0703 75.4688 24.1875 76.0312 24.2969 76.2109C24.5156 76.5625 24.9297 76.7422 25.3984 76.7031C25.7344 76.6719 25.9297 76.5469 27.4297 75.4375L29.0859 74.2031L29.5781 74.3438L30.0703 74.4844L30.75 76.3906C31.125 77.4375 31.5 78.3828 31.5859 78.4844C31.8906 78.875 32.5391 79.0234 33.0078 78.8125C33.1172 78.7656 33.8281 78.0391 34.5781 77.2109L35.9453 75.7031H36.3125C36.5156 75.7031 36.75 75.7266 36.8359 75.75C36.9453 75.7734 37.3516 76.3828 38.0625 77.5625C39.2266 79.5078 39.3516 79.6406 40 79.6406C40.6484 79.6406 40.7734 79.5078 41.9375 77.5625C42.6484 76.3828 43.0547 75.7734 43.1641 75.75C43.25 75.7266 43.4844 75.7031 43.6875 75.7031H44.0547L45.4219 77.2109C46.1719 78.0391 46.8828 78.7656 46.9922 78.8125C47.4609 79.0234 48.1094 78.875 48.4141 78.4844C48.5 78.375 48.875 77.4375 49.25 76.3906L49.9297 74.4844L50.4219 74.3438L50.9141 74.2031L52.5781 75.4375C54.0703 76.5469 54.2734 76.6719 54.6094 76.7031C55.0703 76.7422 55.4844 76.5625 55.7031 76.2109C55.8125 76.0312 55.9297 75.4688 56.1328 74.0938C56.2812 73.0703 56.4219 72.1484 56.4453 72.0547C56.4766 71.9375 56.6406 71.7969 56.9375 71.6484L57.3906 71.4219L59.0234 72.1953C61.0469 73.1641 61.2812 73.2422 61.6953 73.1328C62.0547 73.0312 62.3984 72.7031 62.5 72.3516C62.5625 72.125 62.5078 70.3359 62.3906 68.6328L62.3516 68.0781L62.7734 67.75L63.1953 67.4219L65.0703 67.8906C66.1016 68.1484 67.1016 68.3594 67.2812 68.3594C67.8828 68.3594 68.3594 67.8828 68.3594 67.2812C68.3594 67.1016 68.1484 66.1016 67.8906 65.0703L67.4219 63.1953L67.75 62.7734L68.0781 62.3516L68.6719 62.3906C70.8125 62.5234 72.1172 62.5625 72.3672 62.4922C72.7266 62.3984 73.0938 61.9688 73.1641 61.5859C73.2266 61.2109 73.1641 61.0547 72.1641 58.9453L71.4219 57.3906L71.6484 56.9375C71.7969 56.6406 71.9375 56.4766 72.0547 56.4453C72.1484 56.4219 73.0703 56.2812 74.0938 56.1328C75.4688 55.9297 76.0312 55.8125 76.2109 55.7031C76.5625 55.4844 76.7422 55.0703 76.7031 54.6016C76.6719 54.2656 76.5469 54.0703 75.4375 52.5781L74.2188 50.9297L74.3516 50.4297L74.4844 49.9375L76.3906 49.25C77.4375 48.875 78.375 48.5 78.4844 48.4141C78.875 48.1094 79.0234 47.4609 78.8125 46.9922C78.7656 46.8828 78.0469 46.1719 77.2109 45.4219L75.7031 44.0469V43.6875C75.7031 43.4844 75.7266 43.25 75.75 43.1641C75.7734 43.0547 76.3828 42.6484 77.5625 41.9375C79.5078 40.7734 79.6406 40.6484 79.6406 40C79.6406 39.3516 79.5078 39.2266 77.5625 38.0625C76.3828 37.3516 75.7734 36.9453 75.75 36.8359C75.7266 36.75 75.7031 36.5156 75.7031 36.3125V35.9531L77.2109 34.5781C78.0469 33.8281 78.7656 33.1172 78.8125 33.0078C79.0234 32.5391 78.875 31.8906 78.4844 31.5859C78.375 31.5 77.4375 31.125 76.3906 30.75L74.4844 30.0625L74.3516 29.5703L74.2188 29.0703L75.4375 27.4219C76.5469 25.9297 76.6719 25.7344 76.7031 25.3984C76.7422 24.9297 76.5625 24.5156 76.2109 24.2969C76.0312 24.1875 75.4688 24.0703 74.0938 23.8672C73.0703 23.7188 72.1484 23.5781 72.0547 23.5547C71.9375 23.5234 71.7969 23.3594 71.6484 23.0625L71.4219 22.6094L72.1641 21.0547C73.1641 18.9453 73.2266 18.7891 73.1641 18.4141C73.0938 18.0312 72.7266 17.6016 72.3672 17.5078C72.1172 17.4375 70.8125 17.4766 68.6719 17.6094L68.0781 17.6484L67.75 17.2266L67.4219 16.8047L67.8906 14.9297C68.1484 13.8984 68.3594 12.8984 68.3594 12.7188C68.3594 12.1172 67.8828 11.6406 67.2812 11.6406C67.1016 11.6406 66.1016 11.8516 65.0703 12.1094L63.1953 12.5781L62.7734 12.25L62.3516 11.9219L62.3906 11.3672C62.5078 9.66406 62.5625 7.875 62.5 7.64844C62.3984 7.29688 62.0547 6.96875 61.6953 6.86719C61.2812 6.75781 61.0469 6.83594 59.0234 7.80469L57.3906 8.57812L56.9375 8.35156C56.6406 8.20312 56.4766 8.0625 56.4453 7.94531C56.4219 7.85156 56.2812 6.92969 56.1328 5.90625C55.9297 4.53125 55.8125 3.96875 55.7031 3.78906C55.4844 3.4375 55.0703 3.25781 54.6016 3.29688C54.2656 3.32812 54.0703 3.45312 52.5781 4.5625L50.9297 5.78125L50.4297 5.64844L49.9375 5.51562L49.25 3.60938C48.875 2.5625 48.5 1.625 48.4141 1.51562C48.1094 1.125 47.4609 0.976562 46.9922 1.1875C46.8828 1.23438 46.1719 1.95312 45.4219 2.78906L44.0469 4.29688H43.6875C43.4844 4.29688 43.25 4.27344 43.1641 4.25C43.0547 4.22656 42.6484 3.61719 41.9375 2.4375C41.2109 1.22656 40.8047 0.625 40.6484 0.53125C40.3594 0.359375 39.9375 0.304688 39.6406 0.390625ZM40.9297 7.80469C41.7422 8.22656 42.1172 8.79688 42.1719 9.69531C42.2031 10.2422 42.1875 10.3516 42 10.7344C41.1562 12.4609 38.7578 12.4141 37.9609 10.6719C37.7812 10.2734 37.7656 9.53125 37.9297 9.05469C38.1484 8.41406 38.8047 7.82031 39.4766 7.64844C39.8516 7.55469 40.5859 7.63281 40.9297 7.80469ZM36.6016 13.4453C37.6797 14.5234 38.7109 15.4922 38.9062 15.6094C39.2188 15.7969 39.3359 15.8203 40 15.8203C40.5703 15.8203 40.8047 15.7891 41.0156 15.6719C41.1641 15.5938 42.2031 14.6172 43.3203 13.5078L45.3594 11.4844L45.7578 11.5625C45.9844 11.6016 46.5859 11.7422 47.1016 11.8672C54.4688 13.7109 60.9844 18.5703 64.9141 25.1406L65.4844 26.0938L65.2891 26.4297C65.1875 26.6094 64.5938 27.7578 63.9844 28.9766C62.7344 31.4688 62.6719 31.6953 62.9297 32.5391C63.2031 33.3984 63.4375 33.5781 66.25 35.0078C68.1016 35.9531 68.7656 36.3281 68.7891 36.4453C68.9531 37.1484 69.0625 41.6016 68.9375 42.0859C68.8906 42.2656 68.8828 42.2656 67.3516 42.2656C66.2578 42.2656 65.7891 42.2891 65.7188 42.3594C65.6562 42.4219 65.625 42.8047 65.625 43.5469C65.6172 44.1562 65.5703 44.9297 65.5078 45.2656C65.0781 47.6875 62.9297 48.8125 60.7266 47.7734C59.7188 47.2969 59.1484 46.5703 58.8672 45.3906C58.3281 43.125 56.8203 40.5078 55.2969 39.1953L54.8984 38.8516L55.5156 38.4375C58.7891 36.2344 60.4531 33.3516 60.2812 30.1562C60.1484 27.6641 59.1953 25.6016 57.2656 23.6641C55.6172 22.0078 53.9062 21.0781 51.5234 20.5391L50.7422 20.3594L34.7344 20.3125L18.7344 20.2734L19.4141 19.5859C21.7188 17.2578 24.2266 15.4531 27.2266 13.9844C28.9062 13.1562 30.3672 12.5781 31.8984 12.1484C32.7578 11.8984 34.375 11.5 34.5703 11.4922C34.6172 11.4844 35.5312 12.3672 36.6016 13.4453ZM11.9531 28.5625C12.5625 28.7422 13.2188 29.4141 13.3984 30.0391C13.8125 31.4375 12.7344 32.8906 11.2891 32.8906C10.4219 32.8906 9.53125 32.2656 9.22656 31.4453C8.89844 30.5781 9.07812 29.8203 9.75781 29.1328C10.4141 28.4766 11.0781 28.3047 11.9531 28.5625ZM69.375 28.5625C69.9844 28.7422 70.6406 29.4141 70.8203 30.0391C71.1484 31.1562 70.5625 32.3281 69.4844 32.7344C67.7812 33.3672 66.0859 31.7891 66.6016 30.0391C66.7031 29.6797 66.8203 29.4922 67.1797 29.1328C67.8359 28.4766 68.5 28.3047 69.375 28.5625ZM21.0938 38.8672V48.2812H16.6406H12.1953L12.0703 47.8672C11.625 46.3125 11.2344 44.1328 11.0859 42.4375C10.9922 41.2969 11.0312 37.6016 11.1562 36.7266L11.2109 36.3047L13.7109 35.0312C15.9141 33.9062 16.2578 33.7109 16.5781 33.3594C17.0391 32.8672 17.2266 32.3047 17.1641 31.6172C17.1328 31.2656 17.0234 30.9609 16.6875 30.3047L16.25 29.4531H18.6719H21.0938V38.8672ZM44.9609 29.6328C46.0781 29.9609 46.8438 30.4688 47.25 31.1641C47.5312 31.6406 47.5469 32.4453 47.2891 32.9297C47.0625 33.3672 46.4531 33.9141 45.9219 34.1641C44.9141 34.6406 44.9766 34.6406 39.2422 34.6641L33.9844 34.6953V32.0703V29.4453L39.2422 29.4688C43.9453 29.5 44.5391 29.5156 44.9609 29.6328ZM42.1641 43.1641C44.1406 43.5391 45.3359 45.0078 46.125 48.0469C46.2734 48.625 46.5234 49.6953 46.6797 50.4297C47.2266 53.0234 47.4766 53.8594 48.0078 54.9609C48.5703 56.125 49.3438 56.8516 50.4141 57.2109C50.8906 57.375 51 57.3828 57.0156 57.4062C60.375 57.4141 63.125 57.4531 63.125 57.4844C63.125 57.5547 61.4922 59.5078 61.2422 59.7422L61.0547 59.9141L58.3594 59.4844C56.3828 59.1641 55.5547 59.0625 55.25 59.0938C54.4609 59.1875 53.7578 59.6953 53.4453 60.3906C53.3438 60.6172 53.1328 61.7422 52.8594 63.4688C52.5859 65.1875 52.3906 66.2188 52.3281 66.2656C52.1094 66.3984 50.4609 67.0703 49.5312 67.4062C47.5781 68.0938 44.7188 68.7109 42.5781 68.9062C41.4219 69.0078 38.5781 69.0078 37.4219 68.9062C35.2812 68.7109 32.4219 68.0938 30.4688 67.4062C29.5391 67.0703 27.8906 66.3984 27.6719 66.2656C27.6094 66.2188 27.4141 65.1875 27.1406 63.4688C26.8672 61.7422 26.6562 60.6172 26.5547 60.3906C26.2422 59.6953 25.5391 59.1875 24.75 59.0938C24.4453 59.0625 23.625 59.1641 21.6406 59.4844L18.9453 59.9219L18.4844 59.4375C17.9766 58.8984 16.875 57.5469 16.875 57.4688C16.875 57.4453 22.1719 57.4219 28.6562 57.4219C39.1875 57.4219 40.4531 57.4062 40.6094 57.2969L40.7812 57.1797V52.8203C40.7812 49.5391 40.7578 48.4453 40.6875 48.375C40.6172 48.3047 39.7578 48.2812 37.2891 48.2812H33.9844V45.6641V43.0469H37.7656C40.7969 43.0469 41.6719 43.0703 42.1641 43.1641ZM23.2734 62.4766C24.2422 62.9688 24.6875 64.1172 24.3281 65.1719C24.0703 65.9453 23.2812 66.5391 22.4219 66.6172C21.1719 66.7344 20.0469 65.6875 20.0547 64.4141C20.0703 62.75 21.7891 61.7188 23.2734 62.4766ZM58.7109 62.4609C60.125 63.1484 60.375 65 59.2031 66.0547C57.7812 67.3281 55.5469 66.3281 55.5469 64.4141C55.5469 62.7734 57.2344 61.7344 58.7109 62.4609Z" fill="#212B36"/>
</g>
<defs>
<clipPath id="clip0_165_777">
<rect width="80" height="80" fill="white"/>
</clipPath>
</defs>
</svg>
