<svg width="34" height="34" viewBox="0 0 34 34" fill="none" xmlns="http://www.w3.org/2000/svg">
<g clip-path="url(#clip0_717_591)">
<path d="M10.1531 10.0328C10.1641 10.0492 11.3645 11.7992 12.8219 13.9184C14.2766 16.0375 15.4687 17.7766 15.4687 17.782C15.4687 17.7875 10.5496 23.516 10.1695 23.9508C10.1312 23.9973 10.1613 24 10.7547 24H11.3836L13.7078 21.2957L16.0348 18.5941L17.8914 21.2957L19.748 24H21.807C23.4477 24 23.8633 23.9918 23.8441 23.9645C23.8332 23.948 22.5973 22.1434 21.0961 19.9586C19.5922 17.7738 18.359 15.9719 18.3508 15.9527C18.3398 15.9199 19.0043 15.1406 22.5152 11.0582L23.4285 10H22.7996H22.1707L19.975 12.5539C18.7664 13.9566 17.7711 15.1023 17.7629 15.0969C17.7547 15.0941 16.9617 13.943 15.9992 12.5457L14.252 10H12.193C10.6043 10 10.1395 10.0082 10.1531 10.0328ZM17.8066 16.8824C20.0926 20.1555 22.0094 22.898 22.0668 22.9801L22.1707 23.125H21.2602L20.3496 23.1223L16.1934 17.175C13.9074 13.902 11.9906 11.1594 11.9332 11.0773L11.8266 10.9297H12.7398L13.6504 10.9324L17.8066 16.8824Z" fill="#02BDD5"/>
</g>
<circle cx="17" cy="17" r="16.5" stroke="#02BDD5"/>
<defs>
<clipPath id="clip0_717_591">
<rect width="14" height="14" fill="white" transform="translate(10 10)"/>
</clipPath>
</defs>
</svg>
